%TF.GenerationSoftware,KiCad,Pcbnew,(5.1.9-0-10_14)*%
%TF.CreationDate,2022-01-19T22:12:48+09:00*%
%TF.ProjectId,BalancedDriverBoard,42616c61-6e63-4656-9444-726976657242,rev?*%
%TF.SameCoordinates,Original*%
%TF.FileFunction,Copper,L2,Bot*%
%TF.FilePolarity,Positive*%
%FSLAX45Y45*%
G04 Gerber Fmt 4.5, Leading zero omitted, Abs format (unit mm)*
G04 Created by KiCad (PCBNEW (5.1.9-0-10_14)) date 2022-01-19 22:12:48*
%MOMM*%
%LPD*%
G01*
G04 APERTURE LIST*
%TA.AperFunction,ComponentPad*%
%ADD10C,2.500000*%
%TD*%
%TA.AperFunction,ComponentPad*%
%ADD11R,2.500000X2.500000*%
%TD*%
%TA.AperFunction,ComponentPad*%
%ADD12R,1.600000X1.600000*%
%TD*%
%TA.AperFunction,ComponentPad*%
%ADD13C,1.600000*%
%TD*%
%TA.AperFunction,ComponentPad*%
%ADD14R,1.524000X1.524000*%
%TD*%
%TA.AperFunction,ComponentPad*%
%ADD15C,6.400000*%
%TD*%
%TA.AperFunction,ComponentPad*%
%ADD16O,1.700000X1.950000*%
%TD*%
%TA.AperFunction,ComponentPad*%
%ADD17R,1.700000X1.700000*%
%TD*%
%TA.AperFunction,ComponentPad*%
%ADD18O,1.700000X1.700000*%
%TD*%
%TA.AperFunction,ComponentPad*%
%ADD19C,0.800000*%
%TD*%
%TA.AperFunction,ViaPad*%
%ADD20C,0.800000*%
%TD*%
%TA.AperFunction,Conductor*%
%ADD21C,0.300000*%
%TD*%
%TA.AperFunction,Conductor*%
%ADD22C,0.600000*%
%TD*%
%TA.AperFunction,Conductor*%
%ADD23C,0.800000*%
%TD*%
%TA.AperFunction,Conductor*%
%ADD24C,0.400000*%
%TD*%
%TA.AperFunction,Conductor*%
%ADD25C,0.254000*%
%TD*%
%TA.AperFunction,Conductor*%
%ADD26C,0.100000*%
%TD*%
G04 APERTURE END LIST*
D10*
X14050000Y-12399000D03*
X14450000Y-12800000D03*
D11*
X13650000Y-12800000D03*
X10950000Y-12800000D03*
D10*
X11750000Y-12800000D03*
X11350000Y-12399000D03*
D11*
X8250000Y-12800000D03*
D10*
X9050000Y-12800000D03*
X8650000Y-12399000D03*
X5950000Y-12399000D03*
X6350000Y-12800000D03*
D11*
X5550000Y-12800000D03*
D12*
X14478000Y-9906000D03*
D13*
X14478000Y-9706000D03*
D14*
X14478000Y-10206000D03*
D12*
X12954000Y-9906000D03*
D13*
X12954000Y-9706000D03*
D14*
X12954000Y-10206000D03*
X10541000Y-10206000D03*
D13*
X10541000Y-9706000D03*
D12*
X10541000Y-9906000D03*
X11938000Y-9906000D03*
D13*
X11938000Y-9706000D03*
D14*
X11938000Y-10206000D03*
X9398000Y-10206000D03*
D13*
X9398000Y-9706000D03*
D12*
X9398000Y-9906000D03*
D14*
X7937500Y-10206000D03*
D13*
X7937500Y-9706000D03*
D12*
X7937500Y-9906000D03*
X5461000Y-9900000D03*
D13*
X5461000Y-9700000D03*
D14*
X5461000Y-10200000D03*
X7048500Y-10206000D03*
D13*
X7048500Y-9706000D03*
D12*
X7048500Y-9906000D03*
D13*
X12963500Y-11557000D03*
D12*
X12763500Y-11557000D03*
X10287000Y-11557000D03*
D13*
X10487000Y-11557000D03*
D12*
X7747000Y-11557000D03*
D13*
X7947000Y-11557000D03*
D12*
X5270500Y-11557000D03*
D13*
X5470500Y-11557000D03*
D12*
X14541500Y-11557000D03*
D13*
X14741500Y-11557000D03*
X12265000Y-11557000D03*
D12*
X12065000Y-11557000D03*
D13*
X9725000Y-11557000D03*
D12*
X9525000Y-11557000D03*
D13*
X7185000Y-11557000D03*
D12*
X6985000Y-11557000D03*
X13600000Y-9200000D03*
D13*
X13850000Y-9200000D03*
D12*
X13532906Y-9040000D03*
D13*
X13917094Y-9360000D03*
X6467094Y-9360000D03*
D12*
X6082906Y-9040000D03*
D13*
X6400000Y-9200000D03*
D12*
X6150000Y-9200000D03*
D15*
X12700000Y-12700000D03*
X5350000Y-8950000D03*
X14650000Y-8950000D03*
D16*
X12603100Y-8953500D03*
X12353100Y-8953500D03*
%TA.AperFunction,ComponentPad*%
G36*
G01*
X12018100Y-9026000D02*
X12018100Y-8881000D01*
G75*
G02*
X12043100Y-8856000I25000J0D01*
G01*
X12163100Y-8856000D01*
G75*
G02*
X12188100Y-8881000I0J-25000D01*
G01*
X12188100Y-9026000D01*
G75*
G02*
X12163100Y-9051000I-25000J0D01*
G01*
X12043100Y-9051000D01*
G75*
G02*
X12018100Y-9026000I0J25000D01*
G01*
G37*
%TD.AperFunction*%
%TA.AperFunction,ComponentPad*%
G36*
G01*
X7217500Y-9026000D02*
X7217500Y-8881000D01*
G75*
G02*
X7242500Y-8856000I25000J0D01*
G01*
X7362500Y-8856000D01*
G75*
G02*
X7387500Y-8881000I0J-25000D01*
G01*
X7387500Y-9026000D01*
G75*
G02*
X7362500Y-9051000I-25000J0D01*
G01*
X7242500Y-9051000D01*
G75*
G02*
X7217500Y-9026000I0J25000D01*
G01*
G37*
%TD.AperFunction*%
X7552500Y-8953500D03*
X7802500Y-8953500D03*
D17*
X8382000Y-8890000D03*
D18*
X8636000Y-8890000D03*
X8890000Y-8890000D03*
D19*
X14819706Y-14430294D03*
X14650000Y-14360000D03*
X14480294Y-14430294D03*
X14410000Y-14600000D03*
X14480294Y-14769706D03*
X14650000Y-14840000D03*
X14819706Y-14769706D03*
X14890000Y-14600000D03*
D15*
X14650000Y-14600000D03*
X7300000Y-12700000D03*
X5350000Y-14600000D03*
D18*
X13704000Y-12450000D03*
D17*
X13450000Y-12450000D03*
X10750000Y-12450000D03*
D18*
X11004000Y-12450000D03*
X8304000Y-12450000D03*
D17*
X8050000Y-12450000D03*
X5350000Y-12450000D03*
D18*
X5604000Y-12450000D03*
D20*
X9850000Y-10050000D03*
X8750300Y-9664700D03*
X8572500Y-9842500D03*
X13766860Y-11256280D03*
X11372910Y-11231500D03*
X8753870Y-11293430D03*
X6305750Y-11296790D03*
X8458200Y-9734550D03*
X8642350Y-9550400D03*
X10033000Y-9144000D03*
X9652000Y-9144000D03*
X10795000Y-10604500D03*
X13271500Y-10604500D03*
X8255000Y-10604500D03*
X5842000Y-10604500D03*
X10720180Y-8824050D03*
X10082740Y-8851070D03*
D21*
X14478000Y-10206000D02*
X14478000Y-9906000D01*
X12603100Y-8953500D02*
X12723130Y-8953500D01*
X12723130Y-8953500D02*
X13475630Y-9706000D01*
X13475630Y-9706000D02*
X14478000Y-9706000D01*
X12954000Y-10206000D02*
X12954000Y-9906000D01*
X10541000Y-9706000D02*
X11600600Y-9706000D01*
X11600600Y-9706000D02*
X12353100Y-8953500D01*
D22*
X10541000Y-9906000D02*
X10541000Y-10206000D01*
D21*
X11938000Y-10206000D02*
X11938000Y-9906000D01*
X7802500Y-8953500D02*
X7922530Y-8953500D01*
X7922530Y-8953500D02*
X8042560Y-9073530D01*
X8042560Y-9073530D02*
X8765530Y-9073530D01*
X8765530Y-9073530D02*
X9398000Y-9706000D01*
D22*
X7937500Y-9906000D02*
X7937500Y-10206000D01*
D21*
X5461000Y-9700000D02*
X5570000Y-9591000D01*
X5570000Y-9591000D02*
X6915000Y-9591000D01*
X6915000Y-9591000D02*
X7552500Y-8953500D01*
X5461000Y-10200000D02*
X5461000Y-9900000D01*
X7048500Y-10206000D02*
X7048500Y-9906000D01*
X13532910Y-9040000D02*
X13532900Y-9040000D01*
D23*
X8890000Y-8890000D02*
X8890000Y-8763000D01*
X8890000Y-8763000D02*
X8990500Y-8662500D01*
X8990500Y-8662500D02*
X13155400Y-8662500D01*
X13155400Y-8662500D02*
X13532900Y-9040000D01*
D22*
X8572500Y-9842500D02*
X8750300Y-9664700D01*
D23*
X6082910Y-9040000D02*
X6082910Y-8991990D01*
X6082910Y-8991990D02*
X6412400Y-8662500D01*
X6412400Y-8662500D02*
X8662500Y-8662500D01*
X8662500Y-8662500D02*
X8890000Y-8890000D01*
D21*
X13766860Y-11256280D02*
X13264220Y-11256280D01*
X13264220Y-11256280D02*
X12963500Y-11557000D01*
X11372910Y-11231500D02*
X10812500Y-11231500D01*
X10812500Y-11231500D02*
X10487000Y-11557000D01*
X8753870Y-11293430D02*
X8210570Y-11293430D01*
X8210570Y-11293430D02*
X7947000Y-11557000D01*
X6305750Y-11296790D02*
X5730710Y-11296790D01*
X5730710Y-11296790D02*
X5470500Y-11557000D01*
X8642350Y-9550400D02*
X8458200Y-9734550D01*
D24*
X8255000Y-10604500D02*
X8756650Y-10604500D01*
X8756650Y-10604500D02*
X9290050Y-10071100D01*
X9290050Y-10071100D02*
X9464900Y-10071100D01*
X9464900Y-10071100D02*
X9652000Y-9884000D01*
X9652000Y-9884000D02*
X9652000Y-9144000D01*
X10795000Y-10604500D02*
X10604500Y-10604500D01*
X10604500Y-10604500D02*
X10033000Y-10033000D01*
X10033000Y-10033000D02*
X10033000Y-9144000D01*
X13271500Y-10604500D02*
X10795000Y-10604500D01*
X5842000Y-10604500D02*
X8255000Y-10604500D01*
D21*
X10720180Y-8824050D02*
X10109760Y-8824050D01*
X10109760Y-8824050D02*
X10082740Y-8851070D01*
X14480290Y-14769710D02*
X14410000Y-14699420D01*
X14410000Y-14699420D02*
X14410000Y-14600000D01*
X14410000Y-14600000D02*
X14480290Y-14529710D01*
X14480290Y-14529710D02*
X14480290Y-14430290D01*
X14890000Y-14600000D02*
X14819710Y-14529710D01*
X14819710Y-14529710D02*
X14819710Y-14430290D01*
X14890000Y-14600000D02*
X14819710Y-14670290D01*
X14819710Y-14670290D02*
X14819710Y-14769710D01*
D25*
X6032336Y-8896193D02*
X6002906Y-8896193D01*
X5990458Y-8897419D01*
X5978488Y-8901050D01*
X5967457Y-8906946D01*
X5957788Y-8914882D01*
X5949853Y-8924551D01*
X5943956Y-8935582D01*
X5940325Y-8947552D01*
X5939099Y-8960000D01*
X5939099Y-9120000D01*
X5940325Y-9132448D01*
X5943956Y-9144418D01*
X5949853Y-9155449D01*
X5957788Y-9165119D01*
X5967457Y-9173054D01*
X5978488Y-9178950D01*
X5990458Y-9182581D01*
X6002906Y-9183807D01*
X6006193Y-9183807D01*
X6006193Y-9280000D01*
X6007419Y-9292448D01*
X6011050Y-9304418D01*
X6016946Y-9315449D01*
X6024881Y-9325119D01*
X6034551Y-9333054D01*
X6045582Y-9338950D01*
X6057552Y-9342581D01*
X6070000Y-9343807D01*
X6230000Y-9343807D01*
X6242448Y-9342581D01*
X6254418Y-9338950D01*
X6265449Y-9333054D01*
X6275118Y-9325119D01*
X6283054Y-9315449D01*
X6288950Y-9304418D01*
X6290512Y-9299270D01*
X6318690Y-9299270D01*
X6325849Y-9323667D01*
X6328006Y-9324688D01*
X6324464Y-9338818D01*
X6323072Y-9367051D01*
X6327215Y-9395013D01*
X6336733Y-9421629D01*
X6343427Y-9434151D01*
X6367823Y-9441310D01*
X6449133Y-9360000D01*
X6485054Y-9360000D01*
X6566364Y-9441310D01*
X6590761Y-9434151D01*
X6602851Y-9408600D01*
X6609724Y-9381182D01*
X6611115Y-9352949D01*
X6606972Y-9324987D01*
X6597454Y-9298371D01*
X6590761Y-9285849D01*
X6566364Y-9278690D01*
X6485054Y-9360000D01*
X6449133Y-9360000D01*
X6447719Y-9358586D01*
X6465679Y-9340625D01*
X6467094Y-9342040D01*
X6548403Y-9260730D01*
X6541245Y-9236333D01*
X6539088Y-9235312D01*
X6542630Y-9221182D01*
X6544022Y-9192949D01*
X6539879Y-9164987D01*
X6530360Y-9138371D01*
X6523667Y-9125849D01*
X6499270Y-9118690D01*
X6417960Y-9200000D01*
X6419375Y-9201414D01*
X6401414Y-9219375D01*
X6400000Y-9217961D01*
X6318690Y-9299270D01*
X6290512Y-9299270D01*
X6292581Y-9292448D01*
X6293807Y-9280000D01*
X6293807Y-9279279D01*
X6300730Y-9281310D01*
X6382039Y-9200000D01*
X6300730Y-9118690D01*
X6293807Y-9120722D01*
X6293807Y-9120000D01*
X6292581Y-9107552D01*
X6290512Y-9100730D01*
X6318690Y-9100730D01*
X6400000Y-9182040D01*
X6481310Y-9100730D01*
X6474151Y-9076333D01*
X6448600Y-9064243D01*
X6421182Y-9057370D01*
X6392949Y-9055978D01*
X6364987Y-9060121D01*
X6338371Y-9069640D01*
X6325849Y-9076333D01*
X6318690Y-9100730D01*
X6290512Y-9100730D01*
X6288950Y-9095582D01*
X6283054Y-9084551D01*
X6275118Y-9074882D01*
X6265449Y-9066946D01*
X6254418Y-9061050D01*
X6242448Y-9057419D01*
X6230000Y-9056193D01*
X6226713Y-9056193D01*
X6226713Y-8994558D01*
X6455271Y-8766000D01*
X8246860Y-8766000D01*
X8243946Y-8769551D01*
X8238050Y-8780582D01*
X8234419Y-8792552D01*
X8233193Y-8805000D01*
X8233500Y-8861425D01*
X8249375Y-8877300D01*
X8369300Y-8877300D01*
X8369300Y-8875300D01*
X8394700Y-8875300D01*
X8394700Y-8877300D01*
X8396700Y-8877300D01*
X8396700Y-8902700D01*
X8394700Y-8902700D01*
X8394700Y-8904700D01*
X8369300Y-8904700D01*
X8369300Y-8902700D01*
X8249375Y-8902700D01*
X8233500Y-8918575D01*
X8233193Y-8975000D01*
X8234419Y-8987448D01*
X8236719Y-8995030D01*
X8075076Y-8995030D01*
X7980765Y-8900719D01*
X7978306Y-8897724D01*
X7966353Y-8887914D01*
X7952716Y-8880625D01*
X7937919Y-8876136D01*
X7936117Y-8875958D01*
X7926571Y-8858099D01*
X7908013Y-8835487D01*
X7885401Y-8816929D01*
X7859603Y-8803140D01*
X7831611Y-8794649D01*
X7802500Y-8791782D01*
X7773389Y-8794649D01*
X7745397Y-8803140D01*
X7719599Y-8816929D01*
X7696987Y-8835487D01*
X7678429Y-8858099D01*
X7677500Y-8859837D01*
X7676571Y-8858099D01*
X7658013Y-8835487D01*
X7635401Y-8816929D01*
X7609603Y-8803140D01*
X7581611Y-8794649D01*
X7552500Y-8791782D01*
X7523389Y-8794649D01*
X7495397Y-8803140D01*
X7469599Y-8816929D01*
X7446987Y-8835487D01*
X7441778Y-8841834D01*
X7436340Y-8831661D01*
X7425296Y-8818204D01*
X7411839Y-8807160D01*
X7396485Y-8798953D01*
X7379825Y-8793899D01*
X7362500Y-8792193D01*
X7242500Y-8792193D01*
X7225175Y-8793899D01*
X7208515Y-8798953D01*
X7193161Y-8807160D01*
X7179704Y-8818204D01*
X7168659Y-8831661D01*
X7160453Y-8847015D01*
X7155399Y-8863675D01*
X7153693Y-8881000D01*
X7153693Y-9026000D01*
X7154087Y-9030000D01*
X7130336Y-9030000D01*
X7106476Y-9034746D01*
X7084001Y-9044056D01*
X7063773Y-9057571D01*
X7046571Y-9074773D01*
X7033056Y-9095001D01*
X7023746Y-9117476D01*
X7019000Y-9141336D01*
X7019000Y-9165664D01*
X7023746Y-9189524D01*
X7033056Y-9211999D01*
X7046571Y-9232227D01*
X7063773Y-9249429D01*
X7084001Y-9262944D01*
X7106476Y-9272254D01*
X7120034Y-9274951D01*
X6882484Y-9512500D01*
X5573856Y-9512500D01*
X5570000Y-9512120D01*
X5566144Y-9512500D01*
X5566144Y-9512500D01*
X5562103Y-9512898D01*
X5554611Y-9513636D01*
X5539814Y-9518125D01*
X5526177Y-9525414D01*
X5514224Y-9535224D01*
X5511766Y-9538219D01*
X5490440Y-9559545D01*
X5475134Y-9556500D01*
X5446867Y-9556500D01*
X5419143Y-9562015D01*
X5393027Y-9572832D01*
X5369524Y-9588536D01*
X5349536Y-9608524D01*
X5333832Y-9632027D01*
X5323015Y-9658143D01*
X5317500Y-9685867D01*
X5317500Y-9714134D01*
X5323015Y-9741857D01*
X5333832Y-9767973D01*
X5337539Y-9773521D01*
X5335882Y-9774882D01*
X5327946Y-9784551D01*
X5322050Y-9795582D01*
X5318419Y-9807552D01*
X5317193Y-9820000D01*
X5317193Y-9980000D01*
X5318419Y-9992448D01*
X5322050Y-10004418D01*
X5327946Y-10015449D01*
X5335882Y-10025119D01*
X5345551Y-10033054D01*
X5356582Y-10038950D01*
X5368552Y-10042581D01*
X5381000Y-10043807D01*
X5382500Y-10043807D01*
X5382500Y-10060219D01*
X5372352Y-10061219D01*
X5360382Y-10064850D01*
X5349351Y-10070746D01*
X5339682Y-10078682D01*
X5331746Y-10088351D01*
X5325850Y-10099382D01*
X5322219Y-10111352D01*
X5320993Y-10123800D01*
X5320993Y-10276200D01*
X5322219Y-10288648D01*
X5325850Y-10300618D01*
X5331746Y-10311649D01*
X5339682Y-10321319D01*
X5349351Y-10329254D01*
X5360382Y-10335150D01*
X5372352Y-10338781D01*
X5384800Y-10340007D01*
X5537200Y-10340007D01*
X5549648Y-10338781D01*
X5561618Y-10335150D01*
X5572649Y-10329254D01*
X5582319Y-10321319D01*
X5590254Y-10311649D01*
X5596150Y-10300618D01*
X5599781Y-10288648D01*
X5601007Y-10276200D01*
X5601007Y-10123800D01*
X5599781Y-10111352D01*
X5596150Y-10099382D01*
X5590254Y-10088351D01*
X5582319Y-10078682D01*
X5572649Y-10070746D01*
X5561618Y-10064850D01*
X5549648Y-10061219D01*
X5539500Y-10060219D01*
X5539500Y-10043807D01*
X5541000Y-10043807D01*
X5553448Y-10042581D01*
X5565418Y-10038950D01*
X5576449Y-10033054D01*
X5586119Y-10025119D01*
X5594054Y-10015449D01*
X5599950Y-10004418D01*
X5603581Y-9992448D01*
X5604807Y-9980000D01*
X5604807Y-9820000D01*
X5603581Y-9807552D01*
X5599950Y-9795582D01*
X5594054Y-9784551D01*
X5586119Y-9774882D01*
X5584461Y-9773521D01*
X5588168Y-9767973D01*
X5598985Y-9741857D01*
X5604500Y-9714134D01*
X5604500Y-9685867D01*
X5601455Y-9670560D01*
X5602516Y-9669500D01*
X6909449Y-9669500D01*
X6905000Y-9691867D01*
X6905000Y-9720134D01*
X6910515Y-9747857D01*
X6921332Y-9773973D01*
X6925039Y-9779521D01*
X6923381Y-9780882D01*
X6915446Y-9790551D01*
X6909550Y-9801582D01*
X6905919Y-9813552D01*
X6904693Y-9826000D01*
X6904693Y-9986000D01*
X6905919Y-9998448D01*
X6909550Y-10010418D01*
X6915446Y-10021449D01*
X6923381Y-10031119D01*
X6933051Y-10039054D01*
X6944082Y-10044950D01*
X6956052Y-10048581D01*
X6968500Y-10049807D01*
X6970000Y-10049807D01*
X6970000Y-10066219D01*
X6959852Y-10067219D01*
X6947882Y-10070850D01*
X6936851Y-10076746D01*
X6927181Y-10084682D01*
X6919246Y-10094351D01*
X6913350Y-10105382D01*
X6909719Y-10117352D01*
X6908493Y-10129800D01*
X6908493Y-10282200D01*
X6909719Y-10294648D01*
X6913350Y-10306618D01*
X6919246Y-10317649D01*
X6927181Y-10327319D01*
X6936851Y-10335254D01*
X6947882Y-10341150D01*
X6959852Y-10344781D01*
X6972300Y-10346007D01*
X7124700Y-10346007D01*
X7137148Y-10344781D01*
X7149118Y-10341150D01*
X7160149Y-10335254D01*
X7169818Y-10327319D01*
X7177754Y-10317649D01*
X7183650Y-10306618D01*
X7187281Y-10294648D01*
X7188507Y-10282200D01*
X7188507Y-10129800D01*
X7187281Y-10117352D01*
X7183650Y-10105382D01*
X7177754Y-10094351D01*
X7169818Y-10084682D01*
X7160149Y-10076746D01*
X7149118Y-10070850D01*
X7137148Y-10067219D01*
X7127000Y-10066219D01*
X7127000Y-10049807D01*
X7128500Y-10049807D01*
X7140948Y-10048581D01*
X7152918Y-10044950D01*
X7163949Y-10039054D01*
X7173618Y-10031119D01*
X7181554Y-10021449D01*
X7187450Y-10010418D01*
X7191081Y-9998448D01*
X7192307Y-9986000D01*
X7192307Y-9826000D01*
X7793693Y-9826000D01*
X7793693Y-9986000D01*
X7794919Y-9998448D01*
X7798550Y-10010418D01*
X7804446Y-10021449D01*
X7812381Y-10031119D01*
X7822051Y-10039054D01*
X7833082Y-10044950D01*
X7844000Y-10048262D01*
X7844000Y-10068691D01*
X7836882Y-10070850D01*
X7825851Y-10076746D01*
X7816181Y-10084682D01*
X7808246Y-10094351D01*
X7802350Y-10105382D01*
X7798719Y-10117352D01*
X7797493Y-10129800D01*
X7797493Y-10282200D01*
X7798719Y-10294648D01*
X7802350Y-10306618D01*
X7808246Y-10317649D01*
X7816181Y-10327319D01*
X7825851Y-10335254D01*
X7836882Y-10341150D01*
X7848852Y-10344781D01*
X7861300Y-10346007D01*
X8013700Y-10346007D01*
X8026148Y-10344781D01*
X8038118Y-10341150D01*
X8049149Y-10335254D01*
X8058818Y-10327319D01*
X8066754Y-10317649D01*
X8072650Y-10306618D01*
X8076281Y-10294648D01*
X8077507Y-10282200D01*
X8077507Y-10129800D01*
X8076281Y-10117352D01*
X8072650Y-10105382D01*
X8066754Y-10094351D01*
X8058818Y-10084682D01*
X8049149Y-10076746D01*
X8038118Y-10070850D01*
X8031000Y-10068691D01*
X8031000Y-10048262D01*
X8041918Y-10044950D01*
X8052949Y-10039054D01*
X8062618Y-10031119D01*
X8070554Y-10021449D01*
X8076450Y-10010418D01*
X8080081Y-9998448D01*
X8081307Y-9986000D01*
X8081307Y-9826000D01*
X8080081Y-9813552D01*
X8076450Y-9801582D01*
X8070554Y-9790551D01*
X8062618Y-9780882D01*
X8060961Y-9779521D01*
X8064668Y-9773973D01*
X8075485Y-9747857D01*
X8080160Y-9724356D01*
X8354700Y-9724356D01*
X8354700Y-9744744D01*
X8358677Y-9764740D01*
X8366479Y-9783576D01*
X8377806Y-9800527D01*
X8392223Y-9814944D01*
X8409174Y-9826271D01*
X8428010Y-9834073D01*
X8448006Y-9838050D01*
X8468394Y-9838050D01*
X8469000Y-9837929D01*
X8469000Y-9852694D01*
X8472977Y-9872690D01*
X8480780Y-9891526D01*
X8492106Y-9908477D01*
X8506523Y-9922894D01*
X8523474Y-9934221D01*
X8542310Y-9942023D01*
X8562306Y-9946000D01*
X8582694Y-9946000D01*
X8602690Y-9942023D01*
X8621526Y-9934221D01*
X8638477Y-9922894D01*
X8652894Y-9908477D01*
X8664221Y-9891526D01*
X8670243Y-9876986D01*
X8784786Y-9762443D01*
X8799326Y-9756421D01*
X8816277Y-9745094D01*
X8830694Y-9730677D01*
X8842021Y-9713726D01*
X8849823Y-9694890D01*
X8853800Y-9674894D01*
X8853800Y-9654506D01*
X8849823Y-9634510D01*
X8842021Y-9615674D01*
X8830694Y-9598723D01*
X8816277Y-9584306D01*
X8799326Y-9572980D01*
X8780490Y-9565177D01*
X8760494Y-9561200D01*
X8745729Y-9561200D01*
X8745850Y-9560594D01*
X8745850Y-9540206D01*
X8741873Y-9520210D01*
X8734071Y-9501374D01*
X8722744Y-9484423D01*
X8708327Y-9470006D01*
X8691376Y-9458680D01*
X8672540Y-9450877D01*
X8652544Y-9446900D01*
X8632156Y-9446900D01*
X8612160Y-9450877D01*
X8593324Y-9458680D01*
X8576373Y-9470006D01*
X8561956Y-9484423D01*
X8550630Y-9501374D01*
X8542827Y-9520210D01*
X8538850Y-9540206D01*
X8538850Y-9542884D01*
X8450684Y-9631050D01*
X8448006Y-9631050D01*
X8428010Y-9635027D01*
X8409174Y-9642830D01*
X8392223Y-9654156D01*
X8377806Y-9668573D01*
X8366479Y-9685524D01*
X8358677Y-9704360D01*
X8354700Y-9724356D01*
X8080160Y-9724356D01*
X8081000Y-9720134D01*
X8081000Y-9691867D01*
X8075485Y-9664143D01*
X8064668Y-9638027D01*
X8048964Y-9614524D01*
X8028976Y-9594536D01*
X8005473Y-9578832D01*
X7979357Y-9568015D01*
X7951633Y-9562500D01*
X7923366Y-9562500D01*
X7895643Y-9568015D01*
X7869527Y-9578832D01*
X7846024Y-9594536D01*
X7826036Y-9614524D01*
X7810332Y-9638027D01*
X7799515Y-9664143D01*
X7794000Y-9691867D01*
X7794000Y-9720134D01*
X7799515Y-9747857D01*
X7810332Y-9773973D01*
X7814039Y-9779521D01*
X7812381Y-9780882D01*
X7804446Y-9790551D01*
X7798550Y-9801582D01*
X7794919Y-9813552D01*
X7793693Y-9826000D01*
X7192307Y-9826000D01*
X7191081Y-9813552D01*
X7187450Y-9801582D01*
X7181554Y-9790551D01*
X7173618Y-9780882D01*
X7171961Y-9779521D01*
X7175668Y-9773973D01*
X7186485Y-9747857D01*
X7192000Y-9720134D01*
X7192000Y-9691867D01*
X7186485Y-9664143D01*
X7175668Y-9638027D01*
X7159964Y-9614524D01*
X7139976Y-9594536D01*
X7116473Y-9578832D01*
X7090357Y-9568015D01*
X7062633Y-9562500D01*
X7054516Y-9562500D01*
X7509022Y-9107993D01*
X7523389Y-9112351D01*
X7552500Y-9115219D01*
X7581611Y-9112351D01*
X7609603Y-9103860D01*
X7635401Y-9090071D01*
X7658013Y-9071513D01*
X7676571Y-9048901D01*
X7677500Y-9047163D01*
X7678429Y-9048901D01*
X7696987Y-9071513D01*
X7719599Y-9090071D01*
X7745397Y-9103860D01*
X7773389Y-9112351D01*
X7802500Y-9115219D01*
X7831611Y-9112351D01*
X7859603Y-9103860D01*
X7885401Y-9090071D01*
X7908013Y-9071513D01*
X7917711Y-9059697D01*
X7984325Y-9126311D01*
X7986784Y-9129306D01*
X7998737Y-9139116D01*
X8012374Y-9146405D01*
X8027171Y-9150894D01*
X8034663Y-9151632D01*
X8038704Y-9152030D01*
X8038704Y-9152030D01*
X8042560Y-9152410D01*
X8046416Y-9152030D01*
X8733014Y-9152030D01*
X9257545Y-9676560D01*
X9254500Y-9691867D01*
X9254500Y-9720134D01*
X9260015Y-9747857D01*
X9270832Y-9773973D01*
X9274539Y-9779521D01*
X9272882Y-9780882D01*
X9264946Y-9790551D01*
X9259050Y-9801582D01*
X9255419Y-9813552D01*
X9254193Y-9826000D01*
X9254193Y-9986000D01*
X9255090Y-9995107D01*
X9243435Y-10001336D01*
X9230721Y-10011771D01*
X9228106Y-10014957D01*
X8722063Y-10521000D01*
X8316328Y-10521000D01*
X8304026Y-10512780D01*
X8285190Y-10504977D01*
X8265194Y-10501000D01*
X8244806Y-10501000D01*
X8224810Y-10504977D01*
X8205974Y-10512780D01*
X8193671Y-10521000D01*
X5903328Y-10521000D01*
X5891026Y-10512780D01*
X5872190Y-10504977D01*
X5852194Y-10501000D01*
X5831806Y-10501000D01*
X5811810Y-10504977D01*
X5792974Y-10512780D01*
X5776023Y-10524106D01*
X5761606Y-10538523D01*
X5750279Y-10555474D01*
X5742477Y-10574310D01*
X5738500Y-10594306D01*
X5738500Y-10614694D01*
X5742477Y-10634690D01*
X5750279Y-10653526D01*
X5761606Y-10670477D01*
X5776023Y-10684894D01*
X5792974Y-10696221D01*
X5811810Y-10704023D01*
X5831806Y-10708000D01*
X5852194Y-10708000D01*
X5872190Y-10704023D01*
X5891026Y-10696221D01*
X5903328Y-10688000D01*
X8193671Y-10688000D01*
X8205974Y-10696221D01*
X8224810Y-10704023D01*
X8244806Y-10708000D01*
X8265194Y-10708000D01*
X8285190Y-10704023D01*
X8304026Y-10696221D01*
X8316328Y-10688000D01*
X8752548Y-10688000D01*
X8756650Y-10688404D01*
X8760752Y-10688000D01*
X8760752Y-10688000D01*
X8773019Y-10686792D01*
X8788759Y-10682017D01*
X8803265Y-10674264D01*
X8815979Y-10663829D01*
X8818595Y-10660642D01*
X9257993Y-10221244D01*
X9257993Y-10282200D01*
X9259219Y-10294648D01*
X9262850Y-10306618D01*
X9268746Y-10317649D01*
X9276682Y-10327319D01*
X9286351Y-10335254D01*
X9297382Y-10341150D01*
X9309352Y-10344781D01*
X9321800Y-10346007D01*
X9474200Y-10346007D01*
X9486648Y-10344781D01*
X9498618Y-10341150D01*
X9509649Y-10335254D01*
X9519319Y-10327319D01*
X9527254Y-10317649D01*
X9533150Y-10306618D01*
X9536781Y-10294648D01*
X9538007Y-10282200D01*
X9538007Y-10129800D01*
X9536781Y-10117352D01*
X9536770Y-10117316D01*
X9708143Y-9945944D01*
X9711329Y-9943329D01*
X9721764Y-9930615D01*
X9729517Y-9916109D01*
X9734292Y-9900369D01*
X9735500Y-9888102D01*
X9735500Y-9888102D01*
X9735904Y-9884000D01*
X9735500Y-9879898D01*
X9735500Y-9205329D01*
X9743721Y-9193026D01*
X9751523Y-9174190D01*
X9755500Y-9154194D01*
X9755500Y-9133806D01*
X9929500Y-9133806D01*
X9929500Y-9154194D01*
X9933477Y-9174190D01*
X9941280Y-9193026D01*
X9949500Y-9205329D01*
X9949500Y-10028898D01*
X9949096Y-10033000D01*
X9949686Y-10038991D01*
X9950708Y-10049369D01*
X9955483Y-10065109D01*
X9963236Y-10079615D01*
X9973671Y-10092329D01*
X9976858Y-10094945D01*
X10542556Y-10660643D01*
X10545171Y-10663829D01*
X10557885Y-10674264D01*
X10572391Y-10682017D01*
X10588131Y-10686792D01*
X10600398Y-10688000D01*
X10600398Y-10688000D01*
X10604500Y-10688404D01*
X10608602Y-10688000D01*
X10733672Y-10688000D01*
X10745974Y-10696221D01*
X10764810Y-10704023D01*
X10784806Y-10708000D01*
X10805194Y-10708000D01*
X10825190Y-10704023D01*
X10844026Y-10696221D01*
X10856329Y-10688000D01*
X13210171Y-10688000D01*
X13222474Y-10696221D01*
X13241310Y-10704023D01*
X13261306Y-10708000D01*
X13281694Y-10708000D01*
X13301690Y-10704023D01*
X13320526Y-10696221D01*
X13337477Y-10684894D01*
X13351894Y-10670477D01*
X13363220Y-10653526D01*
X13371023Y-10634690D01*
X13375000Y-10614694D01*
X13375000Y-10594306D01*
X13371023Y-10574310D01*
X13363220Y-10555474D01*
X13351894Y-10538523D01*
X13337477Y-10524106D01*
X13320526Y-10512780D01*
X13301690Y-10504977D01*
X13281694Y-10501000D01*
X13261306Y-10501000D01*
X13241310Y-10504977D01*
X13222474Y-10512780D01*
X13210171Y-10521000D01*
X10856329Y-10521000D01*
X10844026Y-10512780D01*
X10825190Y-10504977D01*
X10805194Y-10501000D01*
X10784806Y-10501000D01*
X10764810Y-10504977D01*
X10745974Y-10512780D01*
X10733672Y-10521000D01*
X10639087Y-10521000D01*
X10464017Y-10345930D01*
X10464800Y-10346007D01*
X10617200Y-10346007D01*
X10629648Y-10344781D01*
X10641618Y-10341150D01*
X10652649Y-10335254D01*
X10662319Y-10327319D01*
X10670254Y-10317649D01*
X10676150Y-10306618D01*
X10679781Y-10294648D01*
X10681007Y-10282200D01*
X10681007Y-10129800D01*
X10679781Y-10117352D01*
X10676150Y-10105382D01*
X10670254Y-10094351D01*
X10662319Y-10084682D01*
X10652649Y-10076746D01*
X10641618Y-10070850D01*
X10634500Y-10068691D01*
X10634500Y-10048262D01*
X10645418Y-10044950D01*
X10656449Y-10039054D01*
X10666119Y-10031119D01*
X10674054Y-10021449D01*
X10679950Y-10010418D01*
X10683581Y-9998448D01*
X10684807Y-9986000D01*
X10684807Y-9826000D01*
X11794193Y-9826000D01*
X11794193Y-9986000D01*
X11795419Y-9998448D01*
X11799050Y-10010418D01*
X11804946Y-10021449D01*
X11812881Y-10031119D01*
X11822551Y-10039054D01*
X11833582Y-10044950D01*
X11845552Y-10048581D01*
X11858000Y-10049807D01*
X11859500Y-10049807D01*
X11859500Y-10066219D01*
X11849352Y-10067219D01*
X11837382Y-10070850D01*
X11826351Y-10076746D01*
X11816681Y-10084682D01*
X11808746Y-10094351D01*
X11802850Y-10105382D01*
X11799219Y-10117352D01*
X11797993Y-10129800D01*
X11797993Y-10282200D01*
X11799219Y-10294648D01*
X11802850Y-10306618D01*
X11808746Y-10317649D01*
X11816681Y-10327319D01*
X11826351Y-10335254D01*
X11837382Y-10341150D01*
X11849352Y-10344781D01*
X11861800Y-10346007D01*
X12014200Y-10346007D01*
X12026648Y-10344781D01*
X12038618Y-10341150D01*
X12049649Y-10335254D01*
X12059318Y-10327319D01*
X12067254Y-10317649D01*
X12073150Y-10306618D01*
X12076781Y-10294648D01*
X12078007Y-10282200D01*
X12078007Y-10129800D01*
X12076781Y-10117352D01*
X12073150Y-10105382D01*
X12067254Y-10094351D01*
X12059318Y-10084682D01*
X12049649Y-10076746D01*
X12038618Y-10070850D01*
X12026648Y-10067219D01*
X12016500Y-10066219D01*
X12016500Y-10049807D01*
X12018000Y-10049807D01*
X12030448Y-10048581D01*
X12042418Y-10044950D01*
X12053449Y-10039054D01*
X12063118Y-10031119D01*
X12071054Y-10021449D01*
X12076950Y-10010418D01*
X12080581Y-9998448D01*
X12081807Y-9986000D01*
X12081807Y-9826000D01*
X12810193Y-9826000D01*
X12810193Y-9986000D01*
X12811419Y-9998448D01*
X12815050Y-10010418D01*
X12820946Y-10021449D01*
X12828881Y-10031119D01*
X12838551Y-10039054D01*
X12849582Y-10044950D01*
X12861552Y-10048581D01*
X12874000Y-10049807D01*
X12875500Y-10049807D01*
X12875500Y-10066219D01*
X12865352Y-10067219D01*
X12853382Y-10070850D01*
X12842351Y-10076746D01*
X12832681Y-10084682D01*
X12824746Y-10094351D01*
X12818850Y-10105382D01*
X12815219Y-10117352D01*
X12813993Y-10129800D01*
X12813993Y-10282200D01*
X12815219Y-10294648D01*
X12818850Y-10306618D01*
X12824746Y-10317649D01*
X12832681Y-10327319D01*
X12842351Y-10335254D01*
X12853382Y-10341150D01*
X12865352Y-10344781D01*
X12877800Y-10346007D01*
X13030200Y-10346007D01*
X13042648Y-10344781D01*
X13054618Y-10341150D01*
X13065649Y-10335254D01*
X13075318Y-10327319D01*
X13083254Y-10317649D01*
X13089150Y-10306618D01*
X13092781Y-10294648D01*
X13094007Y-10282200D01*
X13094007Y-10129800D01*
X13092781Y-10117352D01*
X13089150Y-10105382D01*
X13083254Y-10094351D01*
X13075318Y-10084682D01*
X13065649Y-10076746D01*
X13054618Y-10070850D01*
X13042648Y-10067219D01*
X13032500Y-10066219D01*
X13032500Y-10049807D01*
X13034000Y-10049807D01*
X13046448Y-10048581D01*
X13058418Y-10044950D01*
X13069449Y-10039054D01*
X13079118Y-10031119D01*
X13087054Y-10021449D01*
X13092950Y-10010418D01*
X13096581Y-9998448D01*
X13097807Y-9986000D01*
X13097807Y-9826000D01*
X13096581Y-9813552D01*
X13092950Y-9801582D01*
X13087054Y-9790551D01*
X13079118Y-9780882D01*
X13077461Y-9779521D01*
X13081168Y-9773973D01*
X13091985Y-9747857D01*
X13097500Y-9720134D01*
X13097500Y-9691867D01*
X13091985Y-9664143D01*
X13081168Y-9638027D01*
X13065464Y-9614524D01*
X13045476Y-9594536D01*
X13021973Y-9578832D01*
X12995857Y-9568015D01*
X12968133Y-9562500D01*
X12939866Y-9562500D01*
X12912143Y-9568015D01*
X12886027Y-9578832D01*
X12862524Y-9594536D01*
X12842536Y-9614524D01*
X12826832Y-9638027D01*
X12816015Y-9664143D01*
X12810500Y-9691867D01*
X12810500Y-9720134D01*
X12816015Y-9747857D01*
X12826832Y-9773973D01*
X12830539Y-9779521D01*
X12828881Y-9780882D01*
X12820946Y-9790551D01*
X12815050Y-9801582D01*
X12811419Y-9813552D01*
X12810193Y-9826000D01*
X12081807Y-9826000D01*
X12080581Y-9813552D01*
X12076950Y-9801582D01*
X12071054Y-9790551D01*
X12063118Y-9780882D01*
X12061461Y-9779521D01*
X12065168Y-9773973D01*
X12075985Y-9747857D01*
X12081500Y-9720134D01*
X12081500Y-9691867D01*
X12075985Y-9664143D01*
X12065168Y-9638027D01*
X12049464Y-9614524D01*
X12029476Y-9594536D01*
X12005973Y-9578832D01*
X11979857Y-9568015D01*
X11952133Y-9562500D01*
X11923866Y-9562500D01*
X11896143Y-9568015D01*
X11870027Y-9578832D01*
X11846524Y-9594536D01*
X11826536Y-9614524D01*
X11810832Y-9638027D01*
X11800015Y-9664143D01*
X11794500Y-9691867D01*
X11794500Y-9720134D01*
X11800015Y-9747857D01*
X11810832Y-9773973D01*
X11814539Y-9779521D01*
X11812881Y-9780882D01*
X11804946Y-9790551D01*
X11799050Y-9801582D01*
X11795419Y-9813552D01*
X11794193Y-9826000D01*
X10684807Y-9826000D01*
X10683581Y-9813552D01*
X10679950Y-9801582D01*
X10674054Y-9790551D01*
X10669088Y-9784500D01*
X11596745Y-9784500D01*
X11600600Y-9784880D01*
X11604455Y-9784500D01*
X11604456Y-9784500D01*
X11615989Y-9783364D01*
X11630786Y-9778875D01*
X11644423Y-9771586D01*
X11656376Y-9761776D01*
X11658835Y-9758781D01*
X12309622Y-9107993D01*
X12323989Y-9112351D01*
X12353100Y-9115219D01*
X12382211Y-9112351D01*
X12410203Y-9103860D01*
X12436001Y-9090071D01*
X12458613Y-9071513D01*
X12477171Y-9048901D01*
X12478100Y-9047163D01*
X12479029Y-9048901D01*
X12497587Y-9071513D01*
X12520199Y-9090071D01*
X12545997Y-9103860D01*
X12573989Y-9112351D01*
X12603100Y-9115219D01*
X12632211Y-9112351D01*
X12660203Y-9103860D01*
X12686001Y-9090071D01*
X12708613Y-9071513D01*
X12718311Y-9059697D01*
X13417396Y-9758782D01*
X13419854Y-9761776D01*
X13422848Y-9764234D01*
X13422849Y-9764235D01*
X13425786Y-9766645D01*
X13431807Y-9771586D01*
X13445444Y-9778875D01*
X13460241Y-9783364D01*
X13471774Y-9784500D01*
X13471775Y-9784500D01*
X13475630Y-9784880D01*
X13479485Y-9784500D01*
X14349912Y-9784500D01*
X14344946Y-9790551D01*
X14339050Y-9801582D01*
X14335419Y-9813552D01*
X14334193Y-9826000D01*
X14334193Y-9986000D01*
X14335419Y-9998448D01*
X14339050Y-10010418D01*
X14344946Y-10021449D01*
X14352881Y-10031119D01*
X14362551Y-10039054D01*
X14373582Y-10044950D01*
X14385552Y-10048581D01*
X14398000Y-10049807D01*
X14399500Y-10049807D01*
X14399500Y-10066219D01*
X14389352Y-10067219D01*
X14377382Y-10070850D01*
X14366351Y-10076746D01*
X14356681Y-10084682D01*
X14348746Y-10094351D01*
X14342850Y-10105382D01*
X14339219Y-10117352D01*
X14337993Y-10129800D01*
X14337993Y-10282200D01*
X14339219Y-10294648D01*
X14342850Y-10306618D01*
X14348746Y-10317649D01*
X14356681Y-10327319D01*
X14366351Y-10335254D01*
X14377382Y-10341150D01*
X14389352Y-10344781D01*
X14401800Y-10346007D01*
X14554200Y-10346007D01*
X14566648Y-10344781D01*
X14578618Y-10341150D01*
X14589649Y-10335254D01*
X14599318Y-10327319D01*
X14607254Y-10317649D01*
X14613150Y-10306618D01*
X14616781Y-10294648D01*
X14618007Y-10282200D01*
X14618007Y-10129800D01*
X14616781Y-10117352D01*
X14613150Y-10105382D01*
X14607254Y-10094351D01*
X14599318Y-10084682D01*
X14589649Y-10076746D01*
X14578618Y-10070850D01*
X14566648Y-10067219D01*
X14556500Y-10066219D01*
X14556500Y-10049807D01*
X14558000Y-10049807D01*
X14570448Y-10048581D01*
X14582418Y-10044950D01*
X14593449Y-10039054D01*
X14603118Y-10031119D01*
X14611054Y-10021449D01*
X14616950Y-10010418D01*
X14620581Y-9998448D01*
X14621807Y-9986000D01*
X14621807Y-9826000D01*
X14620581Y-9813552D01*
X14616950Y-9801582D01*
X14611054Y-9790551D01*
X14603118Y-9780882D01*
X14601461Y-9779521D01*
X14605168Y-9773973D01*
X14615985Y-9747857D01*
X14621500Y-9720134D01*
X14621500Y-9691867D01*
X14615985Y-9664143D01*
X14605168Y-9638027D01*
X14589464Y-9614524D01*
X14569476Y-9594536D01*
X14545973Y-9578832D01*
X14519857Y-9568015D01*
X14492133Y-9562500D01*
X14463866Y-9562500D01*
X14436143Y-9568015D01*
X14410027Y-9578832D01*
X14386524Y-9594536D01*
X14366536Y-9614524D01*
X14357866Y-9627500D01*
X13508146Y-9627500D01*
X13339916Y-9459270D01*
X13835784Y-9459270D01*
X13842942Y-9483667D01*
X13868493Y-9495757D01*
X13895912Y-9502630D01*
X13924145Y-9504022D01*
X13952107Y-9499879D01*
X13978723Y-9490360D01*
X13991245Y-9483667D01*
X13998403Y-9459270D01*
X13917094Y-9377961D01*
X13835784Y-9459270D01*
X13339916Y-9459270D01*
X12781365Y-8900719D01*
X12778906Y-8897724D01*
X12766953Y-8887914D01*
X12753316Y-8880625D01*
X12738519Y-8876136D01*
X12736717Y-8875958D01*
X12727171Y-8858099D01*
X12708613Y-8835487D01*
X12686001Y-8816929D01*
X12660203Y-8803140D01*
X12632211Y-8794649D01*
X12603100Y-8791782D01*
X12573989Y-8794649D01*
X12545997Y-8803140D01*
X12520199Y-8816929D01*
X12497587Y-8835487D01*
X12479029Y-8858099D01*
X12478100Y-8859837D01*
X12477171Y-8858099D01*
X12458613Y-8835487D01*
X12436001Y-8816929D01*
X12410203Y-8803140D01*
X12382211Y-8794649D01*
X12353100Y-8791782D01*
X12323989Y-8794649D01*
X12295997Y-8803140D01*
X12270199Y-8816929D01*
X12247587Y-8835487D01*
X12242378Y-8841834D01*
X12236940Y-8831661D01*
X12225896Y-8818204D01*
X12212439Y-8807160D01*
X12197085Y-8798953D01*
X12180425Y-8793899D01*
X12163100Y-8792193D01*
X12043100Y-8792193D01*
X12025775Y-8793899D01*
X12009115Y-8798953D01*
X11993761Y-8807160D01*
X11980304Y-8818204D01*
X11969259Y-8831661D01*
X11961053Y-8847015D01*
X11955999Y-8863675D01*
X11954293Y-8881000D01*
X11954293Y-9026000D01*
X11954687Y-9030000D01*
X11930936Y-9030000D01*
X11907076Y-9034746D01*
X11884601Y-9044056D01*
X11864373Y-9057571D01*
X11847171Y-9074773D01*
X11833656Y-9095001D01*
X11824346Y-9117476D01*
X11819600Y-9141336D01*
X11819600Y-9165664D01*
X11824346Y-9189524D01*
X11833656Y-9211999D01*
X11847171Y-9232227D01*
X11864373Y-9249429D01*
X11884601Y-9262944D01*
X11907076Y-9272254D01*
X11920634Y-9274951D01*
X11568084Y-9627500D01*
X10661134Y-9627500D01*
X10652464Y-9614524D01*
X10632476Y-9594536D01*
X10608973Y-9578832D01*
X10582857Y-9568015D01*
X10555134Y-9562500D01*
X10526867Y-9562500D01*
X10499143Y-9568015D01*
X10473027Y-9578832D01*
X10449524Y-9594536D01*
X10429536Y-9614524D01*
X10413832Y-9638027D01*
X10403015Y-9664143D01*
X10397500Y-9691867D01*
X10397500Y-9720134D01*
X10403015Y-9747857D01*
X10413832Y-9773973D01*
X10417539Y-9779521D01*
X10415882Y-9780882D01*
X10407946Y-9790551D01*
X10402050Y-9801582D01*
X10398419Y-9813552D01*
X10397193Y-9826000D01*
X10397193Y-9986000D01*
X10398419Y-9998448D01*
X10402050Y-10010418D01*
X10407946Y-10021449D01*
X10415882Y-10031119D01*
X10425551Y-10039054D01*
X10436582Y-10044950D01*
X10447500Y-10048262D01*
X10447500Y-10068691D01*
X10440382Y-10070850D01*
X10429351Y-10076746D01*
X10419682Y-10084682D01*
X10411746Y-10094351D01*
X10405850Y-10105382D01*
X10402219Y-10117352D01*
X10400993Y-10129800D01*
X10400993Y-10282200D01*
X10401070Y-10282983D01*
X10116500Y-9998413D01*
X10116500Y-9205329D01*
X10124721Y-9193026D01*
X10132523Y-9174190D01*
X10136500Y-9154194D01*
X10136500Y-9133806D01*
X10132523Y-9113810D01*
X10124721Y-9094974D01*
X10113394Y-9078023D01*
X10098977Y-9063606D01*
X10082026Y-9052280D01*
X10063190Y-9044477D01*
X10043194Y-9040500D01*
X10022806Y-9040500D01*
X10002810Y-9044477D01*
X9983974Y-9052280D01*
X9967023Y-9063606D01*
X9952606Y-9078023D01*
X9941280Y-9094974D01*
X9933477Y-9113810D01*
X9929500Y-9133806D01*
X9755500Y-9133806D01*
X9751523Y-9113810D01*
X9743721Y-9094974D01*
X9732394Y-9078023D01*
X9717977Y-9063606D01*
X9701026Y-9052280D01*
X9682190Y-9044477D01*
X9662194Y-9040500D01*
X9641806Y-9040500D01*
X9621810Y-9044477D01*
X9602974Y-9052280D01*
X9586023Y-9063606D01*
X9571606Y-9078023D01*
X9560280Y-9094974D01*
X9552477Y-9113810D01*
X9548500Y-9133806D01*
X9548500Y-9154194D01*
X9552477Y-9174190D01*
X9560280Y-9193026D01*
X9568500Y-9205329D01*
X9568500Y-9849413D01*
X9541807Y-9876106D01*
X9541807Y-9826000D01*
X9540581Y-9813552D01*
X9536950Y-9801582D01*
X9531054Y-9790551D01*
X9523119Y-9780882D01*
X9521461Y-9779521D01*
X9525168Y-9773973D01*
X9535985Y-9747857D01*
X9541500Y-9720134D01*
X9541500Y-9691867D01*
X9535985Y-9664143D01*
X9525168Y-9638027D01*
X9509464Y-9614524D01*
X9489476Y-9594536D01*
X9465973Y-9578832D01*
X9439857Y-9568015D01*
X9412134Y-9562500D01*
X9383867Y-9562500D01*
X9368560Y-9565545D01*
X8828119Y-9025103D01*
X8846684Y-9032793D01*
X8875374Y-9038500D01*
X8904626Y-9038500D01*
X8933316Y-9032793D01*
X8960341Y-9021599D01*
X8984663Y-9005348D01*
X9005348Y-8984663D01*
X9021599Y-8960341D01*
X9032793Y-8933316D01*
X9038500Y-8904626D01*
X9038500Y-8875374D01*
X9032793Y-8846684D01*
X9021599Y-8819659D01*
X9005348Y-8795337D01*
X9004691Y-8794680D01*
X9033371Y-8766000D01*
X10023761Y-8766000D01*
X10016763Y-8770676D01*
X10002346Y-8785093D01*
X9991020Y-8802044D01*
X9983217Y-8820880D01*
X9979240Y-8840876D01*
X9979240Y-8861264D01*
X9983217Y-8881260D01*
X9991020Y-8900096D01*
X10002346Y-8917047D01*
X10016763Y-8931464D01*
X10033714Y-8942791D01*
X10052550Y-8950593D01*
X10072546Y-8954570D01*
X10092934Y-8954570D01*
X10112930Y-8950593D01*
X10131766Y-8942791D01*
X10148717Y-8931464D01*
X10163134Y-8917047D01*
X10172821Y-8902550D01*
X10652309Y-8902550D01*
X10654203Y-8904444D01*
X10671154Y-8915771D01*
X10689990Y-8923573D01*
X10709986Y-8927550D01*
X10730374Y-8927550D01*
X10750370Y-8923573D01*
X10769206Y-8915771D01*
X10786157Y-8904444D01*
X10800574Y-8890027D01*
X10811901Y-8873076D01*
X10819703Y-8854240D01*
X10823680Y-8834244D01*
X10823680Y-8813856D01*
X10819703Y-8793860D01*
X10811901Y-8775024D01*
X10805871Y-8766000D01*
X13112529Y-8766000D01*
X13389099Y-9042570D01*
X13389099Y-9120000D01*
X13390325Y-9132448D01*
X13393956Y-9144418D01*
X13399853Y-9155449D01*
X13407788Y-9165119D01*
X13417457Y-9173054D01*
X13428488Y-9178950D01*
X13440458Y-9182581D01*
X13452906Y-9183807D01*
X13456193Y-9183807D01*
X13456193Y-9280000D01*
X13457419Y-9292448D01*
X13461050Y-9304418D01*
X13466946Y-9315449D01*
X13474881Y-9325119D01*
X13484551Y-9333054D01*
X13495582Y-9338950D01*
X13507552Y-9342581D01*
X13520000Y-9343807D01*
X13680000Y-9343807D01*
X13692448Y-9342581D01*
X13704418Y-9338950D01*
X13715449Y-9333054D01*
X13725118Y-9325119D01*
X13733054Y-9315449D01*
X13738950Y-9304418D01*
X13740512Y-9299270D01*
X13768690Y-9299270D01*
X13775849Y-9323667D01*
X13778006Y-9324688D01*
X13774464Y-9338818D01*
X13773072Y-9367051D01*
X13777215Y-9395013D01*
X13786733Y-9421629D01*
X13793427Y-9434151D01*
X13817823Y-9441310D01*
X13899133Y-9360000D01*
X13935054Y-9360000D01*
X14016364Y-9441310D01*
X14040761Y-9434151D01*
X14052851Y-9408600D01*
X14059724Y-9381182D01*
X14061115Y-9352949D01*
X14056972Y-9324987D01*
X14047454Y-9298371D01*
X14040761Y-9285849D01*
X14016364Y-9278690D01*
X13935054Y-9360000D01*
X13899133Y-9360000D01*
X13897719Y-9358586D01*
X13915679Y-9340625D01*
X13917094Y-9342040D01*
X13998403Y-9260730D01*
X13991245Y-9236333D01*
X13989088Y-9235312D01*
X13992630Y-9221182D01*
X13994022Y-9192949D01*
X13989879Y-9164987D01*
X13980360Y-9138371D01*
X13973667Y-9125849D01*
X13949270Y-9118690D01*
X13867960Y-9200000D01*
X13869375Y-9201414D01*
X13851414Y-9219375D01*
X13850000Y-9217961D01*
X13768690Y-9299270D01*
X13740512Y-9299270D01*
X13742581Y-9292448D01*
X13743807Y-9280000D01*
X13743807Y-9279279D01*
X13750730Y-9281310D01*
X13832039Y-9200000D01*
X13750730Y-9118690D01*
X13743807Y-9120722D01*
X13743807Y-9120000D01*
X13742581Y-9107552D01*
X13740512Y-9100730D01*
X13768690Y-9100730D01*
X13850000Y-9182040D01*
X13931310Y-9100730D01*
X13924151Y-9076333D01*
X13898600Y-9064243D01*
X13871182Y-9057370D01*
X13842949Y-9055978D01*
X13814987Y-9060121D01*
X13788371Y-9069640D01*
X13775849Y-9076333D01*
X13768690Y-9100730D01*
X13740512Y-9100730D01*
X13738950Y-9095582D01*
X13733054Y-9084551D01*
X13725118Y-9074882D01*
X13715449Y-9066946D01*
X13704418Y-9061050D01*
X13692448Y-9057419D01*
X13680000Y-9056193D01*
X13676713Y-9056193D01*
X13676713Y-8960000D01*
X13675487Y-8947552D01*
X13671856Y-8935582D01*
X13665960Y-8924551D01*
X13658025Y-8914882D01*
X13648356Y-8906946D01*
X13637324Y-8901050D01*
X13625354Y-8897419D01*
X13612906Y-8896193D01*
X13535464Y-8896193D01*
X13305271Y-8666000D01*
X14391649Y-8666000D01*
X14352116Y-8705533D01*
X14310147Y-8768345D01*
X14281238Y-8838137D01*
X14266500Y-8912229D01*
X14266500Y-8987772D01*
X14281238Y-9061863D01*
X14310147Y-9131655D01*
X14352116Y-9194467D01*
X14405533Y-9247884D01*
X14468345Y-9289853D01*
X14538137Y-9318762D01*
X14612228Y-9333500D01*
X14687771Y-9333500D01*
X14761863Y-9318762D01*
X14831655Y-9289853D01*
X14894467Y-9247884D01*
X14934000Y-9208351D01*
X14934000Y-14341649D01*
X14894467Y-14302116D01*
X14831655Y-14260147D01*
X14761863Y-14231238D01*
X14687771Y-14216500D01*
X14612228Y-14216500D01*
X14538137Y-14231238D01*
X14468345Y-14260147D01*
X14405533Y-14302116D01*
X14352116Y-14355533D01*
X14310147Y-14418345D01*
X14281238Y-14488137D01*
X14266500Y-14562228D01*
X14266500Y-14637771D01*
X14281238Y-14711863D01*
X14310147Y-14781655D01*
X14352116Y-14844467D01*
X14391649Y-14884000D01*
X5608351Y-14884000D01*
X5647884Y-14844467D01*
X5689853Y-14781655D01*
X5718762Y-14711863D01*
X5733500Y-14637771D01*
X5733500Y-14562228D01*
X5718762Y-14488137D01*
X5689853Y-14418345D01*
X5647884Y-14355533D01*
X5594467Y-14302116D01*
X5531655Y-14260147D01*
X5461863Y-14231238D01*
X5387772Y-14216500D01*
X5312229Y-14216500D01*
X5238137Y-14231238D01*
X5168345Y-14260147D01*
X5105533Y-14302116D01*
X5066000Y-14341649D01*
X5066000Y-12675000D01*
X5361193Y-12675000D01*
X5361193Y-12925000D01*
X5362419Y-12937448D01*
X5366050Y-12949418D01*
X5371946Y-12960449D01*
X5379882Y-12970118D01*
X5389551Y-12978054D01*
X5400582Y-12983950D01*
X5412552Y-12987581D01*
X5425000Y-12988807D01*
X5675000Y-12988807D01*
X5687448Y-12987581D01*
X5699418Y-12983950D01*
X5710449Y-12978054D01*
X5720118Y-12970118D01*
X5728054Y-12960449D01*
X5733950Y-12949418D01*
X5737581Y-12937448D01*
X5738807Y-12925000D01*
X5738807Y-12781434D01*
X6161500Y-12781434D01*
X6161500Y-12818566D01*
X6168744Y-12854983D01*
X6182953Y-12889288D01*
X6203582Y-12920162D01*
X6229838Y-12946417D01*
X6260712Y-12967047D01*
X6295017Y-12981256D01*
X6331434Y-12988500D01*
X6368566Y-12988500D01*
X6404983Y-12981256D01*
X6439288Y-12967047D01*
X6470162Y-12946417D01*
X6496417Y-12920162D01*
X6517047Y-12889288D01*
X6531256Y-12854983D01*
X6538500Y-12818566D01*
X6538500Y-12781434D01*
X6531256Y-12745017D01*
X6517047Y-12710712D01*
X6496417Y-12679838D01*
X6478808Y-12662228D01*
X6916500Y-12662228D01*
X6916500Y-12737771D01*
X6931238Y-12811863D01*
X6960147Y-12881655D01*
X7002116Y-12944467D01*
X7055533Y-12997884D01*
X7118345Y-13039853D01*
X7188137Y-13068762D01*
X7262228Y-13083500D01*
X7337771Y-13083500D01*
X7411863Y-13068762D01*
X7481655Y-13039853D01*
X7544467Y-12997884D01*
X7597884Y-12944467D01*
X7639853Y-12881655D01*
X7668762Y-12811863D01*
X7683500Y-12737771D01*
X7683500Y-12675000D01*
X8061193Y-12675000D01*
X8061193Y-12925000D01*
X8062419Y-12937448D01*
X8066050Y-12949418D01*
X8071946Y-12960449D01*
X8079881Y-12970118D01*
X8089551Y-12978054D01*
X8100582Y-12983950D01*
X8112552Y-12987581D01*
X8125000Y-12988807D01*
X8375000Y-12988807D01*
X8387448Y-12987581D01*
X8399418Y-12983950D01*
X8410449Y-12978054D01*
X8420119Y-12970118D01*
X8428054Y-12960449D01*
X8433950Y-12949418D01*
X8437581Y-12937448D01*
X8438807Y-12925000D01*
X8438807Y-12781434D01*
X8861500Y-12781434D01*
X8861500Y-12818566D01*
X8868744Y-12854983D01*
X8882953Y-12889288D01*
X8903583Y-12920162D01*
X8929838Y-12946417D01*
X8960712Y-12967047D01*
X8995017Y-12981256D01*
X9031434Y-12988500D01*
X9068566Y-12988500D01*
X9104983Y-12981256D01*
X9139288Y-12967047D01*
X9170162Y-12946417D01*
X9196418Y-12920162D01*
X9217047Y-12889288D01*
X9231256Y-12854983D01*
X9238500Y-12818566D01*
X9238500Y-12781434D01*
X9231256Y-12745017D01*
X9217047Y-12710712D01*
X9196418Y-12679838D01*
X9191579Y-12675000D01*
X10761193Y-12675000D01*
X10761193Y-12925000D01*
X10762419Y-12937448D01*
X10766050Y-12949418D01*
X10771946Y-12960449D01*
X10779882Y-12970118D01*
X10789551Y-12978054D01*
X10800582Y-12983950D01*
X10812552Y-12987581D01*
X10825000Y-12988807D01*
X11075000Y-12988807D01*
X11087448Y-12987581D01*
X11099418Y-12983950D01*
X11110449Y-12978054D01*
X11120119Y-12970118D01*
X11128054Y-12960449D01*
X11133950Y-12949418D01*
X11137581Y-12937448D01*
X11138807Y-12925000D01*
X11138807Y-12781434D01*
X11561500Y-12781434D01*
X11561500Y-12818566D01*
X11568744Y-12854983D01*
X11582953Y-12889288D01*
X11603582Y-12920162D01*
X11629838Y-12946417D01*
X11660712Y-12967047D01*
X11695017Y-12981256D01*
X11731434Y-12988500D01*
X11768566Y-12988500D01*
X11804983Y-12981256D01*
X11839288Y-12967047D01*
X11870162Y-12946417D01*
X11896417Y-12920162D01*
X11917047Y-12889288D01*
X11931256Y-12854983D01*
X11938500Y-12818566D01*
X11938500Y-12781434D01*
X11931256Y-12745017D01*
X11917047Y-12710712D01*
X11896417Y-12679838D01*
X11878808Y-12662228D01*
X12316500Y-12662228D01*
X12316500Y-12737771D01*
X12331238Y-12811863D01*
X12360147Y-12881655D01*
X12402116Y-12944467D01*
X12455533Y-12997884D01*
X12518345Y-13039853D01*
X12588137Y-13068762D01*
X12662228Y-13083500D01*
X12737771Y-13083500D01*
X12811863Y-13068762D01*
X12881655Y-13039853D01*
X12944467Y-12997884D01*
X12997884Y-12944467D01*
X13039853Y-12881655D01*
X13068762Y-12811863D01*
X13083500Y-12737771D01*
X13083500Y-12675000D01*
X13461193Y-12675000D01*
X13461193Y-12925000D01*
X13462419Y-12937448D01*
X13466050Y-12949418D01*
X13471946Y-12960449D01*
X13479881Y-12970118D01*
X13489551Y-12978054D01*
X13500582Y-12983950D01*
X13512552Y-12987581D01*
X13525000Y-12988807D01*
X13775000Y-12988807D01*
X13787448Y-12987581D01*
X13799418Y-12983950D01*
X13810449Y-12978054D01*
X13820118Y-12970118D01*
X13828054Y-12960449D01*
X13833950Y-12949418D01*
X13837581Y-12937448D01*
X13838807Y-12925000D01*
X13838807Y-12781434D01*
X14261500Y-12781434D01*
X14261500Y-12818566D01*
X14268744Y-12854983D01*
X14282953Y-12889288D01*
X14303582Y-12920162D01*
X14329838Y-12946417D01*
X14360712Y-12967047D01*
X14395017Y-12981256D01*
X14431434Y-12988500D01*
X14468566Y-12988500D01*
X14504983Y-12981256D01*
X14539288Y-12967047D01*
X14570162Y-12946417D01*
X14596417Y-12920162D01*
X14617047Y-12889288D01*
X14631256Y-12854983D01*
X14638500Y-12818566D01*
X14638500Y-12781434D01*
X14631256Y-12745017D01*
X14617047Y-12710712D01*
X14596417Y-12679838D01*
X14570162Y-12653582D01*
X14539288Y-12632953D01*
X14504983Y-12618744D01*
X14468566Y-12611500D01*
X14431434Y-12611500D01*
X14395017Y-12618744D01*
X14360712Y-12632953D01*
X14329838Y-12653582D01*
X14303582Y-12679838D01*
X14282953Y-12710712D01*
X14268744Y-12745017D01*
X14261500Y-12781434D01*
X13838807Y-12781434D01*
X13838807Y-12675000D01*
X13837581Y-12662552D01*
X13833950Y-12650582D01*
X13828054Y-12639551D01*
X13820118Y-12629881D01*
X13810449Y-12621946D01*
X13799418Y-12616050D01*
X13787448Y-12612419D01*
X13775000Y-12611193D01*
X13525000Y-12611193D01*
X13512552Y-12612419D01*
X13500582Y-12616050D01*
X13489551Y-12621946D01*
X13479881Y-12629881D01*
X13471946Y-12639551D01*
X13466050Y-12650582D01*
X13462419Y-12662552D01*
X13461193Y-12675000D01*
X13083500Y-12675000D01*
X13083500Y-12662228D01*
X13068762Y-12588137D01*
X13039853Y-12518345D01*
X12997884Y-12455533D01*
X12944467Y-12402116D01*
X12888919Y-12365000D01*
X13301193Y-12365000D01*
X13301193Y-12535000D01*
X13302419Y-12547448D01*
X13306050Y-12559418D01*
X13311946Y-12570449D01*
X13319881Y-12580118D01*
X13329551Y-12588054D01*
X13340582Y-12593950D01*
X13352552Y-12597581D01*
X13365000Y-12598807D01*
X13535000Y-12598807D01*
X13547448Y-12597581D01*
X13559418Y-12593950D01*
X13570449Y-12588054D01*
X13580118Y-12580118D01*
X13588054Y-12570449D01*
X13593950Y-12559418D01*
X13596397Y-12551353D01*
X13603973Y-12559759D01*
X13627308Y-12577164D01*
X13653590Y-12589682D01*
X13668311Y-12594148D01*
X13691300Y-12582015D01*
X13691300Y-12462700D01*
X13716700Y-12462700D01*
X13716700Y-12582015D01*
X13739689Y-12594148D01*
X13754410Y-12589682D01*
X13780692Y-12577164D01*
X13804027Y-12559759D01*
X13823518Y-12538135D01*
X13838416Y-12513125D01*
X13848148Y-12485689D01*
X13836081Y-12462700D01*
X13716700Y-12462700D01*
X13691300Y-12462700D01*
X13689300Y-12462700D01*
X13689300Y-12437300D01*
X13691300Y-12437300D01*
X13691300Y-12317984D01*
X13716700Y-12317984D01*
X13716700Y-12437300D01*
X13836081Y-12437300D01*
X13848148Y-12414311D01*
X13838416Y-12386875D01*
X13834579Y-12380434D01*
X13861500Y-12380434D01*
X13861500Y-12417566D01*
X13868744Y-12453983D01*
X13882953Y-12488288D01*
X13903582Y-12519162D01*
X13929838Y-12545417D01*
X13960712Y-12566047D01*
X13995017Y-12580256D01*
X14031434Y-12587500D01*
X14068566Y-12587500D01*
X14104983Y-12580256D01*
X14139288Y-12566047D01*
X14170162Y-12545417D01*
X14196417Y-12519162D01*
X14217047Y-12488288D01*
X14231256Y-12453983D01*
X14238500Y-12417566D01*
X14238500Y-12380434D01*
X14231256Y-12344017D01*
X14217047Y-12309712D01*
X14196417Y-12278838D01*
X14170162Y-12252582D01*
X14139288Y-12231953D01*
X14104983Y-12217744D01*
X14068566Y-12210500D01*
X14031434Y-12210500D01*
X13995017Y-12217744D01*
X13960712Y-12231953D01*
X13929838Y-12252582D01*
X13903582Y-12278838D01*
X13882953Y-12309712D01*
X13868744Y-12344017D01*
X13861500Y-12380434D01*
X13834579Y-12380434D01*
X13823518Y-12361864D01*
X13804027Y-12340241D01*
X13780692Y-12322836D01*
X13754410Y-12310317D01*
X13739689Y-12305852D01*
X13716700Y-12317984D01*
X13691300Y-12317984D01*
X13668311Y-12305852D01*
X13653590Y-12310317D01*
X13627308Y-12322836D01*
X13603973Y-12340241D01*
X13596397Y-12348647D01*
X13593950Y-12340582D01*
X13588054Y-12329551D01*
X13580118Y-12319881D01*
X13570449Y-12311946D01*
X13559418Y-12306050D01*
X13547448Y-12302419D01*
X13535000Y-12301193D01*
X13365000Y-12301193D01*
X13352552Y-12302419D01*
X13340582Y-12306050D01*
X13329551Y-12311946D01*
X13319881Y-12319881D01*
X13311946Y-12329551D01*
X13306050Y-12340582D01*
X13302419Y-12352552D01*
X13301193Y-12365000D01*
X12888919Y-12365000D01*
X12881655Y-12360147D01*
X12811863Y-12331238D01*
X12737771Y-12316500D01*
X12662228Y-12316500D01*
X12588137Y-12331238D01*
X12518345Y-12360147D01*
X12455533Y-12402116D01*
X12402116Y-12455533D01*
X12360147Y-12518345D01*
X12331238Y-12588137D01*
X12316500Y-12662228D01*
X11878808Y-12662228D01*
X11870162Y-12653582D01*
X11839288Y-12632953D01*
X11804983Y-12618744D01*
X11768566Y-12611500D01*
X11731434Y-12611500D01*
X11695017Y-12618744D01*
X11660712Y-12632953D01*
X11629838Y-12653582D01*
X11603582Y-12679838D01*
X11582953Y-12710712D01*
X11568744Y-12745017D01*
X11561500Y-12781434D01*
X11138807Y-12781434D01*
X11138807Y-12675000D01*
X11137581Y-12662552D01*
X11133950Y-12650582D01*
X11128054Y-12639551D01*
X11120119Y-12629881D01*
X11110449Y-12621946D01*
X11099418Y-12616050D01*
X11087448Y-12612419D01*
X11075000Y-12611193D01*
X10825000Y-12611193D01*
X10812552Y-12612419D01*
X10800582Y-12616050D01*
X10789551Y-12621946D01*
X10779882Y-12629881D01*
X10771946Y-12639551D01*
X10766050Y-12650582D01*
X10762419Y-12662552D01*
X10761193Y-12675000D01*
X9191579Y-12675000D01*
X9170162Y-12653582D01*
X9139288Y-12632953D01*
X9104983Y-12618744D01*
X9068566Y-12611500D01*
X9031434Y-12611500D01*
X8995017Y-12618744D01*
X8960712Y-12632953D01*
X8929838Y-12653582D01*
X8903583Y-12679838D01*
X8882953Y-12710712D01*
X8868744Y-12745017D01*
X8861500Y-12781434D01*
X8438807Y-12781434D01*
X8438807Y-12675000D01*
X8437581Y-12662552D01*
X8433950Y-12650582D01*
X8428054Y-12639551D01*
X8420119Y-12629881D01*
X8410449Y-12621946D01*
X8399418Y-12616050D01*
X8387448Y-12612419D01*
X8375000Y-12611193D01*
X8125000Y-12611193D01*
X8112552Y-12612419D01*
X8100582Y-12616050D01*
X8089551Y-12621946D01*
X8079881Y-12629881D01*
X8071946Y-12639551D01*
X8066050Y-12650582D01*
X8062419Y-12662552D01*
X8061193Y-12675000D01*
X7683500Y-12675000D01*
X7683500Y-12662228D01*
X7668762Y-12588137D01*
X7639853Y-12518345D01*
X7597884Y-12455533D01*
X7544467Y-12402116D01*
X7488919Y-12365000D01*
X7901193Y-12365000D01*
X7901193Y-12535000D01*
X7902419Y-12547448D01*
X7906050Y-12559418D01*
X7911946Y-12570449D01*
X7919881Y-12580118D01*
X7929551Y-12588054D01*
X7940582Y-12593950D01*
X7952552Y-12597581D01*
X7965000Y-12598807D01*
X8135000Y-12598807D01*
X8147448Y-12597581D01*
X8159418Y-12593950D01*
X8170449Y-12588054D01*
X8180118Y-12580118D01*
X8188054Y-12570449D01*
X8193950Y-12559418D01*
X8196397Y-12551353D01*
X8203973Y-12559759D01*
X8227308Y-12577164D01*
X8253590Y-12589682D01*
X8268311Y-12594148D01*
X8291300Y-12582015D01*
X8291300Y-12462700D01*
X8316700Y-12462700D01*
X8316700Y-12582015D01*
X8339689Y-12594148D01*
X8354410Y-12589682D01*
X8380692Y-12577164D01*
X8404027Y-12559759D01*
X8423518Y-12538135D01*
X8438416Y-12513125D01*
X8448148Y-12485689D01*
X8436081Y-12462700D01*
X8316700Y-12462700D01*
X8291300Y-12462700D01*
X8289300Y-12462700D01*
X8289300Y-12437300D01*
X8291300Y-12437300D01*
X8291300Y-12317984D01*
X8316700Y-12317984D01*
X8316700Y-12437300D01*
X8436081Y-12437300D01*
X8448148Y-12414311D01*
X8438416Y-12386875D01*
X8434579Y-12380434D01*
X8461500Y-12380434D01*
X8461500Y-12417566D01*
X8468744Y-12453983D01*
X8482953Y-12488288D01*
X8503583Y-12519162D01*
X8529838Y-12545417D01*
X8560712Y-12566047D01*
X8595017Y-12580256D01*
X8631434Y-12587500D01*
X8668566Y-12587500D01*
X8704983Y-12580256D01*
X8739288Y-12566047D01*
X8770162Y-12545417D01*
X8796418Y-12519162D01*
X8817047Y-12488288D01*
X8831256Y-12453983D01*
X8838500Y-12417566D01*
X8838500Y-12380434D01*
X8835430Y-12365000D01*
X10601193Y-12365000D01*
X10601193Y-12535000D01*
X10602419Y-12547448D01*
X10606050Y-12559418D01*
X10611946Y-12570449D01*
X10619882Y-12580118D01*
X10629551Y-12588054D01*
X10640582Y-12593950D01*
X10652552Y-12597581D01*
X10665000Y-12598807D01*
X10835000Y-12598807D01*
X10847448Y-12597581D01*
X10859418Y-12593950D01*
X10870449Y-12588054D01*
X10880119Y-12580118D01*
X10888054Y-12570449D01*
X10893950Y-12559418D01*
X10896397Y-12551353D01*
X10903973Y-12559759D01*
X10927308Y-12577164D01*
X10953590Y-12589682D01*
X10968311Y-12594148D01*
X10991300Y-12582015D01*
X10991300Y-12462700D01*
X11016700Y-12462700D01*
X11016700Y-12582015D01*
X11039689Y-12594148D01*
X11054410Y-12589682D01*
X11080692Y-12577164D01*
X11104027Y-12559759D01*
X11123518Y-12538135D01*
X11138416Y-12513125D01*
X11148148Y-12485689D01*
X11136081Y-12462700D01*
X11016700Y-12462700D01*
X10991300Y-12462700D01*
X10989300Y-12462700D01*
X10989300Y-12437300D01*
X10991300Y-12437300D01*
X10991300Y-12317984D01*
X11016700Y-12317984D01*
X11016700Y-12437300D01*
X11136081Y-12437300D01*
X11148148Y-12414311D01*
X11138416Y-12386875D01*
X11134579Y-12380434D01*
X11161500Y-12380434D01*
X11161500Y-12417566D01*
X11168744Y-12453983D01*
X11182953Y-12488288D01*
X11203582Y-12519162D01*
X11229838Y-12545417D01*
X11260712Y-12566047D01*
X11295017Y-12580256D01*
X11331434Y-12587500D01*
X11368566Y-12587500D01*
X11404983Y-12580256D01*
X11439288Y-12566047D01*
X11470162Y-12545417D01*
X11496417Y-12519162D01*
X11517047Y-12488288D01*
X11531256Y-12453983D01*
X11538500Y-12417566D01*
X11538500Y-12380434D01*
X11531256Y-12344017D01*
X11517047Y-12309712D01*
X11496417Y-12278838D01*
X11470162Y-12252582D01*
X11439288Y-12231953D01*
X11404983Y-12217744D01*
X11368566Y-12210500D01*
X11331434Y-12210500D01*
X11295017Y-12217744D01*
X11260712Y-12231953D01*
X11229838Y-12252582D01*
X11203582Y-12278838D01*
X11182953Y-12309712D01*
X11168744Y-12344017D01*
X11161500Y-12380434D01*
X11134579Y-12380434D01*
X11123518Y-12361864D01*
X11104027Y-12340241D01*
X11080692Y-12322836D01*
X11054410Y-12310317D01*
X11039689Y-12305852D01*
X11016700Y-12317984D01*
X10991300Y-12317984D01*
X10968311Y-12305852D01*
X10953590Y-12310317D01*
X10927308Y-12322836D01*
X10903973Y-12340241D01*
X10896397Y-12348647D01*
X10893950Y-12340582D01*
X10888054Y-12329551D01*
X10880119Y-12319881D01*
X10870449Y-12311946D01*
X10859418Y-12306050D01*
X10847448Y-12302419D01*
X10835000Y-12301193D01*
X10665000Y-12301193D01*
X10652552Y-12302419D01*
X10640582Y-12306050D01*
X10629551Y-12311946D01*
X10619882Y-12319881D01*
X10611946Y-12329551D01*
X10606050Y-12340582D01*
X10602419Y-12352552D01*
X10601193Y-12365000D01*
X8835430Y-12365000D01*
X8831256Y-12344017D01*
X8817047Y-12309712D01*
X8796418Y-12278838D01*
X8770162Y-12252582D01*
X8739288Y-12231953D01*
X8704983Y-12217744D01*
X8668566Y-12210500D01*
X8631434Y-12210500D01*
X8595017Y-12217744D01*
X8560712Y-12231953D01*
X8529838Y-12252582D01*
X8503583Y-12278838D01*
X8482953Y-12309712D01*
X8468744Y-12344017D01*
X8461500Y-12380434D01*
X8434579Y-12380434D01*
X8423518Y-12361864D01*
X8404027Y-12340241D01*
X8380692Y-12322836D01*
X8354410Y-12310317D01*
X8339689Y-12305852D01*
X8316700Y-12317984D01*
X8291300Y-12317984D01*
X8268311Y-12305852D01*
X8253590Y-12310317D01*
X8227308Y-12322836D01*
X8203973Y-12340241D01*
X8196397Y-12348647D01*
X8193950Y-12340582D01*
X8188054Y-12329551D01*
X8180118Y-12319881D01*
X8170449Y-12311946D01*
X8159418Y-12306050D01*
X8147448Y-12302419D01*
X8135000Y-12301193D01*
X7965000Y-12301193D01*
X7952552Y-12302419D01*
X7940582Y-12306050D01*
X7929551Y-12311946D01*
X7919881Y-12319881D01*
X7911946Y-12329551D01*
X7906050Y-12340582D01*
X7902419Y-12352552D01*
X7901193Y-12365000D01*
X7488919Y-12365000D01*
X7481655Y-12360147D01*
X7411863Y-12331238D01*
X7337771Y-12316500D01*
X7262228Y-12316500D01*
X7188137Y-12331238D01*
X7118345Y-12360147D01*
X7055533Y-12402116D01*
X7002116Y-12455533D01*
X6960147Y-12518345D01*
X6931238Y-12588137D01*
X6916500Y-12662228D01*
X6478808Y-12662228D01*
X6470162Y-12653582D01*
X6439288Y-12632953D01*
X6404983Y-12618744D01*
X6368566Y-12611500D01*
X6331434Y-12611500D01*
X6295017Y-12618744D01*
X6260712Y-12632953D01*
X6229838Y-12653582D01*
X6203582Y-12679838D01*
X6182953Y-12710712D01*
X6168744Y-12745017D01*
X6161500Y-12781434D01*
X5738807Y-12781434D01*
X5738807Y-12675000D01*
X5737581Y-12662552D01*
X5733950Y-12650582D01*
X5728054Y-12639551D01*
X5720118Y-12629881D01*
X5710449Y-12621946D01*
X5699418Y-12616050D01*
X5687448Y-12612419D01*
X5675000Y-12611193D01*
X5425000Y-12611193D01*
X5412552Y-12612419D01*
X5400582Y-12616050D01*
X5389551Y-12621946D01*
X5379882Y-12629881D01*
X5371946Y-12639551D01*
X5366050Y-12650582D01*
X5362419Y-12662552D01*
X5361193Y-12675000D01*
X5066000Y-12675000D01*
X5066000Y-12365000D01*
X5201193Y-12365000D01*
X5201193Y-12535000D01*
X5202419Y-12547448D01*
X5206050Y-12559418D01*
X5211946Y-12570449D01*
X5219882Y-12580118D01*
X5229551Y-12588054D01*
X5240582Y-12593950D01*
X5252552Y-12597581D01*
X5265000Y-12598807D01*
X5435000Y-12598807D01*
X5447448Y-12597581D01*
X5459418Y-12593950D01*
X5470449Y-12588054D01*
X5480119Y-12580118D01*
X5488054Y-12570449D01*
X5493950Y-12559418D01*
X5496397Y-12551353D01*
X5503973Y-12559759D01*
X5527308Y-12577164D01*
X5553590Y-12589682D01*
X5568311Y-12594148D01*
X5591300Y-12582015D01*
X5591300Y-12462700D01*
X5616700Y-12462700D01*
X5616700Y-12582015D01*
X5639689Y-12594148D01*
X5654410Y-12589682D01*
X5680692Y-12577164D01*
X5704027Y-12559759D01*
X5723518Y-12538135D01*
X5738416Y-12513125D01*
X5748148Y-12485689D01*
X5736081Y-12462700D01*
X5616700Y-12462700D01*
X5591300Y-12462700D01*
X5589300Y-12462700D01*
X5589300Y-12437300D01*
X5591300Y-12437300D01*
X5591300Y-12317984D01*
X5616700Y-12317984D01*
X5616700Y-12437300D01*
X5736081Y-12437300D01*
X5748148Y-12414311D01*
X5738416Y-12386875D01*
X5734579Y-12380434D01*
X5761500Y-12380434D01*
X5761500Y-12417566D01*
X5768744Y-12453983D01*
X5782953Y-12488288D01*
X5803582Y-12519162D01*
X5829838Y-12545417D01*
X5860712Y-12566047D01*
X5895017Y-12580256D01*
X5931434Y-12587500D01*
X5968566Y-12587500D01*
X6004983Y-12580256D01*
X6039288Y-12566047D01*
X6070162Y-12545417D01*
X6096417Y-12519162D01*
X6117047Y-12488288D01*
X6131256Y-12453983D01*
X6138500Y-12417566D01*
X6138500Y-12380434D01*
X6131256Y-12344017D01*
X6117047Y-12309712D01*
X6096417Y-12278838D01*
X6070162Y-12252582D01*
X6039288Y-12231953D01*
X6004983Y-12217744D01*
X5968566Y-12210500D01*
X5931434Y-12210500D01*
X5895017Y-12217744D01*
X5860712Y-12231953D01*
X5829838Y-12252582D01*
X5803582Y-12278838D01*
X5782953Y-12309712D01*
X5768744Y-12344017D01*
X5761500Y-12380434D01*
X5734579Y-12380434D01*
X5723518Y-12361864D01*
X5704027Y-12340241D01*
X5680692Y-12322836D01*
X5654410Y-12310317D01*
X5639689Y-12305852D01*
X5616700Y-12317984D01*
X5591300Y-12317984D01*
X5568311Y-12305852D01*
X5553590Y-12310317D01*
X5527308Y-12322836D01*
X5503973Y-12340241D01*
X5496397Y-12348647D01*
X5493950Y-12340582D01*
X5488054Y-12329551D01*
X5480119Y-12319881D01*
X5470449Y-12311946D01*
X5459418Y-12306050D01*
X5447448Y-12302419D01*
X5435000Y-12301193D01*
X5265000Y-12301193D01*
X5252552Y-12302419D01*
X5240582Y-12306050D01*
X5229551Y-12311946D01*
X5219882Y-12319881D01*
X5211946Y-12329551D01*
X5206050Y-12340582D01*
X5202419Y-12352552D01*
X5201193Y-12365000D01*
X5066000Y-12365000D01*
X5066000Y-11477000D01*
X5126693Y-11477000D01*
X5126693Y-11637000D01*
X5127919Y-11649448D01*
X5131550Y-11661418D01*
X5137446Y-11672449D01*
X5145382Y-11682118D01*
X5155051Y-11690054D01*
X5166082Y-11695950D01*
X5178052Y-11699581D01*
X5190500Y-11700807D01*
X5350500Y-11700807D01*
X5362948Y-11699581D01*
X5374918Y-11695950D01*
X5385949Y-11690054D01*
X5395619Y-11682118D01*
X5396979Y-11680461D01*
X5402527Y-11684168D01*
X5428643Y-11694985D01*
X5456367Y-11700500D01*
X5484634Y-11700500D01*
X5512357Y-11694985D01*
X5538473Y-11684168D01*
X5561976Y-11668464D01*
X5581964Y-11648476D01*
X5597668Y-11624973D01*
X5608485Y-11598857D01*
X5614000Y-11571133D01*
X5614000Y-11542866D01*
X5610955Y-11527560D01*
X5661516Y-11477000D01*
X6841193Y-11477000D01*
X6841193Y-11637000D01*
X6842419Y-11649448D01*
X6846050Y-11661418D01*
X6851946Y-11672449D01*
X6859881Y-11682118D01*
X6869551Y-11690054D01*
X6880582Y-11695950D01*
X6892552Y-11699581D01*
X6905000Y-11700807D01*
X7065000Y-11700807D01*
X7077448Y-11699581D01*
X7089418Y-11695950D01*
X7100449Y-11690054D01*
X7110118Y-11682118D01*
X7111479Y-11680461D01*
X7117027Y-11684168D01*
X7143143Y-11694985D01*
X7170866Y-11700500D01*
X7199133Y-11700500D01*
X7226857Y-11694985D01*
X7252973Y-11684168D01*
X7276476Y-11668464D01*
X7296464Y-11648476D01*
X7312168Y-11624973D01*
X7322985Y-11598857D01*
X7328500Y-11571133D01*
X7328500Y-11542866D01*
X7322985Y-11515143D01*
X7312168Y-11489027D01*
X7304132Y-11477000D01*
X7603193Y-11477000D01*
X7603193Y-11637000D01*
X7604419Y-11649448D01*
X7608050Y-11661418D01*
X7613946Y-11672449D01*
X7621881Y-11682118D01*
X7631551Y-11690054D01*
X7642582Y-11695950D01*
X7654552Y-11699581D01*
X7667000Y-11700807D01*
X7827000Y-11700807D01*
X7839448Y-11699581D01*
X7851418Y-11695950D01*
X7862449Y-11690054D01*
X7872118Y-11682118D01*
X7873479Y-11680461D01*
X7879027Y-11684168D01*
X7905143Y-11694985D01*
X7932866Y-11700500D01*
X7961133Y-11700500D01*
X7988857Y-11694985D01*
X8014973Y-11684168D01*
X8038476Y-11668464D01*
X8058464Y-11648476D01*
X8074168Y-11624973D01*
X8084985Y-11598857D01*
X8090500Y-11571133D01*
X8090500Y-11542866D01*
X8087455Y-11527560D01*
X8138016Y-11477000D01*
X9381193Y-11477000D01*
X9381193Y-11637000D01*
X9382419Y-11649448D01*
X9386050Y-11661418D01*
X9391946Y-11672449D01*
X9399882Y-11682118D01*
X9409551Y-11690054D01*
X9420582Y-11695950D01*
X9432552Y-11699581D01*
X9445000Y-11700807D01*
X9605000Y-11700807D01*
X9617448Y-11699581D01*
X9629418Y-11695950D01*
X9640449Y-11690054D01*
X9650119Y-11682118D01*
X9651479Y-11680461D01*
X9657027Y-11684168D01*
X9683143Y-11694985D01*
X9710867Y-11700500D01*
X9739134Y-11700500D01*
X9766857Y-11694985D01*
X9792973Y-11684168D01*
X9816476Y-11668464D01*
X9836464Y-11648476D01*
X9852168Y-11624973D01*
X9862985Y-11598857D01*
X9868500Y-11571133D01*
X9868500Y-11542866D01*
X9862985Y-11515143D01*
X9852168Y-11489027D01*
X9844132Y-11477000D01*
X10143193Y-11477000D01*
X10143193Y-11637000D01*
X10144419Y-11649448D01*
X10148050Y-11661418D01*
X10153946Y-11672449D01*
X10161882Y-11682118D01*
X10171551Y-11690054D01*
X10182582Y-11695950D01*
X10194552Y-11699581D01*
X10207000Y-11700807D01*
X10367000Y-11700807D01*
X10379448Y-11699581D01*
X10391418Y-11695950D01*
X10402449Y-11690054D01*
X10412119Y-11682118D01*
X10413479Y-11680461D01*
X10419027Y-11684168D01*
X10445143Y-11694985D01*
X10472867Y-11700500D01*
X10501134Y-11700500D01*
X10528857Y-11694985D01*
X10554973Y-11684168D01*
X10578476Y-11668464D01*
X10598464Y-11648476D01*
X10614168Y-11624973D01*
X10624985Y-11598857D01*
X10630500Y-11571133D01*
X10630500Y-11542866D01*
X10627455Y-11527560D01*
X10678016Y-11477000D01*
X11921193Y-11477000D01*
X11921193Y-11637000D01*
X11922419Y-11649448D01*
X11926050Y-11661418D01*
X11931946Y-11672449D01*
X11939881Y-11682118D01*
X11949551Y-11690054D01*
X11960582Y-11695950D01*
X11972552Y-11699581D01*
X11985000Y-11700807D01*
X12145000Y-11700807D01*
X12157448Y-11699581D01*
X12169418Y-11695950D01*
X12180449Y-11690054D01*
X12190118Y-11682118D01*
X12191479Y-11680461D01*
X12197027Y-11684168D01*
X12223143Y-11694985D01*
X12250866Y-11700500D01*
X12279133Y-11700500D01*
X12306857Y-11694985D01*
X12332973Y-11684168D01*
X12356476Y-11668464D01*
X12376464Y-11648476D01*
X12392168Y-11624973D01*
X12402985Y-11598857D01*
X12408500Y-11571133D01*
X12408500Y-11542866D01*
X12402985Y-11515143D01*
X12392168Y-11489027D01*
X12384132Y-11477000D01*
X12619693Y-11477000D01*
X12619693Y-11637000D01*
X12620919Y-11649448D01*
X12624550Y-11661418D01*
X12630446Y-11672449D01*
X12638381Y-11682118D01*
X12648051Y-11690054D01*
X12659082Y-11695950D01*
X12671052Y-11699581D01*
X12683500Y-11700807D01*
X12843500Y-11700807D01*
X12855948Y-11699581D01*
X12867918Y-11695950D01*
X12878949Y-11690054D01*
X12888618Y-11682118D01*
X12889979Y-11680461D01*
X12895527Y-11684168D01*
X12921643Y-11694985D01*
X12949366Y-11700500D01*
X12977633Y-11700500D01*
X13005357Y-11694985D01*
X13031473Y-11684168D01*
X13054976Y-11668464D01*
X13074964Y-11648476D01*
X13090668Y-11624973D01*
X13101485Y-11598857D01*
X13107000Y-11571133D01*
X13107000Y-11542866D01*
X13103955Y-11527560D01*
X13154516Y-11477000D01*
X14397693Y-11477000D01*
X14397693Y-11637000D01*
X14398919Y-11649448D01*
X14402550Y-11661418D01*
X14408446Y-11672449D01*
X14416381Y-11682118D01*
X14426051Y-11690054D01*
X14437082Y-11695950D01*
X14449052Y-11699581D01*
X14461500Y-11700807D01*
X14621500Y-11700807D01*
X14633948Y-11699581D01*
X14645918Y-11695950D01*
X14656949Y-11690054D01*
X14666618Y-11682118D01*
X14667979Y-11680461D01*
X14673527Y-11684168D01*
X14699643Y-11694985D01*
X14727366Y-11700500D01*
X14755633Y-11700500D01*
X14783357Y-11694985D01*
X14809473Y-11684168D01*
X14832976Y-11668464D01*
X14852964Y-11648476D01*
X14868668Y-11624973D01*
X14879485Y-11598857D01*
X14885000Y-11571133D01*
X14885000Y-11542866D01*
X14879485Y-11515143D01*
X14868668Y-11489027D01*
X14852964Y-11465524D01*
X14832976Y-11445536D01*
X14809473Y-11429832D01*
X14783357Y-11419015D01*
X14755633Y-11413500D01*
X14727366Y-11413500D01*
X14699643Y-11419015D01*
X14673527Y-11429832D01*
X14667979Y-11433539D01*
X14666618Y-11431881D01*
X14656949Y-11423946D01*
X14645918Y-11418050D01*
X14633948Y-11414419D01*
X14621500Y-11413193D01*
X14461500Y-11413193D01*
X14449052Y-11414419D01*
X14437082Y-11418050D01*
X14426051Y-11423946D01*
X14416381Y-11431881D01*
X14408446Y-11441551D01*
X14402550Y-11452582D01*
X14398919Y-11464552D01*
X14397693Y-11477000D01*
X13154516Y-11477000D01*
X13296736Y-11334780D01*
X13698989Y-11334780D01*
X13700883Y-11336674D01*
X13717834Y-11348000D01*
X13736670Y-11355803D01*
X13756666Y-11359780D01*
X13777054Y-11359780D01*
X13797050Y-11355803D01*
X13815886Y-11348000D01*
X13832837Y-11336674D01*
X13847254Y-11322257D01*
X13858580Y-11305306D01*
X13866383Y-11286470D01*
X13870360Y-11266474D01*
X13870360Y-11246086D01*
X13866383Y-11226090D01*
X13858580Y-11207254D01*
X13847254Y-11190303D01*
X13832837Y-11175886D01*
X13815886Y-11164560D01*
X13797050Y-11156757D01*
X13777054Y-11152780D01*
X13756666Y-11152780D01*
X13736670Y-11156757D01*
X13717834Y-11164560D01*
X13700883Y-11175886D01*
X13698989Y-11177780D01*
X13268075Y-11177780D01*
X13264220Y-11177400D01*
X13260365Y-11177780D01*
X13260364Y-11177780D01*
X13248831Y-11178916D01*
X13234034Y-11183405D01*
X13220397Y-11190694D01*
X13217233Y-11193290D01*
X13211439Y-11198045D01*
X13211438Y-11198046D01*
X13208444Y-11200504D01*
X13205986Y-11203498D01*
X12992940Y-11416545D01*
X12977633Y-11413500D01*
X12949366Y-11413500D01*
X12921643Y-11419015D01*
X12895527Y-11429832D01*
X12889979Y-11433539D01*
X12888618Y-11431881D01*
X12878949Y-11423946D01*
X12867918Y-11418050D01*
X12855948Y-11414419D01*
X12843500Y-11413193D01*
X12683500Y-11413193D01*
X12671052Y-11414419D01*
X12659082Y-11418050D01*
X12648051Y-11423946D01*
X12638381Y-11431881D01*
X12630446Y-11441551D01*
X12624550Y-11452582D01*
X12620919Y-11464552D01*
X12619693Y-11477000D01*
X12384132Y-11477000D01*
X12376464Y-11465524D01*
X12356476Y-11445536D01*
X12332973Y-11429832D01*
X12306857Y-11419015D01*
X12279133Y-11413500D01*
X12250866Y-11413500D01*
X12223143Y-11419015D01*
X12197027Y-11429832D01*
X12191479Y-11433539D01*
X12190118Y-11431881D01*
X12180449Y-11423946D01*
X12169418Y-11418050D01*
X12157448Y-11414419D01*
X12145000Y-11413193D01*
X11985000Y-11413193D01*
X11972552Y-11414419D01*
X11960582Y-11418050D01*
X11949551Y-11423946D01*
X11939881Y-11431881D01*
X11931946Y-11441551D01*
X11926050Y-11452582D01*
X11922419Y-11464552D01*
X11921193Y-11477000D01*
X10678016Y-11477000D01*
X10845016Y-11310000D01*
X11305039Y-11310000D01*
X11306933Y-11311894D01*
X11323884Y-11323220D01*
X11342720Y-11331023D01*
X11362716Y-11335000D01*
X11383104Y-11335000D01*
X11403100Y-11331023D01*
X11421936Y-11323220D01*
X11438887Y-11311894D01*
X11453304Y-11297477D01*
X11464630Y-11280526D01*
X11472433Y-11261690D01*
X11476410Y-11241694D01*
X11476410Y-11221306D01*
X11472433Y-11201310D01*
X11464630Y-11182474D01*
X11453304Y-11165523D01*
X11438887Y-11151106D01*
X11421936Y-11139780D01*
X11403100Y-11131977D01*
X11383104Y-11128000D01*
X11362716Y-11128000D01*
X11342720Y-11131977D01*
X11323884Y-11139780D01*
X11306933Y-11151106D01*
X11305039Y-11153000D01*
X10816355Y-11153000D01*
X10812500Y-11152620D01*
X10808645Y-11153000D01*
X10808644Y-11153000D01*
X10798549Y-11153994D01*
X10797111Y-11154136D01*
X10788469Y-11156757D01*
X10782314Y-11158625D01*
X10768677Y-11165914D01*
X10762656Y-11170855D01*
X10759719Y-11173266D01*
X10759718Y-11173266D01*
X10756724Y-11175724D01*
X10754266Y-11178718D01*
X10516440Y-11416545D01*
X10501134Y-11413500D01*
X10472867Y-11413500D01*
X10445143Y-11419015D01*
X10419027Y-11429832D01*
X10413479Y-11433539D01*
X10412119Y-11431881D01*
X10402449Y-11423946D01*
X10391418Y-11418050D01*
X10379448Y-11414419D01*
X10367000Y-11413193D01*
X10207000Y-11413193D01*
X10194552Y-11414419D01*
X10182582Y-11418050D01*
X10171551Y-11423946D01*
X10161882Y-11431881D01*
X10153946Y-11441551D01*
X10148050Y-11452582D01*
X10144419Y-11464552D01*
X10143193Y-11477000D01*
X9844132Y-11477000D01*
X9836464Y-11465524D01*
X9816476Y-11445536D01*
X9792973Y-11429832D01*
X9766857Y-11419015D01*
X9739134Y-11413500D01*
X9710867Y-11413500D01*
X9683143Y-11419015D01*
X9657027Y-11429832D01*
X9651479Y-11433539D01*
X9650119Y-11431881D01*
X9640449Y-11423946D01*
X9629418Y-11418050D01*
X9617448Y-11414419D01*
X9605000Y-11413193D01*
X9445000Y-11413193D01*
X9432552Y-11414419D01*
X9420582Y-11418050D01*
X9409551Y-11423946D01*
X9399882Y-11431881D01*
X9391946Y-11441551D01*
X9386050Y-11452582D01*
X9382419Y-11464552D01*
X9381193Y-11477000D01*
X8138016Y-11477000D01*
X8243086Y-11371930D01*
X8685999Y-11371930D01*
X8687893Y-11373824D01*
X8704844Y-11385150D01*
X8723680Y-11392953D01*
X8743676Y-11396930D01*
X8764064Y-11396930D01*
X8784060Y-11392953D01*
X8802896Y-11385150D01*
X8819847Y-11373824D01*
X8834264Y-11359407D01*
X8845591Y-11342456D01*
X8853393Y-11323620D01*
X8857370Y-11303624D01*
X8857370Y-11283236D01*
X8853393Y-11263240D01*
X8845591Y-11244404D01*
X8834264Y-11227453D01*
X8819847Y-11213036D01*
X8802896Y-11201709D01*
X8784060Y-11193907D01*
X8764064Y-11189930D01*
X8743676Y-11189930D01*
X8723680Y-11193907D01*
X8704844Y-11201709D01*
X8687893Y-11213036D01*
X8685999Y-11214930D01*
X8214426Y-11214930D01*
X8210570Y-11214550D01*
X8206714Y-11214930D01*
X8206714Y-11214930D01*
X8202673Y-11215328D01*
X8195181Y-11216066D01*
X8184105Y-11219426D01*
X8180384Y-11220555D01*
X8166747Y-11227844D01*
X8154794Y-11237654D01*
X8152335Y-11240649D01*
X7976440Y-11416545D01*
X7961133Y-11413500D01*
X7932866Y-11413500D01*
X7905143Y-11419015D01*
X7879027Y-11429832D01*
X7873479Y-11433539D01*
X7872118Y-11431881D01*
X7862449Y-11423946D01*
X7851418Y-11418050D01*
X7839448Y-11414419D01*
X7827000Y-11413193D01*
X7667000Y-11413193D01*
X7654552Y-11414419D01*
X7642582Y-11418050D01*
X7631551Y-11423946D01*
X7621881Y-11431881D01*
X7613946Y-11441551D01*
X7608050Y-11452582D01*
X7604419Y-11464552D01*
X7603193Y-11477000D01*
X7304132Y-11477000D01*
X7296464Y-11465524D01*
X7276476Y-11445536D01*
X7252973Y-11429832D01*
X7226857Y-11419015D01*
X7199133Y-11413500D01*
X7170866Y-11413500D01*
X7143143Y-11419015D01*
X7117027Y-11429832D01*
X7111479Y-11433539D01*
X7110118Y-11431881D01*
X7100449Y-11423946D01*
X7089418Y-11418050D01*
X7077448Y-11414419D01*
X7065000Y-11413193D01*
X6905000Y-11413193D01*
X6892552Y-11414419D01*
X6880582Y-11418050D01*
X6869551Y-11423946D01*
X6859881Y-11431881D01*
X6851946Y-11441551D01*
X6846050Y-11452582D01*
X6842419Y-11464552D01*
X6841193Y-11477000D01*
X5661516Y-11477000D01*
X5763226Y-11375290D01*
X6237879Y-11375290D01*
X6239773Y-11377184D01*
X6256724Y-11388510D01*
X6275560Y-11396313D01*
X6295556Y-11400290D01*
X6315944Y-11400290D01*
X6335940Y-11396313D01*
X6354776Y-11388510D01*
X6371727Y-11377184D01*
X6386144Y-11362767D01*
X6397470Y-11345816D01*
X6405273Y-11326980D01*
X6409250Y-11306984D01*
X6409250Y-11286596D01*
X6405273Y-11266600D01*
X6397470Y-11247764D01*
X6386144Y-11230813D01*
X6371727Y-11216396D01*
X6354776Y-11205069D01*
X6335940Y-11197267D01*
X6315944Y-11193290D01*
X6295556Y-11193290D01*
X6275560Y-11197267D01*
X6256724Y-11205069D01*
X6239773Y-11216396D01*
X6237879Y-11218290D01*
X5734565Y-11218290D01*
X5730710Y-11217910D01*
X5726855Y-11218290D01*
X5726854Y-11218290D01*
X5716759Y-11219284D01*
X5715321Y-11219426D01*
X5700524Y-11223915D01*
X5686887Y-11231204D01*
X5682023Y-11235195D01*
X5677929Y-11238555D01*
X5677928Y-11238556D01*
X5674934Y-11241014D01*
X5672476Y-11244008D01*
X5499940Y-11416545D01*
X5484634Y-11413500D01*
X5456367Y-11413500D01*
X5428643Y-11419015D01*
X5402527Y-11429832D01*
X5396979Y-11433539D01*
X5395619Y-11431881D01*
X5385949Y-11423946D01*
X5374918Y-11418050D01*
X5362948Y-11414419D01*
X5350500Y-11413193D01*
X5190500Y-11413193D01*
X5178052Y-11414419D01*
X5166082Y-11418050D01*
X5155051Y-11423946D01*
X5145382Y-11431881D01*
X5137446Y-11441551D01*
X5131550Y-11452582D01*
X5127919Y-11464552D01*
X5126693Y-11477000D01*
X5066000Y-11477000D01*
X5066000Y-9459270D01*
X6385784Y-9459270D01*
X6392942Y-9483667D01*
X6418493Y-9495757D01*
X6445912Y-9502630D01*
X6474145Y-9504022D01*
X6502107Y-9499879D01*
X6528723Y-9490360D01*
X6541245Y-9483667D01*
X6548403Y-9459270D01*
X6467094Y-9377961D01*
X6385784Y-9459270D01*
X5066000Y-9459270D01*
X5066000Y-9208351D01*
X5105533Y-9247884D01*
X5168345Y-9289853D01*
X5238137Y-9318762D01*
X5312229Y-9333500D01*
X5387772Y-9333500D01*
X5461863Y-9318762D01*
X5531655Y-9289853D01*
X5594467Y-9247884D01*
X5647884Y-9194467D01*
X5689853Y-9131655D01*
X5718762Y-9061863D01*
X5733500Y-8987772D01*
X5733500Y-8912229D01*
X5718762Y-8838137D01*
X5689853Y-8768345D01*
X5647884Y-8705533D01*
X5608351Y-8666000D01*
X6262529Y-8666000D01*
X6032336Y-8896193D01*
%TA.AperFunction,Conductor*%
D26*
G36*
X6032336Y-8896193D02*
G01*
X6002906Y-8896193D01*
X5990458Y-8897419D01*
X5978488Y-8901050D01*
X5967457Y-8906946D01*
X5957788Y-8914882D01*
X5949853Y-8924551D01*
X5943956Y-8935582D01*
X5940325Y-8947552D01*
X5939099Y-8960000D01*
X5939099Y-9120000D01*
X5940325Y-9132448D01*
X5943956Y-9144418D01*
X5949853Y-9155449D01*
X5957788Y-9165119D01*
X5967457Y-9173054D01*
X5978488Y-9178950D01*
X5990458Y-9182581D01*
X6002906Y-9183807D01*
X6006193Y-9183807D01*
X6006193Y-9280000D01*
X6007419Y-9292448D01*
X6011050Y-9304418D01*
X6016946Y-9315449D01*
X6024881Y-9325119D01*
X6034551Y-9333054D01*
X6045582Y-9338950D01*
X6057552Y-9342581D01*
X6070000Y-9343807D01*
X6230000Y-9343807D01*
X6242448Y-9342581D01*
X6254418Y-9338950D01*
X6265449Y-9333054D01*
X6275118Y-9325119D01*
X6283054Y-9315449D01*
X6288950Y-9304418D01*
X6290512Y-9299270D01*
X6318690Y-9299270D01*
X6325849Y-9323667D01*
X6328006Y-9324688D01*
X6324464Y-9338818D01*
X6323072Y-9367051D01*
X6327215Y-9395013D01*
X6336733Y-9421629D01*
X6343427Y-9434151D01*
X6367823Y-9441310D01*
X6449133Y-9360000D01*
X6485054Y-9360000D01*
X6566364Y-9441310D01*
X6590761Y-9434151D01*
X6602851Y-9408600D01*
X6609724Y-9381182D01*
X6611115Y-9352949D01*
X6606972Y-9324987D01*
X6597454Y-9298371D01*
X6590761Y-9285849D01*
X6566364Y-9278690D01*
X6485054Y-9360000D01*
X6449133Y-9360000D01*
X6447719Y-9358586D01*
X6465679Y-9340625D01*
X6467094Y-9342040D01*
X6548403Y-9260730D01*
X6541245Y-9236333D01*
X6539088Y-9235312D01*
X6542630Y-9221182D01*
X6544022Y-9192949D01*
X6539879Y-9164987D01*
X6530360Y-9138371D01*
X6523667Y-9125849D01*
X6499270Y-9118690D01*
X6417960Y-9200000D01*
X6419375Y-9201414D01*
X6401414Y-9219375D01*
X6400000Y-9217961D01*
X6318690Y-9299270D01*
X6290512Y-9299270D01*
X6292581Y-9292448D01*
X6293807Y-9280000D01*
X6293807Y-9279279D01*
X6300730Y-9281310D01*
X6382039Y-9200000D01*
X6300730Y-9118690D01*
X6293807Y-9120722D01*
X6293807Y-9120000D01*
X6292581Y-9107552D01*
X6290512Y-9100730D01*
X6318690Y-9100730D01*
X6400000Y-9182040D01*
X6481310Y-9100730D01*
X6474151Y-9076333D01*
X6448600Y-9064243D01*
X6421182Y-9057370D01*
X6392949Y-9055978D01*
X6364987Y-9060121D01*
X6338371Y-9069640D01*
X6325849Y-9076333D01*
X6318690Y-9100730D01*
X6290512Y-9100730D01*
X6288950Y-9095582D01*
X6283054Y-9084551D01*
X6275118Y-9074882D01*
X6265449Y-9066946D01*
X6254418Y-9061050D01*
X6242448Y-9057419D01*
X6230000Y-9056193D01*
X6226713Y-9056193D01*
X6226713Y-8994558D01*
X6455271Y-8766000D01*
X8246860Y-8766000D01*
X8243946Y-8769551D01*
X8238050Y-8780582D01*
X8234419Y-8792552D01*
X8233193Y-8805000D01*
X8233500Y-8861425D01*
X8249375Y-8877300D01*
X8369300Y-8877300D01*
X8369300Y-8875300D01*
X8394700Y-8875300D01*
X8394700Y-8877300D01*
X8396700Y-8877300D01*
X8396700Y-8902700D01*
X8394700Y-8902700D01*
X8394700Y-8904700D01*
X8369300Y-8904700D01*
X8369300Y-8902700D01*
X8249375Y-8902700D01*
X8233500Y-8918575D01*
X8233193Y-8975000D01*
X8234419Y-8987448D01*
X8236719Y-8995030D01*
X8075076Y-8995030D01*
X7980765Y-8900719D01*
X7978306Y-8897724D01*
X7966353Y-8887914D01*
X7952716Y-8880625D01*
X7937919Y-8876136D01*
X7936117Y-8875958D01*
X7926571Y-8858099D01*
X7908013Y-8835487D01*
X7885401Y-8816929D01*
X7859603Y-8803140D01*
X7831611Y-8794649D01*
X7802500Y-8791782D01*
X7773389Y-8794649D01*
X7745397Y-8803140D01*
X7719599Y-8816929D01*
X7696987Y-8835487D01*
X7678429Y-8858099D01*
X7677500Y-8859837D01*
X7676571Y-8858099D01*
X7658013Y-8835487D01*
X7635401Y-8816929D01*
X7609603Y-8803140D01*
X7581611Y-8794649D01*
X7552500Y-8791782D01*
X7523389Y-8794649D01*
X7495397Y-8803140D01*
X7469599Y-8816929D01*
X7446987Y-8835487D01*
X7441778Y-8841834D01*
X7436340Y-8831661D01*
X7425296Y-8818204D01*
X7411839Y-8807160D01*
X7396485Y-8798953D01*
X7379825Y-8793899D01*
X7362500Y-8792193D01*
X7242500Y-8792193D01*
X7225175Y-8793899D01*
X7208515Y-8798953D01*
X7193161Y-8807160D01*
X7179704Y-8818204D01*
X7168659Y-8831661D01*
X7160453Y-8847015D01*
X7155399Y-8863675D01*
X7153693Y-8881000D01*
X7153693Y-9026000D01*
X7154087Y-9030000D01*
X7130336Y-9030000D01*
X7106476Y-9034746D01*
X7084001Y-9044056D01*
X7063773Y-9057571D01*
X7046571Y-9074773D01*
X7033056Y-9095001D01*
X7023746Y-9117476D01*
X7019000Y-9141336D01*
X7019000Y-9165664D01*
X7023746Y-9189524D01*
X7033056Y-9211999D01*
X7046571Y-9232227D01*
X7063773Y-9249429D01*
X7084001Y-9262944D01*
X7106476Y-9272254D01*
X7120034Y-9274951D01*
X6882484Y-9512500D01*
X5573856Y-9512500D01*
X5570000Y-9512120D01*
X5566144Y-9512500D01*
X5566144Y-9512500D01*
X5562103Y-9512898D01*
X5554611Y-9513636D01*
X5539814Y-9518125D01*
X5526177Y-9525414D01*
X5514224Y-9535224D01*
X5511766Y-9538219D01*
X5490440Y-9559545D01*
X5475134Y-9556500D01*
X5446867Y-9556500D01*
X5419143Y-9562015D01*
X5393027Y-9572832D01*
X5369524Y-9588536D01*
X5349536Y-9608524D01*
X5333832Y-9632027D01*
X5323015Y-9658143D01*
X5317500Y-9685867D01*
X5317500Y-9714134D01*
X5323015Y-9741857D01*
X5333832Y-9767973D01*
X5337539Y-9773521D01*
X5335882Y-9774882D01*
X5327946Y-9784551D01*
X5322050Y-9795582D01*
X5318419Y-9807552D01*
X5317193Y-9820000D01*
X5317193Y-9980000D01*
X5318419Y-9992448D01*
X5322050Y-10004418D01*
X5327946Y-10015449D01*
X5335882Y-10025119D01*
X5345551Y-10033054D01*
X5356582Y-10038950D01*
X5368552Y-10042581D01*
X5381000Y-10043807D01*
X5382500Y-10043807D01*
X5382500Y-10060219D01*
X5372352Y-10061219D01*
X5360382Y-10064850D01*
X5349351Y-10070746D01*
X5339682Y-10078682D01*
X5331746Y-10088351D01*
X5325850Y-10099382D01*
X5322219Y-10111352D01*
X5320993Y-10123800D01*
X5320993Y-10276200D01*
X5322219Y-10288648D01*
X5325850Y-10300618D01*
X5331746Y-10311649D01*
X5339682Y-10321319D01*
X5349351Y-10329254D01*
X5360382Y-10335150D01*
X5372352Y-10338781D01*
X5384800Y-10340007D01*
X5537200Y-10340007D01*
X5549648Y-10338781D01*
X5561618Y-10335150D01*
X5572649Y-10329254D01*
X5582319Y-10321319D01*
X5590254Y-10311649D01*
X5596150Y-10300618D01*
X5599781Y-10288648D01*
X5601007Y-10276200D01*
X5601007Y-10123800D01*
X5599781Y-10111352D01*
X5596150Y-10099382D01*
X5590254Y-10088351D01*
X5582319Y-10078682D01*
X5572649Y-10070746D01*
X5561618Y-10064850D01*
X5549648Y-10061219D01*
X5539500Y-10060219D01*
X5539500Y-10043807D01*
X5541000Y-10043807D01*
X5553448Y-10042581D01*
X5565418Y-10038950D01*
X5576449Y-10033054D01*
X5586119Y-10025119D01*
X5594054Y-10015449D01*
X5599950Y-10004418D01*
X5603581Y-9992448D01*
X5604807Y-9980000D01*
X5604807Y-9820000D01*
X5603581Y-9807552D01*
X5599950Y-9795582D01*
X5594054Y-9784551D01*
X5586119Y-9774882D01*
X5584461Y-9773521D01*
X5588168Y-9767973D01*
X5598985Y-9741857D01*
X5604500Y-9714134D01*
X5604500Y-9685867D01*
X5601455Y-9670560D01*
X5602516Y-9669500D01*
X6909449Y-9669500D01*
X6905000Y-9691867D01*
X6905000Y-9720134D01*
X6910515Y-9747857D01*
X6921332Y-9773973D01*
X6925039Y-9779521D01*
X6923381Y-9780882D01*
X6915446Y-9790551D01*
X6909550Y-9801582D01*
X6905919Y-9813552D01*
X6904693Y-9826000D01*
X6904693Y-9986000D01*
X6905919Y-9998448D01*
X6909550Y-10010418D01*
X6915446Y-10021449D01*
X6923381Y-10031119D01*
X6933051Y-10039054D01*
X6944082Y-10044950D01*
X6956052Y-10048581D01*
X6968500Y-10049807D01*
X6970000Y-10049807D01*
X6970000Y-10066219D01*
X6959852Y-10067219D01*
X6947882Y-10070850D01*
X6936851Y-10076746D01*
X6927181Y-10084682D01*
X6919246Y-10094351D01*
X6913350Y-10105382D01*
X6909719Y-10117352D01*
X6908493Y-10129800D01*
X6908493Y-10282200D01*
X6909719Y-10294648D01*
X6913350Y-10306618D01*
X6919246Y-10317649D01*
X6927181Y-10327319D01*
X6936851Y-10335254D01*
X6947882Y-10341150D01*
X6959852Y-10344781D01*
X6972300Y-10346007D01*
X7124700Y-10346007D01*
X7137148Y-10344781D01*
X7149118Y-10341150D01*
X7160149Y-10335254D01*
X7169818Y-10327319D01*
X7177754Y-10317649D01*
X7183650Y-10306618D01*
X7187281Y-10294648D01*
X7188507Y-10282200D01*
X7188507Y-10129800D01*
X7187281Y-10117352D01*
X7183650Y-10105382D01*
X7177754Y-10094351D01*
X7169818Y-10084682D01*
X7160149Y-10076746D01*
X7149118Y-10070850D01*
X7137148Y-10067219D01*
X7127000Y-10066219D01*
X7127000Y-10049807D01*
X7128500Y-10049807D01*
X7140948Y-10048581D01*
X7152918Y-10044950D01*
X7163949Y-10039054D01*
X7173618Y-10031119D01*
X7181554Y-10021449D01*
X7187450Y-10010418D01*
X7191081Y-9998448D01*
X7192307Y-9986000D01*
X7192307Y-9826000D01*
X7793693Y-9826000D01*
X7793693Y-9986000D01*
X7794919Y-9998448D01*
X7798550Y-10010418D01*
X7804446Y-10021449D01*
X7812381Y-10031119D01*
X7822051Y-10039054D01*
X7833082Y-10044950D01*
X7844000Y-10048262D01*
X7844000Y-10068691D01*
X7836882Y-10070850D01*
X7825851Y-10076746D01*
X7816181Y-10084682D01*
X7808246Y-10094351D01*
X7802350Y-10105382D01*
X7798719Y-10117352D01*
X7797493Y-10129800D01*
X7797493Y-10282200D01*
X7798719Y-10294648D01*
X7802350Y-10306618D01*
X7808246Y-10317649D01*
X7816181Y-10327319D01*
X7825851Y-10335254D01*
X7836882Y-10341150D01*
X7848852Y-10344781D01*
X7861300Y-10346007D01*
X8013700Y-10346007D01*
X8026148Y-10344781D01*
X8038118Y-10341150D01*
X8049149Y-10335254D01*
X8058818Y-10327319D01*
X8066754Y-10317649D01*
X8072650Y-10306618D01*
X8076281Y-10294648D01*
X8077507Y-10282200D01*
X8077507Y-10129800D01*
X8076281Y-10117352D01*
X8072650Y-10105382D01*
X8066754Y-10094351D01*
X8058818Y-10084682D01*
X8049149Y-10076746D01*
X8038118Y-10070850D01*
X8031000Y-10068691D01*
X8031000Y-10048262D01*
X8041918Y-10044950D01*
X8052949Y-10039054D01*
X8062618Y-10031119D01*
X8070554Y-10021449D01*
X8076450Y-10010418D01*
X8080081Y-9998448D01*
X8081307Y-9986000D01*
X8081307Y-9826000D01*
X8080081Y-9813552D01*
X8076450Y-9801582D01*
X8070554Y-9790551D01*
X8062618Y-9780882D01*
X8060961Y-9779521D01*
X8064668Y-9773973D01*
X8075485Y-9747857D01*
X8080160Y-9724356D01*
X8354700Y-9724356D01*
X8354700Y-9744744D01*
X8358677Y-9764740D01*
X8366479Y-9783576D01*
X8377806Y-9800527D01*
X8392223Y-9814944D01*
X8409174Y-9826271D01*
X8428010Y-9834073D01*
X8448006Y-9838050D01*
X8468394Y-9838050D01*
X8469000Y-9837929D01*
X8469000Y-9852694D01*
X8472977Y-9872690D01*
X8480780Y-9891526D01*
X8492106Y-9908477D01*
X8506523Y-9922894D01*
X8523474Y-9934221D01*
X8542310Y-9942023D01*
X8562306Y-9946000D01*
X8582694Y-9946000D01*
X8602690Y-9942023D01*
X8621526Y-9934221D01*
X8638477Y-9922894D01*
X8652894Y-9908477D01*
X8664221Y-9891526D01*
X8670243Y-9876986D01*
X8784786Y-9762443D01*
X8799326Y-9756421D01*
X8816277Y-9745094D01*
X8830694Y-9730677D01*
X8842021Y-9713726D01*
X8849823Y-9694890D01*
X8853800Y-9674894D01*
X8853800Y-9654506D01*
X8849823Y-9634510D01*
X8842021Y-9615674D01*
X8830694Y-9598723D01*
X8816277Y-9584306D01*
X8799326Y-9572980D01*
X8780490Y-9565177D01*
X8760494Y-9561200D01*
X8745729Y-9561200D01*
X8745850Y-9560594D01*
X8745850Y-9540206D01*
X8741873Y-9520210D01*
X8734071Y-9501374D01*
X8722744Y-9484423D01*
X8708327Y-9470006D01*
X8691376Y-9458680D01*
X8672540Y-9450877D01*
X8652544Y-9446900D01*
X8632156Y-9446900D01*
X8612160Y-9450877D01*
X8593324Y-9458680D01*
X8576373Y-9470006D01*
X8561956Y-9484423D01*
X8550630Y-9501374D01*
X8542827Y-9520210D01*
X8538850Y-9540206D01*
X8538850Y-9542884D01*
X8450684Y-9631050D01*
X8448006Y-9631050D01*
X8428010Y-9635027D01*
X8409174Y-9642830D01*
X8392223Y-9654156D01*
X8377806Y-9668573D01*
X8366479Y-9685524D01*
X8358677Y-9704360D01*
X8354700Y-9724356D01*
X8080160Y-9724356D01*
X8081000Y-9720134D01*
X8081000Y-9691867D01*
X8075485Y-9664143D01*
X8064668Y-9638027D01*
X8048964Y-9614524D01*
X8028976Y-9594536D01*
X8005473Y-9578832D01*
X7979357Y-9568015D01*
X7951633Y-9562500D01*
X7923366Y-9562500D01*
X7895643Y-9568015D01*
X7869527Y-9578832D01*
X7846024Y-9594536D01*
X7826036Y-9614524D01*
X7810332Y-9638027D01*
X7799515Y-9664143D01*
X7794000Y-9691867D01*
X7794000Y-9720134D01*
X7799515Y-9747857D01*
X7810332Y-9773973D01*
X7814039Y-9779521D01*
X7812381Y-9780882D01*
X7804446Y-9790551D01*
X7798550Y-9801582D01*
X7794919Y-9813552D01*
X7793693Y-9826000D01*
X7192307Y-9826000D01*
X7191081Y-9813552D01*
X7187450Y-9801582D01*
X7181554Y-9790551D01*
X7173618Y-9780882D01*
X7171961Y-9779521D01*
X7175668Y-9773973D01*
X7186485Y-9747857D01*
X7192000Y-9720134D01*
X7192000Y-9691867D01*
X7186485Y-9664143D01*
X7175668Y-9638027D01*
X7159964Y-9614524D01*
X7139976Y-9594536D01*
X7116473Y-9578832D01*
X7090357Y-9568015D01*
X7062633Y-9562500D01*
X7054516Y-9562500D01*
X7509022Y-9107993D01*
X7523389Y-9112351D01*
X7552500Y-9115219D01*
X7581611Y-9112351D01*
X7609603Y-9103860D01*
X7635401Y-9090071D01*
X7658013Y-9071513D01*
X7676571Y-9048901D01*
X7677500Y-9047163D01*
X7678429Y-9048901D01*
X7696987Y-9071513D01*
X7719599Y-9090071D01*
X7745397Y-9103860D01*
X7773389Y-9112351D01*
X7802500Y-9115219D01*
X7831611Y-9112351D01*
X7859603Y-9103860D01*
X7885401Y-9090071D01*
X7908013Y-9071513D01*
X7917711Y-9059697D01*
X7984325Y-9126311D01*
X7986784Y-9129306D01*
X7998737Y-9139116D01*
X8012374Y-9146405D01*
X8027171Y-9150894D01*
X8034663Y-9151632D01*
X8038704Y-9152030D01*
X8038704Y-9152030D01*
X8042560Y-9152410D01*
X8046416Y-9152030D01*
X8733014Y-9152030D01*
X9257545Y-9676560D01*
X9254500Y-9691867D01*
X9254500Y-9720134D01*
X9260015Y-9747857D01*
X9270832Y-9773973D01*
X9274539Y-9779521D01*
X9272882Y-9780882D01*
X9264946Y-9790551D01*
X9259050Y-9801582D01*
X9255419Y-9813552D01*
X9254193Y-9826000D01*
X9254193Y-9986000D01*
X9255090Y-9995107D01*
X9243435Y-10001336D01*
X9230721Y-10011771D01*
X9228106Y-10014957D01*
X8722063Y-10521000D01*
X8316328Y-10521000D01*
X8304026Y-10512780D01*
X8285190Y-10504977D01*
X8265194Y-10501000D01*
X8244806Y-10501000D01*
X8224810Y-10504977D01*
X8205974Y-10512780D01*
X8193671Y-10521000D01*
X5903328Y-10521000D01*
X5891026Y-10512780D01*
X5872190Y-10504977D01*
X5852194Y-10501000D01*
X5831806Y-10501000D01*
X5811810Y-10504977D01*
X5792974Y-10512780D01*
X5776023Y-10524106D01*
X5761606Y-10538523D01*
X5750279Y-10555474D01*
X5742477Y-10574310D01*
X5738500Y-10594306D01*
X5738500Y-10614694D01*
X5742477Y-10634690D01*
X5750279Y-10653526D01*
X5761606Y-10670477D01*
X5776023Y-10684894D01*
X5792974Y-10696221D01*
X5811810Y-10704023D01*
X5831806Y-10708000D01*
X5852194Y-10708000D01*
X5872190Y-10704023D01*
X5891026Y-10696221D01*
X5903328Y-10688000D01*
X8193671Y-10688000D01*
X8205974Y-10696221D01*
X8224810Y-10704023D01*
X8244806Y-10708000D01*
X8265194Y-10708000D01*
X8285190Y-10704023D01*
X8304026Y-10696221D01*
X8316328Y-10688000D01*
X8752548Y-10688000D01*
X8756650Y-10688404D01*
X8760752Y-10688000D01*
X8760752Y-10688000D01*
X8773019Y-10686792D01*
X8788759Y-10682017D01*
X8803265Y-10674264D01*
X8815979Y-10663829D01*
X8818595Y-10660642D01*
X9257993Y-10221244D01*
X9257993Y-10282200D01*
X9259219Y-10294648D01*
X9262850Y-10306618D01*
X9268746Y-10317649D01*
X9276682Y-10327319D01*
X9286351Y-10335254D01*
X9297382Y-10341150D01*
X9309352Y-10344781D01*
X9321800Y-10346007D01*
X9474200Y-10346007D01*
X9486648Y-10344781D01*
X9498618Y-10341150D01*
X9509649Y-10335254D01*
X9519319Y-10327319D01*
X9527254Y-10317649D01*
X9533150Y-10306618D01*
X9536781Y-10294648D01*
X9538007Y-10282200D01*
X9538007Y-10129800D01*
X9536781Y-10117352D01*
X9536770Y-10117316D01*
X9708143Y-9945944D01*
X9711329Y-9943329D01*
X9721764Y-9930615D01*
X9729517Y-9916109D01*
X9734292Y-9900369D01*
X9735500Y-9888102D01*
X9735500Y-9888102D01*
X9735904Y-9884000D01*
X9735500Y-9879898D01*
X9735500Y-9205329D01*
X9743721Y-9193026D01*
X9751523Y-9174190D01*
X9755500Y-9154194D01*
X9755500Y-9133806D01*
X9929500Y-9133806D01*
X9929500Y-9154194D01*
X9933477Y-9174190D01*
X9941280Y-9193026D01*
X9949500Y-9205329D01*
X9949500Y-10028898D01*
X9949096Y-10033000D01*
X9949686Y-10038991D01*
X9950708Y-10049369D01*
X9955483Y-10065109D01*
X9963236Y-10079615D01*
X9973671Y-10092329D01*
X9976858Y-10094945D01*
X10542556Y-10660643D01*
X10545171Y-10663829D01*
X10557885Y-10674264D01*
X10572391Y-10682017D01*
X10588131Y-10686792D01*
X10600398Y-10688000D01*
X10600398Y-10688000D01*
X10604500Y-10688404D01*
X10608602Y-10688000D01*
X10733672Y-10688000D01*
X10745974Y-10696221D01*
X10764810Y-10704023D01*
X10784806Y-10708000D01*
X10805194Y-10708000D01*
X10825190Y-10704023D01*
X10844026Y-10696221D01*
X10856329Y-10688000D01*
X13210171Y-10688000D01*
X13222474Y-10696221D01*
X13241310Y-10704023D01*
X13261306Y-10708000D01*
X13281694Y-10708000D01*
X13301690Y-10704023D01*
X13320526Y-10696221D01*
X13337477Y-10684894D01*
X13351894Y-10670477D01*
X13363220Y-10653526D01*
X13371023Y-10634690D01*
X13375000Y-10614694D01*
X13375000Y-10594306D01*
X13371023Y-10574310D01*
X13363220Y-10555474D01*
X13351894Y-10538523D01*
X13337477Y-10524106D01*
X13320526Y-10512780D01*
X13301690Y-10504977D01*
X13281694Y-10501000D01*
X13261306Y-10501000D01*
X13241310Y-10504977D01*
X13222474Y-10512780D01*
X13210171Y-10521000D01*
X10856329Y-10521000D01*
X10844026Y-10512780D01*
X10825190Y-10504977D01*
X10805194Y-10501000D01*
X10784806Y-10501000D01*
X10764810Y-10504977D01*
X10745974Y-10512780D01*
X10733672Y-10521000D01*
X10639087Y-10521000D01*
X10464017Y-10345930D01*
X10464800Y-10346007D01*
X10617200Y-10346007D01*
X10629648Y-10344781D01*
X10641618Y-10341150D01*
X10652649Y-10335254D01*
X10662319Y-10327319D01*
X10670254Y-10317649D01*
X10676150Y-10306618D01*
X10679781Y-10294648D01*
X10681007Y-10282200D01*
X10681007Y-10129800D01*
X10679781Y-10117352D01*
X10676150Y-10105382D01*
X10670254Y-10094351D01*
X10662319Y-10084682D01*
X10652649Y-10076746D01*
X10641618Y-10070850D01*
X10634500Y-10068691D01*
X10634500Y-10048262D01*
X10645418Y-10044950D01*
X10656449Y-10039054D01*
X10666119Y-10031119D01*
X10674054Y-10021449D01*
X10679950Y-10010418D01*
X10683581Y-9998448D01*
X10684807Y-9986000D01*
X10684807Y-9826000D01*
X11794193Y-9826000D01*
X11794193Y-9986000D01*
X11795419Y-9998448D01*
X11799050Y-10010418D01*
X11804946Y-10021449D01*
X11812881Y-10031119D01*
X11822551Y-10039054D01*
X11833582Y-10044950D01*
X11845552Y-10048581D01*
X11858000Y-10049807D01*
X11859500Y-10049807D01*
X11859500Y-10066219D01*
X11849352Y-10067219D01*
X11837382Y-10070850D01*
X11826351Y-10076746D01*
X11816681Y-10084682D01*
X11808746Y-10094351D01*
X11802850Y-10105382D01*
X11799219Y-10117352D01*
X11797993Y-10129800D01*
X11797993Y-10282200D01*
X11799219Y-10294648D01*
X11802850Y-10306618D01*
X11808746Y-10317649D01*
X11816681Y-10327319D01*
X11826351Y-10335254D01*
X11837382Y-10341150D01*
X11849352Y-10344781D01*
X11861800Y-10346007D01*
X12014200Y-10346007D01*
X12026648Y-10344781D01*
X12038618Y-10341150D01*
X12049649Y-10335254D01*
X12059318Y-10327319D01*
X12067254Y-10317649D01*
X12073150Y-10306618D01*
X12076781Y-10294648D01*
X12078007Y-10282200D01*
X12078007Y-10129800D01*
X12076781Y-10117352D01*
X12073150Y-10105382D01*
X12067254Y-10094351D01*
X12059318Y-10084682D01*
X12049649Y-10076746D01*
X12038618Y-10070850D01*
X12026648Y-10067219D01*
X12016500Y-10066219D01*
X12016500Y-10049807D01*
X12018000Y-10049807D01*
X12030448Y-10048581D01*
X12042418Y-10044950D01*
X12053449Y-10039054D01*
X12063118Y-10031119D01*
X12071054Y-10021449D01*
X12076950Y-10010418D01*
X12080581Y-9998448D01*
X12081807Y-9986000D01*
X12081807Y-9826000D01*
X12810193Y-9826000D01*
X12810193Y-9986000D01*
X12811419Y-9998448D01*
X12815050Y-10010418D01*
X12820946Y-10021449D01*
X12828881Y-10031119D01*
X12838551Y-10039054D01*
X12849582Y-10044950D01*
X12861552Y-10048581D01*
X12874000Y-10049807D01*
X12875500Y-10049807D01*
X12875500Y-10066219D01*
X12865352Y-10067219D01*
X12853382Y-10070850D01*
X12842351Y-10076746D01*
X12832681Y-10084682D01*
X12824746Y-10094351D01*
X12818850Y-10105382D01*
X12815219Y-10117352D01*
X12813993Y-10129800D01*
X12813993Y-10282200D01*
X12815219Y-10294648D01*
X12818850Y-10306618D01*
X12824746Y-10317649D01*
X12832681Y-10327319D01*
X12842351Y-10335254D01*
X12853382Y-10341150D01*
X12865352Y-10344781D01*
X12877800Y-10346007D01*
X13030200Y-10346007D01*
X13042648Y-10344781D01*
X13054618Y-10341150D01*
X13065649Y-10335254D01*
X13075318Y-10327319D01*
X13083254Y-10317649D01*
X13089150Y-10306618D01*
X13092781Y-10294648D01*
X13094007Y-10282200D01*
X13094007Y-10129800D01*
X13092781Y-10117352D01*
X13089150Y-10105382D01*
X13083254Y-10094351D01*
X13075318Y-10084682D01*
X13065649Y-10076746D01*
X13054618Y-10070850D01*
X13042648Y-10067219D01*
X13032500Y-10066219D01*
X13032500Y-10049807D01*
X13034000Y-10049807D01*
X13046448Y-10048581D01*
X13058418Y-10044950D01*
X13069449Y-10039054D01*
X13079118Y-10031119D01*
X13087054Y-10021449D01*
X13092950Y-10010418D01*
X13096581Y-9998448D01*
X13097807Y-9986000D01*
X13097807Y-9826000D01*
X13096581Y-9813552D01*
X13092950Y-9801582D01*
X13087054Y-9790551D01*
X13079118Y-9780882D01*
X13077461Y-9779521D01*
X13081168Y-9773973D01*
X13091985Y-9747857D01*
X13097500Y-9720134D01*
X13097500Y-9691867D01*
X13091985Y-9664143D01*
X13081168Y-9638027D01*
X13065464Y-9614524D01*
X13045476Y-9594536D01*
X13021973Y-9578832D01*
X12995857Y-9568015D01*
X12968133Y-9562500D01*
X12939866Y-9562500D01*
X12912143Y-9568015D01*
X12886027Y-9578832D01*
X12862524Y-9594536D01*
X12842536Y-9614524D01*
X12826832Y-9638027D01*
X12816015Y-9664143D01*
X12810500Y-9691867D01*
X12810500Y-9720134D01*
X12816015Y-9747857D01*
X12826832Y-9773973D01*
X12830539Y-9779521D01*
X12828881Y-9780882D01*
X12820946Y-9790551D01*
X12815050Y-9801582D01*
X12811419Y-9813552D01*
X12810193Y-9826000D01*
X12081807Y-9826000D01*
X12080581Y-9813552D01*
X12076950Y-9801582D01*
X12071054Y-9790551D01*
X12063118Y-9780882D01*
X12061461Y-9779521D01*
X12065168Y-9773973D01*
X12075985Y-9747857D01*
X12081500Y-9720134D01*
X12081500Y-9691867D01*
X12075985Y-9664143D01*
X12065168Y-9638027D01*
X12049464Y-9614524D01*
X12029476Y-9594536D01*
X12005973Y-9578832D01*
X11979857Y-9568015D01*
X11952133Y-9562500D01*
X11923866Y-9562500D01*
X11896143Y-9568015D01*
X11870027Y-9578832D01*
X11846524Y-9594536D01*
X11826536Y-9614524D01*
X11810832Y-9638027D01*
X11800015Y-9664143D01*
X11794500Y-9691867D01*
X11794500Y-9720134D01*
X11800015Y-9747857D01*
X11810832Y-9773973D01*
X11814539Y-9779521D01*
X11812881Y-9780882D01*
X11804946Y-9790551D01*
X11799050Y-9801582D01*
X11795419Y-9813552D01*
X11794193Y-9826000D01*
X10684807Y-9826000D01*
X10683581Y-9813552D01*
X10679950Y-9801582D01*
X10674054Y-9790551D01*
X10669088Y-9784500D01*
X11596745Y-9784500D01*
X11600600Y-9784880D01*
X11604455Y-9784500D01*
X11604456Y-9784500D01*
X11615989Y-9783364D01*
X11630786Y-9778875D01*
X11644423Y-9771586D01*
X11656376Y-9761776D01*
X11658835Y-9758781D01*
X12309622Y-9107993D01*
X12323989Y-9112351D01*
X12353100Y-9115219D01*
X12382211Y-9112351D01*
X12410203Y-9103860D01*
X12436001Y-9090071D01*
X12458613Y-9071513D01*
X12477171Y-9048901D01*
X12478100Y-9047163D01*
X12479029Y-9048901D01*
X12497587Y-9071513D01*
X12520199Y-9090071D01*
X12545997Y-9103860D01*
X12573989Y-9112351D01*
X12603100Y-9115219D01*
X12632211Y-9112351D01*
X12660203Y-9103860D01*
X12686001Y-9090071D01*
X12708613Y-9071513D01*
X12718311Y-9059697D01*
X13417396Y-9758782D01*
X13419854Y-9761776D01*
X13422848Y-9764234D01*
X13422849Y-9764235D01*
X13425786Y-9766645D01*
X13431807Y-9771586D01*
X13445444Y-9778875D01*
X13460241Y-9783364D01*
X13471774Y-9784500D01*
X13471775Y-9784500D01*
X13475630Y-9784880D01*
X13479485Y-9784500D01*
X14349912Y-9784500D01*
X14344946Y-9790551D01*
X14339050Y-9801582D01*
X14335419Y-9813552D01*
X14334193Y-9826000D01*
X14334193Y-9986000D01*
X14335419Y-9998448D01*
X14339050Y-10010418D01*
X14344946Y-10021449D01*
X14352881Y-10031119D01*
X14362551Y-10039054D01*
X14373582Y-10044950D01*
X14385552Y-10048581D01*
X14398000Y-10049807D01*
X14399500Y-10049807D01*
X14399500Y-10066219D01*
X14389352Y-10067219D01*
X14377382Y-10070850D01*
X14366351Y-10076746D01*
X14356681Y-10084682D01*
X14348746Y-10094351D01*
X14342850Y-10105382D01*
X14339219Y-10117352D01*
X14337993Y-10129800D01*
X14337993Y-10282200D01*
X14339219Y-10294648D01*
X14342850Y-10306618D01*
X14348746Y-10317649D01*
X14356681Y-10327319D01*
X14366351Y-10335254D01*
X14377382Y-10341150D01*
X14389352Y-10344781D01*
X14401800Y-10346007D01*
X14554200Y-10346007D01*
X14566648Y-10344781D01*
X14578618Y-10341150D01*
X14589649Y-10335254D01*
X14599318Y-10327319D01*
X14607254Y-10317649D01*
X14613150Y-10306618D01*
X14616781Y-10294648D01*
X14618007Y-10282200D01*
X14618007Y-10129800D01*
X14616781Y-10117352D01*
X14613150Y-10105382D01*
X14607254Y-10094351D01*
X14599318Y-10084682D01*
X14589649Y-10076746D01*
X14578618Y-10070850D01*
X14566648Y-10067219D01*
X14556500Y-10066219D01*
X14556500Y-10049807D01*
X14558000Y-10049807D01*
X14570448Y-10048581D01*
X14582418Y-10044950D01*
X14593449Y-10039054D01*
X14603118Y-10031119D01*
X14611054Y-10021449D01*
X14616950Y-10010418D01*
X14620581Y-9998448D01*
X14621807Y-9986000D01*
X14621807Y-9826000D01*
X14620581Y-9813552D01*
X14616950Y-9801582D01*
X14611054Y-9790551D01*
X14603118Y-9780882D01*
X14601461Y-9779521D01*
X14605168Y-9773973D01*
X14615985Y-9747857D01*
X14621500Y-9720134D01*
X14621500Y-9691867D01*
X14615985Y-9664143D01*
X14605168Y-9638027D01*
X14589464Y-9614524D01*
X14569476Y-9594536D01*
X14545973Y-9578832D01*
X14519857Y-9568015D01*
X14492133Y-9562500D01*
X14463866Y-9562500D01*
X14436143Y-9568015D01*
X14410027Y-9578832D01*
X14386524Y-9594536D01*
X14366536Y-9614524D01*
X14357866Y-9627500D01*
X13508146Y-9627500D01*
X13339916Y-9459270D01*
X13835784Y-9459270D01*
X13842942Y-9483667D01*
X13868493Y-9495757D01*
X13895912Y-9502630D01*
X13924145Y-9504022D01*
X13952107Y-9499879D01*
X13978723Y-9490360D01*
X13991245Y-9483667D01*
X13998403Y-9459270D01*
X13917094Y-9377961D01*
X13835784Y-9459270D01*
X13339916Y-9459270D01*
X12781365Y-8900719D01*
X12778906Y-8897724D01*
X12766953Y-8887914D01*
X12753316Y-8880625D01*
X12738519Y-8876136D01*
X12736717Y-8875958D01*
X12727171Y-8858099D01*
X12708613Y-8835487D01*
X12686001Y-8816929D01*
X12660203Y-8803140D01*
X12632211Y-8794649D01*
X12603100Y-8791782D01*
X12573989Y-8794649D01*
X12545997Y-8803140D01*
X12520199Y-8816929D01*
X12497587Y-8835487D01*
X12479029Y-8858099D01*
X12478100Y-8859837D01*
X12477171Y-8858099D01*
X12458613Y-8835487D01*
X12436001Y-8816929D01*
X12410203Y-8803140D01*
X12382211Y-8794649D01*
X12353100Y-8791782D01*
X12323989Y-8794649D01*
X12295997Y-8803140D01*
X12270199Y-8816929D01*
X12247587Y-8835487D01*
X12242378Y-8841834D01*
X12236940Y-8831661D01*
X12225896Y-8818204D01*
X12212439Y-8807160D01*
X12197085Y-8798953D01*
X12180425Y-8793899D01*
X12163100Y-8792193D01*
X12043100Y-8792193D01*
X12025775Y-8793899D01*
X12009115Y-8798953D01*
X11993761Y-8807160D01*
X11980304Y-8818204D01*
X11969259Y-8831661D01*
X11961053Y-8847015D01*
X11955999Y-8863675D01*
X11954293Y-8881000D01*
X11954293Y-9026000D01*
X11954687Y-9030000D01*
X11930936Y-9030000D01*
X11907076Y-9034746D01*
X11884601Y-9044056D01*
X11864373Y-9057571D01*
X11847171Y-9074773D01*
X11833656Y-9095001D01*
X11824346Y-9117476D01*
X11819600Y-9141336D01*
X11819600Y-9165664D01*
X11824346Y-9189524D01*
X11833656Y-9211999D01*
X11847171Y-9232227D01*
X11864373Y-9249429D01*
X11884601Y-9262944D01*
X11907076Y-9272254D01*
X11920634Y-9274951D01*
X11568084Y-9627500D01*
X10661134Y-9627500D01*
X10652464Y-9614524D01*
X10632476Y-9594536D01*
X10608973Y-9578832D01*
X10582857Y-9568015D01*
X10555134Y-9562500D01*
X10526867Y-9562500D01*
X10499143Y-9568015D01*
X10473027Y-9578832D01*
X10449524Y-9594536D01*
X10429536Y-9614524D01*
X10413832Y-9638027D01*
X10403015Y-9664143D01*
X10397500Y-9691867D01*
X10397500Y-9720134D01*
X10403015Y-9747857D01*
X10413832Y-9773973D01*
X10417539Y-9779521D01*
X10415882Y-9780882D01*
X10407946Y-9790551D01*
X10402050Y-9801582D01*
X10398419Y-9813552D01*
X10397193Y-9826000D01*
X10397193Y-9986000D01*
X10398419Y-9998448D01*
X10402050Y-10010418D01*
X10407946Y-10021449D01*
X10415882Y-10031119D01*
X10425551Y-10039054D01*
X10436582Y-10044950D01*
X10447500Y-10048262D01*
X10447500Y-10068691D01*
X10440382Y-10070850D01*
X10429351Y-10076746D01*
X10419682Y-10084682D01*
X10411746Y-10094351D01*
X10405850Y-10105382D01*
X10402219Y-10117352D01*
X10400993Y-10129800D01*
X10400993Y-10282200D01*
X10401070Y-10282983D01*
X10116500Y-9998413D01*
X10116500Y-9205329D01*
X10124721Y-9193026D01*
X10132523Y-9174190D01*
X10136500Y-9154194D01*
X10136500Y-9133806D01*
X10132523Y-9113810D01*
X10124721Y-9094974D01*
X10113394Y-9078023D01*
X10098977Y-9063606D01*
X10082026Y-9052280D01*
X10063190Y-9044477D01*
X10043194Y-9040500D01*
X10022806Y-9040500D01*
X10002810Y-9044477D01*
X9983974Y-9052280D01*
X9967023Y-9063606D01*
X9952606Y-9078023D01*
X9941280Y-9094974D01*
X9933477Y-9113810D01*
X9929500Y-9133806D01*
X9755500Y-9133806D01*
X9751523Y-9113810D01*
X9743721Y-9094974D01*
X9732394Y-9078023D01*
X9717977Y-9063606D01*
X9701026Y-9052280D01*
X9682190Y-9044477D01*
X9662194Y-9040500D01*
X9641806Y-9040500D01*
X9621810Y-9044477D01*
X9602974Y-9052280D01*
X9586023Y-9063606D01*
X9571606Y-9078023D01*
X9560280Y-9094974D01*
X9552477Y-9113810D01*
X9548500Y-9133806D01*
X9548500Y-9154194D01*
X9552477Y-9174190D01*
X9560280Y-9193026D01*
X9568500Y-9205329D01*
X9568500Y-9849413D01*
X9541807Y-9876106D01*
X9541807Y-9826000D01*
X9540581Y-9813552D01*
X9536950Y-9801582D01*
X9531054Y-9790551D01*
X9523119Y-9780882D01*
X9521461Y-9779521D01*
X9525168Y-9773973D01*
X9535985Y-9747857D01*
X9541500Y-9720134D01*
X9541500Y-9691867D01*
X9535985Y-9664143D01*
X9525168Y-9638027D01*
X9509464Y-9614524D01*
X9489476Y-9594536D01*
X9465973Y-9578832D01*
X9439857Y-9568015D01*
X9412134Y-9562500D01*
X9383867Y-9562500D01*
X9368560Y-9565545D01*
X8828119Y-9025103D01*
X8846684Y-9032793D01*
X8875374Y-9038500D01*
X8904626Y-9038500D01*
X8933316Y-9032793D01*
X8960341Y-9021599D01*
X8984663Y-9005348D01*
X9005348Y-8984663D01*
X9021599Y-8960341D01*
X9032793Y-8933316D01*
X9038500Y-8904626D01*
X9038500Y-8875374D01*
X9032793Y-8846684D01*
X9021599Y-8819659D01*
X9005348Y-8795337D01*
X9004691Y-8794680D01*
X9033371Y-8766000D01*
X10023761Y-8766000D01*
X10016763Y-8770676D01*
X10002346Y-8785093D01*
X9991020Y-8802044D01*
X9983217Y-8820880D01*
X9979240Y-8840876D01*
X9979240Y-8861264D01*
X9983217Y-8881260D01*
X9991020Y-8900096D01*
X10002346Y-8917047D01*
X10016763Y-8931464D01*
X10033714Y-8942791D01*
X10052550Y-8950593D01*
X10072546Y-8954570D01*
X10092934Y-8954570D01*
X10112930Y-8950593D01*
X10131766Y-8942791D01*
X10148717Y-8931464D01*
X10163134Y-8917047D01*
X10172821Y-8902550D01*
X10652309Y-8902550D01*
X10654203Y-8904444D01*
X10671154Y-8915771D01*
X10689990Y-8923573D01*
X10709986Y-8927550D01*
X10730374Y-8927550D01*
X10750370Y-8923573D01*
X10769206Y-8915771D01*
X10786157Y-8904444D01*
X10800574Y-8890027D01*
X10811901Y-8873076D01*
X10819703Y-8854240D01*
X10823680Y-8834244D01*
X10823680Y-8813856D01*
X10819703Y-8793860D01*
X10811901Y-8775024D01*
X10805871Y-8766000D01*
X13112529Y-8766000D01*
X13389099Y-9042570D01*
X13389099Y-9120000D01*
X13390325Y-9132448D01*
X13393956Y-9144418D01*
X13399853Y-9155449D01*
X13407788Y-9165119D01*
X13417457Y-9173054D01*
X13428488Y-9178950D01*
X13440458Y-9182581D01*
X13452906Y-9183807D01*
X13456193Y-9183807D01*
X13456193Y-9280000D01*
X13457419Y-9292448D01*
X13461050Y-9304418D01*
X13466946Y-9315449D01*
X13474881Y-9325119D01*
X13484551Y-9333054D01*
X13495582Y-9338950D01*
X13507552Y-9342581D01*
X13520000Y-9343807D01*
X13680000Y-9343807D01*
X13692448Y-9342581D01*
X13704418Y-9338950D01*
X13715449Y-9333054D01*
X13725118Y-9325119D01*
X13733054Y-9315449D01*
X13738950Y-9304418D01*
X13740512Y-9299270D01*
X13768690Y-9299270D01*
X13775849Y-9323667D01*
X13778006Y-9324688D01*
X13774464Y-9338818D01*
X13773072Y-9367051D01*
X13777215Y-9395013D01*
X13786733Y-9421629D01*
X13793427Y-9434151D01*
X13817823Y-9441310D01*
X13899133Y-9360000D01*
X13935054Y-9360000D01*
X14016364Y-9441310D01*
X14040761Y-9434151D01*
X14052851Y-9408600D01*
X14059724Y-9381182D01*
X14061115Y-9352949D01*
X14056972Y-9324987D01*
X14047454Y-9298371D01*
X14040761Y-9285849D01*
X14016364Y-9278690D01*
X13935054Y-9360000D01*
X13899133Y-9360000D01*
X13897719Y-9358586D01*
X13915679Y-9340625D01*
X13917094Y-9342040D01*
X13998403Y-9260730D01*
X13991245Y-9236333D01*
X13989088Y-9235312D01*
X13992630Y-9221182D01*
X13994022Y-9192949D01*
X13989879Y-9164987D01*
X13980360Y-9138371D01*
X13973667Y-9125849D01*
X13949270Y-9118690D01*
X13867960Y-9200000D01*
X13869375Y-9201414D01*
X13851414Y-9219375D01*
X13850000Y-9217961D01*
X13768690Y-9299270D01*
X13740512Y-9299270D01*
X13742581Y-9292448D01*
X13743807Y-9280000D01*
X13743807Y-9279279D01*
X13750730Y-9281310D01*
X13832039Y-9200000D01*
X13750730Y-9118690D01*
X13743807Y-9120722D01*
X13743807Y-9120000D01*
X13742581Y-9107552D01*
X13740512Y-9100730D01*
X13768690Y-9100730D01*
X13850000Y-9182040D01*
X13931310Y-9100730D01*
X13924151Y-9076333D01*
X13898600Y-9064243D01*
X13871182Y-9057370D01*
X13842949Y-9055978D01*
X13814987Y-9060121D01*
X13788371Y-9069640D01*
X13775849Y-9076333D01*
X13768690Y-9100730D01*
X13740512Y-9100730D01*
X13738950Y-9095582D01*
X13733054Y-9084551D01*
X13725118Y-9074882D01*
X13715449Y-9066946D01*
X13704418Y-9061050D01*
X13692448Y-9057419D01*
X13680000Y-9056193D01*
X13676713Y-9056193D01*
X13676713Y-8960000D01*
X13675487Y-8947552D01*
X13671856Y-8935582D01*
X13665960Y-8924551D01*
X13658025Y-8914882D01*
X13648356Y-8906946D01*
X13637324Y-8901050D01*
X13625354Y-8897419D01*
X13612906Y-8896193D01*
X13535464Y-8896193D01*
X13305271Y-8666000D01*
X14391649Y-8666000D01*
X14352116Y-8705533D01*
X14310147Y-8768345D01*
X14281238Y-8838137D01*
X14266500Y-8912229D01*
X14266500Y-8987772D01*
X14281238Y-9061863D01*
X14310147Y-9131655D01*
X14352116Y-9194467D01*
X14405533Y-9247884D01*
X14468345Y-9289853D01*
X14538137Y-9318762D01*
X14612228Y-9333500D01*
X14687771Y-9333500D01*
X14761863Y-9318762D01*
X14831655Y-9289853D01*
X14894467Y-9247884D01*
X14934000Y-9208351D01*
X14934000Y-14341649D01*
X14894467Y-14302116D01*
X14831655Y-14260147D01*
X14761863Y-14231238D01*
X14687771Y-14216500D01*
X14612228Y-14216500D01*
X14538137Y-14231238D01*
X14468345Y-14260147D01*
X14405533Y-14302116D01*
X14352116Y-14355533D01*
X14310147Y-14418345D01*
X14281238Y-14488137D01*
X14266500Y-14562228D01*
X14266500Y-14637771D01*
X14281238Y-14711863D01*
X14310147Y-14781655D01*
X14352116Y-14844467D01*
X14391649Y-14884000D01*
X5608351Y-14884000D01*
X5647884Y-14844467D01*
X5689853Y-14781655D01*
X5718762Y-14711863D01*
X5733500Y-14637771D01*
X5733500Y-14562228D01*
X5718762Y-14488137D01*
X5689853Y-14418345D01*
X5647884Y-14355533D01*
X5594467Y-14302116D01*
X5531655Y-14260147D01*
X5461863Y-14231238D01*
X5387772Y-14216500D01*
X5312229Y-14216500D01*
X5238137Y-14231238D01*
X5168345Y-14260147D01*
X5105533Y-14302116D01*
X5066000Y-14341649D01*
X5066000Y-12675000D01*
X5361193Y-12675000D01*
X5361193Y-12925000D01*
X5362419Y-12937448D01*
X5366050Y-12949418D01*
X5371946Y-12960449D01*
X5379882Y-12970118D01*
X5389551Y-12978054D01*
X5400582Y-12983950D01*
X5412552Y-12987581D01*
X5425000Y-12988807D01*
X5675000Y-12988807D01*
X5687448Y-12987581D01*
X5699418Y-12983950D01*
X5710449Y-12978054D01*
X5720118Y-12970118D01*
X5728054Y-12960449D01*
X5733950Y-12949418D01*
X5737581Y-12937448D01*
X5738807Y-12925000D01*
X5738807Y-12781434D01*
X6161500Y-12781434D01*
X6161500Y-12818566D01*
X6168744Y-12854983D01*
X6182953Y-12889288D01*
X6203582Y-12920162D01*
X6229838Y-12946417D01*
X6260712Y-12967047D01*
X6295017Y-12981256D01*
X6331434Y-12988500D01*
X6368566Y-12988500D01*
X6404983Y-12981256D01*
X6439288Y-12967047D01*
X6470162Y-12946417D01*
X6496417Y-12920162D01*
X6517047Y-12889288D01*
X6531256Y-12854983D01*
X6538500Y-12818566D01*
X6538500Y-12781434D01*
X6531256Y-12745017D01*
X6517047Y-12710712D01*
X6496417Y-12679838D01*
X6478808Y-12662228D01*
X6916500Y-12662228D01*
X6916500Y-12737771D01*
X6931238Y-12811863D01*
X6960147Y-12881655D01*
X7002116Y-12944467D01*
X7055533Y-12997884D01*
X7118345Y-13039853D01*
X7188137Y-13068762D01*
X7262228Y-13083500D01*
X7337771Y-13083500D01*
X7411863Y-13068762D01*
X7481655Y-13039853D01*
X7544467Y-12997884D01*
X7597884Y-12944467D01*
X7639853Y-12881655D01*
X7668762Y-12811863D01*
X7683500Y-12737771D01*
X7683500Y-12675000D01*
X8061193Y-12675000D01*
X8061193Y-12925000D01*
X8062419Y-12937448D01*
X8066050Y-12949418D01*
X8071946Y-12960449D01*
X8079881Y-12970118D01*
X8089551Y-12978054D01*
X8100582Y-12983950D01*
X8112552Y-12987581D01*
X8125000Y-12988807D01*
X8375000Y-12988807D01*
X8387448Y-12987581D01*
X8399418Y-12983950D01*
X8410449Y-12978054D01*
X8420119Y-12970118D01*
X8428054Y-12960449D01*
X8433950Y-12949418D01*
X8437581Y-12937448D01*
X8438807Y-12925000D01*
X8438807Y-12781434D01*
X8861500Y-12781434D01*
X8861500Y-12818566D01*
X8868744Y-12854983D01*
X8882953Y-12889288D01*
X8903583Y-12920162D01*
X8929838Y-12946417D01*
X8960712Y-12967047D01*
X8995017Y-12981256D01*
X9031434Y-12988500D01*
X9068566Y-12988500D01*
X9104983Y-12981256D01*
X9139288Y-12967047D01*
X9170162Y-12946417D01*
X9196418Y-12920162D01*
X9217047Y-12889288D01*
X9231256Y-12854983D01*
X9238500Y-12818566D01*
X9238500Y-12781434D01*
X9231256Y-12745017D01*
X9217047Y-12710712D01*
X9196418Y-12679838D01*
X9191579Y-12675000D01*
X10761193Y-12675000D01*
X10761193Y-12925000D01*
X10762419Y-12937448D01*
X10766050Y-12949418D01*
X10771946Y-12960449D01*
X10779882Y-12970118D01*
X10789551Y-12978054D01*
X10800582Y-12983950D01*
X10812552Y-12987581D01*
X10825000Y-12988807D01*
X11075000Y-12988807D01*
X11087448Y-12987581D01*
X11099418Y-12983950D01*
X11110449Y-12978054D01*
X11120119Y-12970118D01*
X11128054Y-12960449D01*
X11133950Y-12949418D01*
X11137581Y-12937448D01*
X11138807Y-12925000D01*
X11138807Y-12781434D01*
X11561500Y-12781434D01*
X11561500Y-12818566D01*
X11568744Y-12854983D01*
X11582953Y-12889288D01*
X11603582Y-12920162D01*
X11629838Y-12946417D01*
X11660712Y-12967047D01*
X11695017Y-12981256D01*
X11731434Y-12988500D01*
X11768566Y-12988500D01*
X11804983Y-12981256D01*
X11839288Y-12967047D01*
X11870162Y-12946417D01*
X11896417Y-12920162D01*
X11917047Y-12889288D01*
X11931256Y-12854983D01*
X11938500Y-12818566D01*
X11938500Y-12781434D01*
X11931256Y-12745017D01*
X11917047Y-12710712D01*
X11896417Y-12679838D01*
X11878808Y-12662228D01*
X12316500Y-12662228D01*
X12316500Y-12737771D01*
X12331238Y-12811863D01*
X12360147Y-12881655D01*
X12402116Y-12944467D01*
X12455533Y-12997884D01*
X12518345Y-13039853D01*
X12588137Y-13068762D01*
X12662228Y-13083500D01*
X12737771Y-13083500D01*
X12811863Y-13068762D01*
X12881655Y-13039853D01*
X12944467Y-12997884D01*
X12997884Y-12944467D01*
X13039853Y-12881655D01*
X13068762Y-12811863D01*
X13083500Y-12737771D01*
X13083500Y-12675000D01*
X13461193Y-12675000D01*
X13461193Y-12925000D01*
X13462419Y-12937448D01*
X13466050Y-12949418D01*
X13471946Y-12960449D01*
X13479881Y-12970118D01*
X13489551Y-12978054D01*
X13500582Y-12983950D01*
X13512552Y-12987581D01*
X13525000Y-12988807D01*
X13775000Y-12988807D01*
X13787448Y-12987581D01*
X13799418Y-12983950D01*
X13810449Y-12978054D01*
X13820118Y-12970118D01*
X13828054Y-12960449D01*
X13833950Y-12949418D01*
X13837581Y-12937448D01*
X13838807Y-12925000D01*
X13838807Y-12781434D01*
X14261500Y-12781434D01*
X14261500Y-12818566D01*
X14268744Y-12854983D01*
X14282953Y-12889288D01*
X14303582Y-12920162D01*
X14329838Y-12946417D01*
X14360712Y-12967047D01*
X14395017Y-12981256D01*
X14431434Y-12988500D01*
X14468566Y-12988500D01*
X14504983Y-12981256D01*
X14539288Y-12967047D01*
X14570162Y-12946417D01*
X14596417Y-12920162D01*
X14617047Y-12889288D01*
X14631256Y-12854983D01*
X14638500Y-12818566D01*
X14638500Y-12781434D01*
X14631256Y-12745017D01*
X14617047Y-12710712D01*
X14596417Y-12679838D01*
X14570162Y-12653582D01*
X14539288Y-12632953D01*
X14504983Y-12618744D01*
X14468566Y-12611500D01*
X14431434Y-12611500D01*
X14395017Y-12618744D01*
X14360712Y-12632953D01*
X14329838Y-12653582D01*
X14303582Y-12679838D01*
X14282953Y-12710712D01*
X14268744Y-12745017D01*
X14261500Y-12781434D01*
X13838807Y-12781434D01*
X13838807Y-12675000D01*
X13837581Y-12662552D01*
X13833950Y-12650582D01*
X13828054Y-12639551D01*
X13820118Y-12629881D01*
X13810449Y-12621946D01*
X13799418Y-12616050D01*
X13787448Y-12612419D01*
X13775000Y-12611193D01*
X13525000Y-12611193D01*
X13512552Y-12612419D01*
X13500582Y-12616050D01*
X13489551Y-12621946D01*
X13479881Y-12629881D01*
X13471946Y-12639551D01*
X13466050Y-12650582D01*
X13462419Y-12662552D01*
X13461193Y-12675000D01*
X13083500Y-12675000D01*
X13083500Y-12662228D01*
X13068762Y-12588137D01*
X13039853Y-12518345D01*
X12997884Y-12455533D01*
X12944467Y-12402116D01*
X12888919Y-12365000D01*
X13301193Y-12365000D01*
X13301193Y-12535000D01*
X13302419Y-12547448D01*
X13306050Y-12559418D01*
X13311946Y-12570449D01*
X13319881Y-12580118D01*
X13329551Y-12588054D01*
X13340582Y-12593950D01*
X13352552Y-12597581D01*
X13365000Y-12598807D01*
X13535000Y-12598807D01*
X13547448Y-12597581D01*
X13559418Y-12593950D01*
X13570449Y-12588054D01*
X13580118Y-12580118D01*
X13588054Y-12570449D01*
X13593950Y-12559418D01*
X13596397Y-12551353D01*
X13603973Y-12559759D01*
X13627308Y-12577164D01*
X13653590Y-12589682D01*
X13668311Y-12594148D01*
X13691300Y-12582015D01*
X13691300Y-12462700D01*
X13716700Y-12462700D01*
X13716700Y-12582015D01*
X13739689Y-12594148D01*
X13754410Y-12589682D01*
X13780692Y-12577164D01*
X13804027Y-12559759D01*
X13823518Y-12538135D01*
X13838416Y-12513125D01*
X13848148Y-12485689D01*
X13836081Y-12462700D01*
X13716700Y-12462700D01*
X13691300Y-12462700D01*
X13689300Y-12462700D01*
X13689300Y-12437300D01*
X13691300Y-12437300D01*
X13691300Y-12317984D01*
X13716700Y-12317984D01*
X13716700Y-12437300D01*
X13836081Y-12437300D01*
X13848148Y-12414311D01*
X13838416Y-12386875D01*
X13834579Y-12380434D01*
X13861500Y-12380434D01*
X13861500Y-12417566D01*
X13868744Y-12453983D01*
X13882953Y-12488288D01*
X13903582Y-12519162D01*
X13929838Y-12545417D01*
X13960712Y-12566047D01*
X13995017Y-12580256D01*
X14031434Y-12587500D01*
X14068566Y-12587500D01*
X14104983Y-12580256D01*
X14139288Y-12566047D01*
X14170162Y-12545417D01*
X14196417Y-12519162D01*
X14217047Y-12488288D01*
X14231256Y-12453983D01*
X14238500Y-12417566D01*
X14238500Y-12380434D01*
X14231256Y-12344017D01*
X14217047Y-12309712D01*
X14196417Y-12278838D01*
X14170162Y-12252582D01*
X14139288Y-12231953D01*
X14104983Y-12217744D01*
X14068566Y-12210500D01*
X14031434Y-12210500D01*
X13995017Y-12217744D01*
X13960712Y-12231953D01*
X13929838Y-12252582D01*
X13903582Y-12278838D01*
X13882953Y-12309712D01*
X13868744Y-12344017D01*
X13861500Y-12380434D01*
X13834579Y-12380434D01*
X13823518Y-12361864D01*
X13804027Y-12340241D01*
X13780692Y-12322836D01*
X13754410Y-12310317D01*
X13739689Y-12305852D01*
X13716700Y-12317984D01*
X13691300Y-12317984D01*
X13668311Y-12305852D01*
X13653590Y-12310317D01*
X13627308Y-12322836D01*
X13603973Y-12340241D01*
X13596397Y-12348647D01*
X13593950Y-12340582D01*
X13588054Y-12329551D01*
X13580118Y-12319881D01*
X13570449Y-12311946D01*
X13559418Y-12306050D01*
X13547448Y-12302419D01*
X13535000Y-12301193D01*
X13365000Y-12301193D01*
X13352552Y-12302419D01*
X13340582Y-12306050D01*
X13329551Y-12311946D01*
X13319881Y-12319881D01*
X13311946Y-12329551D01*
X13306050Y-12340582D01*
X13302419Y-12352552D01*
X13301193Y-12365000D01*
X12888919Y-12365000D01*
X12881655Y-12360147D01*
X12811863Y-12331238D01*
X12737771Y-12316500D01*
X12662228Y-12316500D01*
X12588137Y-12331238D01*
X12518345Y-12360147D01*
X12455533Y-12402116D01*
X12402116Y-12455533D01*
X12360147Y-12518345D01*
X12331238Y-12588137D01*
X12316500Y-12662228D01*
X11878808Y-12662228D01*
X11870162Y-12653582D01*
X11839288Y-12632953D01*
X11804983Y-12618744D01*
X11768566Y-12611500D01*
X11731434Y-12611500D01*
X11695017Y-12618744D01*
X11660712Y-12632953D01*
X11629838Y-12653582D01*
X11603582Y-12679838D01*
X11582953Y-12710712D01*
X11568744Y-12745017D01*
X11561500Y-12781434D01*
X11138807Y-12781434D01*
X11138807Y-12675000D01*
X11137581Y-12662552D01*
X11133950Y-12650582D01*
X11128054Y-12639551D01*
X11120119Y-12629881D01*
X11110449Y-12621946D01*
X11099418Y-12616050D01*
X11087448Y-12612419D01*
X11075000Y-12611193D01*
X10825000Y-12611193D01*
X10812552Y-12612419D01*
X10800582Y-12616050D01*
X10789551Y-12621946D01*
X10779882Y-12629881D01*
X10771946Y-12639551D01*
X10766050Y-12650582D01*
X10762419Y-12662552D01*
X10761193Y-12675000D01*
X9191579Y-12675000D01*
X9170162Y-12653582D01*
X9139288Y-12632953D01*
X9104983Y-12618744D01*
X9068566Y-12611500D01*
X9031434Y-12611500D01*
X8995017Y-12618744D01*
X8960712Y-12632953D01*
X8929838Y-12653582D01*
X8903583Y-12679838D01*
X8882953Y-12710712D01*
X8868744Y-12745017D01*
X8861500Y-12781434D01*
X8438807Y-12781434D01*
X8438807Y-12675000D01*
X8437581Y-12662552D01*
X8433950Y-12650582D01*
X8428054Y-12639551D01*
X8420119Y-12629881D01*
X8410449Y-12621946D01*
X8399418Y-12616050D01*
X8387448Y-12612419D01*
X8375000Y-12611193D01*
X8125000Y-12611193D01*
X8112552Y-12612419D01*
X8100582Y-12616050D01*
X8089551Y-12621946D01*
X8079881Y-12629881D01*
X8071946Y-12639551D01*
X8066050Y-12650582D01*
X8062419Y-12662552D01*
X8061193Y-12675000D01*
X7683500Y-12675000D01*
X7683500Y-12662228D01*
X7668762Y-12588137D01*
X7639853Y-12518345D01*
X7597884Y-12455533D01*
X7544467Y-12402116D01*
X7488919Y-12365000D01*
X7901193Y-12365000D01*
X7901193Y-12535000D01*
X7902419Y-12547448D01*
X7906050Y-12559418D01*
X7911946Y-12570449D01*
X7919881Y-12580118D01*
X7929551Y-12588054D01*
X7940582Y-12593950D01*
X7952552Y-12597581D01*
X7965000Y-12598807D01*
X8135000Y-12598807D01*
X8147448Y-12597581D01*
X8159418Y-12593950D01*
X8170449Y-12588054D01*
X8180118Y-12580118D01*
X8188054Y-12570449D01*
X8193950Y-12559418D01*
X8196397Y-12551353D01*
X8203973Y-12559759D01*
X8227308Y-12577164D01*
X8253590Y-12589682D01*
X8268311Y-12594148D01*
X8291300Y-12582015D01*
X8291300Y-12462700D01*
X8316700Y-12462700D01*
X8316700Y-12582015D01*
X8339689Y-12594148D01*
X8354410Y-12589682D01*
X8380692Y-12577164D01*
X8404027Y-12559759D01*
X8423518Y-12538135D01*
X8438416Y-12513125D01*
X8448148Y-12485689D01*
X8436081Y-12462700D01*
X8316700Y-12462700D01*
X8291300Y-12462700D01*
X8289300Y-12462700D01*
X8289300Y-12437300D01*
X8291300Y-12437300D01*
X8291300Y-12317984D01*
X8316700Y-12317984D01*
X8316700Y-12437300D01*
X8436081Y-12437300D01*
X8448148Y-12414311D01*
X8438416Y-12386875D01*
X8434579Y-12380434D01*
X8461500Y-12380434D01*
X8461500Y-12417566D01*
X8468744Y-12453983D01*
X8482953Y-12488288D01*
X8503583Y-12519162D01*
X8529838Y-12545417D01*
X8560712Y-12566047D01*
X8595017Y-12580256D01*
X8631434Y-12587500D01*
X8668566Y-12587500D01*
X8704983Y-12580256D01*
X8739288Y-12566047D01*
X8770162Y-12545417D01*
X8796418Y-12519162D01*
X8817047Y-12488288D01*
X8831256Y-12453983D01*
X8838500Y-12417566D01*
X8838500Y-12380434D01*
X8835430Y-12365000D01*
X10601193Y-12365000D01*
X10601193Y-12535000D01*
X10602419Y-12547448D01*
X10606050Y-12559418D01*
X10611946Y-12570449D01*
X10619882Y-12580118D01*
X10629551Y-12588054D01*
X10640582Y-12593950D01*
X10652552Y-12597581D01*
X10665000Y-12598807D01*
X10835000Y-12598807D01*
X10847448Y-12597581D01*
X10859418Y-12593950D01*
X10870449Y-12588054D01*
X10880119Y-12580118D01*
X10888054Y-12570449D01*
X10893950Y-12559418D01*
X10896397Y-12551353D01*
X10903973Y-12559759D01*
X10927308Y-12577164D01*
X10953590Y-12589682D01*
X10968311Y-12594148D01*
X10991300Y-12582015D01*
X10991300Y-12462700D01*
X11016700Y-12462700D01*
X11016700Y-12582015D01*
X11039689Y-12594148D01*
X11054410Y-12589682D01*
X11080692Y-12577164D01*
X11104027Y-12559759D01*
X11123518Y-12538135D01*
X11138416Y-12513125D01*
X11148148Y-12485689D01*
X11136081Y-12462700D01*
X11016700Y-12462700D01*
X10991300Y-12462700D01*
X10989300Y-12462700D01*
X10989300Y-12437300D01*
X10991300Y-12437300D01*
X10991300Y-12317984D01*
X11016700Y-12317984D01*
X11016700Y-12437300D01*
X11136081Y-12437300D01*
X11148148Y-12414311D01*
X11138416Y-12386875D01*
X11134579Y-12380434D01*
X11161500Y-12380434D01*
X11161500Y-12417566D01*
X11168744Y-12453983D01*
X11182953Y-12488288D01*
X11203582Y-12519162D01*
X11229838Y-12545417D01*
X11260712Y-12566047D01*
X11295017Y-12580256D01*
X11331434Y-12587500D01*
X11368566Y-12587500D01*
X11404983Y-12580256D01*
X11439288Y-12566047D01*
X11470162Y-12545417D01*
X11496417Y-12519162D01*
X11517047Y-12488288D01*
X11531256Y-12453983D01*
X11538500Y-12417566D01*
X11538500Y-12380434D01*
X11531256Y-12344017D01*
X11517047Y-12309712D01*
X11496417Y-12278838D01*
X11470162Y-12252582D01*
X11439288Y-12231953D01*
X11404983Y-12217744D01*
X11368566Y-12210500D01*
X11331434Y-12210500D01*
X11295017Y-12217744D01*
X11260712Y-12231953D01*
X11229838Y-12252582D01*
X11203582Y-12278838D01*
X11182953Y-12309712D01*
X11168744Y-12344017D01*
X11161500Y-12380434D01*
X11134579Y-12380434D01*
X11123518Y-12361864D01*
X11104027Y-12340241D01*
X11080692Y-12322836D01*
X11054410Y-12310317D01*
X11039689Y-12305852D01*
X11016700Y-12317984D01*
X10991300Y-12317984D01*
X10968311Y-12305852D01*
X10953590Y-12310317D01*
X10927308Y-12322836D01*
X10903973Y-12340241D01*
X10896397Y-12348647D01*
X10893950Y-12340582D01*
X10888054Y-12329551D01*
X10880119Y-12319881D01*
X10870449Y-12311946D01*
X10859418Y-12306050D01*
X10847448Y-12302419D01*
X10835000Y-12301193D01*
X10665000Y-12301193D01*
X10652552Y-12302419D01*
X10640582Y-12306050D01*
X10629551Y-12311946D01*
X10619882Y-12319881D01*
X10611946Y-12329551D01*
X10606050Y-12340582D01*
X10602419Y-12352552D01*
X10601193Y-12365000D01*
X8835430Y-12365000D01*
X8831256Y-12344017D01*
X8817047Y-12309712D01*
X8796418Y-12278838D01*
X8770162Y-12252582D01*
X8739288Y-12231953D01*
X8704983Y-12217744D01*
X8668566Y-12210500D01*
X8631434Y-12210500D01*
X8595017Y-12217744D01*
X8560712Y-12231953D01*
X8529838Y-12252582D01*
X8503583Y-12278838D01*
X8482953Y-12309712D01*
X8468744Y-12344017D01*
X8461500Y-12380434D01*
X8434579Y-12380434D01*
X8423518Y-12361864D01*
X8404027Y-12340241D01*
X8380692Y-12322836D01*
X8354410Y-12310317D01*
X8339689Y-12305852D01*
X8316700Y-12317984D01*
X8291300Y-12317984D01*
X8268311Y-12305852D01*
X8253590Y-12310317D01*
X8227308Y-12322836D01*
X8203973Y-12340241D01*
X8196397Y-12348647D01*
X8193950Y-12340582D01*
X8188054Y-12329551D01*
X8180118Y-12319881D01*
X8170449Y-12311946D01*
X8159418Y-12306050D01*
X8147448Y-12302419D01*
X8135000Y-12301193D01*
X7965000Y-12301193D01*
X7952552Y-12302419D01*
X7940582Y-12306050D01*
X7929551Y-12311946D01*
X7919881Y-12319881D01*
X7911946Y-12329551D01*
X7906050Y-12340582D01*
X7902419Y-12352552D01*
X7901193Y-12365000D01*
X7488919Y-12365000D01*
X7481655Y-12360147D01*
X7411863Y-12331238D01*
X7337771Y-12316500D01*
X7262228Y-12316500D01*
X7188137Y-12331238D01*
X7118345Y-12360147D01*
X7055533Y-12402116D01*
X7002116Y-12455533D01*
X6960147Y-12518345D01*
X6931238Y-12588137D01*
X6916500Y-12662228D01*
X6478808Y-12662228D01*
X6470162Y-12653582D01*
X6439288Y-12632953D01*
X6404983Y-12618744D01*
X6368566Y-12611500D01*
X6331434Y-12611500D01*
X6295017Y-12618744D01*
X6260712Y-12632953D01*
X6229838Y-12653582D01*
X6203582Y-12679838D01*
X6182953Y-12710712D01*
X6168744Y-12745017D01*
X6161500Y-12781434D01*
X5738807Y-12781434D01*
X5738807Y-12675000D01*
X5737581Y-12662552D01*
X5733950Y-12650582D01*
X5728054Y-12639551D01*
X5720118Y-12629881D01*
X5710449Y-12621946D01*
X5699418Y-12616050D01*
X5687448Y-12612419D01*
X5675000Y-12611193D01*
X5425000Y-12611193D01*
X5412552Y-12612419D01*
X5400582Y-12616050D01*
X5389551Y-12621946D01*
X5379882Y-12629881D01*
X5371946Y-12639551D01*
X5366050Y-12650582D01*
X5362419Y-12662552D01*
X5361193Y-12675000D01*
X5066000Y-12675000D01*
X5066000Y-12365000D01*
X5201193Y-12365000D01*
X5201193Y-12535000D01*
X5202419Y-12547448D01*
X5206050Y-12559418D01*
X5211946Y-12570449D01*
X5219882Y-12580118D01*
X5229551Y-12588054D01*
X5240582Y-12593950D01*
X5252552Y-12597581D01*
X5265000Y-12598807D01*
X5435000Y-12598807D01*
X5447448Y-12597581D01*
X5459418Y-12593950D01*
X5470449Y-12588054D01*
X5480119Y-12580118D01*
X5488054Y-12570449D01*
X5493950Y-12559418D01*
X5496397Y-12551353D01*
X5503973Y-12559759D01*
X5527308Y-12577164D01*
X5553590Y-12589682D01*
X5568311Y-12594148D01*
X5591300Y-12582015D01*
X5591300Y-12462700D01*
X5616700Y-12462700D01*
X5616700Y-12582015D01*
X5639689Y-12594148D01*
X5654410Y-12589682D01*
X5680692Y-12577164D01*
X5704027Y-12559759D01*
X5723518Y-12538135D01*
X5738416Y-12513125D01*
X5748148Y-12485689D01*
X5736081Y-12462700D01*
X5616700Y-12462700D01*
X5591300Y-12462700D01*
X5589300Y-12462700D01*
X5589300Y-12437300D01*
X5591300Y-12437300D01*
X5591300Y-12317984D01*
X5616700Y-12317984D01*
X5616700Y-12437300D01*
X5736081Y-12437300D01*
X5748148Y-12414311D01*
X5738416Y-12386875D01*
X5734579Y-12380434D01*
X5761500Y-12380434D01*
X5761500Y-12417566D01*
X5768744Y-12453983D01*
X5782953Y-12488288D01*
X5803582Y-12519162D01*
X5829838Y-12545417D01*
X5860712Y-12566047D01*
X5895017Y-12580256D01*
X5931434Y-12587500D01*
X5968566Y-12587500D01*
X6004983Y-12580256D01*
X6039288Y-12566047D01*
X6070162Y-12545417D01*
X6096417Y-12519162D01*
X6117047Y-12488288D01*
X6131256Y-12453983D01*
X6138500Y-12417566D01*
X6138500Y-12380434D01*
X6131256Y-12344017D01*
X6117047Y-12309712D01*
X6096417Y-12278838D01*
X6070162Y-12252582D01*
X6039288Y-12231953D01*
X6004983Y-12217744D01*
X5968566Y-12210500D01*
X5931434Y-12210500D01*
X5895017Y-12217744D01*
X5860712Y-12231953D01*
X5829838Y-12252582D01*
X5803582Y-12278838D01*
X5782953Y-12309712D01*
X5768744Y-12344017D01*
X5761500Y-12380434D01*
X5734579Y-12380434D01*
X5723518Y-12361864D01*
X5704027Y-12340241D01*
X5680692Y-12322836D01*
X5654410Y-12310317D01*
X5639689Y-12305852D01*
X5616700Y-12317984D01*
X5591300Y-12317984D01*
X5568311Y-12305852D01*
X5553590Y-12310317D01*
X5527308Y-12322836D01*
X5503973Y-12340241D01*
X5496397Y-12348647D01*
X5493950Y-12340582D01*
X5488054Y-12329551D01*
X5480119Y-12319881D01*
X5470449Y-12311946D01*
X5459418Y-12306050D01*
X5447448Y-12302419D01*
X5435000Y-12301193D01*
X5265000Y-12301193D01*
X5252552Y-12302419D01*
X5240582Y-12306050D01*
X5229551Y-12311946D01*
X5219882Y-12319881D01*
X5211946Y-12329551D01*
X5206050Y-12340582D01*
X5202419Y-12352552D01*
X5201193Y-12365000D01*
X5066000Y-12365000D01*
X5066000Y-11477000D01*
X5126693Y-11477000D01*
X5126693Y-11637000D01*
X5127919Y-11649448D01*
X5131550Y-11661418D01*
X5137446Y-11672449D01*
X5145382Y-11682118D01*
X5155051Y-11690054D01*
X5166082Y-11695950D01*
X5178052Y-11699581D01*
X5190500Y-11700807D01*
X5350500Y-11700807D01*
X5362948Y-11699581D01*
X5374918Y-11695950D01*
X5385949Y-11690054D01*
X5395619Y-11682118D01*
X5396979Y-11680461D01*
X5402527Y-11684168D01*
X5428643Y-11694985D01*
X5456367Y-11700500D01*
X5484634Y-11700500D01*
X5512357Y-11694985D01*
X5538473Y-11684168D01*
X5561976Y-11668464D01*
X5581964Y-11648476D01*
X5597668Y-11624973D01*
X5608485Y-11598857D01*
X5614000Y-11571133D01*
X5614000Y-11542866D01*
X5610955Y-11527560D01*
X5661516Y-11477000D01*
X6841193Y-11477000D01*
X6841193Y-11637000D01*
X6842419Y-11649448D01*
X6846050Y-11661418D01*
X6851946Y-11672449D01*
X6859881Y-11682118D01*
X6869551Y-11690054D01*
X6880582Y-11695950D01*
X6892552Y-11699581D01*
X6905000Y-11700807D01*
X7065000Y-11700807D01*
X7077448Y-11699581D01*
X7089418Y-11695950D01*
X7100449Y-11690054D01*
X7110118Y-11682118D01*
X7111479Y-11680461D01*
X7117027Y-11684168D01*
X7143143Y-11694985D01*
X7170866Y-11700500D01*
X7199133Y-11700500D01*
X7226857Y-11694985D01*
X7252973Y-11684168D01*
X7276476Y-11668464D01*
X7296464Y-11648476D01*
X7312168Y-11624973D01*
X7322985Y-11598857D01*
X7328500Y-11571133D01*
X7328500Y-11542866D01*
X7322985Y-11515143D01*
X7312168Y-11489027D01*
X7304132Y-11477000D01*
X7603193Y-11477000D01*
X7603193Y-11637000D01*
X7604419Y-11649448D01*
X7608050Y-11661418D01*
X7613946Y-11672449D01*
X7621881Y-11682118D01*
X7631551Y-11690054D01*
X7642582Y-11695950D01*
X7654552Y-11699581D01*
X7667000Y-11700807D01*
X7827000Y-11700807D01*
X7839448Y-11699581D01*
X7851418Y-11695950D01*
X7862449Y-11690054D01*
X7872118Y-11682118D01*
X7873479Y-11680461D01*
X7879027Y-11684168D01*
X7905143Y-11694985D01*
X7932866Y-11700500D01*
X7961133Y-11700500D01*
X7988857Y-11694985D01*
X8014973Y-11684168D01*
X8038476Y-11668464D01*
X8058464Y-11648476D01*
X8074168Y-11624973D01*
X8084985Y-11598857D01*
X8090500Y-11571133D01*
X8090500Y-11542866D01*
X8087455Y-11527560D01*
X8138016Y-11477000D01*
X9381193Y-11477000D01*
X9381193Y-11637000D01*
X9382419Y-11649448D01*
X9386050Y-11661418D01*
X9391946Y-11672449D01*
X9399882Y-11682118D01*
X9409551Y-11690054D01*
X9420582Y-11695950D01*
X9432552Y-11699581D01*
X9445000Y-11700807D01*
X9605000Y-11700807D01*
X9617448Y-11699581D01*
X9629418Y-11695950D01*
X9640449Y-11690054D01*
X9650119Y-11682118D01*
X9651479Y-11680461D01*
X9657027Y-11684168D01*
X9683143Y-11694985D01*
X9710867Y-11700500D01*
X9739134Y-11700500D01*
X9766857Y-11694985D01*
X9792973Y-11684168D01*
X9816476Y-11668464D01*
X9836464Y-11648476D01*
X9852168Y-11624973D01*
X9862985Y-11598857D01*
X9868500Y-11571133D01*
X9868500Y-11542866D01*
X9862985Y-11515143D01*
X9852168Y-11489027D01*
X9844132Y-11477000D01*
X10143193Y-11477000D01*
X10143193Y-11637000D01*
X10144419Y-11649448D01*
X10148050Y-11661418D01*
X10153946Y-11672449D01*
X10161882Y-11682118D01*
X10171551Y-11690054D01*
X10182582Y-11695950D01*
X10194552Y-11699581D01*
X10207000Y-11700807D01*
X10367000Y-11700807D01*
X10379448Y-11699581D01*
X10391418Y-11695950D01*
X10402449Y-11690054D01*
X10412119Y-11682118D01*
X10413479Y-11680461D01*
X10419027Y-11684168D01*
X10445143Y-11694985D01*
X10472867Y-11700500D01*
X10501134Y-11700500D01*
X10528857Y-11694985D01*
X10554973Y-11684168D01*
X10578476Y-11668464D01*
X10598464Y-11648476D01*
X10614168Y-11624973D01*
X10624985Y-11598857D01*
X10630500Y-11571133D01*
X10630500Y-11542866D01*
X10627455Y-11527560D01*
X10678016Y-11477000D01*
X11921193Y-11477000D01*
X11921193Y-11637000D01*
X11922419Y-11649448D01*
X11926050Y-11661418D01*
X11931946Y-11672449D01*
X11939881Y-11682118D01*
X11949551Y-11690054D01*
X11960582Y-11695950D01*
X11972552Y-11699581D01*
X11985000Y-11700807D01*
X12145000Y-11700807D01*
X12157448Y-11699581D01*
X12169418Y-11695950D01*
X12180449Y-11690054D01*
X12190118Y-11682118D01*
X12191479Y-11680461D01*
X12197027Y-11684168D01*
X12223143Y-11694985D01*
X12250866Y-11700500D01*
X12279133Y-11700500D01*
X12306857Y-11694985D01*
X12332973Y-11684168D01*
X12356476Y-11668464D01*
X12376464Y-11648476D01*
X12392168Y-11624973D01*
X12402985Y-11598857D01*
X12408500Y-11571133D01*
X12408500Y-11542866D01*
X12402985Y-11515143D01*
X12392168Y-11489027D01*
X12384132Y-11477000D01*
X12619693Y-11477000D01*
X12619693Y-11637000D01*
X12620919Y-11649448D01*
X12624550Y-11661418D01*
X12630446Y-11672449D01*
X12638381Y-11682118D01*
X12648051Y-11690054D01*
X12659082Y-11695950D01*
X12671052Y-11699581D01*
X12683500Y-11700807D01*
X12843500Y-11700807D01*
X12855948Y-11699581D01*
X12867918Y-11695950D01*
X12878949Y-11690054D01*
X12888618Y-11682118D01*
X12889979Y-11680461D01*
X12895527Y-11684168D01*
X12921643Y-11694985D01*
X12949366Y-11700500D01*
X12977633Y-11700500D01*
X13005357Y-11694985D01*
X13031473Y-11684168D01*
X13054976Y-11668464D01*
X13074964Y-11648476D01*
X13090668Y-11624973D01*
X13101485Y-11598857D01*
X13107000Y-11571133D01*
X13107000Y-11542866D01*
X13103955Y-11527560D01*
X13154516Y-11477000D01*
X14397693Y-11477000D01*
X14397693Y-11637000D01*
X14398919Y-11649448D01*
X14402550Y-11661418D01*
X14408446Y-11672449D01*
X14416381Y-11682118D01*
X14426051Y-11690054D01*
X14437082Y-11695950D01*
X14449052Y-11699581D01*
X14461500Y-11700807D01*
X14621500Y-11700807D01*
X14633948Y-11699581D01*
X14645918Y-11695950D01*
X14656949Y-11690054D01*
X14666618Y-11682118D01*
X14667979Y-11680461D01*
X14673527Y-11684168D01*
X14699643Y-11694985D01*
X14727366Y-11700500D01*
X14755633Y-11700500D01*
X14783357Y-11694985D01*
X14809473Y-11684168D01*
X14832976Y-11668464D01*
X14852964Y-11648476D01*
X14868668Y-11624973D01*
X14879485Y-11598857D01*
X14885000Y-11571133D01*
X14885000Y-11542866D01*
X14879485Y-11515143D01*
X14868668Y-11489027D01*
X14852964Y-11465524D01*
X14832976Y-11445536D01*
X14809473Y-11429832D01*
X14783357Y-11419015D01*
X14755633Y-11413500D01*
X14727366Y-11413500D01*
X14699643Y-11419015D01*
X14673527Y-11429832D01*
X14667979Y-11433539D01*
X14666618Y-11431881D01*
X14656949Y-11423946D01*
X14645918Y-11418050D01*
X14633948Y-11414419D01*
X14621500Y-11413193D01*
X14461500Y-11413193D01*
X14449052Y-11414419D01*
X14437082Y-11418050D01*
X14426051Y-11423946D01*
X14416381Y-11431881D01*
X14408446Y-11441551D01*
X14402550Y-11452582D01*
X14398919Y-11464552D01*
X14397693Y-11477000D01*
X13154516Y-11477000D01*
X13296736Y-11334780D01*
X13698989Y-11334780D01*
X13700883Y-11336674D01*
X13717834Y-11348000D01*
X13736670Y-11355803D01*
X13756666Y-11359780D01*
X13777054Y-11359780D01*
X13797050Y-11355803D01*
X13815886Y-11348000D01*
X13832837Y-11336674D01*
X13847254Y-11322257D01*
X13858580Y-11305306D01*
X13866383Y-11286470D01*
X13870360Y-11266474D01*
X13870360Y-11246086D01*
X13866383Y-11226090D01*
X13858580Y-11207254D01*
X13847254Y-11190303D01*
X13832837Y-11175886D01*
X13815886Y-11164560D01*
X13797050Y-11156757D01*
X13777054Y-11152780D01*
X13756666Y-11152780D01*
X13736670Y-11156757D01*
X13717834Y-11164560D01*
X13700883Y-11175886D01*
X13698989Y-11177780D01*
X13268075Y-11177780D01*
X13264220Y-11177400D01*
X13260365Y-11177780D01*
X13260364Y-11177780D01*
X13248831Y-11178916D01*
X13234034Y-11183405D01*
X13220397Y-11190694D01*
X13217233Y-11193290D01*
X13211439Y-11198045D01*
X13211438Y-11198046D01*
X13208444Y-11200504D01*
X13205986Y-11203498D01*
X12992940Y-11416545D01*
X12977633Y-11413500D01*
X12949366Y-11413500D01*
X12921643Y-11419015D01*
X12895527Y-11429832D01*
X12889979Y-11433539D01*
X12888618Y-11431881D01*
X12878949Y-11423946D01*
X12867918Y-11418050D01*
X12855948Y-11414419D01*
X12843500Y-11413193D01*
X12683500Y-11413193D01*
X12671052Y-11414419D01*
X12659082Y-11418050D01*
X12648051Y-11423946D01*
X12638381Y-11431881D01*
X12630446Y-11441551D01*
X12624550Y-11452582D01*
X12620919Y-11464552D01*
X12619693Y-11477000D01*
X12384132Y-11477000D01*
X12376464Y-11465524D01*
X12356476Y-11445536D01*
X12332973Y-11429832D01*
X12306857Y-11419015D01*
X12279133Y-11413500D01*
X12250866Y-11413500D01*
X12223143Y-11419015D01*
X12197027Y-11429832D01*
X12191479Y-11433539D01*
X12190118Y-11431881D01*
X12180449Y-11423946D01*
X12169418Y-11418050D01*
X12157448Y-11414419D01*
X12145000Y-11413193D01*
X11985000Y-11413193D01*
X11972552Y-11414419D01*
X11960582Y-11418050D01*
X11949551Y-11423946D01*
X11939881Y-11431881D01*
X11931946Y-11441551D01*
X11926050Y-11452582D01*
X11922419Y-11464552D01*
X11921193Y-11477000D01*
X10678016Y-11477000D01*
X10845016Y-11310000D01*
X11305039Y-11310000D01*
X11306933Y-11311894D01*
X11323884Y-11323220D01*
X11342720Y-11331023D01*
X11362716Y-11335000D01*
X11383104Y-11335000D01*
X11403100Y-11331023D01*
X11421936Y-11323220D01*
X11438887Y-11311894D01*
X11453304Y-11297477D01*
X11464630Y-11280526D01*
X11472433Y-11261690D01*
X11476410Y-11241694D01*
X11476410Y-11221306D01*
X11472433Y-11201310D01*
X11464630Y-11182474D01*
X11453304Y-11165523D01*
X11438887Y-11151106D01*
X11421936Y-11139780D01*
X11403100Y-11131977D01*
X11383104Y-11128000D01*
X11362716Y-11128000D01*
X11342720Y-11131977D01*
X11323884Y-11139780D01*
X11306933Y-11151106D01*
X11305039Y-11153000D01*
X10816355Y-11153000D01*
X10812500Y-11152620D01*
X10808645Y-11153000D01*
X10808644Y-11153000D01*
X10798549Y-11153994D01*
X10797111Y-11154136D01*
X10788469Y-11156757D01*
X10782314Y-11158625D01*
X10768677Y-11165914D01*
X10762656Y-11170855D01*
X10759719Y-11173266D01*
X10759718Y-11173266D01*
X10756724Y-11175724D01*
X10754266Y-11178718D01*
X10516440Y-11416545D01*
X10501134Y-11413500D01*
X10472867Y-11413500D01*
X10445143Y-11419015D01*
X10419027Y-11429832D01*
X10413479Y-11433539D01*
X10412119Y-11431881D01*
X10402449Y-11423946D01*
X10391418Y-11418050D01*
X10379448Y-11414419D01*
X10367000Y-11413193D01*
X10207000Y-11413193D01*
X10194552Y-11414419D01*
X10182582Y-11418050D01*
X10171551Y-11423946D01*
X10161882Y-11431881D01*
X10153946Y-11441551D01*
X10148050Y-11452582D01*
X10144419Y-11464552D01*
X10143193Y-11477000D01*
X9844132Y-11477000D01*
X9836464Y-11465524D01*
X9816476Y-11445536D01*
X9792973Y-11429832D01*
X9766857Y-11419015D01*
X9739134Y-11413500D01*
X9710867Y-11413500D01*
X9683143Y-11419015D01*
X9657027Y-11429832D01*
X9651479Y-11433539D01*
X9650119Y-11431881D01*
X9640449Y-11423946D01*
X9629418Y-11418050D01*
X9617448Y-11414419D01*
X9605000Y-11413193D01*
X9445000Y-11413193D01*
X9432552Y-11414419D01*
X9420582Y-11418050D01*
X9409551Y-11423946D01*
X9399882Y-11431881D01*
X9391946Y-11441551D01*
X9386050Y-11452582D01*
X9382419Y-11464552D01*
X9381193Y-11477000D01*
X8138016Y-11477000D01*
X8243086Y-11371930D01*
X8685999Y-11371930D01*
X8687893Y-11373824D01*
X8704844Y-11385150D01*
X8723680Y-11392953D01*
X8743676Y-11396930D01*
X8764064Y-11396930D01*
X8784060Y-11392953D01*
X8802896Y-11385150D01*
X8819847Y-11373824D01*
X8834264Y-11359407D01*
X8845591Y-11342456D01*
X8853393Y-11323620D01*
X8857370Y-11303624D01*
X8857370Y-11283236D01*
X8853393Y-11263240D01*
X8845591Y-11244404D01*
X8834264Y-11227453D01*
X8819847Y-11213036D01*
X8802896Y-11201709D01*
X8784060Y-11193907D01*
X8764064Y-11189930D01*
X8743676Y-11189930D01*
X8723680Y-11193907D01*
X8704844Y-11201709D01*
X8687893Y-11213036D01*
X8685999Y-11214930D01*
X8214426Y-11214930D01*
X8210570Y-11214550D01*
X8206714Y-11214930D01*
X8206714Y-11214930D01*
X8202673Y-11215328D01*
X8195181Y-11216066D01*
X8184105Y-11219426D01*
X8180384Y-11220555D01*
X8166747Y-11227844D01*
X8154794Y-11237654D01*
X8152335Y-11240649D01*
X7976440Y-11416545D01*
X7961133Y-11413500D01*
X7932866Y-11413500D01*
X7905143Y-11419015D01*
X7879027Y-11429832D01*
X7873479Y-11433539D01*
X7872118Y-11431881D01*
X7862449Y-11423946D01*
X7851418Y-11418050D01*
X7839448Y-11414419D01*
X7827000Y-11413193D01*
X7667000Y-11413193D01*
X7654552Y-11414419D01*
X7642582Y-11418050D01*
X7631551Y-11423946D01*
X7621881Y-11431881D01*
X7613946Y-11441551D01*
X7608050Y-11452582D01*
X7604419Y-11464552D01*
X7603193Y-11477000D01*
X7304132Y-11477000D01*
X7296464Y-11465524D01*
X7276476Y-11445536D01*
X7252973Y-11429832D01*
X7226857Y-11419015D01*
X7199133Y-11413500D01*
X7170866Y-11413500D01*
X7143143Y-11419015D01*
X7117027Y-11429832D01*
X7111479Y-11433539D01*
X7110118Y-11431881D01*
X7100449Y-11423946D01*
X7089418Y-11418050D01*
X7077448Y-11414419D01*
X7065000Y-11413193D01*
X6905000Y-11413193D01*
X6892552Y-11414419D01*
X6880582Y-11418050D01*
X6869551Y-11423946D01*
X6859881Y-11431881D01*
X6851946Y-11441551D01*
X6846050Y-11452582D01*
X6842419Y-11464552D01*
X6841193Y-11477000D01*
X5661516Y-11477000D01*
X5763226Y-11375290D01*
X6237879Y-11375290D01*
X6239773Y-11377184D01*
X6256724Y-11388510D01*
X6275560Y-11396313D01*
X6295556Y-11400290D01*
X6315944Y-11400290D01*
X6335940Y-11396313D01*
X6354776Y-11388510D01*
X6371727Y-11377184D01*
X6386144Y-11362767D01*
X6397470Y-11345816D01*
X6405273Y-11326980D01*
X6409250Y-11306984D01*
X6409250Y-11286596D01*
X6405273Y-11266600D01*
X6397470Y-11247764D01*
X6386144Y-11230813D01*
X6371727Y-11216396D01*
X6354776Y-11205069D01*
X6335940Y-11197267D01*
X6315944Y-11193290D01*
X6295556Y-11193290D01*
X6275560Y-11197267D01*
X6256724Y-11205069D01*
X6239773Y-11216396D01*
X6237879Y-11218290D01*
X5734565Y-11218290D01*
X5730710Y-11217910D01*
X5726855Y-11218290D01*
X5726854Y-11218290D01*
X5716759Y-11219284D01*
X5715321Y-11219426D01*
X5700524Y-11223915D01*
X5686887Y-11231204D01*
X5682023Y-11235195D01*
X5677929Y-11238555D01*
X5677928Y-11238556D01*
X5674934Y-11241014D01*
X5672476Y-11244008D01*
X5499940Y-11416545D01*
X5484634Y-11413500D01*
X5456367Y-11413500D01*
X5428643Y-11419015D01*
X5402527Y-11429832D01*
X5396979Y-11433539D01*
X5395619Y-11431881D01*
X5385949Y-11423946D01*
X5374918Y-11418050D01*
X5362948Y-11414419D01*
X5350500Y-11413193D01*
X5190500Y-11413193D01*
X5178052Y-11414419D01*
X5166082Y-11418050D01*
X5155051Y-11423946D01*
X5145382Y-11431881D01*
X5137446Y-11441551D01*
X5131550Y-11452582D01*
X5127919Y-11464552D01*
X5126693Y-11477000D01*
X5066000Y-11477000D01*
X5066000Y-9459270D01*
X6385784Y-9459270D01*
X6392942Y-9483667D01*
X6418493Y-9495757D01*
X6445912Y-9502630D01*
X6474145Y-9504022D01*
X6502107Y-9499879D01*
X6528723Y-9490360D01*
X6541245Y-9483667D01*
X6548403Y-9459270D01*
X6467094Y-9377961D01*
X6385784Y-9459270D01*
X5066000Y-9459270D01*
X5066000Y-9208351D01*
X5105533Y-9247884D01*
X5168345Y-9289853D01*
X5238137Y-9318762D01*
X5312229Y-9333500D01*
X5387772Y-9333500D01*
X5461863Y-9318762D01*
X5531655Y-9289853D01*
X5594467Y-9247884D01*
X5647884Y-9194467D01*
X5689853Y-9131655D01*
X5718762Y-9061863D01*
X5733500Y-8987772D01*
X5733500Y-8912229D01*
X5718762Y-8838137D01*
X5689853Y-8768345D01*
X5647884Y-8705533D01*
X5608351Y-8666000D01*
X6262529Y-8666000D01*
X6032336Y-8896193D01*
G37*
%TD.AperFunction*%
M02*
