%TF.GenerationSoftware,KiCad,Pcbnew,(5.1.9-0-10_14)*%
%TF.CreationDate,2022-01-19T22:12:48+09:00*%
%TF.ProjectId,BalancedDriverBoard,42616c61-6e63-4656-9444-726976657242,rev?*%
%TF.SameCoordinates,Original*%
%TF.FileFunction,Soldermask,Bot*%
%TF.FilePolarity,Negative*%
%FSLAX45Y45*%
G04 Gerber Fmt 4.5, Leading zero omitted, Abs format (unit mm)*
G04 Created by KiCad (PCBNEW (5.1.9-0-10_14)) date 2022-01-19 22:12:48*
%MOMM*%
%LPD*%
G01*
G04 APERTURE LIST*
%ADD10C,2.500000*%
%ADD11R,2.500000X2.500000*%
%ADD12R,1.600000X1.600000*%
%ADD13C,1.600000*%
%ADD14R,1.524000X1.524000*%
%ADD15C,6.400000*%
%ADD16C,1.200000*%
%ADD17O,1.700000X1.950000*%
%ADD18R,1.700000X1.700000*%
%ADD19O,1.700000X1.700000*%
%ADD20C,0.800000*%
G04 APERTURE END LIST*
D10*
X14050000Y-12399000D03*
X14450000Y-12800000D03*
D11*
X13650000Y-12800000D03*
X10950000Y-12800000D03*
D10*
X11750000Y-12800000D03*
X11350000Y-12399000D03*
D11*
X8250000Y-12800000D03*
D10*
X9050000Y-12800000D03*
X8650000Y-12399000D03*
X5950000Y-12399000D03*
X6350000Y-12800000D03*
D11*
X5550000Y-12800000D03*
D12*
X14478000Y-9906000D03*
D13*
X14478000Y-9706000D03*
D14*
X14478000Y-10206000D03*
D12*
X12954000Y-9906000D03*
D13*
X12954000Y-9706000D03*
D14*
X12954000Y-10206000D03*
X10541000Y-10206000D03*
D13*
X10541000Y-9706000D03*
D12*
X10541000Y-9906000D03*
X11938000Y-9906000D03*
D13*
X11938000Y-9706000D03*
D14*
X11938000Y-10206000D03*
X9398000Y-10206000D03*
D13*
X9398000Y-9706000D03*
D12*
X9398000Y-9906000D03*
D14*
X7937500Y-10206000D03*
D13*
X7937500Y-9706000D03*
D12*
X7937500Y-9906000D03*
X5461000Y-9900000D03*
D13*
X5461000Y-9700000D03*
D14*
X5461000Y-10200000D03*
X7048500Y-10206000D03*
D13*
X7048500Y-9706000D03*
D12*
X7048500Y-9906000D03*
D13*
X12963500Y-11557000D03*
D12*
X12763500Y-11557000D03*
X10287000Y-11557000D03*
D13*
X10487000Y-11557000D03*
D12*
X7747000Y-11557000D03*
D13*
X7947000Y-11557000D03*
D12*
X5270500Y-11557000D03*
D13*
X5470500Y-11557000D03*
D12*
X14541500Y-11557000D03*
D13*
X14741500Y-11557000D03*
X12265000Y-11557000D03*
D12*
X12065000Y-11557000D03*
D13*
X9725000Y-11557000D03*
D12*
X9525000Y-11557000D03*
D13*
X7185000Y-11557000D03*
D12*
X6985000Y-11557000D03*
X13600000Y-9200000D03*
D13*
X13850000Y-9200000D03*
D12*
X13532906Y-9040000D03*
D13*
X13917094Y-9360000D03*
X6467094Y-9360000D03*
D12*
X6082906Y-9040000D03*
D13*
X6400000Y-9200000D03*
D12*
X6150000Y-9200000D03*
D15*
X12700000Y-12700000D03*
X5350000Y-8950000D03*
X14650000Y-8950000D03*
D16*
X11943100Y-9153500D03*
D17*
X12603100Y-8953500D03*
X12353100Y-8953500D03*
G36*
G01*
X12018100Y-9026000D02*
X12018100Y-8881000D01*
G75*
G02*
X12043100Y-8856000I25000J0D01*
G01*
X12163100Y-8856000D01*
G75*
G02*
X12188100Y-8881000I0J-25000D01*
G01*
X12188100Y-9026000D01*
G75*
G02*
X12163100Y-9051000I-25000J0D01*
G01*
X12043100Y-9051000D01*
G75*
G02*
X12018100Y-9026000I0J25000D01*
G01*
G37*
G36*
G01*
X7217500Y-9026000D02*
X7217500Y-8881000D01*
G75*
G02*
X7242500Y-8856000I25000J0D01*
G01*
X7362500Y-8856000D01*
G75*
G02*
X7387500Y-8881000I0J-25000D01*
G01*
X7387500Y-9026000D01*
G75*
G02*
X7362500Y-9051000I-25000J0D01*
G01*
X7242500Y-9051000D01*
G75*
G02*
X7217500Y-9026000I0J25000D01*
G01*
G37*
X7552500Y-8953500D03*
X7802500Y-8953500D03*
D16*
X7142500Y-9153500D03*
D18*
X8382000Y-8890000D03*
D19*
X8636000Y-8890000D03*
X8890000Y-8890000D03*
D20*
X14819706Y-14430294D03*
X14650000Y-14360000D03*
X14480294Y-14430294D03*
X14410000Y-14600000D03*
X14480294Y-14769706D03*
X14650000Y-14840000D03*
X14819706Y-14769706D03*
X14890000Y-14600000D03*
D15*
X14650000Y-14600000D03*
X7300000Y-12700000D03*
X5350000Y-14600000D03*
D19*
X13704000Y-12450000D03*
D18*
X13450000Y-12450000D03*
X10750000Y-12450000D03*
D19*
X11004000Y-12450000D03*
X8304000Y-12450000D03*
D18*
X8050000Y-12450000D03*
X5350000Y-12450000D03*
D19*
X5604000Y-12450000D03*
M02*
