%TF.GenerationSoftware,KiCad,Pcbnew,(5.1.9-0-10_14)*%
%TF.CreationDate,2022-01-19T22:12:48+09:00*%
%TF.ProjectId,BalancedDriverBoard,42616c61-6e63-4656-9444-726976657242,rev?*%
%TF.SameCoordinates,Original*%
%TF.FileFunction,Legend,Bot*%
%TF.FilePolarity,Positive*%
%FSLAX45Y45*%
G04 Gerber Fmt 4.5, Leading zero omitted, Abs format (unit mm)*
G04 Created by KiCad (PCBNEW (5.1.9-0-10_14)) date 2022-01-19 22:12:48*
%MOMM*%
%LPD*%
G01*
G04 APERTURE LIST*
%ADD10C,0.120000*%
%ADD11C,0.150000*%
G04 APERTURE END LIST*
D10*
X13450000Y-12300000D02*
X13700000Y-12300000D01*
X13700000Y-12300000D02*
X13700000Y-12340000D01*
X13450000Y-12340000D02*
X13450000Y-12300000D01*
X11000000Y-12300000D02*
X11000000Y-12340000D01*
X10750000Y-12340000D02*
X10750000Y-12300000D01*
X10750000Y-12300000D02*
X11000000Y-12300000D01*
X8050000Y-12340000D02*
X8050000Y-12300000D01*
X8300000Y-12300000D02*
X8300000Y-12340000D01*
X8050000Y-12300000D02*
X8300000Y-12300000D01*
X5610000Y-12300000D02*
X5610000Y-12340000D01*
X5360000Y-12300000D02*
X5610000Y-12300000D01*
X5360000Y-12340000D02*
X5360000Y-12300000D01*
X5040000Y-11830000D02*
X5040000Y-12140000D01*
X5490000Y-12140000D02*
X5490000Y-12300000D01*
X5880000Y-12140000D02*
X5880000Y-11830000D01*
X5880000Y-11830000D02*
X5040000Y-11830000D01*
X5050000Y-12140000D02*
X5880000Y-12140000D01*
X7740000Y-11800000D02*
X7740000Y-12110000D01*
X8180000Y-12110000D02*
X8180000Y-12300000D01*
X8580000Y-12110000D02*
X8580000Y-11800000D01*
X8580000Y-11800000D02*
X7740000Y-11800000D01*
X7750000Y-12110000D02*
X8580000Y-12110000D01*
X10430000Y-11820000D02*
X10430000Y-12130000D01*
X10880000Y-12130000D02*
X10880000Y-12300000D01*
X11270000Y-12130000D02*
X11270000Y-11820000D01*
X11270000Y-11820000D02*
X10430000Y-11820000D01*
X10440000Y-12130000D02*
X11270000Y-12130000D01*
X13580000Y-12130000D02*
X13580000Y-12300000D01*
X13110000Y-11820000D02*
X13110000Y-12130000D01*
X13950000Y-11820000D02*
X13110000Y-11820000D01*
X13950000Y-12130000D02*
X13950000Y-11820000D01*
X13120000Y-12130000D02*
X13950000Y-12130000D01*
D11*
X5775714Y-11865238D02*
X5756667Y-11865238D01*
X5747143Y-11870000D01*
X5737619Y-11879524D01*
X5732857Y-11898571D01*
X5732857Y-11931905D01*
X5737619Y-11950952D01*
X5747143Y-11960476D01*
X5756667Y-11965238D01*
X5775714Y-11965238D01*
X5785238Y-11960476D01*
X5794762Y-11950952D01*
X5799524Y-11931905D01*
X5799524Y-11898571D01*
X5794762Y-11879524D01*
X5785238Y-11870000D01*
X5775714Y-11865238D01*
X5690000Y-11965238D02*
X5690000Y-11865238D01*
X5651905Y-11865238D01*
X5642381Y-11870000D01*
X5637619Y-11874762D01*
X5632857Y-11884286D01*
X5632857Y-11898571D01*
X5637619Y-11908095D01*
X5642381Y-11912857D01*
X5651905Y-11917619D01*
X5690000Y-11917619D01*
X5590000Y-11912857D02*
X5556667Y-11912857D01*
X5542381Y-11965238D02*
X5590000Y-11965238D01*
X5590000Y-11865238D01*
X5542381Y-11865238D01*
X5499524Y-11965238D02*
X5499524Y-11865238D01*
X5442381Y-11965238D01*
X5442381Y-11865238D01*
X5332857Y-11865238D02*
X5275714Y-11865238D01*
X5304286Y-11965238D02*
X5304286Y-11865238D01*
X5223333Y-11865238D02*
X5204286Y-11865238D01*
X5194762Y-11870000D01*
X5185238Y-11879524D01*
X5180476Y-11898571D01*
X5180476Y-11931905D01*
X5185238Y-11950952D01*
X5194762Y-11960476D01*
X5204286Y-11965238D01*
X5223333Y-11965238D01*
X5232857Y-11960476D01*
X5242381Y-11950952D01*
X5247143Y-11931905D01*
X5247143Y-11898571D01*
X5242381Y-11879524D01*
X5232857Y-11870000D01*
X5223333Y-11865238D01*
X8495714Y-11835238D02*
X8476667Y-11835238D01*
X8467143Y-11840000D01*
X8457619Y-11849524D01*
X8452857Y-11868571D01*
X8452857Y-11901905D01*
X8457619Y-11920952D01*
X8467143Y-11930476D01*
X8476667Y-11935238D01*
X8495714Y-11935238D01*
X8505238Y-11930476D01*
X8514762Y-11920952D01*
X8519524Y-11901905D01*
X8519524Y-11868571D01*
X8514762Y-11849524D01*
X8505238Y-11840000D01*
X8495714Y-11835238D01*
X8410000Y-11935238D02*
X8410000Y-11835238D01*
X8371905Y-11835238D01*
X8362381Y-11840000D01*
X8357619Y-11844762D01*
X8352857Y-11854286D01*
X8352857Y-11868571D01*
X8357619Y-11878095D01*
X8362381Y-11882857D01*
X8371905Y-11887619D01*
X8410000Y-11887619D01*
X8310000Y-11882857D02*
X8276667Y-11882857D01*
X8262381Y-11935238D02*
X8310000Y-11935238D01*
X8310000Y-11835238D01*
X8262381Y-11835238D01*
X8219524Y-11935238D02*
X8219524Y-11835238D01*
X8162381Y-11935238D01*
X8162381Y-11835238D01*
X8052857Y-11835238D02*
X7995714Y-11835238D01*
X8024286Y-11935238D02*
X8024286Y-11835238D01*
X7943333Y-11835238D02*
X7924286Y-11835238D01*
X7914762Y-11840000D01*
X7905238Y-11849524D01*
X7900476Y-11868571D01*
X7900476Y-11901905D01*
X7905238Y-11920952D01*
X7914762Y-11930476D01*
X7924286Y-11935238D01*
X7943333Y-11935238D01*
X7952857Y-11930476D01*
X7962381Y-11920952D01*
X7967143Y-11901905D01*
X7967143Y-11868571D01*
X7962381Y-11849524D01*
X7952857Y-11840000D01*
X7943333Y-11835238D01*
X11145714Y-11855238D02*
X11126667Y-11855238D01*
X11117143Y-11860000D01*
X11107619Y-11869524D01*
X11102857Y-11888571D01*
X11102857Y-11921905D01*
X11107619Y-11940952D01*
X11117143Y-11950476D01*
X11126667Y-11955238D01*
X11145714Y-11955238D01*
X11155238Y-11950476D01*
X11164762Y-11940952D01*
X11169524Y-11921905D01*
X11169524Y-11888571D01*
X11164762Y-11869524D01*
X11155238Y-11860000D01*
X11145714Y-11855238D01*
X11060000Y-11955238D02*
X11060000Y-11855238D01*
X11021905Y-11855238D01*
X11012381Y-11860000D01*
X11007619Y-11864762D01*
X11002857Y-11874286D01*
X11002857Y-11888571D01*
X11007619Y-11898095D01*
X11012381Y-11902857D01*
X11021905Y-11907619D01*
X11060000Y-11907619D01*
X10960000Y-11902857D02*
X10926667Y-11902857D01*
X10912381Y-11955238D02*
X10960000Y-11955238D01*
X10960000Y-11855238D01*
X10912381Y-11855238D01*
X10869524Y-11955238D02*
X10869524Y-11855238D01*
X10812381Y-11955238D01*
X10812381Y-11855238D01*
X10702857Y-11855238D02*
X10645714Y-11855238D01*
X10674286Y-11955238D02*
X10674286Y-11855238D01*
X10593333Y-11855238D02*
X10574286Y-11855238D01*
X10564762Y-11860000D01*
X10555238Y-11869524D01*
X10550476Y-11888571D01*
X10550476Y-11921905D01*
X10555238Y-11940952D01*
X10564762Y-11950476D01*
X10574286Y-11955238D01*
X10593333Y-11955238D01*
X10602857Y-11950476D01*
X10612381Y-11940952D01*
X10617143Y-11921905D01*
X10617143Y-11888571D01*
X10612381Y-11869524D01*
X10602857Y-11860000D01*
X10593333Y-11855238D01*
X13825714Y-11855238D02*
X13806667Y-11855238D01*
X13797143Y-11860000D01*
X13787619Y-11869524D01*
X13782857Y-11888571D01*
X13782857Y-11921905D01*
X13787619Y-11940952D01*
X13797143Y-11950476D01*
X13806667Y-11955238D01*
X13825714Y-11955238D01*
X13835238Y-11950476D01*
X13844762Y-11940952D01*
X13849524Y-11921905D01*
X13849524Y-11888571D01*
X13844762Y-11869524D01*
X13835238Y-11860000D01*
X13825714Y-11855238D01*
X13740000Y-11955238D02*
X13740000Y-11855238D01*
X13701905Y-11855238D01*
X13692381Y-11860000D01*
X13687619Y-11864762D01*
X13682857Y-11874286D01*
X13682857Y-11888571D01*
X13687619Y-11898095D01*
X13692381Y-11902857D01*
X13701905Y-11907619D01*
X13740000Y-11907619D01*
X13640000Y-11902857D02*
X13606667Y-11902857D01*
X13592381Y-11955238D02*
X13640000Y-11955238D01*
X13640000Y-11855238D01*
X13592381Y-11855238D01*
X13549524Y-11955238D02*
X13549524Y-11855238D01*
X13492381Y-11955238D01*
X13492381Y-11855238D01*
X13382857Y-11855238D02*
X13325714Y-11855238D01*
X13354286Y-11955238D02*
X13354286Y-11855238D01*
X13273333Y-11855238D02*
X13254286Y-11855238D01*
X13244762Y-11860000D01*
X13235238Y-11869524D01*
X13230476Y-11888571D01*
X13230476Y-11921905D01*
X13235238Y-11940952D01*
X13244762Y-11950476D01*
X13254286Y-11955238D01*
X13273333Y-11955238D01*
X13282857Y-11950476D01*
X13292381Y-11940952D01*
X13297143Y-11921905D01*
X13297143Y-11888571D01*
X13292381Y-11869524D01*
X13282857Y-11860000D01*
X13273333Y-11855238D01*
X5771905Y-12115238D02*
X5819524Y-12115238D01*
X5819524Y-12015238D01*
X5738571Y-12115238D02*
X5738571Y-12015238D01*
X5657619Y-12062857D02*
X5690952Y-12062857D01*
X5690952Y-12115238D02*
X5690952Y-12015238D01*
X5643333Y-12015238D01*
X5619524Y-12015238D02*
X5562381Y-12015238D01*
X5590952Y-12115238D02*
X5590952Y-12015238D01*
X5400476Y-12020000D02*
X5410000Y-12015238D01*
X5424286Y-12015238D01*
X5438571Y-12020000D01*
X5448095Y-12029524D01*
X5452857Y-12039048D01*
X5457619Y-12058095D01*
X5457619Y-12072381D01*
X5452857Y-12091428D01*
X5448095Y-12100952D01*
X5438571Y-12110476D01*
X5424286Y-12115238D01*
X5414762Y-12115238D01*
X5400476Y-12110476D01*
X5395714Y-12105714D01*
X5395714Y-12072381D01*
X5414762Y-12072381D01*
X5352857Y-12115238D02*
X5352857Y-12015238D01*
X5295714Y-12115238D01*
X5295714Y-12015238D01*
X5248095Y-12115238D02*
X5248095Y-12015238D01*
X5224286Y-12015238D01*
X5210000Y-12020000D01*
X5200476Y-12029524D01*
X5195714Y-12039048D01*
X5190952Y-12058095D01*
X5190952Y-12072381D01*
X5195714Y-12091428D01*
X5200476Y-12100952D01*
X5210000Y-12110476D01*
X5224286Y-12115238D01*
X5248095Y-12115238D01*
X5157619Y-12015238D02*
X5095714Y-12015238D01*
X5129048Y-12053333D01*
X5114762Y-12053333D01*
X5105238Y-12058095D01*
X5100476Y-12062857D01*
X5095714Y-12072381D01*
X5095714Y-12096190D01*
X5100476Y-12105714D01*
X5105238Y-12110476D01*
X5114762Y-12115238D01*
X5143333Y-12115238D01*
X5152857Y-12110476D01*
X5157619Y-12105714D01*
X8471905Y-12085238D02*
X8519524Y-12085238D01*
X8519524Y-11985238D01*
X8438571Y-12085238D02*
X8438571Y-11985238D01*
X8357619Y-12032857D02*
X8390952Y-12032857D01*
X8390952Y-12085238D02*
X8390952Y-11985238D01*
X8343333Y-11985238D01*
X8319524Y-11985238D02*
X8262381Y-11985238D01*
X8290952Y-12085238D02*
X8290952Y-11985238D01*
X8100476Y-11990000D02*
X8110000Y-11985238D01*
X8124286Y-11985238D01*
X8138571Y-11990000D01*
X8148095Y-11999524D01*
X8152857Y-12009048D01*
X8157619Y-12028095D01*
X8157619Y-12042381D01*
X8152857Y-12061428D01*
X8148095Y-12070952D01*
X8138571Y-12080476D01*
X8124286Y-12085238D01*
X8114762Y-12085238D01*
X8100476Y-12080476D01*
X8095714Y-12075714D01*
X8095714Y-12042381D01*
X8114762Y-12042381D01*
X8052857Y-12085238D02*
X8052857Y-11985238D01*
X7995714Y-12085238D01*
X7995714Y-11985238D01*
X7948095Y-12085238D02*
X7948095Y-11985238D01*
X7924286Y-11985238D01*
X7910000Y-11990000D01*
X7900476Y-11999524D01*
X7895714Y-12009048D01*
X7890952Y-12028095D01*
X7890952Y-12042381D01*
X7895714Y-12061428D01*
X7900476Y-12070952D01*
X7910000Y-12080476D01*
X7924286Y-12085238D01*
X7948095Y-12085238D01*
X7852857Y-11994762D02*
X7848095Y-11990000D01*
X7838571Y-11985238D01*
X7814762Y-11985238D01*
X7805238Y-11990000D01*
X7800476Y-11994762D01*
X7795714Y-12004286D01*
X7795714Y-12013809D01*
X7800476Y-12028095D01*
X7857619Y-12085238D01*
X7795714Y-12085238D01*
X11171905Y-12105238D02*
X11219524Y-12105238D01*
X11219524Y-12005238D01*
X11138571Y-12105238D02*
X11138571Y-12005238D01*
X11057619Y-12052857D02*
X11090952Y-12052857D01*
X11090952Y-12105238D02*
X11090952Y-12005238D01*
X11043333Y-12005238D01*
X11019524Y-12005238D02*
X10962381Y-12005238D01*
X10990952Y-12105238D02*
X10990952Y-12005238D01*
X10800476Y-12010000D02*
X10810000Y-12005238D01*
X10824286Y-12005238D01*
X10838571Y-12010000D01*
X10848095Y-12019524D01*
X10852857Y-12029048D01*
X10857619Y-12048095D01*
X10857619Y-12062381D01*
X10852857Y-12081428D01*
X10848095Y-12090952D01*
X10838571Y-12100476D01*
X10824286Y-12105238D01*
X10814762Y-12105238D01*
X10800476Y-12100476D01*
X10795714Y-12095714D01*
X10795714Y-12062381D01*
X10814762Y-12062381D01*
X10752857Y-12105238D02*
X10752857Y-12005238D01*
X10695714Y-12105238D01*
X10695714Y-12005238D01*
X10648095Y-12105238D02*
X10648095Y-12005238D01*
X10624286Y-12005238D01*
X10610000Y-12010000D01*
X10600476Y-12019524D01*
X10595714Y-12029048D01*
X10590952Y-12048095D01*
X10590952Y-12062381D01*
X10595714Y-12081428D01*
X10600476Y-12090952D01*
X10610000Y-12100476D01*
X10624286Y-12105238D01*
X10648095Y-12105238D01*
X10495714Y-12105238D02*
X10552857Y-12105238D01*
X10524286Y-12105238D02*
X10524286Y-12005238D01*
X10533810Y-12019524D01*
X10543333Y-12029048D01*
X10552857Y-12033809D01*
X13841905Y-12095238D02*
X13889524Y-12095238D01*
X13889524Y-11995238D01*
X13808571Y-12095238D02*
X13808571Y-11995238D01*
X13727619Y-12042857D02*
X13760952Y-12042857D01*
X13760952Y-12095238D02*
X13760952Y-11995238D01*
X13713333Y-11995238D01*
X13689524Y-11995238D02*
X13632381Y-11995238D01*
X13660952Y-12095238D02*
X13660952Y-11995238D01*
X13470476Y-12000000D02*
X13480000Y-11995238D01*
X13494286Y-11995238D01*
X13508571Y-12000000D01*
X13518095Y-12009524D01*
X13522857Y-12019048D01*
X13527619Y-12038095D01*
X13527619Y-12052381D01*
X13522857Y-12071428D01*
X13518095Y-12080952D01*
X13508571Y-12090476D01*
X13494286Y-12095238D01*
X13484762Y-12095238D01*
X13470476Y-12090476D01*
X13465714Y-12085714D01*
X13465714Y-12052381D01*
X13484762Y-12052381D01*
X13422857Y-12095238D02*
X13422857Y-11995238D01*
X13365714Y-12095238D01*
X13365714Y-11995238D01*
X13318095Y-12095238D02*
X13318095Y-11995238D01*
X13294286Y-11995238D01*
X13280000Y-12000000D01*
X13270476Y-12009524D01*
X13265714Y-12019048D01*
X13260952Y-12038095D01*
X13260952Y-12052381D01*
X13265714Y-12071428D01*
X13270476Y-12080952D01*
X13280000Y-12090476D01*
X13294286Y-12095238D01*
X13318095Y-12095238D01*
X13199048Y-11995238D02*
X13189524Y-11995238D01*
X13180000Y-12000000D01*
X13175238Y-12004762D01*
X13170476Y-12014286D01*
X13165714Y-12033333D01*
X13165714Y-12057143D01*
X13170476Y-12076190D01*
X13175238Y-12085714D01*
X13180000Y-12090476D01*
X13189524Y-12095238D01*
X13199048Y-12095238D01*
X13208571Y-12090476D01*
X13213333Y-12085714D01*
X13218095Y-12076190D01*
X13222857Y-12057143D01*
X13222857Y-12033333D01*
X13218095Y-12014286D01*
X13213333Y-12004762D01*
X13208571Y-12000000D01*
X13199048Y-11995238D01*
X6509524Y-12445714D02*
X6514286Y-12450476D01*
X6528571Y-12455238D01*
X6538095Y-12455238D01*
X6552381Y-12450476D01*
X6561905Y-12440952D01*
X6566667Y-12431428D01*
X6571428Y-12412381D01*
X6571428Y-12398095D01*
X6566667Y-12379048D01*
X6561905Y-12369524D01*
X6552381Y-12360000D01*
X6538095Y-12355238D01*
X6528571Y-12355238D01*
X6514286Y-12360000D01*
X6509524Y-12364762D01*
X6447619Y-12355238D02*
X6428571Y-12355238D01*
X6419048Y-12360000D01*
X6409524Y-12369524D01*
X6404762Y-12388571D01*
X6404762Y-12421905D01*
X6409524Y-12440952D01*
X6419048Y-12450476D01*
X6428571Y-12455238D01*
X6447619Y-12455238D01*
X6457143Y-12450476D01*
X6466667Y-12440952D01*
X6471428Y-12421905D01*
X6471428Y-12388571D01*
X6466667Y-12369524D01*
X6457143Y-12360000D01*
X6447619Y-12355238D01*
X6314286Y-12455238D02*
X6361905Y-12455238D01*
X6361905Y-12355238D01*
X6280952Y-12455238D02*
X6280952Y-12355238D01*
X6257143Y-12355238D01*
X6242857Y-12360000D01*
X6233333Y-12369524D01*
X6228571Y-12379048D01*
X6223809Y-12398095D01*
X6223809Y-12412381D01*
X6228571Y-12431428D01*
X6233333Y-12440952D01*
X6242857Y-12450476D01*
X6257143Y-12455238D01*
X6280952Y-12455238D01*
X6190476Y-12355238D02*
X6128571Y-12355238D01*
X6161905Y-12393333D01*
X6147619Y-12393333D01*
X6138095Y-12398095D01*
X6133333Y-12402857D01*
X6128571Y-12412381D01*
X6128571Y-12436190D01*
X6133333Y-12445714D01*
X6138095Y-12450476D01*
X6147619Y-12455238D01*
X6176190Y-12455238D01*
X6185714Y-12450476D01*
X6190476Y-12445714D01*
X6846667Y-12865238D02*
X6846667Y-12765238D01*
X6846667Y-12812857D02*
X6789524Y-12812857D01*
X6789524Y-12865238D02*
X6789524Y-12765238D01*
X6722857Y-12765238D02*
X6703809Y-12765238D01*
X6694286Y-12770000D01*
X6684762Y-12779524D01*
X6680000Y-12798571D01*
X6680000Y-12831905D01*
X6684762Y-12850952D01*
X6694286Y-12860476D01*
X6703809Y-12865238D01*
X6722857Y-12865238D01*
X6732381Y-12860476D01*
X6741905Y-12850952D01*
X6746667Y-12831905D01*
X6746667Y-12798571D01*
X6741905Y-12779524D01*
X6732381Y-12770000D01*
X6722857Y-12765238D01*
X6651428Y-12765238D02*
X6594286Y-12765238D01*
X6622857Y-12865238D02*
X6622857Y-12765238D01*
X6570476Y-12765238D02*
X6508571Y-12765238D01*
X6541905Y-12803333D01*
X6527619Y-12803333D01*
X6518095Y-12808095D01*
X6513333Y-12812857D01*
X6508571Y-12822381D01*
X6508571Y-12846190D01*
X6513333Y-12855714D01*
X6518095Y-12860476D01*
X6527619Y-12865238D01*
X6556190Y-12865238D01*
X6565714Y-12860476D01*
X6570476Y-12855714D01*
X9199524Y-12465714D02*
X9204286Y-12470476D01*
X9218571Y-12475238D01*
X9228095Y-12475238D01*
X9242381Y-12470476D01*
X9251905Y-12460952D01*
X9256667Y-12451428D01*
X9261429Y-12432381D01*
X9261429Y-12418095D01*
X9256667Y-12399048D01*
X9251905Y-12389524D01*
X9242381Y-12380000D01*
X9228095Y-12375238D01*
X9218571Y-12375238D01*
X9204286Y-12380000D01*
X9199524Y-12384762D01*
X9137619Y-12375238D02*
X9118571Y-12375238D01*
X9109048Y-12380000D01*
X9099524Y-12389524D01*
X9094762Y-12408571D01*
X9094762Y-12441905D01*
X9099524Y-12460952D01*
X9109048Y-12470476D01*
X9118571Y-12475238D01*
X9137619Y-12475238D01*
X9147143Y-12470476D01*
X9156667Y-12460952D01*
X9161429Y-12441905D01*
X9161429Y-12408571D01*
X9156667Y-12389524D01*
X9147143Y-12380000D01*
X9137619Y-12375238D01*
X9004286Y-12475238D02*
X9051905Y-12475238D01*
X9051905Y-12375238D01*
X8970952Y-12475238D02*
X8970952Y-12375238D01*
X8947143Y-12375238D01*
X8932857Y-12380000D01*
X8923333Y-12389524D01*
X8918571Y-12399048D01*
X8913810Y-12418095D01*
X8913810Y-12432381D01*
X8918571Y-12451428D01*
X8923333Y-12460952D01*
X8932857Y-12470476D01*
X8947143Y-12475238D01*
X8970952Y-12475238D01*
X8875714Y-12384762D02*
X8870952Y-12380000D01*
X8861429Y-12375238D01*
X8837619Y-12375238D01*
X8828095Y-12380000D01*
X8823333Y-12384762D01*
X8818571Y-12394286D01*
X8818571Y-12403809D01*
X8823333Y-12418095D01*
X8880476Y-12475238D01*
X8818571Y-12475238D01*
X9566667Y-12875238D02*
X9566667Y-12775238D01*
X9566667Y-12822857D02*
X9509524Y-12822857D01*
X9509524Y-12875238D02*
X9509524Y-12775238D01*
X9442857Y-12775238D02*
X9423810Y-12775238D01*
X9414286Y-12780000D01*
X9404762Y-12789524D01*
X9400000Y-12808571D01*
X9400000Y-12841905D01*
X9404762Y-12860952D01*
X9414286Y-12870476D01*
X9423810Y-12875238D01*
X9442857Y-12875238D01*
X9452381Y-12870476D01*
X9461905Y-12860952D01*
X9466667Y-12841905D01*
X9466667Y-12808571D01*
X9461905Y-12789524D01*
X9452381Y-12780000D01*
X9442857Y-12775238D01*
X9371429Y-12775238D02*
X9314286Y-12775238D01*
X9342857Y-12875238D02*
X9342857Y-12775238D01*
X9285714Y-12784762D02*
X9280952Y-12780000D01*
X9271429Y-12775238D01*
X9247619Y-12775238D01*
X9238095Y-12780000D01*
X9233333Y-12784762D01*
X9228571Y-12794286D01*
X9228571Y-12803809D01*
X9233333Y-12818095D01*
X9290476Y-12875238D01*
X9228571Y-12875238D01*
X5610952Y-13060476D02*
X5596667Y-13065238D01*
X5572857Y-13065238D01*
X5563333Y-13060476D01*
X5558571Y-13055714D01*
X5553810Y-13046190D01*
X5553810Y-13036667D01*
X5558571Y-13027143D01*
X5563333Y-13022381D01*
X5572857Y-13017619D01*
X5591905Y-13012857D01*
X5601428Y-13008095D01*
X5606190Y-13003333D01*
X5610952Y-12993809D01*
X5610952Y-12984286D01*
X5606190Y-12974762D01*
X5601428Y-12970000D01*
X5591905Y-12965238D01*
X5568095Y-12965238D01*
X5553810Y-12970000D01*
X5510952Y-13065238D02*
X5510952Y-12965238D01*
X5510952Y-13012857D02*
X5453810Y-13012857D01*
X5453810Y-13065238D02*
X5453810Y-12965238D01*
X8310952Y-13060476D02*
X8296667Y-13065238D01*
X8272857Y-13065238D01*
X8263333Y-13060476D01*
X8258571Y-13055714D01*
X8253809Y-13046190D01*
X8253809Y-13036667D01*
X8258571Y-13027143D01*
X8263333Y-13022381D01*
X8272857Y-13017619D01*
X8291905Y-13012857D01*
X8301428Y-13008095D01*
X8306190Y-13003333D01*
X8310952Y-12993809D01*
X8310952Y-12984286D01*
X8306190Y-12974762D01*
X8301428Y-12970000D01*
X8291905Y-12965238D01*
X8268095Y-12965238D01*
X8253809Y-12970000D01*
X8210952Y-13065238D02*
X8210952Y-12965238D01*
X8210952Y-13012857D02*
X8153809Y-13012857D01*
X8153809Y-13065238D02*
X8153809Y-12965238D01*
X11020952Y-13060476D02*
X11006667Y-13065238D01*
X10982857Y-13065238D01*
X10973333Y-13060476D01*
X10968571Y-13055714D01*
X10963810Y-13046190D01*
X10963810Y-13036667D01*
X10968571Y-13027143D01*
X10973333Y-13022381D01*
X10982857Y-13017619D01*
X11001905Y-13012857D01*
X11011429Y-13008095D01*
X11016190Y-13003333D01*
X11020952Y-12993809D01*
X11020952Y-12984286D01*
X11016190Y-12974762D01*
X11011429Y-12970000D01*
X11001905Y-12965238D01*
X10978095Y-12965238D01*
X10963810Y-12970000D01*
X10920952Y-13065238D02*
X10920952Y-12965238D01*
X10920952Y-13012857D02*
X10863810Y-13012857D01*
X10863810Y-13065238D02*
X10863810Y-12965238D01*
X11889524Y-12465714D02*
X11894286Y-12470476D01*
X11908571Y-12475238D01*
X11918095Y-12475238D01*
X11932381Y-12470476D01*
X11941905Y-12460952D01*
X11946667Y-12451428D01*
X11951428Y-12432381D01*
X11951428Y-12418095D01*
X11946667Y-12399048D01*
X11941905Y-12389524D01*
X11932381Y-12380000D01*
X11918095Y-12375238D01*
X11908571Y-12375238D01*
X11894286Y-12380000D01*
X11889524Y-12384762D01*
X11827619Y-12375238D02*
X11808571Y-12375238D01*
X11799048Y-12380000D01*
X11789524Y-12389524D01*
X11784762Y-12408571D01*
X11784762Y-12441905D01*
X11789524Y-12460952D01*
X11799048Y-12470476D01*
X11808571Y-12475238D01*
X11827619Y-12475238D01*
X11837143Y-12470476D01*
X11846667Y-12460952D01*
X11851428Y-12441905D01*
X11851428Y-12408571D01*
X11846667Y-12389524D01*
X11837143Y-12380000D01*
X11827619Y-12375238D01*
X11694286Y-12475238D02*
X11741905Y-12475238D01*
X11741905Y-12375238D01*
X11660952Y-12475238D02*
X11660952Y-12375238D01*
X11637143Y-12375238D01*
X11622857Y-12380000D01*
X11613333Y-12389524D01*
X11608571Y-12399048D01*
X11603809Y-12418095D01*
X11603809Y-12432381D01*
X11608571Y-12451428D01*
X11613333Y-12460952D01*
X11622857Y-12470476D01*
X11637143Y-12475238D01*
X11660952Y-12475238D01*
X11508571Y-12475238D02*
X11565714Y-12475238D01*
X11537143Y-12475238D02*
X11537143Y-12375238D01*
X11546667Y-12389524D01*
X11556190Y-12399048D01*
X11565714Y-12403809D01*
X12246667Y-12845238D02*
X12246667Y-12745238D01*
X12246667Y-12792857D02*
X12189524Y-12792857D01*
X12189524Y-12845238D02*
X12189524Y-12745238D01*
X12122857Y-12745238D02*
X12103809Y-12745238D01*
X12094286Y-12750000D01*
X12084762Y-12759524D01*
X12080000Y-12778571D01*
X12080000Y-12811905D01*
X12084762Y-12830952D01*
X12094286Y-12840476D01*
X12103809Y-12845238D01*
X12122857Y-12845238D01*
X12132381Y-12840476D01*
X12141905Y-12830952D01*
X12146667Y-12811905D01*
X12146667Y-12778571D01*
X12141905Y-12759524D01*
X12132381Y-12750000D01*
X12122857Y-12745238D01*
X12051428Y-12745238D02*
X11994286Y-12745238D01*
X12022857Y-12845238D02*
X12022857Y-12745238D01*
X11908571Y-12845238D02*
X11965714Y-12845238D01*
X11937143Y-12845238D02*
X11937143Y-12745238D01*
X11946667Y-12759524D01*
X11956190Y-12769048D01*
X11965714Y-12773809D01*
X13730952Y-13060476D02*
X13716667Y-13065238D01*
X13692857Y-13065238D01*
X13683333Y-13060476D01*
X13678571Y-13055714D01*
X13673809Y-13046190D01*
X13673809Y-13036667D01*
X13678571Y-13027143D01*
X13683333Y-13022381D01*
X13692857Y-13017619D01*
X13711905Y-13012857D01*
X13721428Y-13008095D01*
X13726190Y-13003333D01*
X13730952Y-12993809D01*
X13730952Y-12984286D01*
X13726190Y-12974762D01*
X13721428Y-12970000D01*
X13711905Y-12965238D01*
X13688095Y-12965238D01*
X13673809Y-12970000D01*
X13630952Y-13065238D02*
X13630952Y-12965238D01*
X13630952Y-13012857D02*
X13573809Y-13012857D01*
X13573809Y-13065238D02*
X13573809Y-12965238D01*
X14599524Y-12435714D02*
X14604286Y-12440476D01*
X14618571Y-12445238D01*
X14628095Y-12445238D01*
X14642381Y-12440476D01*
X14651905Y-12430952D01*
X14656667Y-12421428D01*
X14661428Y-12402381D01*
X14661428Y-12388095D01*
X14656667Y-12369048D01*
X14651905Y-12359524D01*
X14642381Y-12350000D01*
X14628095Y-12345238D01*
X14618571Y-12345238D01*
X14604286Y-12350000D01*
X14599524Y-12354762D01*
X14537619Y-12345238D02*
X14518571Y-12345238D01*
X14509048Y-12350000D01*
X14499524Y-12359524D01*
X14494762Y-12378571D01*
X14494762Y-12411905D01*
X14499524Y-12430952D01*
X14509048Y-12440476D01*
X14518571Y-12445238D01*
X14537619Y-12445238D01*
X14547143Y-12440476D01*
X14556667Y-12430952D01*
X14561428Y-12411905D01*
X14561428Y-12378571D01*
X14556667Y-12359524D01*
X14547143Y-12350000D01*
X14537619Y-12345238D01*
X14404286Y-12445238D02*
X14451905Y-12445238D01*
X14451905Y-12345238D01*
X14370952Y-12445238D02*
X14370952Y-12345238D01*
X14347143Y-12345238D01*
X14332857Y-12350000D01*
X14323333Y-12359524D01*
X14318571Y-12369048D01*
X14313809Y-12388095D01*
X14313809Y-12402381D01*
X14318571Y-12421428D01*
X14323333Y-12430952D01*
X14332857Y-12440476D01*
X14347143Y-12445238D01*
X14370952Y-12445238D01*
X14251905Y-12345238D02*
X14242381Y-12345238D01*
X14232857Y-12350000D01*
X14228095Y-12354762D01*
X14223333Y-12364286D01*
X14218571Y-12383333D01*
X14218571Y-12407143D01*
X14223333Y-12426190D01*
X14228095Y-12435714D01*
X14232857Y-12440476D01*
X14242381Y-12445238D01*
X14251905Y-12445238D01*
X14261428Y-12440476D01*
X14266190Y-12435714D01*
X14270952Y-12426190D01*
X14275714Y-12407143D01*
X14275714Y-12383333D01*
X14270952Y-12364286D01*
X14266190Y-12354762D01*
X14261428Y-12350000D01*
X14251905Y-12345238D01*
X14956667Y-12855238D02*
X14956667Y-12755238D01*
X14956667Y-12802857D02*
X14899524Y-12802857D01*
X14899524Y-12855238D02*
X14899524Y-12755238D01*
X14832857Y-12755238D02*
X14813809Y-12755238D01*
X14804286Y-12760000D01*
X14794762Y-12769524D01*
X14790000Y-12788571D01*
X14790000Y-12821905D01*
X14794762Y-12840952D01*
X14804286Y-12850476D01*
X14813809Y-12855238D01*
X14832857Y-12855238D01*
X14842381Y-12850476D01*
X14851905Y-12840952D01*
X14856667Y-12821905D01*
X14856667Y-12788571D01*
X14851905Y-12769524D01*
X14842381Y-12760000D01*
X14832857Y-12755238D01*
X14761428Y-12755238D02*
X14704286Y-12755238D01*
X14732857Y-12855238D02*
X14732857Y-12755238D01*
X14651905Y-12755238D02*
X14642381Y-12755238D01*
X14632857Y-12760000D01*
X14628095Y-12764762D01*
X14623333Y-12774286D01*
X14618571Y-12793333D01*
X14618571Y-12817143D01*
X14623333Y-12836190D01*
X14628095Y-12845714D01*
X14632857Y-12850476D01*
X14642381Y-12855238D01*
X14651905Y-12855238D01*
X14661428Y-12850476D01*
X14666190Y-12845714D01*
X14670952Y-12836190D01*
X14675714Y-12817143D01*
X14675714Y-12793333D01*
X14670952Y-12774286D01*
X14666190Y-12764762D01*
X14661428Y-12760000D01*
X14651905Y-12755238D01*
X12155238Y-9110000D02*
X12055238Y-9110000D01*
X12155238Y-9157619D02*
X12055238Y-9157619D01*
X12155238Y-9214762D01*
X12055238Y-9214762D01*
X12155238Y-9314762D02*
X12155238Y-9257619D01*
X12155238Y-9286190D02*
X12055238Y-9286190D01*
X12069524Y-9276667D01*
X12079048Y-9267143D01*
X12083809Y-9257619D01*
X12655238Y-9110000D02*
X12555238Y-9110000D01*
X12655238Y-9157619D02*
X12555238Y-9157619D01*
X12655238Y-9214762D01*
X12555238Y-9214762D01*
X12555238Y-9281429D02*
X12555238Y-9290952D01*
X12560000Y-9300476D01*
X12564762Y-9305238D01*
X12574286Y-9310000D01*
X12593333Y-9314762D01*
X12617143Y-9314762D01*
X12636190Y-9310000D01*
X12645714Y-9305238D01*
X12650476Y-9300476D01*
X12655238Y-9290952D01*
X12655238Y-9281429D01*
X12650476Y-9271905D01*
X12645714Y-9267143D01*
X12636190Y-9262381D01*
X12617143Y-9257619D01*
X12593333Y-9257619D01*
X12574286Y-9262381D01*
X12564762Y-9267143D01*
X12560000Y-9271905D01*
X12555238Y-9281429D01*
X12390476Y-9109048D02*
X12395238Y-9123333D01*
X12395238Y-9147143D01*
X12390476Y-9156667D01*
X12385714Y-9161429D01*
X12376190Y-9166190D01*
X12366667Y-9166190D01*
X12357143Y-9161429D01*
X12352381Y-9156667D01*
X12347619Y-9147143D01*
X12342857Y-9128095D01*
X12338095Y-9118571D01*
X12333333Y-9113810D01*
X12323809Y-9109048D01*
X12314286Y-9109048D01*
X12304762Y-9113810D01*
X12300000Y-9118571D01*
X12295238Y-9128095D01*
X12295238Y-9151905D01*
X12300000Y-9166190D01*
X12300000Y-9261429D02*
X12295238Y-9251905D01*
X12295238Y-9237619D01*
X12300000Y-9223333D01*
X12309524Y-9213810D01*
X12319048Y-9209048D01*
X12338095Y-9204286D01*
X12352381Y-9204286D01*
X12371428Y-9209048D01*
X12380952Y-9213810D01*
X12390476Y-9223333D01*
X12395238Y-9237619D01*
X12395238Y-9247143D01*
X12390476Y-9261429D01*
X12385714Y-9266190D01*
X12352381Y-9266190D01*
X12352381Y-9247143D01*
X12395238Y-9309048D02*
X12295238Y-9309048D01*
X12395238Y-9366190D01*
X12295238Y-9366190D01*
X12395238Y-9413810D02*
X12295238Y-9413810D01*
X12295238Y-9437619D01*
X12300000Y-9451905D01*
X12309524Y-9461429D01*
X12319048Y-9466190D01*
X12338095Y-9470952D01*
X12352381Y-9470952D01*
X12371428Y-9466190D01*
X12380952Y-9461429D01*
X12390476Y-9451905D01*
X12395238Y-9437619D01*
X12395238Y-9413810D01*
X7590476Y-9109048D02*
X7595238Y-9123333D01*
X7595238Y-9147143D01*
X7590476Y-9156667D01*
X7585714Y-9161429D01*
X7576190Y-9166190D01*
X7566667Y-9166190D01*
X7557143Y-9161429D01*
X7552381Y-9156667D01*
X7547619Y-9147143D01*
X7542857Y-9128095D01*
X7538095Y-9118571D01*
X7533333Y-9113810D01*
X7523809Y-9109048D01*
X7514286Y-9109048D01*
X7504762Y-9113810D01*
X7500000Y-9118571D01*
X7495238Y-9128095D01*
X7495238Y-9151905D01*
X7500000Y-9166190D01*
X7500000Y-9261429D02*
X7495238Y-9251905D01*
X7495238Y-9237619D01*
X7500000Y-9223333D01*
X7509524Y-9213810D01*
X7519048Y-9209048D01*
X7538095Y-9204286D01*
X7552381Y-9204286D01*
X7571428Y-9209048D01*
X7580952Y-9213810D01*
X7590476Y-9223333D01*
X7595238Y-9237619D01*
X7595238Y-9247143D01*
X7590476Y-9261429D01*
X7585714Y-9266190D01*
X7552381Y-9266190D01*
X7552381Y-9247143D01*
X7595238Y-9309048D02*
X7495238Y-9309048D01*
X7595238Y-9366190D01*
X7495238Y-9366190D01*
X7595238Y-9413810D02*
X7495238Y-9413810D01*
X7495238Y-9437619D01*
X7500000Y-9451905D01*
X7509524Y-9461429D01*
X7519048Y-9466190D01*
X7538095Y-9470952D01*
X7552381Y-9470952D01*
X7571428Y-9466190D01*
X7580952Y-9461429D01*
X7590476Y-9451905D01*
X7595238Y-9437619D01*
X7595238Y-9413810D01*
X7355238Y-9130000D02*
X7255238Y-9130000D01*
X7355238Y-9177619D02*
X7255238Y-9177619D01*
X7355238Y-9234762D01*
X7255238Y-9234762D01*
X7255238Y-9272857D02*
X7255238Y-9334762D01*
X7293333Y-9301429D01*
X7293333Y-9315714D01*
X7298095Y-9325238D01*
X7302857Y-9330000D01*
X7312381Y-9334762D01*
X7336190Y-9334762D01*
X7345714Y-9330000D01*
X7350476Y-9325238D01*
X7355238Y-9315714D01*
X7355238Y-9287143D01*
X7350476Y-9277619D01*
X7345714Y-9272857D01*
X7845238Y-9110000D02*
X7745238Y-9110000D01*
X7845238Y-9157619D02*
X7745238Y-9157619D01*
X7845238Y-9214762D01*
X7745238Y-9214762D01*
X7754762Y-9257619D02*
X7750000Y-9262381D01*
X7745238Y-9271905D01*
X7745238Y-9295714D01*
X7750000Y-9305238D01*
X7754762Y-9310000D01*
X7764286Y-9314762D01*
X7773809Y-9314762D01*
X7788095Y-9310000D01*
X7845238Y-9252857D01*
X7845238Y-9314762D01*
X8887143Y-9039048D02*
X8887143Y-9115238D01*
X8925238Y-9077143D02*
X8849048Y-9077143D01*
X8825238Y-9148571D02*
X8925238Y-9181905D01*
X8825238Y-9215238D01*
X8915714Y-9305714D02*
X8920476Y-9300952D01*
X8925238Y-9286667D01*
X8925238Y-9277143D01*
X8920476Y-9262857D01*
X8910952Y-9253333D01*
X8901429Y-9248571D01*
X8882381Y-9243810D01*
X8868095Y-9243810D01*
X8849048Y-9248571D01*
X8839524Y-9253333D01*
X8830000Y-9262857D01*
X8825238Y-9277143D01*
X8825238Y-9286667D01*
X8830000Y-9300952D01*
X8834762Y-9305714D01*
X8915714Y-9405714D02*
X8920476Y-9400952D01*
X8925238Y-9386667D01*
X8925238Y-9377143D01*
X8920476Y-9362857D01*
X8910952Y-9353333D01*
X8901429Y-9348571D01*
X8882381Y-9343810D01*
X8868095Y-9343810D01*
X8849048Y-9348571D01*
X8839524Y-9353333D01*
X8830000Y-9362857D01*
X8825238Y-9377143D01*
X8825238Y-9386667D01*
X8830000Y-9400952D01*
X8834762Y-9405714D01*
X8675238Y-9060952D02*
X8575238Y-9060952D01*
X8646667Y-9094286D01*
X8575238Y-9127619D01*
X8675238Y-9127619D01*
X8575238Y-9175238D02*
X8656190Y-9175238D01*
X8665714Y-9180000D01*
X8670476Y-9184762D01*
X8675238Y-9194286D01*
X8675238Y-9213333D01*
X8670476Y-9222857D01*
X8665714Y-9227619D01*
X8656190Y-9232381D01*
X8575238Y-9232381D01*
X8575238Y-9265714D02*
X8575238Y-9322857D01*
X8675238Y-9294286D02*
X8575238Y-9294286D01*
X8622857Y-9356190D02*
X8622857Y-9389524D01*
X8675238Y-9403810D02*
X8675238Y-9356190D01*
X8575238Y-9356190D01*
X8575238Y-9403810D01*
X8330000Y-9133810D02*
X8325238Y-9124286D01*
X8325238Y-9110000D01*
X8330000Y-9095714D01*
X8339524Y-9086190D01*
X8349048Y-9081429D01*
X8368095Y-9076667D01*
X8382381Y-9076667D01*
X8401429Y-9081429D01*
X8410952Y-9086190D01*
X8420476Y-9095714D01*
X8425238Y-9110000D01*
X8425238Y-9119524D01*
X8420476Y-9133810D01*
X8415714Y-9138571D01*
X8382381Y-9138571D01*
X8382381Y-9119524D01*
X8425238Y-9181429D02*
X8325238Y-9181429D01*
X8425238Y-9238571D01*
X8325238Y-9238571D01*
X8425238Y-9286190D02*
X8325238Y-9286190D01*
X8325238Y-9310000D01*
X8330000Y-9324286D01*
X8339524Y-9333810D01*
X8349048Y-9338571D01*
X8368095Y-9343333D01*
X8382381Y-9343333D01*
X8401429Y-9338571D01*
X8410952Y-9333810D01*
X8420476Y-9324286D01*
X8425238Y-9310000D01*
X8425238Y-9286190D01*
M02*
