M48
; DRILL file {KiCad (5.1.9-0-10_14)} date Wednesday, January 19, 2022 at 10:13:07 PM
; FORMAT={-:-/ absolute / metric / decimal}
; #@! TF.CreationDate,2022-01-19T22:13:07+09:00
; #@! TF.GenerationSoftware,Kicad,Pcbnew,(5.1.9-0-10_14)
FMAT,2
METRIC
T1C0.400
T2C0.500
T3C0.762
T4C0.800
T5C0.950
T6C0.990
T7C1.000
T8C3.200
T9C1.200
%
G90
G05
T1
X58.42Y-106.045
X63.057Y-112.968
X82.55Y-106.045
X84.582Y-97.346
X85.725Y-98.425
X86.423Y-95.504
X87.503Y-96.647
X87.539Y-112.934
X96.52Y-91.44
X98.5Y-100.5
X100.33Y-91.44
X100.827Y-88.511
X107.202Y-88.24
X107.95Y-106.045
X113.729Y-112.315
X132.715Y-106.045
X137.669Y-112.563
T2
X144.1Y-146.0
X144.803Y-144.303
X144.803Y-147.697
X146.5Y-143.6
X146.5Y-148.4
X148.197Y-144.303
X148.197Y-147.697
X148.9Y-146.0
T3
X54.61Y-102.0
X70.485Y-102.06
X79.375Y-102.06
X93.98Y-102.06
X105.41Y-102.06
X119.38Y-102.06
X129.54Y-102.06
X144.78Y-102.06
T4
X52.705Y-115.57
X54.61Y-97.0
X54.61Y-99.0
X54.705Y-115.57
X60.829Y-90.4
X61.5Y-92.0
X64.0Y-92.0
X64.671Y-93.6
X69.85Y-115.57
X70.485Y-97.06
X70.485Y-99.06
X71.85Y-115.57
X77.47Y-115.57
X79.375Y-97.06
X79.375Y-99.06
X79.47Y-115.57
X93.98Y-97.06
X93.98Y-99.06
X95.25Y-115.57
X97.25Y-115.57
X102.87Y-115.57
X104.87Y-115.57
X105.41Y-97.06
X105.41Y-99.06
X119.38Y-97.06
X119.38Y-99.06
X120.65Y-115.57
X122.65Y-115.57
X127.635Y-115.57
X129.54Y-97.06
X129.54Y-99.06
X129.635Y-115.57
X135.329Y-90.4
X136.0Y-92.0
X138.5Y-92.0
X139.171Y-93.6
X144.78Y-97.06
X144.78Y-99.06
X145.415Y-115.57
X147.415Y-115.57
T5
X73.025Y-89.535
X75.525Y-89.535
X78.025Y-89.535
X121.031Y-89.535
X123.531Y-89.535
X126.031Y-89.535
T6
X55.5Y-128.0
X59.5Y-123.99
X63.5Y-128.0
X82.5Y-128.0
X86.5Y-123.99
X90.5Y-128.0
X109.5Y-128.0
X113.5Y-123.99
X117.5Y-128.0
X136.5Y-128.0
X140.5Y-123.99
X144.5Y-128.0
T7
X53.5Y-124.5
X56.04Y-124.5
X80.5Y-124.5
X83.04Y-124.5
X83.82Y-88.9
X86.36Y-88.9
X88.9Y-88.9
X107.5Y-124.5
X110.04Y-124.5
X134.5Y-124.5
X137.04Y-124.5
T8
X53.5Y-89.5
X53.5Y-146.0
X73.0Y-127.0
X127.0Y-127.0
X146.5Y-89.5
X146.5Y-146.0
T9
X71.425Y-91.535
X119.431Y-91.535
T0
M30
