G04 #@! TF.GenerationSoftware,KiCad,Pcbnew,(5.1.9-0-10_14)*
G04 #@! TF.CreationDate,2022-05-18T00:48:24+09:00*
G04 #@! TF.ProjectId,FreeDSP_Catamaran,46726565-4453-4505-9f43-6174616d6172,rev?*
G04 #@! TF.SameCoordinates,Original*
G04 #@! TF.FileFunction,Legend,Bot*
G04 #@! TF.FilePolarity,Positive*
%FSLAX46Y46*%
G04 Gerber Fmt 4.6, Leading zero omitted, Abs format (unit mm)*
G04 Created by KiCad (PCBNEW (5.1.9-0-10_14)) date 2022-05-18 00:48:24*
%MOMM*%
%LPD*%
G01*
G04 APERTURE LIST*
%ADD10C,0.150000*%
%ADD11C,0.120000*%
%ADD12C,0.200000*%
%ADD13C,0.500000*%
%ADD14C,0.100000*%
%ADD15C,4.200000*%
%ADD16C,1.800000*%
%ADD17O,1.950000X1.700000*%
%ADD18R,1.524000X1.524000*%
%ADD19C,1.600000*%
%ADD20R,1.600000X1.600000*%
%ADD21O,1.700000X1.700000*%
%ADD22R,1.700000X1.700000*%
%ADD23R,5.000000X3.000000*%
%ADD24R,3.000000X4.000000*%
%ADD25O,1.800000X2.700000*%
%ADD26C,1.700000*%
%ADD27R,3.500000X3.500000*%
%ADD28C,2.100000*%
%ADD29C,1.750000*%
%ADD30C,0.800000*%
%ADD31C,6.400000*%
%ADD32R,1.635000X1.635000*%
%ADD33C,1.635000*%
%ADD34O,1.740000X2.190000*%
G04 APERTURE END LIST*
D10*
X83750000Y-113821428D02*
X82988095Y-113821428D01*
X83369047Y-114202380D02*
X83369047Y-113440476D01*
X81988095Y-114202380D02*
X82559523Y-114202380D01*
X82273809Y-114202380D02*
X82273809Y-113202380D01*
X82369047Y-113345238D01*
X82464285Y-113440476D01*
X82559523Y-113488095D01*
X81559523Y-114107142D02*
X81511904Y-114154761D01*
X81559523Y-114202380D01*
X81607142Y-114154761D01*
X81559523Y-114107142D01*
X81559523Y-114202380D01*
X80607142Y-113202380D02*
X81083333Y-113202380D01*
X81130952Y-113678571D01*
X81083333Y-113630952D01*
X80988095Y-113583333D01*
X80750000Y-113583333D01*
X80654761Y-113630952D01*
X80607142Y-113678571D01*
X80559523Y-113773809D01*
X80559523Y-114011904D01*
X80607142Y-114107142D01*
X80654761Y-114154761D01*
X80750000Y-114202380D01*
X80988095Y-114202380D01*
X81083333Y-114154761D01*
X81130952Y-114107142D01*
X80273809Y-113202380D02*
X79940476Y-114202380D01*
X79607142Y-113202380D01*
X94085000Y-119488095D02*
X94085000Y-120488095D01*
X95452380Y-120297619D02*
X94976190Y-119964285D01*
X95452380Y-119726190D02*
X94452380Y-119726190D01*
X94452380Y-120107142D01*
X94500000Y-120202380D01*
X94547619Y-120250000D01*
X94642857Y-120297619D01*
X94785714Y-120297619D01*
X94880952Y-120250000D01*
X94928571Y-120202380D01*
X94976190Y-120107142D01*
X94976190Y-119726190D01*
X94085000Y-120488095D02*
X94085000Y-121392857D01*
X94928571Y-120726190D02*
X94928571Y-121059523D01*
X95452380Y-121202380D02*
X95452380Y-120726190D01*
X94452380Y-120726190D01*
X94452380Y-121202380D01*
X94085000Y-121392857D02*
X94085000Y-122345238D01*
X95404761Y-121583333D02*
X95452380Y-121726190D01*
X95452380Y-121964285D01*
X95404761Y-122059523D01*
X95357142Y-122107142D01*
X95261904Y-122154761D01*
X95166666Y-122154761D01*
X95071428Y-122107142D01*
X95023809Y-122059523D01*
X94976190Y-121964285D01*
X94928571Y-121773809D01*
X94880952Y-121678571D01*
X94833333Y-121630952D01*
X94738095Y-121583333D01*
X94642857Y-121583333D01*
X94547619Y-121630952D01*
X94500000Y-121678571D01*
X94452380Y-121773809D01*
X94452380Y-122011904D01*
X94500000Y-122154761D01*
X94085000Y-122345238D02*
X94085000Y-123250000D01*
X94928571Y-122583333D02*
X94928571Y-122916666D01*
X95452380Y-123059523D02*
X95452380Y-122583333D01*
X94452380Y-122583333D01*
X94452380Y-123059523D01*
X94085000Y-123250000D02*
X94085000Y-124011904D01*
X94452380Y-123345238D02*
X94452380Y-123916666D01*
X95452380Y-123630952D02*
X94452380Y-123630952D01*
X53885714Y-56107142D02*
X53842857Y-55978571D01*
X53842857Y-55764285D01*
X53885714Y-55678571D01*
X53928571Y-55635714D01*
X54014285Y-55592857D01*
X54100000Y-55592857D01*
X54185714Y-55635714D01*
X54228571Y-55678571D01*
X54271428Y-55764285D01*
X54314285Y-55935714D01*
X54357142Y-56021428D01*
X54400000Y-56064285D01*
X54485714Y-56107142D01*
X54571428Y-56107142D01*
X54657142Y-56064285D01*
X54700000Y-56021428D01*
X54742857Y-55935714D01*
X54742857Y-55721428D01*
X54700000Y-55592857D01*
X54742857Y-55292857D02*
X53842857Y-55078571D01*
X54485714Y-54907142D01*
X53842857Y-54735714D01*
X54742857Y-54521428D01*
X53842857Y-54178571D02*
X54742857Y-54178571D01*
X54742857Y-53878571D02*
X54742857Y-53364285D01*
X53842857Y-53621428D02*
X54742857Y-53621428D01*
X53928571Y-52550000D02*
X53885714Y-52592857D01*
X53842857Y-52721428D01*
X53842857Y-52807142D01*
X53885714Y-52935714D01*
X53971428Y-53021428D01*
X54057142Y-53064285D01*
X54228571Y-53107142D01*
X54357142Y-53107142D01*
X54528571Y-53064285D01*
X54614285Y-53021428D01*
X54700000Y-52935714D01*
X54742857Y-52807142D01*
X54742857Y-52721428D01*
X54700000Y-52592857D01*
X54657142Y-52550000D01*
X53842857Y-52164285D02*
X54742857Y-52164285D01*
X54314285Y-52164285D02*
X54314285Y-51650000D01*
X53842857Y-51650000D02*
X54742857Y-51650000D01*
X54314285Y-51221428D02*
X54314285Y-50921428D01*
X53842857Y-50792857D02*
X53842857Y-51221428D01*
X54742857Y-51221428D01*
X54742857Y-50792857D01*
X53842857Y-50407142D02*
X54742857Y-50407142D01*
X54742857Y-50192857D01*
X54700000Y-50064285D01*
X54614285Y-49978571D01*
X54528571Y-49935714D01*
X54357142Y-49892857D01*
X54228571Y-49892857D01*
X54057142Y-49935714D01*
X53971428Y-49978571D01*
X53885714Y-50064285D01*
X53842857Y-50192857D01*
X53842857Y-50407142D01*
D11*
X118872000Y-65024000D02*
X134620000Y-51562000D01*
X103632000Y-52451000D02*
X118872000Y-65024000D01*
D10*
X74775142Y-54650663D02*
X74846571Y-54784592D01*
X74846571Y-55022687D01*
X74775142Y-55126854D01*
X74703714Y-55183401D01*
X74560857Y-55248877D01*
X74418000Y-55266735D01*
X74275142Y-55236973D01*
X74203714Y-55198282D01*
X74132285Y-55111973D01*
X74060857Y-54930425D01*
X73989428Y-54844116D01*
X73918000Y-54805425D01*
X73775142Y-54775663D01*
X73632285Y-54793520D01*
X73489428Y-54858997D01*
X73418000Y-54915544D01*
X73346571Y-55019711D01*
X73346571Y-55257806D01*
X73418000Y-55391735D01*
X74846571Y-55641735D02*
X73346571Y-55829235D01*
X74060857Y-55739949D02*
X74060857Y-56311377D01*
X74846571Y-56213163D02*
X73346571Y-56400663D01*
X73346571Y-57067330D02*
X73346571Y-57257806D01*
X73418000Y-57344116D01*
X73560857Y-57421497D01*
X73846571Y-57433401D01*
X74346571Y-57370901D01*
X74632285Y-57287568D01*
X74775142Y-57174473D01*
X74846571Y-57070306D01*
X74846571Y-56879830D01*
X74775142Y-56793520D01*
X74632285Y-56716139D01*
X74346571Y-56704235D01*
X73846571Y-56766735D01*
X73560857Y-56850068D01*
X73418000Y-56963163D01*
X73346571Y-57067330D01*
X74846571Y-58308401D02*
X74132285Y-58064354D01*
X74846571Y-57736973D02*
X73346571Y-57924473D01*
X73346571Y-58305425D01*
X73418000Y-58391735D01*
X73489428Y-58430425D01*
X73632285Y-58460187D01*
X73846571Y-58433401D01*
X73989428Y-58367925D01*
X74060857Y-58311377D01*
X74132285Y-58207211D01*
X74132285Y-57826258D01*
X73346571Y-58781616D02*
X73346571Y-59353044D01*
X74846571Y-58879830D02*
X73346571Y-59067330D01*
X74703714Y-59516735D02*
X74775142Y-59555425D01*
X74846571Y-59498877D01*
X74775142Y-59460187D01*
X74703714Y-59516735D01*
X74846571Y-59498877D01*
X73918000Y-59614949D02*
X73989428Y-59653639D01*
X74060857Y-59597092D01*
X73989428Y-59558401D01*
X73918000Y-59614949D01*
X74060857Y-59597092D01*
X74703714Y-61326258D02*
X74775142Y-61269711D01*
X74846571Y-61117925D01*
X74846571Y-61022687D01*
X74775142Y-60888758D01*
X74632285Y-60811377D01*
X74489428Y-60781616D01*
X74203714Y-60769711D01*
X73989428Y-60796497D01*
X73703714Y-60879830D01*
X73560857Y-60945306D01*
X73418000Y-61058401D01*
X73346571Y-61210187D01*
X73346571Y-61305425D01*
X73418000Y-61439354D01*
X73489428Y-61478044D01*
X73346571Y-62114949D02*
X73346571Y-62305425D01*
X73418000Y-62391735D01*
X73560857Y-62469116D01*
X73846571Y-62481020D01*
X74346571Y-62418520D01*
X74632285Y-62335187D01*
X74775142Y-62222092D01*
X74846571Y-62117925D01*
X74846571Y-61927449D01*
X74775142Y-61841139D01*
X74632285Y-61763758D01*
X74346571Y-61751854D01*
X73846571Y-61814354D01*
X73560857Y-61897687D01*
X73418000Y-62010782D01*
X73346571Y-62114949D01*
X74846571Y-62784592D02*
X73346571Y-62972092D01*
X74418000Y-63171497D01*
X73346571Y-63638758D01*
X74846571Y-63451258D01*
X74846571Y-63927449D02*
X73346571Y-64114949D01*
X74418000Y-64314354D01*
X73346571Y-64781616D01*
X74846571Y-64594116D01*
X73346571Y-65448282D02*
X73346571Y-65638758D01*
X73418000Y-65725068D01*
X73560857Y-65802449D01*
X73846571Y-65814354D01*
X74346571Y-65751854D01*
X74632285Y-65668520D01*
X74775142Y-65555425D01*
X74846571Y-65451258D01*
X74846571Y-65260782D01*
X74775142Y-65174473D01*
X74632285Y-65097092D01*
X74346571Y-65085187D01*
X73846571Y-65147687D01*
X73560857Y-65231020D01*
X73418000Y-65344116D01*
X73346571Y-65448282D01*
X74846571Y-66117925D02*
X73346571Y-66305425D01*
X74846571Y-66689354D01*
X73346571Y-66876854D01*
X73418000Y-68629830D02*
X73346571Y-68543520D01*
X73346571Y-68400663D01*
X73418000Y-68248877D01*
X73560857Y-68135782D01*
X73703714Y-68070306D01*
X73989428Y-67986973D01*
X74203714Y-67960187D01*
X74489428Y-67972092D01*
X74632285Y-68001854D01*
X74775142Y-68079235D01*
X74846571Y-68213163D01*
X74846571Y-68308401D01*
X74775142Y-68460187D01*
X74703714Y-68516735D01*
X74203714Y-68579235D01*
X74203714Y-68388758D01*
X74846571Y-68927449D02*
X73346571Y-69114949D01*
X74846571Y-69498877D01*
X73346571Y-69686377D01*
X74846571Y-69975068D02*
X73346571Y-70162568D01*
X73346571Y-70400663D01*
X73418000Y-70534592D01*
X73560857Y-70611973D01*
X73703714Y-70641735D01*
X73989428Y-70653639D01*
X74203714Y-70626854D01*
X74489428Y-70543520D01*
X74632285Y-70478044D01*
X74775142Y-70364949D01*
X74846571Y-70213163D01*
X74846571Y-69975068D01*
X71505071Y-55718282D02*
X71505071Y-55908758D01*
X71576500Y-55995068D01*
X71719357Y-56072449D01*
X72005071Y-56084354D01*
X72505071Y-56021854D01*
X72790785Y-55938520D01*
X72933642Y-55825425D01*
X73005071Y-55721258D01*
X73005071Y-55530782D01*
X72933642Y-55444473D01*
X72790785Y-55367092D01*
X72505071Y-55355187D01*
X72005071Y-55417687D01*
X71719357Y-55501020D01*
X71576500Y-55614116D01*
X71505071Y-55718282D01*
X73005071Y-56387925D02*
X71505071Y-56575425D01*
X71505071Y-56956377D01*
X71576500Y-57042687D01*
X71647928Y-57081377D01*
X71790785Y-57111139D01*
X72005071Y-57084354D01*
X72147928Y-57018877D01*
X72219357Y-56962330D01*
X72290785Y-56858163D01*
X72290785Y-56477211D01*
X72219357Y-57486139D02*
X72219357Y-57819473D01*
X73005071Y-57864116D02*
X73005071Y-57387925D01*
X71505071Y-57575425D01*
X71505071Y-58051616D01*
X73005071Y-58292687D02*
X71505071Y-58480187D01*
X73005071Y-58864116D01*
X71505071Y-59051616D01*
X72862214Y-59358163D02*
X72933642Y-59396854D01*
X73005071Y-59340306D01*
X72933642Y-59301616D01*
X72862214Y-59358163D01*
X73005071Y-59340306D01*
X72076500Y-59456377D02*
X72147928Y-59495068D01*
X72219357Y-59438520D01*
X72147928Y-59399830D01*
X72076500Y-59456377D01*
X72219357Y-59438520D01*
X73005071Y-60578401D02*
X71505071Y-60765901D01*
X73005071Y-61054592D02*
X71505071Y-61242092D01*
X73005071Y-61626020D01*
X71505071Y-61813520D01*
X73005071Y-62102211D02*
X71505071Y-62289711D01*
X71505071Y-62670663D01*
X71576500Y-62756973D01*
X71647928Y-62795663D01*
X71790785Y-62825425D01*
X72005071Y-62798639D01*
X72147928Y-62733163D01*
X72219357Y-62676616D01*
X72290785Y-62572449D01*
X72290785Y-62191497D01*
X71505071Y-63289711D02*
X72719357Y-63137925D01*
X72862214Y-63167687D01*
X72933642Y-63206377D01*
X73005071Y-63292687D01*
X73005071Y-63483163D01*
X72933642Y-63587330D01*
X72862214Y-63643877D01*
X72719357Y-63709354D01*
X71505071Y-63861139D01*
X71505071Y-64194473D02*
X71505071Y-64765901D01*
X73005071Y-64292687D02*
X71505071Y-64480187D01*
X72433642Y-64983163D02*
X72433642Y-65745068D01*
X71576500Y-66852211D02*
X71505071Y-66765901D01*
X71505071Y-66623044D01*
X71576500Y-66471258D01*
X71719357Y-66358163D01*
X71862214Y-66292687D01*
X72147928Y-66209354D01*
X72362214Y-66182568D01*
X72647928Y-66194473D01*
X72790785Y-66224235D01*
X72933642Y-66301616D01*
X73005071Y-66435544D01*
X73005071Y-66530782D01*
X72933642Y-66682568D01*
X72862214Y-66739116D01*
X72362214Y-66801616D01*
X72362214Y-66611139D01*
X73005071Y-67149830D02*
X71505071Y-67337330D01*
X73005071Y-67721258D01*
X71505071Y-67908758D01*
X73005071Y-68197449D02*
X71505071Y-68384949D01*
X71505071Y-68623044D01*
X71576500Y-68756973D01*
X71719357Y-68834354D01*
X71862214Y-68864116D01*
X72147928Y-68876020D01*
X72362214Y-68849235D01*
X72647928Y-68765901D01*
X72790785Y-68700425D01*
X72933642Y-68587330D01*
X73005071Y-68435544D01*
X73005071Y-68197449D01*
X73005071Y-70435544D02*
X73005071Y-69959354D01*
X71505071Y-70146854D01*
X73005071Y-70768877D02*
X71505071Y-70956377D01*
X72219357Y-71676616D02*
X72219357Y-71343282D01*
X73005071Y-71245068D02*
X71505071Y-71432568D01*
X71505071Y-71908758D01*
X71505071Y-72146854D02*
X71505071Y-72718282D01*
X73005071Y-72245068D02*
X71505071Y-72432568D01*
X115650571Y-67044949D02*
X115650571Y-67235425D01*
X115722000Y-67321735D01*
X115864857Y-67399116D01*
X116150571Y-67411020D01*
X116650571Y-67348520D01*
X116936285Y-67265187D01*
X117079142Y-67152092D01*
X117150571Y-67047925D01*
X117150571Y-66857449D01*
X117079142Y-66771139D01*
X116936285Y-66693758D01*
X116650571Y-66681854D01*
X116150571Y-66744354D01*
X115864857Y-66827687D01*
X115722000Y-66940782D01*
X115650571Y-67044949D01*
X117150571Y-67714592D02*
X115650571Y-67902092D01*
X115650571Y-68283044D01*
X115722000Y-68369354D01*
X115793428Y-68408044D01*
X115936285Y-68437806D01*
X116150571Y-68411020D01*
X116293428Y-68345544D01*
X116364857Y-68288997D01*
X116436285Y-68184830D01*
X116436285Y-67803877D01*
X116364857Y-68812806D02*
X116364857Y-69146139D01*
X117150571Y-69190782D02*
X117150571Y-68714592D01*
X115650571Y-68902092D01*
X115650571Y-69378282D01*
X117150571Y-69619354D02*
X115650571Y-69806854D01*
X117150571Y-70190782D01*
X115650571Y-70378282D01*
X117007714Y-70684830D02*
X117079142Y-70723520D01*
X117150571Y-70666973D01*
X117079142Y-70628282D01*
X117007714Y-70684830D01*
X117150571Y-70666973D01*
X116222000Y-70783044D02*
X116293428Y-70821735D01*
X116364857Y-70765187D01*
X116293428Y-70726497D01*
X116222000Y-70783044D01*
X116364857Y-70765187D01*
X117150571Y-71905068D02*
X115650571Y-72092568D01*
X115650571Y-72330663D01*
X115722000Y-72464592D01*
X115864857Y-72541973D01*
X116007714Y-72571735D01*
X116293428Y-72583639D01*
X116507714Y-72556854D01*
X116793428Y-72473520D01*
X116936285Y-72408044D01*
X117079142Y-72294949D01*
X117150571Y-72143163D01*
X117150571Y-71905068D01*
X117150571Y-72905068D02*
X115650571Y-73092568D01*
X116364857Y-73812806D02*
X116364857Y-73479473D01*
X117150571Y-73381258D02*
X115650571Y-73568758D01*
X115650571Y-74044949D01*
X116364857Y-74669949D02*
X116364857Y-74336616D01*
X117150571Y-74238401D02*
X115650571Y-74425901D01*
X115650571Y-74902092D01*
X116364857Y-75193758D02*
X116364857Y-75527092D01*
X117150571Y-75571735D02*
X117150571Y-75095544D01*
X115650571Y-75283044D01*
X115650571Y-75759235D01*
X117150571Y-76571735D02*
X116436285Y-76327687D01*
X117150571Y-76000306D02*
X115650571Y-76187806D01*
X115650571Y-76568758D01*
X115722000Y-76655068D01*
X115793428Y-76693758D01*
X115936285Y-76723520D01*
X116150571Y-76696735D01*
X116293428Y-76631258D01*
X116364857Y-76574711D01*
X116436285Y-76470544D01*
X116436285Y-76089592D01*
X116364857Y-77098520D02*
X116364857Y-77431854D01*
X117150571Y-77476497D02*
X117150571Y-77000306D01*
X115650571Y-77187806D01*
X115650571Y-77663997D01*
X117150571Y-77905068D02*
X115650571Y-78092568D01*
X117150571Y-78476497D01*
X115650571Y-78663997D01*
X115650571Y-78997330D02*
X115650571Y-79568758D01*
X117150571Y-79095544D02*
X115650571Y-79283044D01*
X117150571Y-79714592D02*
X115650571Y-79902092D01*
X116722000Y-80196735D02*
X116722000Y-80672925D01*
X117150571Y-80047925D02*
X115650571Y-80568758D01*
X117150571Y-80714592D01*
X117150571Y-81524116D02*
X117150571Y-81047925D01*
X115650571Y-81235425D01*
X118050571Y-66878282D02*
X118050571Y-67068758D01*
X118122000Y-67155068D01*
X118264857Y-67232449D01*
X118550571Y-67244354D01*
X119050571Y-67181854D01*
X119336285Y-67098520D01*
X119479142Y-66985425D01*
X119550571Y-66881258D01*
X119550571Y-66690782D01*
X119479142Y-66604473D01*
X119336285Y-66527092D01*
X119050571Y-66515187D01*
X118550571Y-66577687D01*
X118264857Y-66661020D01*
X118122000Y-66774116D01*
X118050571Y-66878282D01*
X118050571Y-67735425D02*
X119264857Y-67583639D01*
X119407714Y-67613401D01*
X119479142Y-67652092D01*
X119550571Y-67738401D01*
X119550571Y-67928877D01*
X119479142Y-68033044D01*
X119407714Y-68089592D01*
X119264857Y-68155068D01*
X118050571Y-68306854D01*
X118050571Y-68640187D02*
X118050571Y-69211616D01*
X119550571Y-68738401D02*
X118050571Y-68925901D01*
X120122000Y-70333639D02*
X120050571Y-70294949D01*
X119836285Y-70226497D01*
X119693428Y-70196735D01*
X119479142Y-70175901D01*
X119122000Y-70172925D01*
X118836285Y-70208639D01*
X118479142Y-70300901D01*
X118264857Y-70375306D01*
X118122000Y-70440782D01*
X117907714Y-70562806D01*
X117836285Y-70619354D01*
X118122000Y-71488401D02*
X118050571Y-71402092D01*
X118050571Y-71259235D01*
X118122000Y-71107449D01*
X118264857Y-70994354D01*
X118407714Y-70928877D01*
X118693428Y-70845544D01*
X118907714Y-70818758D01*
X119193428Y-70830663D01*
X119336285Y-70860425D01*
X119479142Y-70937806D01*
X119550571Y-71071735D01*
X119550571Y-71166973D01*
X119479142Y-71318758D01*
X119407714Y-71375306D01*
X118907714Y-71437806D01*
X118907714Y-71247330D01*
X119550571Y-72357449D02*
X118836285Y-72113401D01*
X119550571Y-71786020D02*
X118050571Y-71973520D01*
X118050571Y-72354473D01*
X118122000Y-72440782D01*
X118193428Y-72479473D01*
X118336285Y-72509235D01*
X118550571Y-72482449D01*
X118693428Y-72416973D01*
X118764857Y-72360425D01*
X118836285Y-72256258D01*
X118836285Y-71875306D01*
X118050571Y-73163997D02*
X118050571Y-73354473D01*
X118122000Y-73440782D01*
X118264857Y-73518163D01*
X118550571Y-73530068D01*
X119050571Y-73467568D01*
X119336285Y-73384235D01*
X119479142Y-73271139D01*
X119550571Y-73166973D01*
X119550571Y-72976497D01*
X119479142Y-72890187D01*
X119336285Y-72812806D01*
X119050571Y-72800901D01*
X118550571Y-72863401D01*
X118264857Y-72946735D01*
X118122000Y-73059830D01*
X118050571Y-73163997D01*
X118050571Y-74021139D02*
X119264857Y-73869354D01*
X119407714Y-73899116D01*
X119479142Y-73937806D01*
X119550571Y-74024116D01*
X119550571Y-74214592D01*
X119479142Y-74318758D01*
X119407714Y-74375306D01*
X119264857Y-74440782D01*
X118050571Y-74592568D01*
X119550571Y-74881258D02*
X118050571Y-75068758D01*
X119550571Y-75452687D01*
X118050571Y-75640187D01*
X119550571Y-75928877D02*
X118050571Y-76116377D01*
X118050571Y-76354473D01*
X118122000Y-76488401D01*
X118264857Y-76565782D01*
X118407714Y-76595544D01*
X118693428Y-76607449D01*
X118907714Y-76580663D01*
X119193428Y-76497330D01*
X119336285Y-76431854D01*
X119479142Y-76318758D01*
X119550571Y-76166973D01*
X119550571Y-75928877D01*
X119550571Y-78166973D02*
X119550571Y-77690782D01*
X118050571Y-77878282D01*
X119550571Y-78500306D02*
X118050571Y-78687806D01*
X118764857Y-79408044D02*
X118764857Y-79074711D01*
X119550571Y-78976497D02*
X118050571Y-79163997D01*
X118050571Y-79640187D01*
X118050571Y-79878282D02*
X118050571Y-80449711D01*
X119550571Y-79976497D02*
X118050571Y-80163997D01*
X120122000Y-80428877D02*
X120050571Y-80485425D01*
X119836285Y-80607449D01*
X119693428Y-80672925D01*
X119479142Y-80747330D01*
X119122000Y-80839592D01*
X118836285Y-80875306D01*
X118479142Y-80872330D01*
X118264857Y-80851497D01*
X118122000Y-80821735D01*
X117907714Y-80753282D01*
X117836285Y-80714592D01*
X121879142Y-65842568D02*
X121950571Y-65976497D01*
X121950571Y-66214592D01*
X121879142Y-66318758D01*
X121807714Y-66375306D01*
X121664857Y-66440782D01*
X121522000Y-66458639D01*
X121379142Y-66428877D01*
X121307714Y-66390187D01*
X121236285Y-66303877D01*
X121164857Y-66122330D01*
X121093428Y-66036020D01*
X121022000Y-65997330D01*
X120879142Y-65967568D01*
X120736285Y-65985425D01*
X120593428Y-66050901D01*
X120522000Y-66107449D01*
X120450571Y-66211616D01*
X120450571Y-66449711D01*
X120522000Y-66583639D01*
X121950571Y-66833639D02*
X120450571Y-67021139D01*
X121164857Y-66931854D02*
X121164857Y-67503282D01*
X121950571Y-67405068D02*
X120450571Y-67592568D01*
X120450571Y-68259235D02*
X120450571Y-68449711D01*
X120522000Y-68536020D01*
X120664857Y-68613401D01*
X120950571Y-68625306D01*
X121450571Y-68562806D01*
X121736285Y-68479473D01*
X121879142Y-68366377D01*
X121950571Y-68262211D01*
X121950571Y-68071735D01*
X121879142Y-67985425D01*
X121736285Y-67908044D01*
X121450571Y-67896139D01*
X120950571Y-67958639D01*
X120664857Y-68041973D01*
X120522000Y-68155068D01*
X120450571Y-68259235D01*
X121950571Y-69500306D02*
X121236285Y-69256258D01*
X121950571Y-68928877D02*
X120450571Y-69116377D01*
X120450571Y-69497330D01*
X120522000Y-69583639D01*
X120593428Y-69622330D01*
X120736285Y-69652092D01*
X120950571Y-69625306D01*
X121093428Y-69559830D01*
X121164857Y-69503282D01*
X121236285Y-69399116D01*
X121236285Y-69018163D01*
X120450571Y-69973520D02*
X120450571Y-70544949D01*
X121950571Y-70071735D02*
X120450571Y-70259235D01*
X121807714Y-70708639D02*
X121879142Y-70747330D01*
X121950571Y-70690782D01*
X121879142Y-70652092D01*
X121807714Y-70708639D01*
X121950571Y-70690782D01*
X121022000Y-70806854D02*
X121093428Y-70845544D01*
X121164857Y-70788997D01*
X121093428Y-70750306D01*
X121022000Y-70806854D01*
X121164857Y-70788997D01*
X121807714Y-72518163D02*
X121879142Y-72461616D01*
X121950571Y-72309830D01*
X121950571Y-72214592D01*
X121879142Y-72080663D01*
X121736285Y-72003282D01*
X121593428Y-71973520D01*
X121307714Y-71961616D01*
X121093428Y-71988401D01*
X120807714Y-72071735D01*
X120664857Y-72137211D01*
X120522000Y-72250306D01*
X120450571Y-72402092D01*
X120450571Y-72497330D01*
X120522000Y-72631258D01*
X120593428Y-72669949D01*
X120450571Y-73306854D02*
X120450571Y-73497330D01*
X120522000Y-73583639D01*
X120664857Y-73661020D01*
X120950571Y-73672925D01*
X121450571Y-73610425D01*
X121736285Y-73527092D01*
X121879142Y-73413997D01*
X121950571Y-73309830D01*
X121950571Y-73119354D01*
X121879142Y-73033044D01*
X121736285Y-72955663D01*
X121450571Y-72943758D01*
X120950571Y-73006258D01*
X120664857Y-73089592D01*
X120522000Y-73202687D01*
X120450571Y-73306854D01*
X121950571Y-73976497D02*
X120450571Y-74163997D01*
X121522000Y-74363401D01*
X120450571Y-74830663D01*
X121950571Y-74643163D01*
X121950571Y-75119354D02*
X120450571Y-75306854D01*
X121522000Y-75506258D01*
X120450571Y-75973520D01*
X121950571Y-75786020D01*
X120450571Y-76640187D02*
X120450571Y-76830663D01*
X120522000Y-76916973D01*
X120664857Y-76994354D01*
X120950571Y-77006258D01*
X121450571Y-76943758D01*
X121736285Y-76860425D01*
X121879142Y-76747330D01*
X121950571Y-76643163D01*
X121950571Y-76452687D01*
X121879142Y-76366377D01*
X121736285Y-76288997D01*
X121450571Y-76277092D01*
X120950571Y-76339592D01*
X120664857Y-76422925D01*
X120522000Y-76536020D01*
X120450571Y-76640187D01*
X121950571Y-77309830D02*
X120450571Y-77497330D01*
X121950571Y-77881258D01*
X120450571Y-78068758D01*
X120522000Y-79821735D02*
X120450571Y-79735425D01*
X120450571Y-79592568D01*
X120522000Y-79440782D01*
X120664857Y-79327687D01*
X120807714Y-79262211D01*
X121093428Y-79178877D01*
X121307714Y-79152092D01*
X121593428Y-79163997D01*
X121736285Y-79193758D01*
X121879142Y-79271139D01*
X121950571Y-79405068D01*
X121950571Y-79500306D01*
X121879142Y-79652092D01*
X121807714Y-79708639D01*
X121307714Y-79771139D01*
X121307714Y-79580663D01*
X121950571Y-80119354D02*
X120450571Y-80306854D01*
X121950571Y-80690782D01*
X120450571Y-80878282D01*
X121950571Y-81166973D02*
X120450571Y-81354473D01*
X120450571Y-81592568D01*
X120522000Y-81726497D01*
X120664857Y-81803877D01*
X120807714Y-81833639D01*
X121093428Y-81845544D01*
X121307714Y-81818758D01*
X121593428Y-81735425D01*
X121736285Y-81669949D01*
X121879142Y-81556854D01*
X121950571Y-81405068D01*
X121950571Y-81166973D01*
X121807714Y-82184830D02*
X121879142Y-82223520D01*
X121950571Y-82166973D01*
X121879142Y-82128282D01*
X121807714Y-82184830D01*
X121950571Y-82166973D01*
D11*
X72453500Y-47498000D02*
X72453500Y-54102000D01*
X118872000Y-47625000D02*
X118872000Y-65024000D01*
X103632000Y-46990000D02*
X103632000Y-52451000D01*
X87630000Y-50800000D02*
X87630000Y-46990000D01*
X118872000Y-65024000D02*
X87630000Y-50800000D01*
X134620000Y-46990000D02*
X134620000Y-51562000D01*
D10*
X63460380Y-63531809D02*
X63460380Y-63627047D01*
X63508000Y-63722285D01*
X63555619Y-63769904D01*
X63650857Y-63817523D01*
X63841333Y-63865142D01*
X64079428Y-63865142D01*
X64269904Y-63817523D01*
X64365142Y-63769904D01*
X64412761Y-63722285D01*
X64460380Y-63627047D01*
X64460380Y-63531809D01*
X64412761Y-63436571D01*
X64365142Y-63388952D01*
X64269904Y-63341333D01*
X64079428Y-63293714D01*
X63841333Y-63293714D01*
X63650857Y-63341333D01*
X63555619Y-63388952D01*
X63508000Y-63436571D01*
X63460380Y-63531809D01*
X63460380Y-64150857D02*
X64460380Y-64484190D01*
X63460380Y-64817523D01*
X61539428Y-63135095D02*
X61539428Y-63897000D01*
X61920380Y-63516047D02*
X61158476Y-63516047D01*
X61920380Y-64897000D02*
X61920380Y-64325571D01*
X61920380Y-64611285D02*
X60920380Y-64611285D01*
X61063238Y-64516047D01*
X61158476Y-64420809D01*
X61206095Y-64325571D01*
X61015619Y-65277952D02*
X60968000Y-65325571D01*
X60920380Y-65420809D01*
X60920380Y-65658904D01*
X60968000Y-65754142D01*
X61015619Y-65801761D01*
X61110857Y-65849380D01*
X61206095Y-65849380D01*
X61348952Y-65801761D01*
X61920380Y-65230333D01*
X61920380Y-65849380D01*
X60920380Y-66135095D02*
X61920380Y-66468428D01*
X60920380Y-66801761D01*
X114283904Y-57602428D02*
X113522000Y-57602428D01*
X113902952Y-57983380D02*
X113902952Y-57221476D01*
X112522000Y-57983380D02*
X113093428Y-57983380D01*
X112807714Y-57983380D02*
X112807714Y-56983380D01*
X112902952Y-57126238D01*
X112998190Y-57221476D01*
X113093428Y-57269095D01*
X112141047Y-57078619D02*
X112093428Y-57031000D01*
X111998190Y-56983380D01*
X111760095Y-56983380D01*
X111664857Y-57031000D01*
X111617238Y-57078619D01*
X111569619Y-57173857D01*
X111569619Y-57269095D01*
X111617238Y-57411952D01*
X112188666Y-57983380D01*
X111569619Y-57983380D01*
X111283904Y-56983380D02*
X110950571Y-57983380D01*
X110617238Y-56983380D01*
X114085476Y-55443380D02*
X114085476Y-54443380D01*
X113752142Y-55157666D01*
X113418809Y-54443380D01*
X113418809Y-55443380D01*
X112942619Y-54443380D02*
X112942619Y-55252904D01*
X112895000Y-55348142D01*
X112847380Y-55395761D01*
X112752142Y-55443380D01*
X112561666Y-55443380D01*
X112466428Y-55395761D01*
X112418809Y-55348142D01*
X112371190Y-55252904D01*
X112371190Y-54443380D01*
X112037857Y-54443380D02*
X111466428Y-54443380D01*
X111752142Y-55443380D02*
X111752142Y-54443380D01*
X111133095Y-54919571D02*
X110799761Y-54919571D01*
X110656904Y-55443380D02*
X111133095Y-55443380D01*
X111133095Y-54443380D01*
X110656904Y-54443380D01*
X113410904Y-52078000D02*
X113506142Y-52030380D01*
X113649000Y-52030380D01*
X113791857Y-52078000D01*
X113887095Y-52173238D01*
X113934714Y-52268476D01*
X113982333Y-52458952D01*
X113982333Y-52601809D01*
X113934714Y-52792285D01*
X113887095Y-52887523D01*
X113791857Y-52982761D01*
X113649000Y-53030380D01*
X113553761Y-53030380D01*
X113410904Y-52982761D01*
X113363285Y-52935142D01*
X113363285Y-52601809D01*
X113553761Y-52601809D01*
X112934714Y-53030380D02*
X112934714Y-52030380D01*
X112363285Y-53030380D01*
X112363285Y-52030380D01*
X111887095Y-53030380D02*
X111887095Y-52030380D01*
X111649000Y-52030380D01*
X111506142Y-52078000D01*
X111410904Y-52173238D01*
X111363285Y-52268476D01*
X111315666Y-52458952D01*
X111315666Y-52601809D01*
X111363285Y-52792285D01*
X111410904Y-52887523D01*
X111506142Y-52982761D01*
X111649000Y-53030380D01*
X111887095Y-53030380D01*
X100623619Y-53149285D02*
X99623619Y-52482619D01*
X100623619Y-52482619D02*
X99623619Y-53149285D01*
X99623619Y-51625476D02*
X99623619Y-52101666D01*
X100623619Y-52101666D01*
X99623619Y-50720714D02*
X100099809Y-51054047D01*
X99623619Y-51292142D02*
X100623619Y-51292142D01*
X100623619Y-50911190D01*
X100576000Y-50815952D01*
X100528380Y-50768333D01*
X100433142Y-50720714D01*
X100290285Y-50720714D01*
X100195047Y-50768333D01*
X100147428Y-50815952D01*
X100099809Y-50911190D01*
X100099809Y-51292142D01*
X99623619Y-49768333D02*
X99623619Y-50339761D01*
X99623619Y-50054047D02*
X100623619Y-50054047D01*
X100480761Y-50149285D01*
X100385523Y-50244523D01*
X100337904Y-50339761D01*
X131421119Y-53339785D02*
X130421119Y-52673119D01*
X131421119Y-52673119D02*
X130421119Y-53339785D01*
X130421119Y-51815976D02*
X130421119Y-52292166D01*
X131421119Y-52292166D01*
X130421119Y-50911214D02*
X130897309Y-51244547D01*
X130421119Y-51482642D02*
X131421119Y-51482642D01*
X131421119Y-51101690D01*
X131373500Y-51006452D01*
X131325880Y-50958833D01*
X131230642Y-50911214D01*
X131087785Y-50911214D01*
X130992547Y-50958833D01*
X130944928Y-51006452D01*
X130897309Y-51101690D01*
X130897309Y-51482642D01*
X131325880Y-50530261D02*
X131373500Y-50482642D01*
X131421119Y-50387404D01*
X131421119Y-50149309D01*
X131373500Y-50054071D01*
X131325880Y-50006452D01*
X131230642Y-49958833D01*
X131135404Y-49958833D01*
X130992547Y-50006452D01*
X130421119Y-50577880D01*
X130421119Y-49958833D01*
D11*
X129500000Y-48000000D02*
X128500000Y-47500000D01*
X129500000Y-48000000D02*
X128500000Y-48500000D01*
X129500000Y-48000000D02*
X126000000Y-48000000D01*
X132500000Y-42746000D02*
X133500000Y-43246000D01*
X132500000Y-42746000D02*
X133500000Y-42246000D01*
X135500000Y-42746000D02*
X132500000Y-42746000D01*
X101500000Y-42746000D02*
X102500000Y-43246000D01*
X101500000Y-42746000D02*
X102500000Y-42246000D01*
X104500000Y-42746000D02*
X101500000Y-42746000D01*
X98500000Y-48000000D02*
X97500000Y-47500000D01*
X98500000Y-48000000D02*
X97500000Y-48500000D01*
X95000000Y-48000000D02*
X98500000Y-48000000D01*
D10*
X132690476Y-48357142D02*
X132738095Y-48404761D01*
X132880952Y-48452380D01*
X132976190Y-48452380D01*
X133119047Y-48404761D01*
X133214285Y-48309523D01*
X133261904Y-48214285D01*
X133309523Y-48023809D01*
X133309523Y-47880952D01*
X133261904Y-47690476D01*
X133214285Y-47595238D01*
X133119047Y-47500000D01*
X132976190Y-47452380D01*
X132880952Y-47452380D01*
X132738095Y-47500000D01*
X132690476Y-47547619D01*
X129031904Y-45000000D02*
X129127142Y-44952380D01*
X129270000Y-44952380D01*
X129412857Y-45000000D01*
X129508095Y-45095238D01*
X129555714Y-45190476D01*
X129603333Y-45380952D01*
X129603333Y-45523809D01*
X129555714Y-45714285D01*
X129508095Y-45809523D01*
X129412857Y-45904761D01*
X129270000Y-45952380D01*
X129174761Y-45952380D01*
X129031904Y-45904761D01*
X128984285Y-45857142D01*
X128984285Y-45523809D01*
X129174761Y-45523809D01*
X128555714Y-45952380D02*
X128555714Y-44952380D01*
X127984285Y-45952380D01*
X127984285Y-44952380D01*
X127508095Y-45952380D02*
X127508095Y-44952380D01*
X127270000Y-44952380D01*
X127127142Y-45000000D01*
X127031904Y-45095238D01*
X126984285Y-45190476D01*
X126936666Y-45380952D01*
X126936666Y-45523809D01*
X126984285Y-45714285D01*
X127031904Y-45809523D01*
X127127142Y-45904761D01*
X127270000Y-45952380D01*
X127508095Y-45952380D01*
X129285714Y-43452380D02*
X129285714Y-42452380D01*
X129285714Y-42928571D02*
X128714285Y-42928571D01*
X128714285Y-43452380D02*
X128714285Y-42452380D01*
X101690476Y-48357142D02*
X101738095Y-48404761D01*
X101880952Y-48452380D01*
X101976190Y-48452380D01*
X102119047Y-48404761D01*
X102214285Y-48309523D01*
X102261904Y-48214285D01*
X102309523Y-48023809D01*
X102309523Y-47880952D01*
X102261904Y-47690476D01*
X102214285Y-47595238D01*
X102119047Y-47500000D01*
X101976190Y-47452380D01*
X101880952Y-47452380D01*
X101738095Y-47500000D01*
X101690476Y-47547619D01*
X98043904Y-45093000D02*
X98139142Y-45045380D01*
X98282000Y-45045380D01*
X98424857Y-45093000D01*
X98520095Y-45188238D01*
X98567714Y-45283476D01*
X98615333Y-45473952D01*
X98615333Y-45616809D01*
X98567714Y-45807285D01*
X98520095Y-45902523D01*
X98424857Y-45997761D01*
X98282000Y-46045380D01*
X98186761Y-46045380D01*
X98043904Y-45997761D01*
X97996285Y-45950142D01*
X97996285Y-45616809D01*
X98186761Y-45616809D01*
X97567714Y-46045380D02*
X97567714Y-45045380D01*
X96996285Y-46045380D01*
X96996285Y-45045380D01*
X96520095Y-46045380D02*
X96520095Y-45045380D01*
X96282000Y-45045380D01*
X96139142Y-45093000D01*
X96043904Y-45188238D01*
X95996285Y-45283476D01*
X95948666Y-45473952D01*
X95948666Y-45616809D01*
X95996285Y-45807285D01*
X96043904Y-45902523D01*
X96139142Y-45997761D01*
X96282000Y-46045380D01*
X96520095Y-46045380D01*
X98285714Y-43452380D02*
X98285714Y-42452380D01*
X98285714Y-42928571D02*
X97714285Y-42928571D01*
X97714285Y-43452380D02*
X97714285Y-42452380D01*
X148670095Y-51528437D02*
X147370095Y-51690937D01*
X147370095Y-51929032D01*
X147432000Y-52064151D01*
X147555809Y-52143913D01*
X147679619Y-52176056D01*
X147927238Y-52192723D01*
X148112952Y-52169508D01*
X148360571Y-52090937D01*
X148484380Y-52027842D01*
X148608190Y-51917127D01*
X148670095Y-51766532D01*
X148670095Y-51528437D01*
X148608190Y-52917127D02*
X148670095Y-52814151D01*
X148670095Y-52623675D01*
X148608190Y-52536175D01*
X148484380Y-52504032D01*
X147989142Y-52565937D01*
X147865333Y-52629032D01*
X147803428Y-52732008D01*
X147803428Y-52922485D01*
X147865333Y-53009985D01*
X147989142Y-53042127D01*
X148112952Y-53026651D01*
X148236761Y-52534985D01*
X148608190Y-53345699D02*
X148670095Y-53433199D01*
X148670095Y-53623675D01*
X148608190Y-53726651D01*
X148484380Y-53789747D01*
X148422476Y-53797485D01*
X148298666Y-53765342D01*
X148236761Y-53677842D01*
X148236761Y-53534985D01*
X148174857Y-53447485D01*
X148051047Y-53415342D01*
X147989142Y-53423080D01*
X147865333Y-53486175D01*
X147803428Y-53589151D01*
X147803428Y-53732008D01*
X147865333Y-53819508D01*
X148670095Y-54195104D02*
X147803428Y-54303437D01*
X147370095Y-54357604D02*
X147432000Y-54302247D01*
X147493904Y-54342127D01*
X147432000Y-54397485D01*
X147370095Y-54357604D01*
X147493904Y-54342127D01*
X147803428Y-55208199D02*
X148855809Y-55076651D01*
X148979619Y-55013556D01*
X149041523Y-54958199D01*
X149103428Y-54855223D01*
X149103428Y-54712366D01*
X149041523Y-54624866D01*
X148608190Y-55107604D02*
X148670095Y-55004627D01*
X148670095Y-54814151D01*
X148608190Y-54726651D01*
X148546285Y-54686770D01*
X148422476Y-54654627D01*
X148051047Y-54701056D01*
X147927238Y-54764151D01*
X147865333Y-54819508D01*
X147803428Y-54922485D01*
X147803428Y-55112961D01*
X147865333Y-55200461D01*
X147803428Y-55684389D02*
X148670095Y-55576056D01*
X147927238Y-55668913D02*
X147865333Y-55724270D01*
X147803428Y-55827247D01*
X147803428Y-55970104D01*
X147865333Y-56057604D01*
X147989142Y-56089747D01*
X148670095Y-56004627D01*
X148608190Y-56869508D02*
X148670095Y-56766532D01*
X148670095Y-56576056D01*
X148608190Y-56488556D01*
X148484380Y-56456413D01*
X147989142Y-56518318D01*
X147865333Y-56581413D01*
X147803428Y-56684389D01*
X147803428Y-56874866D01*
X147865333Y-56962366D01*
X147989142Y-56994508D01*
X148112952Y-56979032D01*
X148236761Y-56487366D01*
X148670095Y-57766532D02*
X147370095Y-57929032D01*
X148608190Y-57774270D02*
X148670095Y-57671294D01*
X148670095Y-57480818D01*
X148608190Y-57393318D01*
X148546285Y-57353437D01*
X148422476Y-57321294D01*
X148051047Y-57367723D01*
X147927238Y-57430818D01*
X147865333Y-57486175D01*
X147803428Y-57589151D01*
X147803428Y-57779627D01*
X147865333Y-57867127D01*
X148670095Y-59004627D02*
X147370095Y-59167127D01*
X147865333Y-59105223D02*
X147803428Y-59208199D01*
X147803428Y-59398675D01*
X147865333Y-59486175D01*
X147927238Y-59526056D01*
X148051047Y-59558199D01*
X148422476Y-59511770D01*
X148546285Y-59448675D01*
X148608190Y-59393318D01*
X148670095Y-59290342D01*
X148670095Y-59099866D01*
X148608190Y-59012366D01*
X147803428Y-59922485D02*
X148670095Y-60052247D01*
X147803428Y-60398675D02*
X148670095Y-60052247D01*
X148979619Y-59918318D01*
X149041523Y-59862961D01*
X149103428Y-59759985D01*
X148546285Y-62020104D02*
X148608190Y-61964747D01*
X148670095Y-61814151D01*
X148670095Y-61718913D01*
X148608190Y-61583794D01*
X148484380Y-61504032D01*
X148360571Y-61471889D01*
X148112952Y-61455223D01*
X147927238Y-61478437D01*
X147679619Y-61557008D01*
X147555809Y-61620104D01*
X147432000Y-61730818D01*
X147370095Y-61881413D01*
X147370095Y-61976651D01*
X147432000Y-62111770D01*
X147493904Y-62151651D01*
X147803428Y-62446294D02*
X148670095Y-62576056D01*
X147803428Y-62922485D02*
X148670095Y-62576056D01*
X148979619Y-62442127D01*
X149041523Y-62386770D01*
X149103428Y-62283794D01*
X148670095Y-63195104D02*
X147370095Y-63357604D01*
X147865333Y-63295699D02*
X147803428Y-63398675D01*
X147803428Y-63589151D01*
X147865333Y-63676651D01*
X147927238Y-63716532D01*
X148051047Y-63748675D01*
X148422476Y-63702247D01*
X148546285Y-63639151D01*
X148608190Y-63583794D01*
X148670095Y-63480818D01*
X148670095Y-63290342D01*
X148608190Y-63202842D01*
X148608190Y-64488556D02*
X148670095Y-64385580D01*
X148670095Y-64195104D01*
X148608190Y-64107604D01*
X148484380Y-64075461D01*
X147989142Y-64137366D01*
X147865333Y-64200461D01*
X147803428Y-64303437D01*
X147803428Y-64493913D01*
X147865333Y-64581413D01*
X147989142Y-64613556D01*
X148112952Y-64598080D01*
X148236761Y-64106413D01*
X148670095Y-64957008D02*
X147803428Y-65065342D01*
X148051047Y-65034389D02*
X147927238Y-65097485D01*
X147865333Y-65152842D01*
X147803428Y-65255818D01*
X147803428Y-65351056D01*
X148670095Y-65576056D02*
X147370095Y-65738556D01*
X147370095Y-66119508D01*
X147432000Y-66207008D01*
X147493904Y-66246889D01*
X147617714Y-66279032D01*
X147803428Y-66255818D01*
X147927238Y-66192723D01*
X147989142Y-66137366D01*
X148051047Y-66034389D01*
X148051047Y-65653437D01*
X148670095Y-66576056D02*
X147370095Y-66738556D01*
X147803428Y-67017723D02*
X147803428Y-67398675D01*
X147370095Y-67214747D02*
X148484380Y-67075461D01*
X148608190Y-67107604D01*
X148670095Y-67195104D01*
X148670095Y-67290342D01*
X147493904Y-68484985D02*
X147432000Y-68540342D01*
X147370095Y-68643318D01*
X147370095Y-68881413D01*
X147432000Y-68968913D01*
X147493904Y-69008794D01*
X147617714Y-69040937D01*
X147741523Y-69025461D01*
X147927238Y-68954627D01*
X148670095Y-68290342D01*
X148670095Y-68909389D01*
X147370095Y-69690937D02*
X147370095Y-69786175D01*
X147432000Y-69873675D01*
X147493904Y-69913556D01*
X147617714Y-69945699D01*
X147865333Y-69962366D01*
X148174857Y-69923675D01*
X148422476Y-69845104D01*
X148546285Y-69782008D01*
X148608190Y-69726651D01*
X148670095Y-69623675D01*
X148670095Y-69528437D01*
X148608190Y-69440937D01*
X148546285Y-69401056D01*
X148422476Y-69368913D01*
X148174857Y-69352247D01*
X147865333Y-69390937D01*
X147617714Y-69469508D01*
X147493904Y-69532604D01*
X147432000Y-69587961D01*
X147370095Y-69690937D01*
X147493904Y-70389747D02*
X147432000Y-70445104D01*
X147370095Y-70548080D01*
X147370095Y-70786175D01*
X147432000Y-70873675D01*
X147493904Y-70913556D01*
X147617714Y-70945699D01*
X147741523Y-70930223D01*
X147927238Y-70859389D01*
X148670095Y-70195104D01*
X148670095Y-70814151D01*
X147493904Y-71342127D02*
X147432000Y-71397485D01*
X147370095Y-71500461D01*
X147370095Y-71738556D01*
X147432000Y-71826056D01*
X147493904Y-71865937D01*
X147617714Y-71898080D01*
X147741523Y-71882604D01*
X147927238Y-71811770D01*
X148670095Y-71147485D01*
X148670095Y-71766532D01*
X67361904Y-53871428D02*
X66600000Y-53871428D01*
X66980952Y-54252380D02*
X66980952Y-53490476D01*
X65600000Y-54252380D02*
X66171428Y-54252380D01*
X65885714Y-54252380D02*
X65885714Y-53252380D01*
X65980952Y-53395238D01*
X66076190Y-53490476D01*
X66171428Y-53538095D01*
X65219047Y-53347619D02*
X65171428Y-53300000D01*
X65076190Y-53252380D01*
X64838095Y-53252380D01*
X64742857Y-53300000D01*
X64695238Y-53347619D01*
X64647619Y-53442857D01*
X64647619Y-53538095D01*
X64695238Y-53680952D01*
X65266666Y-54252380D01*
X64647619Y-54252380D01*
X64361904Y-53252380D02*
X64028571Y-54252380D01*
X63695238Y-53252380D01*
X65076190Y-47252380D02*
X64980952Y-47252380D01*
X64885714Y-47300000D01*
X64838095Y-47347619D01*
X64790476Y-47442857D01*
X64742857Y-47633333D01*
X64742857Y-47871428D01*
X64790476Y-48061904D01*
X64838095Y-48157142D01*
X64885714Y-48204761D01*
X64980952Y-48252380D01*
X65076190Y-48252380D01*
X65171428Y-48204761D01*
X65219047Y-48157142D01*
X65266666Y-48061904D01*
X65314285Y-47871428D01*
X65314285Y-47633333D01*
X65266666Y-47442857D01*
X65219047Y-47347619D01*
X65171428Y-47300000D01*
X65076190Y-47252380D01*
X64457142Y-47252380D02*
X64123809Y-48252380D01*
X63790476Y-47252380D01*
X137523809Y-41747619D02*
X137714285Y-41747619D01*
X137809523Y-41700000D01*
X137904761Y-41604761D01*
X137952380Y-41414285D01*
X137952380Y-41080952D01*
X137904761Y-40890476D01*
X137809523Y-40795238D01*
X137714285Y-40747619D01*
X137523809Y-40747619D01*
X137428571Y-40795238D01*
X137333333Y-40890476D01*
X137285714Y-41080952D01*
X137285714Y-41414285D01*
X137333333Y-41604761D01*
X137428571Y-41700000D01*
X137523809Y-41747619D01*
X138380952Y-41747619D02*
X138380952Y-40938095D01*
X138428571Y-40842857D01*
X138476190Y-40795238D01*
X138571428Y-40747619D01*
X138761904Y-40747619D01*
X138857142Y-40795238D01*
X138904761Y-40842857D01*
X138952380Y-40938095D01*
X138952380Y-41747619D01*
X139285714Y-41747619D02*
X139857142Y-41747619D01*
X139571428Y-40747619D02*
X139571428Y-41747619D01*
X140095238Y-41747619D02*
X140714285Y-41747619D01*
X140380952Y-41366666D01*
X140523809Y-41366666D01*
X140619047Y-41319047D01*
X140666666Y-41271428D01*
X140714285Y-41176190D01*
X140714285Y-40938095D01*
X140666666Y-40842857D01*
X140619047Y-40795238D01*
X140523809Y-40747619D01*
X140238095Y-40747619D01*
X140142857Y-40795238D01*
X140095238Y-40842857D01*
X122039285Y-41747619D02*
X122229761Y-41747619D01*
X122324999Y-41700000D01*
X122420237Y-41604761D01*
X122467856Y-41414285D01*
X122467856Y-41080952D01*
X122420237Y-40890476D01*
X122324999Y-40795238D01*
X122229761Y-40747619D01*
X122039285Y-40747619D01*
X121944047Y-40795238D01*
X121848809Y-40890476D01*
X121801190Y-41080952D01*
X121801190Y-41414285D01*
X121848809Y-41604761D01*
X121944047Y-41700000D01*
X122039285Y-41747619D01*
X122896428Y-41747619D02*
X122896428Y-40938095D01*
X122944047Y-40842857D01*
X122991666Y-40795238D01*
X123086904Y-40747619D01*
X123277380Y-40747619D01*
X123372618Y-40795238D01*
X123420237Y-40842857D01*
X123467856Y-40938095D01*
X123467856Y-41747619D01*
X123801190Y-41747619D02*
X124372618Y-41747619D01*
X124086904Y-40747619D02*
X124086904Y-41747619D01*
X124658333Y-41652380D02*
X124705952Y-41700000D01*
X124801190Y-41747619D01*
X125039285Y-41747619D01*
X125134523Y-41700000D01*
X125182142Y-41652380D01*
X125229761Y-41557142D01*
X125229761Y-41461904D01*
X125182142Y-41319047D01*
X124610714Y-40747619D01*
X125229761Y-40747619D01*
X106554761Y-41747619D02*
X106745237Y-41747619D01*
X106840475Y-41700000D01*
X106935713Y-41604761D01*
X106983332Y-41414285D01*
X106983332Y-41080952D01*
X106935713Y-40890476D01*
X106840475Y-40795238D01*
X106745237Y-40747619D01*
X106554761Y-40747619D01*
X106459523Y-40795238D01*
X106364285Y-40890476D01*
X106316666Y-41080952D01*
X106316666Y-41414285D01*
X106364285Y-41604761D01*
X106459523Y-41700000D01*
X106554761Y-41747619D01*
X107411904Y-41747619D02*
X107411904Y-40938095D01*
X107459523Y-40842857D01*
X107507142Y-40795238D01*
X107602380Y-40747619D01*
X107792856Y-40747619D01*
X107888094Y-40795238D01*
X107935713Y-40842857D01*
X107983332Y-40938095D01*
X107983332Y-41747619D01*
X108316666Y-41747619D02*
X108888094Y-41747619D01*
X108602380Y-40747619D02*
X108602380Y-41747619D01*
X109745237Y-40747619D02*
X109173809Y-40747619D01*
X109459523Y-40747619D02*
X109459523Y-41747619D01*
X109364285Y-41604761D01*
X109269047Y-41509523D01*
X109173809Y-41461904D01*
X91070237Y-41747619D02*
X91260713Y-41747619D01*
X91355951Y-41700000D01*
X91451189Y-41604761D01*
X91498808Y-41414285D01*
X91498808Y-41080952D01*
X91451189Y-40890476D01*
X91355951Y-40795238D01*
X91260713Y-40747619D01*
X91070237Y-40747619D01*
X90974999Y-40795238D01*
X90879761Y-40890476D01*
X90832142Y-41080952D01*
X90832142Y-41414285D01*
X90879761Y-41604761D01*
X90974999Y-41700000D01*
X91070237Y-41747619D01*
X91927380Y-41747619D02*
X91927380Y-40938095D01*
X91974999Y-40842857D01*
X92022618Y-40795238D01*
X92117856Y-40747619D01*
X92308332Y-40747619D01*
X92403570Y-40795238D01*
X92451189Y-40842857D01*
X92498808Y-40938095D01*
X92498808Y-41747619D01*
X92832142Y-41747619D02*
X93403570Y-41747619D01*
X93117856Y-40747619D02*
X93117856Y-41747619D01*
X93927380Y-41747619D02*
X94022618Y-41747619D01*
X94117856Y-41700000D01*
X94165475Y-41652380D01*
X94213094Y-41557142D01*
X94260713Y-41366666D01*
X94260713Y-41128571D01*
X94213094Y-40938095D01*
X94165475Y-40842857D01*
X94117856Y-40795238D01*
X94022618Y-40747619D01*
X93927380Y-40747619D01*
X93832142Y-40795238D01*
X93784523Y-40842857D01*
X93736904Y-40938095D01*
X93689285Y-41128571D01*
X93689285Y-41366666D01*
X93736904Y-41557142D01*
X93784523Y-41652380D01*
X93832142Y-41700000D01*
X93927380Y-41747619D01*
X74871428Y-40747619D02*
X74871428Y-41747619D01*
X75347619Y-40747619D02*
X75347619Y-41747619D01*
X75919047Y-40747619D01*
X75919047Y-41747619D01*
X76395238Y-40747619D02*
X76395238Y-41747619D01*
X76776190Y-41747619D01*
X76871428Y-41700000D01*
X76919047Y-41652380D01*
X76966666Y-41557142D01*
X76966666Y-41414285D01*
X76919047Y-41319047D01*
X76871428Y-41271428D01*
X76776190Y-41223809D01*
X76395238Y-41223809D01*
X77395238Y-41747619D02*
X77395238Y-40938095D01*
X77442857Y-40842857D01*
X77490476Y-40795238D01*
X77585714Y-40747619D01*
X77776190Y-40747619D01*
X77871428Y-40795238D01*
X77919047Y-40842857D01*
X77966666Y-40938095D01*
X77966666Y-41747619D01*
X78300000Y-41747619D02*
X78871428Y-41747619D01*
X78585714Y-40747619D02*
X78585714Y-41747619D01*
D11*
X143400000Y-80300000D02*
X143400000Y-84300000D01*
X146200000Y-80300000D02*
X143400000Y-80300000D01*
X146200000Y-84300000D02*
X146200000Y-80300000D01*
X143400000Y-84300000D02*
X146200000Y-84300000D01*
D10*
X149161904Y-96400000D02*
X149257142Y-96352380D01*
X149400000Y-96352380D01*
X149542857Y-96400000D01*
X149638095Y-96495238D01*
X149685714Y-96590476D01*
X149733333Y-96780952D01*
X149733333Y-96923809D01*
X149685714Y-97114285D01*
X149638095Y-97209523D01*
X149542857Y-97304761D01*
X149400000Y-97352380D01*
X149304761Y-97352380D01*
X149161904Y-97304761D01*
X149114285Y-97257142D01*
X149114285Y-96923809D01*
X149304761Y-96923809D01*
X148685714Y-97352380D02*
X148685714Y-96352380D01*
X148114285Y-97352380D01*
X148114285Y-96352380D01*
X147638095Y-97352380D02*
X147638095Y-96352380D01*
X147400000Y-96352380D01*
X147257142Y-96400000D01*
X147161904Y-96495238D01*
X147114285Y-96590476D01*
X147066666Y-96780952D01*
X147066666Y-96923809D01*
X147114285Y-97114285D01*
X147161904Y-97209523D01*
X147257142Y-97304761D01*
X147400000Y-97352380D01*
X147638095Y-97352380D01*
X149828571Y-90985000D02*
X148828571Y-90985000D01*
X149019047Y-92352380D02*
X149352380Y-91876190D01*
X149590476Y-92352380D02*
X149590476Y-91352380D01*
X149209523Y-91352380D01*
X149114285Y-91400000D01*
X149066666Y-91447619D01*
X149019047Y-91542857D01*
X149019047Y-91685714D01*
X149066666Y-91780952D01*
X149114285Y-91828571D01*
X149209523Y-91876190D01*
X149590476Y-91876190D01*
X148828571Y-90985000D02*
X147923809Y-90985000D01*
X148590476Y-91828571D02*
X148257142Y-91828571D01*
X148114285Y-92352380D02*
X148590476Y-92352380D01*
X148590476Y-91352380D01*
X148114285Y-91352380D01*
X147923809Y-90985000D02*
X146971428Y-90985000D01*
X147733333Y-92304761D02*
X147590476Y-92352380D01*
X147352380Y-92352380D01*
X147257142Y-92304761D01*
X147209523Y-92257142D01*
X147161904Y-92161904D01*
X147161904Y-92066666D01*
X147209523Y-91971428D01*
X147257142Y-91923809D01*
X147352380Y-91876190D01*
X147542857Y-91828571D01*
X147638095Y-91780952D01*
X147685714Y-91733333D01*
X147733333Y-91638095D01*
X147733333Y-91542857D01*
X147685714Y-91447619D01*
X147638095Y-91400000D01*
X147542857Y-91352380D01*
X147304761Y-91352380D01*
X147161904Y-91400000D01*
X142214285Y-89504761D02*
X142071428Y-89552380D01*
X141833333Y-89552380D01*
X141738095Y-89504761D01*
X141690476Y-89457142D01*
X141642857Y-89361904D01*
X141642857Y-89266666D01*
X141690476Y-89171428D01*
X141738095Y-89123809D01*
X141833333Y-89076190D01*
X142023809Y-89028571D01*
X142119047Y-88980952D01*
X142166666Y-88933333D01*
X142214285Y-88838095D01*
X142214285Y-88742857D01*
X142166666Y-88647619D01*
X142119047Y-88600000D01*
X142023809Y-88552380D01*
X141785714Y-88552380D01*
X141642857Y-88600000D01*
X141214285Y-89552380D02*
X141214285Y-88552380D01*
X140976190Y-88552380D01*
X140833333Y-88600000D01*
X140738095Y-88695238D01*
X140690476Y-88790476D01*
X140642857Y-88980952D01*
X140642857Y-89123809D01*
X140690476Y-89314285D01*
X140738095Y-89409523D01*
X140833333Y-89504761D01*
X140976190Y-89552380D01*
X141214285Y-89552380D01*
X140261904Y-89266666D02*
X139785714Y-89266666D01*
X140357142Y-89552380D02*
X140023809Y-88552380D01*
X139690476Y-89552380D01*
X142190476Y-86904761D02*
X142047619Y-86952380D01*
X141809523Y-86952380D01*
X141714285Y-86904761D01*
X141666666Y-86857142D01*
X141619047Y-86761904D01*
X141619047Y-86666666D01*
X141666666Y-86571428D01*
X141714285Y-86523809D01*
X141809523Y-86476190D01*
X142000000Y-86428571D01*
X142095238Y-86380952D01*
X142142857Y-86333333D01*
X142190476Y-86238095D01*
X142190476Y-86142857D01*
X142142857Y-86047619D01*
X142095238Y-86000000D01*
X142000000Y-85952380D01*
X141761904Y-85952380D01*
X141619047Y-86000000D01*
X140619047Y-86857142D02*
X140666666Y-86904761D01*
X140809523Y-86952380D01*
X140904761Y-86952380D01*
X141047619Y-86904761D01*
X141142857Y-86809523D01*
X141190476Y-86714285D01*
X141238095Y-86523809D01*
X141238095Y-86380952D01*
X141190476Y-86190476D01*
X141142857Y-86095238D01*
X141047619Y-86000000D01*
X140904761Y-85952380D01*
X140809523Y-85952380D01*
X140666666Y-86000000D01*
X140619047Y-86047619D01*
X139714285Y-86952380D02*
X140190476Y-86952380D01*
X140190476Y-85952380D01*
D11*
X144800000Y-102700000D02*
X144800000Y-106900000D01*
X142600000Y-102700000D02*
X142600000Y-106900000D01*
X147000000Y-102700000D02*
X142600000Y-102700000D01*
X147000000Y-106900000D02*
X147000000Y-102700000D01*
X142600000Y-106900000D02*
X147000000Y-106900000D01*
D10*
X144204761Y-103138095D02*
X144252380Y-103280952D01*
X144252380Y-103519047D01*
X144204761Y-103614285D01*
X144157142Y-103661904D01*
X144061904Y-103709523D01*
X143966666Y-103709523D01*
X143871428Y-103661904D01*
X143823809Y-103614285D01*
X143776190Y-103519047D01*
X143728571Y-103328571D01*
X143680952Y-103233333D01*
X143633333Y-103185714D01*
X143538095Y-103138095D01*
X143442857Y-103138095D01*
X143347619Y-103185714D01*
X143300000Y-103233333D01*
X143252380Y-103328571D01*
X143252380Y-103566666D01*
X143300000Y-103709523D01*
X143728571Y-104138095D02*
X143728571Y-104471428D01*
X144252380Y-104614285D02*
X144252380Y-104138095D01*
X143252380Y-104138095D01*
X143252380Y-104614285D01*
X144252380Y-105042857D02*
X143252380Y-105042857D01*
X144252380Y-105614285D01*
X143252380Y-105614285D01*
X144252380Y-106090476D02*
X143252380Y-106090476D01*
X143252380Y-106328571D01*
X143300000Y-106471428D01*
X143395238Y-106566666D01*
X143490476Y-106614285D01*
X143680952Y-106661904D01*
X143823809Y-106661904D01*
X144014285Y-106614285D01*
X144109523Y-106566666D01*
X144204761Y-106471428D01*
X144252380Y-106328571D01*
X144252380Y-106090476D01*
X146452380Y-104280952D02*
X145976190Y-103947619D01*
X146452380Y-103709523D02*
X145452380Y-103709523D01*
X145452380Y-104090476D01*
X145500000Y-104185714D01*
X145547619Y-104233333D01*
X145642857Y-104280952D01*
X145785714Y-104280952D01*
X145880952Y-104233333D01*
X145928571Y-104185714D01*
X145976190Y-104090476D01*
X145976190Y-103709523D01*
X146357142Y-105280952D02*
X146404761Y-105233333D01*
X146452380Y-105090476D01*
X146452380Y-104995238D01*
X146404761Y-104852380D01*
X146309523Y-104757142D01*
X146214285Y-104709523D01*
X146023809Y-104661904D01*
X145880952Y-104661904D01*
X145690476Y-104709523D01*
X145595238Y-104757142D01*
X145500000Y-104852380D01*
X145452380Y-104995238D01*
X145452380Y-105090476D01*
X145500000Y-105233333D01*
X145547619Y-105280952D01*
X145452380Y-105566666D02*
X146452380Y-105900000D01*
X145452380Y-106233333D01*
X121309523Y-138252380D02*
X121309523Y-137252380D01*
X120976190Y-137966666D01*
X120642857Y-137252380D01*
X120642857Y-138252380D01*
X120166666Y-138252380D02*
X120166666Y-137252380D01*
X119785714Y-137252380D01*
X119690476Y-137300000D01*
X119642857Y-137347619D01*
X119595238Y-137442857D01*
X119595238Y-137585714D01*
X119642857Y-137680952D01*
X119690476Y-137728571D01*
X119785714Y-137776190D01*
X120166666Y-137776190D01*
X119261904Y-137252380D02*
X118595238Y-137252380D01*
X119023809Y-138252380D01*
X101109523Y-138252380D02*
X101109523Y-137252380D01*
X100776190Y-137966666D01*
X100442857Y-137252380D01*
X100442857Y-138252380D01*
X99966666Y-138252380D02*
X99966666Y-137252380D01*
X99585714Y-137252380D01*
X99490476Y-137300000D01*
X99442857Y-137347619D01*
X99395238Y-137442857D01*
X99395238Y-137585714D01*
X99442857Y-137680952D01*
X99490476Y-137728571D01*
X99585714Y-137776190D01*
X99966666Y-137776190D01*
X98442857Y-138252380D02*
X99014285Y-138252380D01*
X98728571Y-138252380D02*
X98728571Y-137252380D01*
X98823809Y-137395238D01*
X98919047Y-137490476D01*
X99014285Y-137538095D01*
X79500000Y-97571428D02*
X78738095Y-97571428D01*
X79119047Y-97952380D02*
X79119047Y-97190476D01*
X78357142Y-96952380D02*
X77738095Y-96952380D01*
X78071428Y-97333333D01*
X77928571Y-97333333D01*
X77833333Y-97380952D01*
X77785714Y-97428571D01*
X77738095Y-97523809D01*
X77738095Y-97761904D01*
X77785714Y-97857142D01*
X77833333Y-97904761D01*
X77928571Y-97952380D01*
X78214285Y-97952380D01*
X78309523Y-97904761D01*
X78357142Y-97857142D01*
X77309523Y-97857142D02*
X77261904Y-97904761D01*
X77309523Y-97952380D01*
X77357142Y-97904761D01*
X77309523Y-97857142D01*
X77309523Y-97952380D01*
X76928571Y-96952380D02*
X76309523Y-96952380D01*
X76642857Y-97333333D01*
X76500000Y-97333333D01*
X76404761Y-97380952D01*
X76357142Y-97428571D01*
X76309523Y-97523809D01*
X76309523Y-97761904D01*
X76357142Y-97857142D01*
X76404761Y-97904761D01*
X76500000Y-97952380D01*
X76785714Y-97952380D01*
X76880952Y-97904761D01*
X76928571Y-97857142D01*
X76023809Y-96952380D02*
X75690476Y-97952380D01*
X75357142Y-96952380D01*
X55006714Y-79319428D02*
X54244809Y-79319428D01*
X54625761Y-79700380D02*
X54625761Y-78938476D01*
X53292428Y-78700380D02*
X53768619Y-78700380D01*
X53816238Y-79176571D01*
X53768619Y-79128952D01*
X53673380Y-79081333D01*
X53435285Y-79081333D01*
X53340047Y-79128952D01*
X53292428Y-79176571D01*
X53244809Y-79271809D01*
X53244809Y-79509904D01*
X53292428Y-79605142D01*
X53340047Y-79652761D01*
X53435285Y-79700380D01*
X53673380Y-79700380D01*
X53768619Y-79652761D01*
X53816238Y-79605142D01*
X52959095Y-78700380D02*
X52625761Y-79700380D01*
X52292428Y-78700380D01*
X148814285Y-138678571D02*
X148814285Y-137178571D01*
X148433333Y-137178571D01*
X148338095Y-137250000D01*
X148290476Y-137321428D01*
X148242857Y-137464285D01*
X148242857Y-137678571D01*
X148290476Y-137821428D01*
X148338095Y-137892857D01*
X148433333Y-137964285D01*
X148814285Y-137964285D01*
X147814285Y-138107142D02*
X147052380Y-138107142D01*
X146623809Y-138607142D02*
X146480952Y-138678571D01*
X146242857Y-138678571D01*
X146147619Y-138607142D01*
X146100000Y-138535714D01*
X146052380Y-138392857D01*
X146052380Y-138250000D01*
X146100000Y-138107142D01*
X146147619Y-138035714D01*
X146242857Y-137964285D01*
X146433333Y-137892857D01*
X146528571Y-137821428D01*
X146576190Y-137750000D01*
X146623809Y-137607142D01*
X146623809Y-137464285D01*
X146576190Y-137321428D01*
X146528571Y-137250000D01*
X146433333Y-137178571D01*
X146195238Y-137178571D01*
X146052380Y-137250000D01*
X145623809Y-137892857D02*
X145290476Y-137892857D01*
X145147619Y-138678571D02*
X145623809Y-138678571D01*
X145623809Y-137178571D01*
X145147619Y-137178571D01*
X144242857Y-138678571D02*
X144719047Y-138678571D01*
X144719047Y-137178571D01*
X55509523Y-138878571D02*
X55509523Y-137378571D01*
X55128571Y-137378571D01*
X55033333Y-137450000D01*
X54985714Y-137521428D01*
X54938095Y-137664285D01*
X54938095Y-137878571D01*
X54985714Y-138021428D01*
X55033333Y-138092857D01*
X55128571Y-138164285D01*
X55509523Y-138164285D01*
X54319047Y-137378571D02*
X54128571Y-137378571D01*
X54033333Y-137450000D01*
X53938095Y-137592857D01*
X53890476Y-137878571D01*
X53890476Y-138378571D01*
X53938095Y-138664285D01*
X54033333Y-138807142D01*
X54128571Y-138878571D01*
X54319047Y-138878571D01*
X54414285Y-138807142D01*
X54509523Y-138664285D01*
X54557142Y-138378571D01*
X54557142Y-137878571D01*
X54509523Y-137592857D01*
X54414285Y-137450000D01*
X54319047Y-137378571D01*
X53557142Y-137378571D02*
X53319047Y-138878571D01*
X53128571Y-137807142D01*
X52938095Y-138878571D01*
X52700000Y-137378571D01*
X52319047Y-138092857D02*
X51985714Y-138092857D01*
X51842857Y-138878571D02*
X52319047Y-138878571D01*
X52319047Y-137378571D01*
X51842857Y-137378571D01*
X50842857Y-138878571D02*
X51176190Y-138164285D01*
X51414285Y-138878571D02*
X51414285Y-137378571D01*
X51033333Y-137378571D01*
X50938095Y-137450000D01*
X50890476Y-137521428D01*
X50842857Y-137664285D01*
X50842857Y-137878571D01*
X50890476Y-138021428D01*
X50938095Y-138092857D01*
X51033333Y-138164285D01*
X51414285Y-138164285D01*
X91514285Y-138250000D02*
X91038095Y-138250000D01*
X91609523Y-138678571D02*
X91276190Y-137178571D01*
X90942857Y-138678571D01*
X90609523Y-137178571D02*
X90609523Y-138392857D01*
X90561904Y-138535714D01*
X90514285Y-138607142D01*
X90419047Y-138678571D01*
X90228571Y-138678571D01*
X90133333Y-138607142D01*
X90085714Y-138535714D01*
X90038095Y-138392857D01*
X90038095Y-137178571D01*
X89657142Y-137178571D02*
X88990476Y-138678571D01*
X88990476Y-137178571D02*
X89657142Y-138678571D01*
X88085714Y-138678571D02*
X88657142Y-138678571D01*
X88371428Y-138678571D02*
X88371428Y-137178571D01*
X88466666Y-137392857D01*
X88561904Y-137535714D01*
X88657142Y-137607142D01*
X71514285Y-138250000D02*
X71038095Y-138250000D01*
X71609523Y-138678571D02*
X71276190Y-137178571D01*
X70942857Y-138678571D01*
X70609523Y-137178571D02*
X70609523Y-138392857D01*
X70561904Y-138535714D01*
X70514285Y-138607142D01*
X70419047Y-138678571D01*
X70228571Y-138678571D01*
X70133333Y-138607142D01*
X70085714Y-138535714D01*
X70038095Y-138392857D01*
X70038095Y-137178571D01*
X69657142Y-137178571D02*
X68990476Y-138678571D01*
X68990476Y-137178571D02*
X69657142Y-138678571D01*
X68419047Y-137178571D02*
X68323809Y-137178571D01*
X68228571Y-137250000D01*
X68180952Y-137321428D01*
X68133333Y-137464285D01*
X68085714Y-137750000D01*
X68085714Y-138107142D01*
X68133333Y-138392857D01*
X68180952Y-138535714D01*
X68228571Y-138607142D01*
X68323809Y-138678571D01*
X68419047Y-138678571D01*
X68514285Y-138607142D01*
X68561904Y-138535714D01*
X68609523Y-138392857D01*
X68657142Y-138107142D01*
X68657142Y-137750000D01*
X68609523Y-137464285D01*
X68561904Y-137321428D01*
X68514285Y-137250000D01*
X68419047Y-137178571D01*
X131514285Y-138250000D02*
X131038095Y-138250000D01*
X131609523Y-138678571D02*
X131276190Y-137178571D01*
X130942857Y-138678571D01*
X130609523Y-137178571D02*
X130609523Y-138392857D01*
X130561904Y-138535714D01*
X130514285Y-138607142D01*
X130419047Y-138678571D01*
X130228571Y-138678571D01*
X130133333Y-138607142D01*
X130085714Y-138535714D01*
X130038095Y-138392857D01*
X130038095Y-137178571D01*
X129657142Y-137178571D02*
X128990476Y-138678571D01*
X128990476Y-137178571D02*
X129657142Y-138678571D01*
X128704761Y-137178571D02*
X128085714Y-137178571D01*
X128419047Y-137750000D01*
X128276190Y-137750000D01*
X128180952Y-137821428D01*
X128133333Y-137892857D01*
X128085714Y-138035714D01*
X128085714Y-138392857D01*
X128133333Y-138535714D01*
X128180952Y-138607142D01*
X128276190Y-138678571D01*
X128561904Y-138678571D01*
X128657142Y-138607142D01*
X128704761Y-138535714D01*
X111714285Y-138250000D02*
X111238095Y-138250000D01*
X111809523Y-138678571D02*
X111476190Y-137178571D01*
X111142857Y-138678571D01*
X110809523Y-137178571D02*
X110809523Y-138392857D01*
X110761904Y-138535714D01*
X110714285Y-138607142D01*
X110619047Y-138678571D01*
X110428571Y-138678571D01*
X110333333Y-138607142D01*
X110285714Y-138535714D01*
X110238095Y-138392857D01*
X110238095Y-137178571D01*
X109857142Y-137178571D02*
X109190476Y-138678571D01*
X109190476Y-137178571D02*
X109857142Y-138678571D01*
X108857142Y-137321428D02*
X108809523Y-137250000D01*
X108714285Y-137178571D01*
X108476190Y-137178571D01*
X108380952Y-137250000D01*
X108333333Y-137321428D01*
X108285714Y-137464285D01*
X108285714Y-137607142D01*
X108333333Y-137821428D01*
X108904761Y-138678571D01*
X108285714Y-138678571D01*
X99988666Y-120205714D02*
X99988666Y-120681904D01*
X100274380Y-120110476D02*
X99274380Y-120443809D01*
X100274380Y-120777142D01*
X99274380Y-121110476D02*
X100083904Y-121110476D01*
X100179142Y-121158095D01*
X100226761Y-121205714D01*
X100274380Y-121300952D01*
X100274380Y-121491428D01*
X100226761Y-121586666D01*
X100179142Y-121634285D01*
X100083904Y-121681904D01*
X99274380Y-121681904D01*
X99274380Y-122062857D02*
X100274380Y-122729523D01*
X99274380Y-122729523D02*
X100274380Y-122062857D01*
X99274380Y-123300952D02*
X99274380Y-123396190D01*
X99322000Y-123491428D01*
X99369619Y-123539047D01*
X99464857Y-123586666D01*
X99655333Y-123634285D01*
X99893428Y-123634285D01*
X100083904Y-123586666D01*
X100179142Y-123539047D01*
X100226761Y-123491428D01*
X100274380Y-123396190D01*
X100274380Y-123300952D01*
X100226761Y-123205714D01*
X100179142Y-123158095D01*
X100083904Y-123110476D01*
X99893428Y-123062857D01*
X99655333Y-123062857D01*
X99464857Y-123110476D01*
X99369619Y-123158095D01*
X99322000Y-123205714D01*
X99274380Y-123300952D01*
X104941666Y-120205714D02*
X104941666Y-120681904D01*
X105227380Y-120110476D02*
X104227380Y-120443809D01*
X105227380Y-120777142D01*
X104227380Y-121110476D02*
X105036904Y-121110476D01*
X105132142Y-121158095D01*
X105179761Y-121205714D01*
X105227380Y-121300952D01*
X105227380Y-121491428D01*
X105179761Y-121586666D01*
X105132142Y-121634285D01*
X105036904Y-121681904D01*
X104227380Y-121681904D01*
X104227380Y-122062857D02*
X105227380Y-122729523D01*
X104227380Y-122729523D02*
X105227380Y-122062857D01*
X104322619Y-123062857D02*
X104275000Y-123110476D01*
X104227380Y-123205714D01*
X104227380Y-123443809D01*
X104275000Y-123539047D01*
X104322619Y-123586666D01*
X104417857Y-123634285D01*
X104513095Y-123634285D01*
X104655952Y-123586666D01*
X105227380Y-123015238D01*
X105227380Y-123634285D01*
X102401666Y-120205714D02*
X102401666Y-120681904D01*
X102687380Y-120110476D02*
X101687380Y-120443809D01*
X102687380Y-120777142D01*
X101687380Y-121110476D02*
X102496904Y-121110476D01*
X102592142Y-121158095D01*
X102639761Y-121205714D01*
X102687380Y-121300952D01*
X102687380Y-121491428D01*
X102639761Y-121586666D01*
X102592142Y-121634285D01*
X102496904Y-121681904D01*
X101687380Y-121681904D01*
X101687380Y-122062857D02*
X102687380Y-122729523D01*
X101687380Y-122729523D02*
X102687380Y-122062857D01*
X102687380Y-123634285D02*
X102687380Y-123062857D01*
X102687380Y-123348571D02*
X101687380Y-123348571D01*
X101830238Y-123253333D01*
X101925476Y-123158095D01*
X101973095Y-123062857D01*
X96861380Y-122174095D02*
X96861380Y-122793142D01*
X97242333Y-122459809D01*
X97242333Y-122602666D01*
X97289952Y-122697904D01*
X97337571Y-122745523D01*
X97432809Y-122793142D01*
X97670904Y-122793142D01*
X97766142Y-122745523D01*
X97813761Y-122697904D01*
X97861380Y-122602666D01*
X97861380Y-122316952D01*
X97813761Y-122221714D01*
X97766142Y-122174095D01*
X96861380Y-123078857D02*
X97861380Y-123412190D01*
X96861380Y-123745523D01*
X107608666Y-120205714D02*
X107608666Y-120681904D01*
X107894380Y-120110476D02*
X106894380Y-120443809D01*
X107894380Y-120777142D01*
X106894380Y-121110476D02*
X107703904Y-121110476D01*
X107799142Y-121158095D01*
X107846761Y-121205714D01*
X107894380Y-121300952D01*
X107894380Y-121491428D01*
X107846761Y-121586666D01*
X107799142Y-121634285D01*
X107703904Y-121681904D01*
X106894380Y-121681904D01*
X106894380Y-122062857D02*
X107894380Y-122729523D01*
X106894380Y-122729523D02*
X107894380Y-122062857D01*
X106894380Y-123015238D02*
X106894380Y-123634285D01*
X107275333Y-123300952D01*
X107275333Y-123443809D01*
X107322952Y-123539047D01*
X107370571Y-123586666D01*
X107465809Y-123634285D01*
X107703904Y-123634285D01*
X107799142Y-123586666D01*
X107846761Y-123539047D01*
X107894380Y-123443809D01*
X107894380Y-123158095D01*
X107846761Y-123062857D01*
X107799142Y-123015238D01*
X109609000Y-121539095D02*
X109561380Y-121443857D01*
X109561380Y-121301000D01*
X109609000Y-121158142D01*
X109704238Y-121062904D01*
X109799476Y-121015285D01*
X109989952Y-120967666D01*
X110132809Y-120967666D01*
X110323285Y-121015285D01*
X110418523Y-121062904D01*
X110513761Y-121158142D01*
X110561380Y-121301000D01*
X110561380Y-121396238D01*
X110513761Y-121539095D01*
X110466142Y-121586714D01*
X110132809Y-121586714D01*
X110132809Y-121396238D01*
X110561380Y-122015285D02*
X109561380Y-122015285D01*
X110561380Y-122586714D01*
X109561380Y-122586714D01*
X110561380Y-123062904D02*
X109561380Y-123062904D01*
X109561380Y-123301000D01*
X109609000Y-123443857D01*
X109704238Y-123539095D01*
X109799476Y-123586714D01*
X109989952Y-123634333D01*
X110132809Y-123634333D01*
X110323285Y-123586714D01*
X110418523Y-123539095D01*
X110513761Y-123443857D01*
X110561380Y-123301000D01*
X110561380Y-123062904D01*
X119335000Y-85238095D02*
X119335000Y-86238095D01*
X120702380Y-86047619D02*
X120226190Y-85714285D01*
X120702380Y-85476190D02*
X119702380Y-85476190D01*
X119702380Y-85857142D01*
X119750000Y-85952380D01*
X119797619Y-86000000D01*
X119892857Y-86047619D01*
X120035714Y-86047619D01*
X120130952Y-86000000D01*
X120178571Y-85952380D01*
X120226190Y-85857142D01*
X120226190Y-85476190D01*
X119335000Y-86238095D02*
X119335000Y-87142857D01*
X120178571Y-86476190D02*
X120178571Y-86809523D01*
X120702380Y-86952380D02*
X120702380Y-86476190D01*
X119702380Y-86476190D01*
X119702380Y-86952380D01*
X119335000Y-87142857D02*
X119335000Y-88095238D01*
X120654761Y-87333333D02*
X120702380Y-87476190D01*
X120702380Y-87714285D01*
X120654761Y-87809523D01*
X120607142Y-87857142D01*
X120511904Y-87904761D01*
X120416666Y-87904761D01*
X120321428Y-87857142D01*
X120273809Y-87809523D01*
X120226190Y-87714285D01*
X120178571Y-87523809D01*
X120130952Y-87428571D01*
X120083333Y-87380952D01*
X119988095Y-87333333D01*
X119892857Y-87333333D01*
X119797619Y-87380952D01*
X119750000Y-87428571D01*
X119702380Y-87523809D01*
X119702380Y-87761904D01*
X119750000Y-87904761D01*
X119335000Y-88095238D02*
X119335000Y-89000000D01*
X120178571Y-88333333D02*
X120178571Y-88666666D01*
X120702380Y-88809523D02*
X120702380Y-88333333D01*
X119702380Y-88333333D01*
X119702380Y-88809523D01*
X119335000Y-89000000D02*
X119335000Y-89761904D01*
X119702380Y-89095238D02*
X119702380Y-89666666D01*
X120702380Y-89380952D02*
X119702380Y-89380952D01*
X117000000Y-87238095D02*
X116952380Y-87142857D01*
X116952380Y-87000000D01*
X117000000Y-86857142D01*
X117095238Y-86761904D01*
X117190476Y-86714285D01*
X117380952Y-86666666D01*
X117523809Y-86666666D01*
X117714285Y-86714285D01*
X117809523Y-86761904D01*
X117904761Y-86857142D01*
X117952380Y-87000000D01*
X117952380Y-87095238D01*
X117904761Y-87238095D01*
X117857142Y-87285714D01*
X117523809Y-87285714D01*
X117523809Y-87095238D01*
X117952380Y-87714285D02*
X116952380Y-87714285D01*
X117952380Y-88285714D01*
X116952380Y-88285714D01*
X117952380Y-88761904D02*
X116952380Y-88761904D01*
X116952380Y-89000000D01*
X117000000Y-89142857D01*
X117095238Y-89238095D01*
X117190476Y-89285714D01*
X117380952Y-89333333D01*
X117523809Y-89333333D01*
X117714285Y-89285714D01*
X117809523Y-89238095D01*
X117904761Y-89142857D01*
X117952380Y-89000000D01*
X117952380Y-88761904D01*
X119200000Y-103604761D02*
X119057142Y-103652380D01*
X118819047Y-103652380D01*
X118723809Y-103604761D01*
X118676190Y-103557142D01*
X118628571Y-103461904D01*
X118628571Y-103366666D01*
X118676190Y-103271428D01*
X118723809Y-103223809D01*
X118819047Y-103176190D01*
X119009523Y-103128571D01*
X119104761Y-103080952D01*
X119152380Y-103033333D01*
X119200000Y-102938095D01*
X119200000Y-102842857D01*
X119152380Y-102747619D01*
X119104761Y-102700000D01*
X119009523Y-102652380D01*
X118771428Y-102652380D01*
X118628571Y-102700000D01*
X117723809Y-103652380D02*
X118200000Y-103652380D01*
X118200000Y-102652380D01*
X117438095Y-103366666D02*
X116961904Y-103366666D01*
X117533333Y-103652380D02*
X117200000Y-102652380D01*
X116866666Y-103652380D01*
X116676190Y-102652380D02*
X116342857Y-103652380D01*
X116009523Y-102652380D01*
X115676190Y-103128571D02*
X115342857Y-103128571D01*
X115200000Y-103652380D02*
X115676190Y-103652380D01*
X115676190Y-102652380D01*
X115200000Y-102652380D01*
X116971428Y-109652380D02*
X116971428Y-108652380D01*
X116638095Y-109366666D01*
X116304761Y-108652380D01*
X116304761Y-109652380D01*
X115876190Y-109366666D02*
X115400000Y-109366666D01*
X115971428Y-109652380D02*
X115638095Y-108652380D01*
X115304761Y-109652380D01*
X115019047Y-109604761D02*
X114876190Y-109652380D01*
X114638095Y-109652380D01*
X114542857Y-109604761D01*
X114495238Y-109557142D01*
X114447619Y-109461904D01*
X114447619Y-109366666D01*
X114495238Y-109271428D01*
X114542857Y-109223809D01*
X114638095Y-109176190D01*
X114828571Y-109128571D01*
X114923809Y-109080952D01*
X114971428Y-109033333D01*
X115019047Y-108938095D01*
X115019047Y-108842857D01*
X114971428Y-108747619D01*
X114923809Y-108700000D01*
X114828571Y-108652380D01*
X114590476Y-108652380D01*
X114447619Y-108700000D01*
X114161904Y-108652380D02*
X113590476Y-108652380D01*
X113876190Y-109652380D02*
X113876190Y-108652380D01*
X113257142Y-109128571D02*
X112923809Y-109128571D01*
X112780952Y-109652380D02*
X113257142Y-109652380D01*
X113257142Y-108652380D01*
X112780952Y-108652380D01*
X111780952Y-109652380D02*
X112114285Y-109176190D01*
X112352380Y-109652380D02*
X112352380Y-108652380D01*
X111971428Y-108652380D01*
X111876190Y-108700000D01*
X111828571Y-108747619D01*
X111780952Y-108842857D01*
X111780952Y-108985714D01*
X111828571Y-109080952D01*
X111876190Y-109128571D01*
X111971428Y-109176190D01*
X112352380Y-109176190D01*
D11*
X115800000Y-108200000D02*
X115800000Y-107600000D01*
X113200000Y-108200000D02*
X115800000Y-108200000D01*
X113200000Y-107600000D02*
X113200000Y-108200000D01*
X118400000Y-104000000D02*
X118400000Y-104800000D01*
X115800000Y-104000000D02*
X118400000Y-104000000D01*
X115800000Y-104600000D02*
X115800000Y-104000000D01*
D12*
X143978571Y-80800000D02*
X145192857Y-80800000D01*
X145335714Y-80847619D01*
X145407142Y-80895238D01*
X145478571Y-80990476D01*
X145478571Y-81180952D01*
X145407142Y-81276190D01*
X145335714Y-81323809D01*
X145192857Y-81371428D01*
X143978571Y-81371428D01*
X145407142Y-81800000D02*
X145478571Y-81942857D01*
X145478571Y-82180952D01*
X145407142Y-82276190D01*
X145335714Y-82323809D01*
X145192857Y-82371428D01*
X145050000Y-82371428D01*
X144907142Y-82323809D01*
X144835714Y-82276190D01*
X144764285Y-82180952D01*
X144692857Y-81990476D01*
X144621428Y-81895238D01*
X144550000Y-81847619D01*
X144407142Y-81800000D01*
X144264285Y-81800000D01*
X144121428Y-81847619D01*
X144050000Y-81895238D01*
X143978571Y-81990476D01*
X143978571Y-82228571D01*
X144050000Y-82371428D01*
X144692857Y-83133333D02*
X144764285Y-83276190D01*
X144835714Y-83323809D01*
X144978571Y-83371428D01*
X145192857Y-83371428D01*
X145335714Y-83323809D01*
X145407142Y-83276190D01*
X145478571Y-83180952D01*
X145478571Y-82800000D01*
X143978571Y-82800000D01*
X143978571Y-83133333D01*
X144050000Y-83228571D01*
X144121428Y-83276190D01*
X144264285Y-83323809D01*
X144407142Y-83323809D01*
X144550000Y-83276190D01*
X144621428Y-83228571D01*
X144692857Y-83133333D01*
X144692857Y-82800000D01*
X145478571Y-83800000D02*
X144478571Y-83800000D01*
X143978571Y-83800000D02*
X144050000Y-83752380D01*
X144121428Y-83800000D01*
X144050000Y-83847619D01*
X143978571Y-83800000D01*
X144121428Y-83800000D01*
D10*
X149090476Y-108910380D02*
X149566666Y-108910380D01*
X149566666Y-107910380D01*
X148185714Y-108910380D02*
X148519047Y-108434190D01*
X148757142Y-108910380D02*
X148757142Y-107910380D01*
X148376190Y-107910380D01*
X148280952Y-107958000D01*
X148233333Y-108005619D01*
X148185714Y-108100857D01*
X148185714Y-108243714D01*
X148233333Y-108338952D01*
X148280952Y-108386571D01*
X148376190Y-108434190D01*
X148757142Y-108434190D01*
X147757142Y-108910380D02*
X147757142Y-107910380D01*
X147185714Y-108910380D02*
X147614285Y-108338952D01*
X147185714Y-107910380D02*
X147757142Y-108481809D01*
X149391571Y-110799571D02*
X149248714Y-110847190D01*
X149201095Y-110894809D01*
X149153476Y-110990047D01*
X149153476Y-111132904D01*
X149201095Y-111228142D01*
X149248714Y-111275761D01*
X149343952Y-111323380D01*
X149724904Y-111323380D01*
X149724904Y-110323380D01*
X149391571Y-110323380D01*
X149296333Y-110371000D01*
X149248714Y-110418619D01*
X149201095Y-110513857D01*
X149201095Y-110609095D01*
X149248714Y-110704333D01*
X149296333Y-110751952D01*
X149391571Y-110799571D01*
X149724904Y-110799571D01*
X148153476Y-111228142D02*
X148201095Y-111275761D01*
X148343952Y-111323380D01*
X148439190Y-111323380D01*
X148582047Y-111275761D01*
X148677285Y-111180523D01*
X148724904Y-111085285D01*
X148772523Y-110894809D01*
X148772523Y-110751952D01*
X148724904Y-110561476D01*
X148677285Y-110466238D01*
X148582047Y-110371000D01*
X148439190Y-110323380D01*
X148343952Y-110323380D01*
X148201095Y-110371000D01*
X148153476Y-110418619D01*
X147724904Y-111323380D02*
X147724904Y-110323380D01*
X147153476Y-111323380D02*
X147582047Y-110751952D01*
X147153476Y-110323380D02*
X147724904Y-110894809D01*
D11*
X147327000Y-112773000D02*
X149727000Y-112773000D01*
D10*
X149765095Y-113501571D02*
X149431761Y-113501571D01*
X149288904Y-114025380D02*
X149765095Y-114025380D01*
X149765095Y-113025380D01*
X149288904Y-113025380D01*
X148860333Y-114025380D02*
X148860333Y-113025380D01*
X148288904Y-114025380D01*
X148288904Y-113025380D01*
X147479380Y-113501571D02*
X147336523Y-113549190D01*
X147288904Y-113596809D01*
X147241285Y-113692047D01*
X147241285Y-113834904D01*
X147288904Y-113930142D01*
X147336523Y-113977761D01*
X147431761Y-114025380D01*
X147812714Y-114025380D01*
X147812714Y-113025380D01*
X147479380Y-113025380D01*
X147384142Y-113073000D01*
X147336523Y-113120619D01*
X147288904Y-113215857D01*
X147288904Y-113311095D01*
X147336523Y-113406333D01*
X147384142Y-113453952D01*
X147479380Y-113501571D01*
X147812714Y-113501571D01*
X149796333Y-116530380D02*
X149796333Y-115530380D01*
X149463000Y-116244666D01*
X149129666Y-115530380D01*
X149129666Y-116530380D01*
X148082047Y-116435142D02*
X148129666Y-116482761D01*
X148272523Y-116530380D01*
X148367761Y-116530380D01*
X148510619Y-116482761D01*
X148605857Y-116387523D01*
X148653476Y-116292285D01*
X148701095Y-116101809D01*
X148701095Y-115958952D01*
X148653476Y-115768476D01*
X148605857Y-115673238D01*
X148510619Y-115578000D01*
X148367761Y-115530380D01*
X148272523Y-115530380D01*
X148129666Y-115578000D01*
X148082047Y-115625619D01*
X147653476Y-116530380D02*
X147653476Y-115530380D01*
X147082047Y-116530380D02*
X147510619Y-115958952D01*
X147082047Y-115530380D02*
X147653476Y-116101809D01*
X142290476Y-108952380D02*
X142290476Y-107952380D01*
X142052380Y-107952380D01*
X141909523Y-108000000D01*
X141814285Y-108095238D01*
X141766666Y-108190476D01*
X141719047Y-108380952D01*
X141719047Y-108523809D01*
X141766666Y-108714285D01*
X141814285Y-108809523D01*
X141909523Y-108904761D01*
X142052380Y-108952380D01*
X142290476Y-108952380D01*
X141100000Y-107952380D02*
X140909523Y-107952380D01*
X140814285Y-108000000D01*
X140719047Y-108095238D01*
X140671428Y-108285714D01*
X140671428Y-108619047D01*
X140719047Y-108809523D01*
X140814285Y-108904761D01*
X140909523Y-108952380D01*
X141100000Y-108952380D01*
X141195238Y-108904761D01*
X141290476Y-108809523D01*
X141338095Y-108619047D01*
X141338095Y-108285714D01*
X141290476Y-108095238D01*
X141195238Y-108000000D01*
X141100000Y-107952380D01*
X140242857Y-107952380D02*
X140242857Y-108761904D01*
X140195238Y-108857142D01*
X140147619Y-108904761D01*
X140052380Y-108952380D01*
X139861904Y-108952380D01*
X139766666Y-108904761D01*
X139719047Y-108857142D01*
X139671428Y-108761904D01*
X139671428Y-107952380D01*
X139338095Y-107952380D02*
X138766666Y-107952380D01*
X139052380Y-108952380D02*
X139052380Y-107952380D01*
X142333333Y-111552380D02*
X142333333Y-110552380D01*
X142000000Y-111266666D01*
X141666666Y-110552380D01*
X141666666Y-111552380D01*
X140619047Y-111457142D02*
X140666666Y-111504761D01*
X140809523Y-111552380D01*
X140904761Y-111552380D01*
X141047619Y-111504761D01*
X141142857Y-111409523D01*
X141190476Y-111314285D01*
X141238095Y-111123809D01*
X141238095Y-110980952D01*
X141190476Y-110790476D01*
X141142857Y-110695238D01*
X141047619Y-110600000D01*
X140904761Y-110552380D01*
X140809523Y-110552380D01*
X140666666Y-110600000D01*
X140619047Y-110647619D01*
X140190476Y-111552380D02*
X140190476Y-110552380D01*
X139619047Y-111552380D02*
X140047619Y-110980952D01*
X139619047Y-110552380D02*
X140190476Y-111123809D01*
X141761904Y-113200000D02*
X141857142Y-113152380D01*
X142000000Y-113152380D01*
X142142857Y-113200000D01*
X142238095Y-113295238D01*
X142285714Y-113390476D01*
X142333333Y-113580952D01*
X142333333Y-113723809D01*
X142285714Y-113914285D01*
X142238095Y-114009523D01*
X142142857Y-114104761D01*
X142000000Y-114152380D01*
X141904761Y-114152380D01*
X141761904Y-114104761D01*
X141714285Y-114057142D01*
X141714285Y-113723809D01*
X141904761Y-113723809D01*
X141285714Y-114152380D02*
X141285714Y-113152380D01*
X140714285Y-114152380D01*
X140714285Y-113152380D01*
X140238095Y-114152380D02*
X140238095Y-113152380D01*
X140000000Y-113152380D01*
X139857142Y-113200000D01*
X139761904Y-113295238D01*
X139714285Y-113390476D01*
X139666666Y-113580952D01*
X139666666Y-113723809D01*
X139714285Y-113914285D01*
X139761904Y-114009523D01*
X139857142Y-114104761D01*
X140000000Y-114152380D01*
X140238095Y-114152380D01*
X141928571Y-116228571D02*
X141785714Y-116276190D01*
X141738095Y-116323809D01*
X141690476Y-116419047D01*
X141690476Y-116561904D01*
X141738095Y-116657142D01*
X141785714Y-116704761D01*
X141880952Y-116752380D01*
X142261904Y-116752380D01*
X142261904Y-115752380D01*
X141928571Y-115752380D01*
X141833333Y-115800000D01*
X141785714Y-115847619D01*
X141738095Y-115942857D01*
X141738095Y-116038095D01*
X141785714Y-116133333D01*
X141833333Y-116180952D01*
X141928571Y-116228571D01*
X142261904Y-116228571D01*
X140690476Y-116657142D02*
X140738095Y-116704761D01*
X140880952Y-116752380D01*
X140976190Y-116752380D01*
X141119047Y-116704761D01*
X141214285Y-116609523D01*
X141261904Y-116514285D01*
X141309523Y-116323809D01*
X141309523Y-116180952D01*
X141261904Y-115990476D01*
X141214285Y-115895238D01*
X141119047Y-115800000D01*
X140976190Y-115752380D01*
X140880952Y-115752380D01*
X140738095Y-115800000D01*
X140690476Y-115847619D01*
X140261904Y-116752380D02*
X140261904Y-115752380D01*
X139690476Y-116752380D02*
X140119047Y-116180952D01*
X139690476Y-115752380D02*
X140261904Y-116323809D01*
X141690476Y-119152380D02*
X142166666Y-119152380D01*
X142166666Y-118152380D01*
X140785714Y-119152380D02*
X141119047Y-118676190D01*
X141357142Y-119152380D02*
X141357142Y-118152380D01*
X140976190Y-118152380D01*
X140880952Y-118200000D01*
X140833333Y-118247619D01*
X140785714Y-118342857D01*
X140785714Y-118485714D01*
X140833333Y-118580952D01*
X140880952Y-118628571D01*
X140976190Y-118676190D01*
X141357142Y-118676190D01*
X140357142Y-119152380D02*
X140357142Y-118152380D01*
X139785714Y-119152380D02*
X140214285Y-118580952D01*
X139785714Y-118152380D02*
X140357142Y-118723809D01*
X149423809Y-119070380D02*
X149423809Y-118070380D01*
X149185714Y-118070380D01*
X149042857Y-118118000D01*
X148947619Y-118213238D01*
X148900000Y-118308476D01*
X148852380Y-118498952D01*
X148852380Y-118641809D01*
X148900000Y-118832285D01*
X148947619Y-118927523D01*
X149042857Y-119022761D01*
X149185714Y-119070380D01*
X149423809Y-119070380D01*
X148423809Y-119070380D02*
X148423809Y-118070380D01*
X147947619Y-119070380D02*
X147947619Y-118070380D01*
X147376190Y-119070380D01*
X147376190Y-118070380D01*
D11*
X58600000Y-41800000D02*
X58600000Y-42800000D01*
X64600000Y-41800000D02*
X64600000Y-43000000D01*
X64000000Y-42400000D02*
X65200000Y-42400000D01*
D10*
X50297619Y-55119047D02*
X50297619Y-55690476D01*
X50297619Y-55404761D02*
X51297619Y-55404761D01*
X51154761Y-55500000D01*
X51059523Y-55595238D01*
X51011904Y-55690476D01*
X51202380Y-54738095D02*
X51250000Y-54690476D01*
X51297619Y-54595238D01*
X51297619Y-54357142D01*
X51250000Y-54261904D01*
X51202380Y-54214285D01*
X51107142Y-54166666D01*
X51011904Y-54166666D01*
X50869047Y-54214285D01*
X50297619Y-54785714D01*
X50297619Y-54166666D01*
X51297619Y-53880952D02*
X50297619Y-53547619D01*
X51297619Y-53214285D01*
X51297619Y-51476190D02*
X51297619Y-51380952D01*
X51250000Y-51285714D01*
X51202380Y-51238095D01*
X51107142Y-51190476D01*
X50916666Y-51142857D01*
X50678571Y-51142857D01*
X50488095Y-51190476D01*
X50392857Y-51238095D01*
X50345238Y-51285714D01*
X50297619Y-51380952D01*
X50297619Y-51476190D01*
X50345238Y-51571428D01*
X50392857Y-51619047D01*
X50488095Y-51666666D01*
X50678571Y-51714285D01*
X50916666Y-51714285D01*
X51107142Y-51666666D01*
X51202380Y-51619047D01*
X51250000Y-51571428D01*
X51297619Y-51476190D01*
X51297619Y-50857142D02*
X50297619Y-50523809D01*
X51297619Y-50190476D01*
D11*
X71800000Y-45500000D02*
X73200000Y-45500000D01*
X73900000Y-44800000D02*
X73900000Y-44200000D01*
X73200000Y-43500000D02*
X71800000Y-43500000D01*
X71100000Y-44200000D02*
X71100000Y-44800000D01*
X71100000Y-44800000D02*
G75*
G03*
X71800000Y-45500000I700000J0D01*
G01*
X71800000Y-43500000D02*
G75*
G03*
X71100000Y-44200000I0J-700000D01*
G01*
X73900000Y-44200000D02*
G75*
G03*
X73200000Y-43500000I-700000J0D01*
G01*
X73200000Y-45500000D02*
G75*
G03*
X73900000Y-44800000I0J700000D01*
G01*
X88700000Y-43500000D02*
X87300000Y-43500000D01*
X86600000Y-44200000D02*
X86600000Y-44800000D01*
X87300000Y-45500000D02*
X88700000Y-45500000D01*
X89400000Y-44800000D02*
X89400000Y-44200000D01*
X89400000Y-44200000D02*
G75*
G03*
X88700000Y-43500000I-700000J0D01*
G01*
X88700000Y-45500000D02*
G75*
G03*
X89400000Y-44800000I0J700000D01*
G01*
X86600000Y-44800000D02*
G75*
G03*
X87300000Y-45500000I700000J0D01*
G01*
X87300000Y-43500000D02*
G75*
G03*
X86600000Y-44200000I0J-700000D01*
G01*
X104205000Y-43500000D02*
X102805000Y-43500000D01*
X102105000Y-44200000D02*
X102105000Y-44800000D01*
X102805000Y-45500000D02*
X104205000Y-45500000D01*
X104905000Y-44800000D02*
X104905000Y-44200000D01*
X104905000Y-44200000D02*
G75*
G03*
X104205000Y-43500000I-700000J0D01*
G01*
X104205000Y-45500000D02*
G75*
G03*
X104905000Y-44800000I0J700000D01*
G01*
X102105000Y-44800000D02*
G75*
G03*
X102805000Y-45500000I700000J0D01*
G01*
X102805000Y-43500000D02*
G75*
G03*
X102105000Y-44200000I0J-700000D01*
G01*
X119700000Y-43500000D02*
X118300000Y-43500000D01*
X117600000Y-44200000D02*
X117600000Y-44800000D01*
X118300000Y-45500000D02*
X119700000Y-45500000D01*
X120400000Y-44800000D02*
X120400000Y-44200000D01*
X120400000Y-44200000D02*
G75*
G03*
X119700000Y-43500000I-700000J0D01*
G01*
X119700000Y-45500000D02*
G75*
G03*
X120400000Y-44800000I0J700000D01*
G01*
X117600000Y-44800000D02*
G75*
G03*
X118300000Y-45500000I700000J0D01*
G01*
X118300000Y-43500000D02*
G75*
G03*
X117600000Y-44200000I0J-700000D01*
G01*
X135320000Y-43450000D02*
X133920000Y-43450000D01*
X133220000Y-44150000D02*
X133220000Y-44750000D01*
X133920000Y-45450000D02*
X135320000Y-45450000D01*
X136020000Y-44750000D02*
X136020000Y-44150000D01*
X136020000Y-44150000D02*
G75*
G03*
X135320000Y-43450000I-700000J0D01*
G01*
X135320000Y-45450000D02*
G75*
G03*
X136020000Y-44750000I0J700000D01*
G01*
X133220000Y-44750000D02*
G75*
G03*
X133920000Y-45450000I700000J0D01*
G01*
X133920000Y-43450000D02*
G75*
G03*
X133220000Y-44150000I0J-700000D01*
G01*
D13*
X61775000Y-42325000D02*
G75*
G03*
X61775000Y-42325000I-175000J0D01*
G01*
D10*
X65525000Y-42325000D02*
G75*
G03*
X65525000Y-42325000I-925000J0D01*
G01*
X59525000Y-42325000D02*
G75*
G03*
X59525000Y-42325000I-925000J0D01*
G01*
X59600000Y-42325000D02*
X60500000Y-42325000D01*
X61600000Y-42325000D02*
X63600000Y-42325000D01*
X62275000Y-43075000D02*
G75*
G02*
X62350000Y-41650000I-675000J750000D01*
G01*
X73333333Y-46061380D02*
X73333333Y-46775666D01*
X73380952Y-46918523D01*
X73476190Y-47013761D01*
X73619047Y-47061380D01*
X73714285Y-47061380D01*
X72857142Y-47061380D02*
X72857142Y-46061380D01*
X72476190Y-46061380D01*
X72380952Y-46109000D01*
X72333333Y-46156619D01*
X72285714Y-46251857D01*
X72285714Y-46394714D01*
X72333333Y-46489952D01*
X72380952Y-46537571D01*
X72476190Y-46585190D01*
X72857142Y-46585190D01*
X71904761Y-46156619D02*
X71857142Y-46109000D01*
X71761904Y-46061380D01*
X71523809Y-46061380D01*
X71428571Y-46109000D01*
X71380952Y-46156619D01*
X71333333Y-46251857D01*
X71333333Y-46347095D01*
X71380952Y-46489952D01*
X71952380Y-47061380D01*
X71333333Y-47061380D01*
X88844333Y-46061380D02*
X88844333Y-46775666D01*
X88891952Y-46918523D01*
X88987190Y-47013761D01*
X89130047Y-47061380D01*
X89225285Y-47061380D01*
X88368142Y-47061380D02*
X88368142Y-46061380D01*
X87987190Y-46061380D01*
X87891952Y-46109000D01*
X87844333Y-46156619D01*
X87796714Y-46251857D01*
X87796714Y-46394714D01*
X87844333Y-46489952D01*
X87891952Y-46537571D01*
X87987190Y-46585190D01*
X88368142Y-46585190D01*
X86939571Y-46061380D02*
X87130047Y-46061380D01*
X87225285Y-46109000D01*
X87272904Y-46156619D01*
X87368142Y-46299476D01*
X87415761Y-46489952D01*
X87415761Y-46870904D01*
X87368142Y-46966142D01*
X87320523Y-47013761D01*
X87225285Y-47061380D01*
X87034809Y-47061380D01*
X86939571Y-47013761D01*
X86891952Y-46966142D01*
X86844333Y-46870904D01*
X86844333Y-46632809D01*
X86891952Y-46537571D01*
X86939571Y-46489952D01*
X87034809Y-46442333D01*
X87225285Y-46442333D01*
X87320523Y-46489952D01*
X87368142Y-46537571D01*
X87415761Y-46632809D01*
X104338333Y-45934380D02*
X104338333Y-46648666D01*
X104385952Y-46791523D01*
X104481190Y-46886761D01*
X104624047Y-46934380D01*
X104719285Y-46934380D01*
X103862142Y-46934380D02*
X103862142Y-45934380D01*
X103481190Y-45934380D01*
X103385952Y-45982000D01*
X103338333Y-46029619D01*
X103290714Y-46124857D01*
X103290714Y-46267714D01*
X103338333Y-46362952D01*
X103385952Y-46410571D01*
X103481190Y-46458190D01*
X103862142Y-46458190D01*
X102957380Y-45934380D02*
X102290714Y-45934380D01*
X102719285Y-46934380D01*
X119895833Y-46124880D02*
X119895833Y-46839166D01*
X119943452Y-46982023D01*
X120038690Y-47077261D01*
X120181547Y-47124880D01*
X120276785Y-47124880D01*
X119419642Y-47124880D02*
X119419642Y-46124880D01*
X119038690Y-46124880D01*
X118943452Y-46172500D01*
X118895833Y-46220119D01*
X118848214Y-46315357D01*
X118848214Y-46458214D01*
X118895833Y-46553452D01*
X118943452Y-46601071D01*
X119038690Y-46648690D01*
X119419642Y-46648690D01*
X118276785Y-46553452D02*
X118372023Y-46505833D01*
X118419642Y-46458214D01*
X118467261Y-46362976D01*
X118467261Y-46315357D01*
X118419642Y-46220119D01*
X118372023Y-46172500D01*
X118276785Y-46124880D01*
X118086309Y-46124880D01*
X117991071Y-46172500D01*
X117943452Y-46220119D01*
X117895833Y-46315357D01*
X117895833Y-46362976D01*
X117943452Y-46458214D01*
X117991071Y-46505833D01*
X118086309Y-46553452D01*
X118276785Y-46553452D01*
X118372023Y-46601071D01*
X118419642Y-46648690D01*
X118467261Y-46743928D01*
X118467261Y-46934404D01*
X118419642Y-47029642D01*
X118372023Y-47077261D01*
X118276785Y-47124880D01*
X118086309Y-47124880D01*
X117991071Y-47077261D01*
X117943452Y-47029642D01*
X117895833Y-46934404D01*
X117895833Y-46743928D01*
X117943452Y-46648690D01*
X117991071Y-46601071D01*
X118086309Y-46553452D01*
X135453333Y-45807380D02*
X135453333Y-46521666D01*
X135500952Y-46664523D01*
X135596190Y-46759761D01*
X135739047Y-46807380D01*
X135834285Y-46807380D01*
X134977142Y-46807380D02*
X134977142Y-45807380D01*
X134596190Y-45807380D01*
X134500952Y-45855000D01*
X134453333Y-45902619D01*
X134405714Y-45997857D01*
X134405714Y-46140714D01*
X134453333Y-46235952D01*
X134500952Y-46283571D01*
X134596190Y-46331190D01*
X134977142Y-46331190D01*
X133929523Y-46807380D02*
X133739047Y-46807380D01*
X133643809Y-46759761D01*
X133596190Y-46712142D01*
X133500952Y-46569285D01*
X133453333Y-46378809D01*
X133453333Y-45997857D01*
X133500952Y-45902619D01*
X133548571Y-45855000D01*
X133643809Y-45807380D01*
X133834285Y-45807380D01*
X133929523Y-45855000D01*
X133977142Y-45902619D01*
X134024761Y-45997857D01*
X134024761Y-46235952D01*
X133977142Y-46331190D01*
X133929523Y-46378809D01*
X133834285Y-46426428D01*
X133643809Y-46426428D01*
X133548571Y-46378809D01*
X133500952Y-46331190D01*
X133453333Y-46235952D01*
%LPC*%
D14*
G36*
X73150000Y-43750602D02*
G01*
X73174534Y-43750602D01*
X73223365Y-43755412D01*
X73271490Y-43764984D01*
X73318445Y-43779228D01*
X73363778Y-43798005D01*
X73407051Y-43821136D01*
X73447850Y-43848396D01*
X73485779Y-43879524D01*
X73520476Y-43914221D01*
X73551604Y-43952150D01*
X73578864Y-43992949D01*
X73601995Y-44036222D01*
X73620772Y-44081555D01*
X73635016Y-44128510D01*
X73644588Y-44176635D01*
X73649398Y-44225466D01*
X73649398Y-44250000D01*
X73650000Y-44250000D01*
X73650000Y-44750000D01*
X73649398Y-44750000D01*
X73649398Y-44774534D01*
X73644588Y-44823365D01*
X73635016Y-44871490D01*
X73620772Y-44918445D01*
X73601995Y-44963778D01*
X73578864Y-45007051D01*
X73551604Y-45047850D01*
X73520476Y-45085779D01*
X73485779Y-45120476D01*
X73447850Y-45151604D01*
X73407051Y-45178864D01*
X73363778Y-45201995D01*
X73318445Y-45220772D01*
X73271490Y-45235016D01*
X73223365Y-45244588D01*
X73174534Y-45249398D01*
X73150000Y-45249398D01*
X73150000Y-45250000D01*
X72650000Y-45250000D01*
X72650000Y-43750000D01*
X73150000Y-43750000D01*
X73150000Y-43750602D01*
G37*
G36*
X72350000Y-45250000D02*
G01*
X71850000Y-45250000D01*
X71850000Y-45249398D01*
X71825466Y-45249398D01*
X71776635Y-45244588D01*
X71728510Y-45235016D01*
X71681555Y-45220772D01*
X71636222Y-45201995D01*
X71592949Y-45178864D01*
X71552150Y-45151604D01*
X71514221Y-45120476D01*
X71479524Y-45085779D01*
X71448396Y-45047850D01*
X71421136Y-45007051D01*
X71398005Y-44963778D01*
X71379228Y-44918445D01*
X71364984Y-44871490D01*
X71355412Y-44823365D01*
X71350602Y-44774534D01*
X71350602Y-44750000D01*
X71350000Y-44750000D01*
X71350000Y-44250000D01*
X71350602Y-44250000D01*
X71350602Y-44225466D01*
X71355412Y-44176635D01*
X71364984Y-44128510D01*
X71379228Y-44081555D01*
X71398005Y-44036222D01*
X71421136Y-43992949D01*
X71448396Y-43952150D01*
X71479524Y-43914221D01*
X71514221Y-43879524D01*
X71552150Y-43848396D01*
X71592949Y-43821136D01*
X71636222Y-43798005D01*
X71681555Y-43779228D01*
X71728510Y-43764984D01*
X71776635Y-43755412D01*
X71825466Y-43750602D01*
X71850000Y-43750602D01*
X71850000Y-43750000D01*
X72350000Y-43750000D01*
X72350000Y-45250000D01*
G37*
G36*
X87350000Y-45249398D02*
G01*
X87325466Y-45249398D01*
X87276635Y-45244588D01*
X87228510Y-45235016D01*
X87181555Y-45220772D01*
X87136222Y-45201995D01*
X87092949Y-45178864D01*
X87052150Y-45151604D01*
X87014221Y-45120476D01*
X86979524Y-45085779D01*
X86948396Y-45047850D01*
X86921136Y-45007051D01*
X86898005Y-44963778D01*
X86879228Y-44918445D01*
X86864984Y-44871490D01*
X86855412Y-44823365D01*
X86850602Y-44774534D01*
X86850602Y-44750000D01*
X86850000Y-44750000D01*
X86850000Y-44250000D01*
X86850602Y-44250000D01*
X86850602Y-44225466D01*
X86855412Y-44176635D01*
X86864984Y-44128510D01*
X86879228Y-44081555D01*
X86898005Y-44036222D01*
X86921136Y-43992949D01*
X86948396Y-43952150D01*
X86979524Y-43914221D01*
X87014221Y-43879524D01*
X87052150Y-43848396D01*
X87092949Y-43821136D01*
X87136222Y-43798005D01*
X87181555Y-43779228D01*
X87228510Y-43764984D01*
X87276635Y-43755412D01*
X87325466Y-43750602D01*
X87350000Y-43750602D01*
X87350000Y-43750000D01*
X87850000Y-43750000D01*
X87850000Y-45250000D01*
X87350000Y-45250000D01*
X87350000Y-45249398D01*
G37*
G36*
X88150000Y-43750000D02*
G01*
X88650000Y-43750000D01*
X88650000Y-43750602D01*
X88674534Y-43750602D01*
X88723365Y-43755412D01*
X88771490Y-43764984D01*
X88818445Y-43779228D01*
X88863778Y-43798005D01*
X88907051Y-43821136D01*
X88947850Y-43848396D01*
X88985779Y-43879524D01*
X89020476Y-43914221D01*
X89051604Y-43952150D01*
X89078864Y-43992949D01*
X89101995Y-44036222D01*
X89120772Y-44081555D01*
X89135016Y-44128510D01*
X89144588Y-44176635D01*
X89149398Y-44225466D01*
X89149398Y-44250000D01*
X89150000Y-44250000D01*
X89150000Y-44750000D01*
X89149398Y-44750000D01*
X89149398Y-44774534D01*
X89144588Y-44823365D01*
X89135016Y-44871490D01*
X89120772Y-44918445D01*
X89101995Y-44963778D01*
X89078864Y-45007051D01*
X89051604Y-45047850D01*
X89020476Y-45085779D01*
X88985779Y-45120476D01*
X88947850Y-45151604D01*
X88907051Y-45178864D01*
X88863778Y-45201995D01*
X88818445Y-45220772D01*
X88771490Y-45235016D01*
X88723365Y-45244588D01*
X88674534Y-45249398D01*
X88650000Y-45249398D01*
X88650000Y-45250000D01*
X88150000Y-45250000D01*
X88150000Y-43750000D01*
G37*
G36*
X102855000Y-45249398D02*
G01*
X102830466Y-45249398D01*
X102781635Y-45244588D01*
X102733510Y-45235016D01*
X102686555Y-45220772D01*
X102641222Y-45201995D01*
X102597949Y-45178864D01*
X102557150Y-45151604D01*
X102519221Y-45120476D01*
X102484524Y-45085779D01*
X102453396Y-45047850D01*
X102426136Y-45007051D01*
X102403005Y-44963778D01*
X102384228Y-44918445D01*
X102369984Y-44871490D01*
X102360412Y-44823365D01*
X102355602Y-44774534D01*
X102355602Y-44750000D01*
X102355000Y-44750000D01*
X102355000Y-44250000D01*
X102355602Y-44250000D01*
X102355602Y-44225466D01*
X102360412Y-44176635D01*
X102369984Y-44128510D01*
X102384228Y-44081555D01*
X102403005Y-44036222D01*
X102426136Y-43992949D01*
X102453396Y-43952150D01*
X102484524Y-43914221D01*
X102519221Y-43879524D01*
X102557150Y-43848396D01*
X102597949Y-43821136D01*
X102641222Y-43798005D01*
X102686555Y-43779228D01*
X102733510Y-43764984D01*
X102781635Y-43755412D01*
X102830466Y-43750602D01*
X102855000Y-43750602D01*
X102855000Y-43750000D01*
X103355000Y-43750000D01*
X103355000Y-45250000D01*
X102855000Y-45250000D01*
X102855000Y-45249398D01*
G37*
G36*
X103655000Y-43750000D02*
G01*
X104155000Y-43750000D01*
X104155000Y-43750602D01*
X104179534Y-43750602D01*
X104228365Y-43755412D01*
X104276490Y-43764984D01*
X104323445Y-43779228D01*
X104368778Y-43798005D01*
X104412051Y-43821136D01*
X104452850Y-43848396D01*
X104490779Y-43879524D01*
X104525476Y-43914221D01*
X104556604Y-43952150D01*
X104583864Y-43992949D01*
X104606995Y-44036222D01*
X104625772Y-44081555D01*
X104640016Y-44128510D01*
X104649588Y-44176635D01*
X104654398Y-44225466D01*
X104654398Y-44250000D01*
X104655000Y-44250000D01*
X104655000Y-44750000D01*
X104654398Y-44750000D01*
X104654398Y-44774534D01*
X104649588Y-44823365D01*
X104640016Y-44871490D01*
X104625772Y-44918445D01*
X104606995Y-44963778D01*
X104583864Y-45007051D01*
X104556604Y-45047850D01*
X104525476Y-45085779D01*
X104490779Y-45120476D01*
X104452850Y-45151604D01*
X104412051Y-45178864D01*
X104368778Y-45201995D01*
X104323445Y-45220772D01*
X104276490Y-45235016D01*
X104228365Y-45244588D01*
X104179534Y-45249398D01*
X104155000Y-45249398D01*
X104155000Y-45250000D01*
X103655000Y-45250000D01*
X103655000Y-43750000D01*
G37*
G36*
X118350000Y-45249398D02*
G01*
X118325466Y-45249398D01*
X118276635Y-45244588D01*
X118228510Y-45235016D01*
X118181555Y-45220772D01*
X118136222Y-45201995D01*
X118092949Y-45178864D01*
X118052150Y-45151604D01*
X118014221Y-45120476D01*
X117979524Y-45085779D01*
X117948396Y-45047850D01*
X117921136Y-45007051D01*
X117898005Y-44963778D01*
X117879228Y-44918445D01*
X117864984Y-44871490D01*
X117855412Y-44823365D01*
X117850602Y-44774534D01*
X117850602Y-44750000D01*
X117850000Y-44750000D01*
X117850000Y-44250000D01*
X117850602Y-44250000D01*
X117850602Y-44225466D01*
X117855412Y-44176635D01*
X117864984Y-44128510D01*
X117879228Y-44081555D01*
X117898005Y-44036222D01*
X117921136Y-43992949D01*
X117948396Y-43952150D01*
X117979524Y-43914221D01*
X118014221Y-43879524D01*
X118052150Y-43848396D01*
X118092949Y-43821136D01*
X118136222Y-43798005D01*
X118181555Y-43779228D01*
X118228510Y-43764984D01*
X118276635Y-43755412D01*
X118325466Y-43750602D01*
X118350000Y-43750602D01*
X118350000Y-43750000D01*
X118850000Y-43750000D01*
X118850000Y-45250000D01*
X118350000Y-45250000D01*
X118350000Y-45249398D01*
G37*
G36*
X119150000Y-43750000D02*
G01*
X119650000Y-43750000D01*
X119650000Y-43750602D01*
X119674534Y-43750602D01*
X119723365Y-43755412D01*
X119771490Y-43764984D01*
X119818445Y-43779228D01*
X119863778Y-43798005D01*
X119907051Y-43821136D01*
X119947850Y-43848396D01*
X119985779Y-43879524D01*
X120020476Y-43914221D01*
X120051604Y-43952150D01*
X120078864Y-43992949D01*
X120101995Y-44036222D01*
X120120772Y-44081555D01*
X120135016Y-44128510D01*
X120144588Y-44176635D01*
X120149398Y-44225466D01*
X120149398Y-44250000D01*
X120150000Y-44250000D01*
X120150000Y-44750000D01*
X120149398Y-44750000D01*
X120149398Y-44774534D01*
X120144588Y-44823365D01*
X120135016Y-44871490D01*
X120120772Y-44918445D01*
X120101995Y-44963778D01*
X120078864Y-45007051D01*
X120051604Y-45047850D01*
X120020476Y-45085779D01*
X119985779Y-45120476D01*
X119947850Y-45151604D01*
X119907051Y-45178864D01*
X119863778Y-45201995D01*
X119818445Y-45220772D01*
X119771490Y-45235016D01*
X119723365Y-45244588D01*
X119674534Y-45249398D01*
X119650000Y-45249398D01*
X119650000Y-45250000D01*
X119150000Y-45250000D01*
X119150000Y-43750000D01*
G37*
G36*
X133970000Y-45199398D02*
G01*
X133945466Y-45199398D01*
X133896635Y-45194588D01*
X133848510Y-45185016D01*
X133801555Y-45170772D01*
X133756222Y-45151995D01*
X133712949Y-45128864D01*
X133672150Y-45101604D01*
X133634221Y-45070476D01*
X133599524Y-45035779D01*
X133568396Y-44997850D01*
X133541136Y-44957051D01*
X133518005Y-44913778D01*
X133499228Y-44868445D01*
X133484984Y-44821490D01*
X133475412Y-44773365D01*
X133470602Y-44724534D01*
X133470602Y-44700000D01*
X133470000Y-44700000D01*
X133470000Y-44200000D01*
X133470602Y-44200000D01*
X133470602Y-44175466D01*
X133475412Y-44126635D01*
X133484984Y-44078510D01*
X133499228Y-44031555D01*
X133518005Y-43986222D01*
X133541136Y-43942949D01*
X133568396Y-43902150D01*
X133599524Y-43864221D01*
X133634221Y-43829524D01*
X133672150Y-43798396D01*
X133712949Y-43771136D01*
X133756222Y-43748005D01*
X133801555Y-43729228D01*
X133848510Y-43714984D01*
X133896635Y-43705412D01*
X133945466Y-43700602D01*
X133970000Y-43700602D01*
X133970000Y-43700000D01*
X134470000Y-43700000D01*
X134470000Y-45200000D01*
X133970000Y-45200000D01*
X133970000Y-45199398D01*
G37*
G36*
X134770000Y-43700000D02*
G01*
X135270000Y-43700000D01*
X135270000Y-43700602D01*
X135294534Y-43700602D01*
X135343365Y-43705412D01*
X135391490Y-43714984D01*
X135438445Y-43729228D01*
X135483778Y-43748005D01*
X135527051Y-43771136D01*
X135567850Y-43798396D01*
X135605779Y-43829524D01*
X135640476Y-43864221D01*
X135671604Y-43902150D01*
X135698864Y-43942949D01*
X135721995Y-43986222D01*
X135740772Y-44031555D01*
X135755016Y-44078510D01*
X135764588Y-44126635D01*
X135769398Y-44175466D01*
X135769398Y-44200000D01*
X135770000Y-44200000D01*
X135770000Y-44700000D01*
X135769398Y-44700000D01*
X135769398Y-44724534D01*
X135764588Y-44773365D01*
X135755016Y-44821490D01*
X135740772Y-44868445D01*
X135721995Y-44913778D01*
X135698864Y-44957051D01*
X135671604Y-44997850D01*
X135640476Y-45035779D01*
X135605779Y-45070476D01*
X135567850Y-45101604D01*
X135527051Y-45128864D01*
X135483778Y-45151995D01*
X135438445Y-45170772D01*
X135391490Y-45185016D01*
X135343365Y-45194588D01*
X135294534Y-45199398D01*
X135270000Y-45199398D01*
X135270000Y-45200000D01*
X134770000Y-45200000D01*
X134770000Y-43700000D01*
G37*
D15*
X125250000Y-129200000D03*
X134750000Y-129200000D03*
D16*
X127500000Y-132500000D03*
X130000000Y-132500000D03*
X132500000Y-132500000D03*
X127500000Y-135000000D03*
X130000000Y-135000000D03*
X132500000Y-135000000D03*
G36*
G01*
X68275000Y-42150000D02*
X69725000Y-42150000D01*
G75*
G02*
X69975000Y-42400000I0J-250000D01*
G01*
X69975000Y-43600000D01*
G75*
G02*
X69725000Y-43850000I-250000J0D01*
G01*
X68275000Y-43850000D01*
G75*
G02*
X68025000Y-43600000I0J250000D01*
G01*
X68025000Y-42400000D01*
G75*
G02*
X68275000Y-42150000I250000J0D01*
G01*
G37*
D17*
X69000000Y-45500000D03*
X69000000Y-48000000D03*
D18*
X77500000Y-80500000D03*
D19*
X82500000Y-80500000D03*
D20*
X80500000Y-80500000D03*
D18*
X74000000Y-86360000D03*
D19*
X79000000Y-86360000D03*
D20*
X77000000Y-86360000D03*
D16*
X92500000Y-135000000D03*
X90000000Y-135000000D03*
X87500000Y-135000000D03*
X92500000Y-132500000D03*
X90000000Y-132500000D03*
X87500000Y-132500000D03*
D15*
X94750000Y-129200000D03*
X85250000Y-129200000D03*
G36*
G01*
X130275000Y-42150000D02*
X131725000Y-42150000D01*
G75*
G02*
X131975000Y-42400000I0J-250000D01*
G01*
X131975000Y-43600000D01*
G75*
G02*
X131725000Y-43850000I-250000J0D01*
G01*
X130275000Y-43850000D01*
G75*
G02*
X130025000Y-43600000I0J250000D01*
G01*
X130025000Y-42400000D01*
G75*
G02*
X130275000Y-42150000I250000J0D01*
G01*
G37*
D17*
X131000000Y-45500000D03*
X131000000Y-48000000D03*
X100000000Y-48000000D03*
X100000000Y-45500000D03*
G36*
G01*
X99275000Y-42150000D02*
X100725000Y-42150000D01*
G75*
G02*
X100975000Y-42400000I0J-250000D01*
G01*
X100975000Y-43600000D01*
G75*
G02*
X100725000Y-43850000I-250000J0D01*
G01*
X99275000Y-43850000D01*
G75*
G02*
X99025000Y-43600000I0J250000D01*
G01*
X99025000Y-42400000D01*
G75*
G02*
X99275000Y-42150000I250000J0D01*
G01*
G37*
D20*
X96520000Y-67310000D03*
D19*
X96520000Y-65310000D03*
X113665000Y-64040000D03*
D20*
X113665000Y-66040000D03*
X128270000Y-67310000D03*
D19*
X128270000Y-65310000D03*
X144145000Y-63405000D03*
D20*
X144145000Y-65405000D03*
D19*
X56769000Y-74154000D03*
D20*
X56769000Y-79154000D03*
X74094340Y-97406460D03*
D19*
X74094340Y-92406460D03*
D21*
X52705000Y-54040000D03*
D22*
X52705000Y-51500000D03*
D23*
X92500000Y-44000000D03*
D24*
X92500000Y-48000000D03*
D25*
X88250000Y-40450000D03*
X96750000Y-40450000D03*
G36*
G01*
X142660000Y-108931000D02*
X142660000Y-107731000D01*
G75*
G02*
X142910000Y-107481000I250000J0D01*
G01*
X144110000Y-107481000D01*
G75*
G02*
X144360000Y-107731000I0J-250000D01*
G01*
X144360000Y-108931000D01*
G75*
G02*
X144110000Y-109181000I-250000J0D01*
G01*
X142910000Y-109181000D01*
G75*
G02*
X142660000Y-108931000I0J250000D01*
G01*
G37*
D26*
X143510000Y-110871000D03*
X143510000Y-113411000D03*
X143510000Y-115951000D03*
X143510000Y-118491000D03*
X146050000Y-108331000D03*
X146050000Y-110871000D03*
X146050000Y-113411000D03*
X146050000Y-115951000D03*
X146050000Y-118491000D03*
D23*
X108000000Y-44000000D03*
D24*
X108000000Y-48000000D03*
D25*
X103750000Y-40450000D03*
X112250000Y-40450000D03*
X81250000Y-40450000D03*
X72750000Y-40450000D03*
D24*
X77000000Y-48000000D03*
D23*
X77000000Y-44000000D03*
D25*
X127750000Y-40450000D03*
X119250000Y-40450000D03*
D24*
X123500000Y-48000000D03*
D23*
X123500000Y-44000000D03*
X139000000Y-44000000D03*
D24*
X139000000Y-48000000D03*
D25*
X134750000Y-40450000D03*
X143250000Y-40450000D03*
D27*
X56800000Y-51000000D03*
X61500000Y-48000000D03*
X61500000Y-54000000D03*
D22*
X117560000Y-91440000D03*
D21*
X120100000Y-91440000D03*
D22*
X118367000Y-106103000D03*
D21*
X115827000Y-106103000D03*
X113287000Y-106103000D03*
D28*
X137240000Y-126010000D03*
D29*
X138500000Y-128500000D03*
X143000000Y-128500000D03*
D28*
X144250000Y-126010000D03*
D30*
X55197056Y-44802944D03*
X53500000Y-44100000D03*
X51802944Y-44802944D03*
X51100000Y-46500000D03*
X51802944Y-48197056D03*
X53500000Y-48900000D03*
X55197056Y-48197056D03*
X55900000Y-46500000D03*
D31*
X53500000Y-46500000D03*
D15*
X65250000Y-129200000D03*
X74750000Y-129200000D03*
D16*
X67500000Y-132500000D03*
X70000000Y-132500000D03*
X72500000Y-132500000D03*
X67500000Y-135000000D03*
X70000000Y-135000000D03*
X72500000Y-135000000D03*
D15*
X105250000Y-129200000D03*
X114750000Y-129200000D03*
D16*
X107500000Y-132500000D03*
X110000000Y-132500000D03*
X112500000Y-132500000D03*
X107500000Y-135000000D03*
X110000000Y-135000000D03*
X112500000Y-135000000D03*
D32*
X53000000Y-130500000D03*
D33*
X53000000Y-127960000D03*
X53000000Y-125420000D03*
X53000000Y-135580000D03*
X147000000Y-135580000D03*
X147000000Y-125420000D03*
X147000000Y-127960000D03*
D32*
X147000000Y-130500000D03*
G36*
G01*
X142660000Y-87087000D02*
X142660000Y-85887000D01*
G75*
G02*
X142910000Y-85637000I250000J0D01*
G01*
X144110000Y-85637000D01*
G75*
G02*
X144360000Y-85887000I0J-250000D01*
G01*
X144360000Y-87087000D01*
G75*
G02*
X144110000Y-87337000I-250000J0D01*
G01*
X142910000Y-87337000D01*
G75*
G02*
X142660000Y-87087000I0J250000D01*
G01*
G37*
D26*
X143510000Y-89027000D03*
X143510000Y-91567000D03*
X143510000Y-94107000D03*
X143510000Y-96647000D03*
X146050000Y-86487000D03*
X146050000Y-89027000D03*
X146050000Y-91567000D03*
X146050000Y-94107000D03*
X146050000Y-96647000D03*
D31*
X60000000Y-134000000D03*
X140000000Y-134000000D03*
X147000000Y-46500000D03*
D20*
X69850000Y-120904000D03*
D19*
X72350000Y-120904000D03*
D20*
X81000000Y-58000000D03*
D19*
X81000000Y-56000000D03*
D18*
X81000000Y-61000000D03*
X70000000Y-61000000D03*
D19*
X70000000Y-56000000D03*
D20*
X70000000Y-58000000D03*
G36*
G01*
X64870000Y-60654999D02*
X64870000Y-62345001D01*
G75*
G02*
X64620001Y-62595000I-249999J0D01*
G01*
X63379999Y-62595000D01*
G75*
G02*
X63130000Y-62345001I0J249999D01*
G01*
X63130000Y-60654999D01*
G75*
G02*
X63379999Y-60405000I249999J0D01*
G01*
X64620001Y-60405000D01*
G75*
G02*
X64870000Y-60654999I0J-249999D01*
G01*
G37*
D34*
X61460000Y-61500000D03*
D22*
X115500000Y-52500000D03*
D21*
X115500000Y-55040000D03*
X115500000Y-57580000D03*
D20*
X64068960Y-72689720D03*
D19*
X64068960Y-67689720D03*
D22*
X110000000Y-125000000D03*
D21*
X107460000Y-125000000D03*
X104920000Y-125000000D03*
X102380000Y-125000000D03*
X99840000Y-125000000D03*
X97300000Y-125000000D03*
X94760000Y-125000000D03*
M02*
