M48
; DRILL file {KiCad (5.1.9-0-10_14)} date Sunday, January 16, 2022 at 01:14:57 AM
; FORMAT={-:-/ absolute / metric / decimal}
; #@! TF.CreationDate,2022-01-16T01:14:57+09:00
; #@! TF.GenerationSoftware,Kicad,Pcbnew,(5.1.9-0-10_14)
FMAT,2
METRIC
T1C0.400
T2C0.500
T3C0.600
T4C0.762
T5C0.800
T6C0.950
T7C0.990
T8C1.000
T9C1.090
T10C1.190
T11C1.300
T12C2.100
T13C3.200
T14C1.800
%
G90
G05
T1
X53.2Y-72.6
X56.388Y-123.698
X57.2Y-112.0
X63.833Y-99.041
X73.0Y-63.0
X74.93Y-66.04
X75.75Y-64.5
X75.8Y-56.8
X77.47Y-102.123
X78.6Y-63.0
X78.74Y-106.68
X79.0Y-73.5
X79.375Y-123.19
X81.5Y-85.2
X81.757Y-104.394
X81.759Y-107.027
X84.0Y-76.5
X84.0Y-97.0
X84.746Y-74.639
X85.0Y-115.0
X85.5Y-94.5
X85.725Y-119.38
X86.36Y-44.45
X86.4Y-81.6
X86.434Y-74.3
X86.898Y-60.376
X87.523Y-98.013
X87.6Y-83.5
X87.63Y-106.68
X87.749Y-105.07
X87.9Y-65.85
X88.9Y-58.42
X90.025Y-111.854
X90.043Y-94.615
X90.241Y-105.105
X90.256Y-103.241
X90.279Y-108.703
X90.587Y-113.21
X91.435Y-121.793
X91.564Y-98.682
X91.587Y-85.745
X92.006Y-59.926
X92.202Y-122.936
X92.37Y-113.233
X92.466Y-99.113
X92.817Y-103.924
X92.837Y-91.948
X92.906Y-106.75
X93.386Y-113.883
X93.98Y-68.58
X95.046Y-120.15
X95.174Y-101.76
X95.816Y-93.805
X96.232Y-94.869
X96.35Y-91.374
X96.774Y-109.982
X97.111Y-108.205
X97.155Y-83.82
X97.79Y-69.215
X97.79Y-109.22
X97.867Y-110.566
X98.198Y-89.922
X99.479Y-93.988
X99.555Y-52.159
X99.555Y-54.694
X99.634Y-106.403
X99.822Y-129.54
X100.717Y-80.258
X100.965Y-53.975
X100.97Y-106.375
X101.018Y-84.455
X101.092Y-88.265
X102.489Y-74.93
X104.889Y-90.696
X105.17Y-79.73
X105.882Y-83.122
X107.315Y-60.325
X110.49Y-59.055
X110.49Y-64.135
X111.684Y-84.455
X112.5Y-125.5
X116.142Y-116.693
X116.205Y-61.595
X116.599Y-102.674
X116.652Y-111.013
X117.2Y-74.0
X118.13Y-65.766
X118.483Y-113.637
X118.745Y-116.84
X120.015Y-57.785
X121.183Y-116.807
X121.836Y-137.508
X121.92Y-95.885
X122.735Y-120.213
X123.096Y-106.037
X123.495Y-60.046
X124.785Y-81.402
X124.803Y-116.434
X125.095Y-91.44
X126.492Y-115.824
X127.0Y-63.5
X127.399Y-108.209
X127.409Y-111.125
X127.412Y-120.412
X128.905Y-62.865
X130.376Y-96.004
X132.715Y-99.06
X132.715Y-111.125
X133.477Y-74.93
X134.757Y-75.712
X135.255Y-52.07
X137.16Y-68.58
X139.065Y-81.28
X139.525Y-59.197
X139.7Y-90.17
X140.335Y-124.46
X140.97Y-127.635
T2
X51.1Y-46.5
X51.803Y-44.803
X51.803Y-48.197
X53.5Y-44.1
X53.5Y-48.9
X55.197Y-44.803
X55.197Y-48.197
X55.9Y-46.5
T3
X53.086Y-104.681
X53.975Y-63.025
X53.975Y-64.295
X56.769Y-121.826
X62.23Y-82.71
X62.23Y-83.98
X62.23Y-85.25
X62.23Y-86.52
X62.23Y-87.79
X69.041Y-89.695
X102.049Y-119.741
X102.235Y-102.235
X104.77Y-104.714
X110.485Y-106.619
T4
X70.0Y-61.0
X74.0Y-88.5
X77.5Y-80.5
X81.0Y-61.0
T5
X54.61Y-82.075
X54.61Y-83.98
X54.61Y-85.885
X54.61Y-87.79
X54.61Y-89.695
X56.515Y-82.075
X56.515Y-83.98
X56.515Y-85.885
X56.515Y-87.79
X56.515Y-89.695
X56.642Y-93.425
X56.642Y-98.425
X56.769Y-74.154
X56.769Y-79.154
X58.42Y-82.075
X58.42Y-89.695
X60.198Y-126.492
X60.325Y-80.805
X60.325Y-89.695
X64.0Y-67.9
X64.0Y-72.9
X67.945Y-79.535
X67.945Y-81.44
X67.945Y-83.345
X69.85Y-81.44
X69.85Y-83.345
X69.85Y-85.25
X69.85Y-104.3
X69.85Y-120.904
X70.0Y-56.0
X70.0Y-58.0
X71.12Y-96.68
X72.35Y-120.904
X72.898Y-107.95
X72.898Y-111.76
X75.946Y-112.014
X77.0Y-88.5
X77.47Y-107.696
X79.0Y-88.5
X80.5Y-80.5
X80.749Y-108.753
X81.0Y-56.0
X81.0Y-58.0
X81.788Y-112.522
X82.5Y-80.5
X86.403Y-109.931
X91.885Y-108.128
X96.52Y-65.31
X96.52Y-67.31
X113.665Y-64.04
X113.665Y-66.04
X122.936Y-125.73
X128.27Y-65.31
X128.27Y-67.31
X144.145Y-63.405
X144.145Y-65.405
T6
X69.0Y-43.0
X69.0Y-45.5
X69.0Y-48.0
X100.0Y-43.0
X100.0Y-45.5
X100.0Y-48.0
X131.0Y-43.0
X131.0Y-45.5
X131.0Y-48.0
T7
X138.5Y-128.5
X143.0Y-128.5
T8
X52.705Y-51.5
X52.705Y-54.04
X67.5Y-132.5
X67.5Y-135.0
X70.0Y-132.5
X70.0Y-135.0
X72.5Y-132.5
X72.5Y-135.0
X87.5Y-132.5
X87.5Y-135.0
X90.0Y-132.5
X90.0Y-135.0
X92.5Y-132.5
X92.5Y-135.0
X97.3Y-125.0
X99.84Y-125.0
X102.38Y-125.0
X104.92Y-125.0
X107.46Y-125.0
X107.5Y-132.5
X107.5Y-135.0
X110.0Y-125.0
X110.0Y-132.5
X110.0Y-135.0
X112.5Y-132.5
X112.5Y-135.0
X113.287Y-106.103
X115.5Y-52.5
X115.5Y-55.04
X115.5Y-57.58
X115.827Y-106.103
X117.56Y-91.44
X118.367Y-106.103
X120.1Y-91.44
X127.5Y-132.5
X127.5Y-135.0
X130.0Y-132.5
X130.0Y-135.0
X132.5Y-132.5
X132.5Y-135.0
X143.51Y-86.487
X143.51Y-89.027
X143.51Y-91.567
X143.51Y-94.107
X143.51Y-96.647
X143.51Y-108.331
X143.51Y-110.871
X143.51Y-113.411
X143.51Y-115.951
X143.51Y-118.491
X146.05Y-86.487
X146.05Y-89.027
X146.05Y-91.567
X146.05Y-94.107
X146.05Y-96.647
X146.05Y-108.331
X146.05Y-110.871
X146.05Y-113.411
X146.05Y-115.951
X146.05Y-118.491
T9
X53.0Y-125.42
X53.0Y-127.96
X53.0Y-130.5
X53.0Y-135.58
X147.0Y-125.42
X147.0Y-127.96
X147.0Y-130.5
X147.0Y-135.58
T10
X61.46Y-61.5
X64.0Y-61.5
T11
X137.24Y-126.01
X144.25Y-126.01
T12
X65.25Y-129.2
X74.75Y-129.2
X85.25Y-129.2
X94.75Y-129.2
X105.25Y-129.2
X114.75Y-129.2
X125.25Y-129.2
X134.75Y-129.2
T13
X53.5Y-46.5
X60.0Y-134.0
X140.0Y-134.0
X147.0Y-46.5
T8
G00X56.8Y-50.0
M15
G01X56.8Y-52.0
M16
G05
G00X62.5Y-48.0
M15
G01X60.5Y-48.0
M16
G05
G00X62.5Y-54.0
M15
G01X60.5Y-54.0
M16
G05
G00X77.0Y-48.75
M15
G01X77.0Y-47.25
M16
G05
G00X92.5Y-48.75
M15
G01X92.5Y-47.25
M16
G05
G00X108.0Y-48.75
M15
G01X108.0Y-47.25
M16
G05
G00X123.5Y-48.75
M15
G01X123.5Y-47.25
M16
G05
G00X139.0Y-48.75
M15
G01X139.0Y-47.25
M16
G05
T11
G00X76.4Y-44.0
M15
G01X77.6Y-44.0
M16
G05
G00X91.9Y-44.0
M15
G01X93.1Y-44.0
M16
G05
G00X107.4Y-44.0
M15
G01X108.6Y-44.0
M16
G05
G00X122.9Y-44.0
M15
G01X124.1Y-44.0
M16
G05
G00X138.4Y-44.0
M15
G01X139.6Y-44.0
M16
G05
T14
G00X72.75Y-40.0
M15
G01X72.75Y-40.9
M16
G05
G00X81.25Y-40.0
M15
G01X81.25Y-40.9
M16
G05
G00X88.25Y-40.0
M15
G01X88.25Y-40.9
M16
G05
G00X96.75Y-40.0
M15
G01X96.75Y-40.9
M16
G05
G00X103.75Y-40.0
M15
G01X103.75Y-40.9
M16
G05
G00X112.25Y-40.0
M15
G01X112.25Y-40.9
M16
G05
G00X119.25Y-40.0
M15
G01X119.25Y-40.9
M16
G05
G00X127.75Y-40.0
M15
G01X127.75Y-40.9
M16
G05
G00X134.75Y-40.0
M15
G01X134.75Y-40.9
M16
G05
G00X143.25Y-40.0
M15
G01X143.25Y-40.9
M16
G05
T0
M30
