G04 #@! TF.GenerationSoftware,KiCad,Pcbnew,(5.1.9-0-10_14)*
G04 #@! TF.CreationDate,2022-05-18T00:48:24+09:00*
G04 #@! TF.ProjectId,FreeDSP_Catamaran,46726565-4453-4505-9f43-6174616d6172,rev?*
G04 #@! TF.SameCoordinates,Original*
G04 #@! TF.FileFunction,Soldermask,Bot*
G04 #@! TF.FilePolarity,Negative*
%FSLAX46Y46*%
G04 Gerber Fmt 4.6, Leading zero omitted, Abs format (unit mm)*
G04 Created by KiCad (PCBNEW (5.1.9-0-10_14)) date 2022-05-18 00:48:24*
%MOMM*%
%LPD*%
G01*
G04 APERTURE LIST*
%ADD10C,0.100000*%
%ADD11C,4.200000*%
%ADD12C,1.800000*%
%ADD13O,1.950000X1.700000*%
%ADD14R,1.524000X1.524000*%
%ADD15C,1.600000*%
%ADD16R,1.600000X1.600000*%
%ADD17O,1.700000X1.700000*%
%ADD18R,1.700000X1.700000*%
%ADD19R,5.000000X3.000000*%
%ADD20R,3.000000X4.000000*%
%ADD21O,1.800000X2.700000*%
%ADD22C,1.700000*%
%ADD23R,3.500000X3.500000*%
%ADD24C,2.100000*%
%ADD25C,1.750000*%
%ADD26C,0.800000*%
%ADD27C,6.400000*%
%ADD28R,1.635000X1.635000*%
%ADD29C,1.635000*%
%ADD30O,1.740000X2.190000*%
G04 APERTURE END LIST*
D10*
G36*
X73150000Y-43750602D02*
G01*
X73174534Y-43750602D01*
X73223365Y-43755412D01*
X73271490Y-43764984D01*
X73318445Y-43779228D01*
X73363778Y-43798005D01*
X73407051Y-43821136D01*
X73447850Y-43848396D01*
X73485779Y-43879524D01*
X73520476Y-43914221D01*
X73551604Y-43952150D01*
X73578864Y-43992949D01*
X73601995Y-44036222D01*
X73620772Y-44081555D01*
X73635016Y-44128510D01*
X73644588Y-44176635D01*
X73649398Y-44225466D01*
X73649398Y-44250000D01*
X73650000Y-44250000D01*
X73650000Y-44750000D01*
X73649398Y-44750000D01*
X73649398Y-44774534D01*
X73644588Y-44823365D01*
X73635016Y-44871490D01*
X73620772Y-44918445D01*
X73601995Y-44963778D01*
X73578864Y-45007051D01*
X73551604Y-45047850D01*
X73520476Y-45085779D01*
X73485779Y-45120476D01*
X73447850Y-45151604D01*
X73407051Y-45178864D01*
X73363778Y-45201995D01*
X73318445Y-45220772D01*
X73271490Y-45235016D01*
X73223365Y-45244588D01*
X73174534Y-45249398D01*
X73150000Y-45249398D01*
X73150000Y-45250000D01*
X72650000Y-45250000D01*
X72650000Y-43750000D01*
X73150000Y-43750000D01*
X73150000Y-43750602D01*
G37*
G36*
X72350000Y-45250000D02*
G01*
X71850000Y-45250000D01*
X71850000Y-45249398D01*
X71825466Y-45249398D01*
X71776635Y-45244588D01*
X71728510Y-45235016D01*
X71681555Y-45220772D01*
X71636222Y-45201995D01*
X71592949Y-45178864D01*
X71552150Y-45151604D01*
X71514221Y-45120476D01*
X71479524Y-45085779D01*
X71448396Y-45047850D01*
X71421136Y-45007051D01*
X71398005Y-44963778D01*
X71379228Y-44918445D01*
X71364984Y-44871490D01*
X71355412Y-44823365D01*
X71350602Y-44774534D01*
X71350602Y-44750000D01*
X71350000Y-44750000D01*
X71350000Y-44250000D01*
X71350602Y-44250000D01*
X71350602Y-44225466D01*
X71355412Y-44176635D01*
X71364984Y-44128510D01*
X71379228Y-44081555D01*
X71398005Y-44036222D01*
X71421136Y-43992949D01*
X71448396Y-43952150D01*
X71479524Y-43914221D01*
X71514221Y-43879524D01*
X71552150Y-43848396D01*
X71592949Y-43821136D01*
X71636222Y-43798005D01*
X71681555Y-43779228D01*
X71728510Y-43764984D01*
X71776635Y-43755412D01*
X71825466Y-43750602D01*
X71850000Y-43750602D01*
X71850000Y-43750000D01*
X72350000Y-43750000D01*
X72350000Y-45250000D01*
G37*
G36*
X87350000Y-45249398D02*
G01*
X87325466Y-45249398D01*
X87276635Y-45244588D01*
X87228510Y-45235016D01*
X87181555Y-45220772D01*
X87136222Y-45201995D01*
X87092949Y-45178864D01*
X87052150Y-45151604D01*
X87014221Y-45120476D01*
X86979524Y-45085779D01*
X86948396Y-45047850D01*
X86921136Y-45007051D01*
X86898005Y-44963778D01*
X86879228Y-44918445D01*
X86864984Y-44871490D01*
X86855412Y-44823365D01*
X86850602Y-44774534D01*
X86850602Y-44750000D01*
X86850000Y-44750000D01*
X86850000Y-44250000D01*
X86850602Y-44250000D01*
X86850602Y-44225466D01*
X86855412Y-44176635D01*
X86864984Y-44128510D01*
X86879228Y-44081555D01*
X86898005Y-44036222D01*
X86921136Y-43992949D01*
X86948396Y-43952150D01*
X86979524Y-43914221D01*
X87014221Y-43879524D01*
X87052150Y-43848396D01*
X87092949Y-43821136D01*
X87136222Y-43798005D01*
X87181555Y-43779228D01*
X87228510Y-43764984D01*
X87276635Y-43755412D01*
X87325466Y-43750602D01*
X87350000Y-43750602D01*
X87350000Y-43750000D01*
X87850000Y-43750000D01*
X87850000Y-45250000D01*
X87350000Y-45250000D01*
X87350000Y-45249398D01*
G37*
G36*
X88150000Y-43750000D02*
G01*
X88650000Y-43750000D01*
X88650000Y-43750602D01*
X88674534Y-43750602D01*
X88723365Y-43755412D01*
X88771490Y-43764984D01*
X88818445Y-43779228D01*
X88863778Y-43798005D01*
X88907051Y-43821136D01*
X88947850Y-43848396D01*
X88985779Y-43879524D01*
X89020476Y-43914221D01*
X89051604Y-43952150D01*
X89078864Y-43992949D01*
X89101995Y-44036222D01*
X89120772Y-44081555D01*
X89135016Y-44128510D01*
X89144588Y-44176635D01*
X89149398Y-44225466D01*
X89149398Y-44250000D01*
X89150000Y-44250000D01*
X89150000Y-44750000D01*
X89149398Y-44750000D01*
X89149398Y-44774534D01*
X89144588Y-44823365D01*
X89135016Y-44871490D01*
X89120772Y-44918445D01*
X89101995Y-44963778D01*
X89078864Y-45007051D01*
X89051604Y-45047850D01*
X89020476Y-45085779D01*
X88985779Y-45120476D01*
X88947850Y-45151604D01*
X88907051Y-45178864D01*
X88863778Y-45201995D01*
X88818445Y-45220772D01*
X88771490Y-45235016D01*
X88723365Y-45244588D01*
X88674534Y-45249398D01*
X88650000Y-45249398D01*
X88650000Y-45250000D01*
X88150000Y-45250000D01*
X88150000Y-43750000D01*
G37*
G36*
X102855000Y-45249398D02*
G01*
X102830466Y-45249398D01*
X102781635Y-45244588D01*
X102733510Y-45235016D01*
X102686555Y-45220772D01*
X102641222Y-45201995D01*
X102597949Y-45178864D01*
X102557150Y-45151604D01*
X102519221Y-45120476D01*
X102484524Y-45085779D01*
X102453396Y-45047850D01*
X102426136Y-45007051D01*
X102403005Y-44963778D01*
X102384228Y-44918445D01*
X102369984Y-44871490D01*
X102360412Y-44823365D01*
X102355602Y-44774534D01*
X102355602Y-44750000D01*
X102355000Y-44750000D01*
X102355000Y-44250000D01*
X102355602Y-44250000D01*
X102355602Y-44225466D01*
X102360412Y-44176635D01*
X102369984Y-44128510D01*
X102384228Y-44081555D01*
X102403005Y-44036222D01*
X102426136Y-43992949D01*
X102453396Y-43952150D01*
X102484524Y-43914221D01*
X102519221Y-43879524D01*
X102557150Y-43848396D01*
X102597949Y-43821136D01*
X102641222Y-43798005D01*
X102686555Y-43779228D01*
X102733510Y-43764984D01*
X102781635Y-43755412D01*
X102830466Y-43750602D01*
X102855000Y-43750602D01*
X102855000Y-43750000D01*
X103355000Y-43750000D01*
X103355000Y-45250000D01*
X102855000Y-45250000D01*
X102855000Y-45249398D01*
G37*
G36*
X103655000Y-43750000D02*
G01*
X104155000Y-43750000D01*
X104155000Y-43750602D01*
X104179534Y-43750602D01*
X104228365Y-43755412D01*
X104276490Y-43764984D01*
X104323445Y-43779228D01*
X104368778Y-43798005D01*
X104412051Y-43821136D01*
X104452850Y-43848396D01*
X104490779Y-43879524D01*
X104525476Y-43914221D01*
X104556604Y-43952150D01*
X104583864Y-43992949D01*
X104606995Y-44036222D01*
X104625772Y-44081555D01*
X104640016Y-44128510D01*
X104649588Y-44176635D01*
X104654398Y-44225466D01*
X104654398Y-44250000D01*
X104655000Y-44250000D01*
X104655000Y-44750000D01*
X104654398Y-44750000D01*
X104654398Y-44774534D01*
X104649588Y-44823365D01*
X104640016Y-44871490D01*
X104625772Y-44918445D01*
X104606995Y-44963778D01*
X104583864Y-45007051D01*
X104556604Y-45047850D01*
X104525476Y-45085779D01*
X104490779Y-45120476D01*
X104452850Y-45151604D01*
X104412051Y-45178864D01*
X104368778Y-45201995D01*
X104323445Y-45220772D01*
X104276490Y-45235016D01*
X104228365Y-45244588D01*
X104179534Y-45249398D01*
X104155000Y-45249398D01*
X104155000Y-45250000D01*
X103655000Y-45250000D01*
X103655000Y-43750000D01*
G37*
G36*
X118350000Y-45249398D02*
G01*
X118325466Y-45249398D01*
X118276635Y-45244588D01*
X118228510Y-45235016D01*
X118181555Y-45220772D01*
X118136222Y-45201995D01*
X118092949Y-45178864D01*
X118052150Y-45151604D01*
X118014221Y-45120476D01*
X117979524Y-45085779D01*
X117948396Y-45047850D01*
X117921136Y-45007051D01*
X117898005Y-44963778D01*
X117879228Y-44918445D01*
X117864984Y-44871490D01*
X117855412Y-44823365D01*
X117850602Y-44774534D01*
X117850602Y-44750000D01*
X117850000Y-44750000D01*
X117850000Y-44250000D01*
X117850602Y-44250000D01*
X117850602Y-44225466D01*
X117855412Y-44176635D01*
X117864984Y-44128510D01*
X117879228Y-44081555D01*
X117898005Y-44036222D01*
X117921136Y-43992949D01*
X117948396Y-43952150D01*
X117979524Y-43914221D01*
X118014221Y-43879524D01*
X118052150Y-43848396D01*
X118092949Y-43821136D01*
X118136222Y-43798005D01*
X118181555Y-43779228D01*
X118228510Y-43764984D01*
X118276635Y-43755412D01*
X118325466Y-43750602D01*
X118350000Y-43750602D01*
X118350000Y-43750000D01*
X118850000Y-43750000D01*
X118850000Y-45250000D01*
X118350000Y-45250000D01*
X118350000Y-45249398D01*
G37*
G36*
X119150000Y-43750000D02*
G01*
X119650000Y-43750000D01*
X119650000Y-43750602D01*
X119674534Y-43750602D01*
X119723365Y-43755412D01*
X119771490Y-43764984D01*
X119818445Y-43779228D01*
X119863778Y-43798005D01*
X119907051Y-43821136D01*
X119947850Y-43848396D01*
X119985779Y-43879524D01*
X120020476Y-43914221D01*
X120051604Y-43952150D01*
X120078864Y-43992949D01*
X120101995Y-44036222D01*
X120120772Y-44081555D01*
X120135016Y-44128510D01*
X120144588Y-44176635D01*
X120149398Y-44225466D01*
X120149398Y-44250000D01*
X120150000Y-44250000D01*
X120150000Y-44750000D01*
X120149398Y-44750000D01*
X120149398Y-44774534D01*
X120144588Y-44823365D01*
X120135016Y-44871490D01*
X120120772Y-44918445D01*
X120101995Y-44963778D01*
X120078864Y-45007051D01*
X120051604Y-45047850D01*
X120020476Y-45085779D01*
X119985779Y-45120476D01*
X119947850Y-45151604D01*
X119907051Y-45178864D01*
X119863778Y-45201995D01*
X119818445Y-45220772D01*
X119771490Y-45235016D01*
X119723365Y-45244588D01*
X119674534Y-45249398D01*
X119650000Y-45249398D01*
X119650000Y-45250000D01*
X119150000Y-45250000D01*
X119150000Y-43750000D01*
G37*
G36*
X133970000Y-45199398D02*
G01*
X133945466Y-45199398D01*
X133896635Y-45194588D01*
X133848510Y-45185016D01*
X133801555Y-45170772D01*
X133756222Y-45151995D01*
X133712949Y-45128864D01*
X133672150Y-45101604D01*
X133634221Y-45070476D01*
X133599524Y-45035779D01*
X133568396Y-44997850D01*
X133541136Y-44957051D01*
X133518005Y-44913778D01*
X133499228Y-44868445D01*
X133484984Y-44821490D01*
X133475412Y-44773365D01*
X133470602Y-44724534D01*
X133470602Y-44700000D01*
X133470000Y-44700000D01*
X133470000Y-44200000D01*
X133470602Y-44200000D01*
X133470602Y-44175466D01*
X133475412Y-44126635D01*
X133484984Y-44078510D01*
X133499228Y-44031555D01*
X133518005Y-43986222D01*
X133541136Y-43942949D01*
X133568396Y-43902150D01*
X133599524Y-43864221D01*
X133634221Y-43829524D01*
X133672150Y-43798396D01*
X133712949Y-43771136D01*
X133756222Y-43748005D01*
X133801555Y-43729228D01*
X133848510Y-43714984D01*
X133896635Y-43705412D01*
X133945466Y-43700602D01*
X133970000Y-43700602D01*
X133970000Y-43700000D01*
X134470000Y-43700000D01*
X134470000Y-45200000D01*
X133970000Y-45200000D01*
X133970000Y-45199398D01*
G37*
G36*
X134770000Y-43700000D02*
G01*
X135270000Y-43700000D01*
X135270000Y-43700602D01*
X135294534Y-43700602D01*
X135343365Y-43705412D01*
X135391490Y-43714984D01*
X135438445Y-43729228D01*
X135483778Y-43748005D01*
X135527051Y-43771136D01*
X135567850Y-43798396D01*
X135605779Y-43829524D01*
X135640476Y-43864221D01*
X135671604Y-43902150D01*
X135698864Y-43942949D01*
X135721995Y-43986222D01*
X135740772Y-44031555D01*
X135755016Y-44078510D01*
X135764588Y-44126635D01*
X135769398Y-44175466D01*
X135769398Y-44200000D01*
X135770000Y-44200000D01*
X135770000Y-44700000D01*
X135769398Y-44700000D01*
X135769398Y-44724534D01*
X135764588Y-44773365D01*
X135755016Y-44821490D01*
X135740772Y-44868445D01*
X135721995Y-44913778D01*
X135698864Y-44957051D01*
X135671604Y-44997850D01*
X135640476Y-45035779D01*
X135605779Y-45070476D01*
X135567850Y-45101604D01*
X135527051Y-45128864D01*
X135483778Y-45151995D01*
X135438445Y-45170772D01*
X135391490Y-45185016D01*
X135343365Y-45194588D01*
X135294534Y-45199398D01*
X135270000Y-45199398D01*
X135270000Y-45200000D01*
X134770000Y-45200000D01*
X134770000Y-43700000D01*
G37*
D11*
X125250000Y-129200000D03*
X134750000Y-129200000D03*
D12*
X127500000Y-132500000D03*
X130000000Y-132500000D03*
X132500000Y-132500000D03*
X127500000Y-135000000D03*
X130000000Y-135000000D03*
X132500000Y-135000000D03*
G36*
G01*
X68275000Y-42150000D02*
X69725000Y-42150000D01*
G75*
G02*
X69975000Y-42400000I0J-250000D01*
G01*
X69975000Y-43600000D01*
G75*
G02*
X69725000Y-43850000I-250000J0D01*
G01*
X68275000Y-43850000D01*
G75*
G02*
X68025000Y-43600000I0J250000D01*
G01*
X68025000Y-42400000D01*
G75*
G02*
X68275000Y-42150000I250000J0D01*
G01*
G37*
D13*
X69000000Y-45500000D03*
X69000000Y-48000000D03*
D14*
X77500000Y-80500000D03*
D15*
X82500000Y-80500000D03*
D16*
X80500000Y-80500000D03*
D14*
X74000000Y-86360000D03*
D15*
X79000000Y-86360000D03*
D16*
X77000000Y-86360000D03*
D12*
X92500000Y-135000000D03*
X90000000Y-135000000D03*
X87500000Y-135000000D03*
X92500000Y-132500000D03*
X90000000Y-132500000D03*
X87500000Y-132500000D03*
D11*
X94750000Y-129200000D03*
X85250000Y-129200000D03*
G36*
G01*
X130275000Y-42150000D02*
X131725000Y-42150000D01*
G75*
G02*
X131975000Y-42400000I0J-250000D01*
G01*
X131975000Y-43600000D01*
G75*
G02*
X131725000Y-43850000I-250000J0D01*
G01*
X130275000Y-43850000D01*
G75*
G02*
X130025000Y-43600000I0J250000D01*
G01*
X130025000Y-42400000D01*
G75*
G02*
X130275000Y-42150000I250000J0D01*
G01*
G37*
D13*
X131000000Y-45500000D03*
X131000000Y-48000000D03*
X100000000Y-48000000D03*
X100000000Y-45500000D03*
G36*
G01*
X99275000Y-42150000D02*
X100725000Y-42150000D01*
G75*
G02*
X100975000Y-42400000I0J-250000D01*
G01*
X100975000Y-43600000D01*
G75*
G02*
X100725000Y-43850000I-250000J0D01*
G01*
X99275000Y-43850000D01*
G75*
G02*
X99025000Y-43600000I0J250000D01*
G01*
X99025000Y-42400000D01*
G75*
G02*
X99275000Y-42150000I250000J0D01*
G01*
G37*
D16*
X96520000Y-67310000D03*
D15*
X96520000Y-65310000D03*
X113665000Y-64040000D03*
D16*
X113665000Y-66040000D03*
X128270000Y-67310000D03*
D15*
X128270000Y-65310000D03*
X144145000Y-63405000D03*
D16*
X144145000Y-65405000D03*
D15*
X56769000Y-74154000D03*
D16*
X56769000Y-79154000D03*
X74094340Y-97406460D03*
D15*
X74094340Y-92406460D03*
D17*
X52705000Y-54040000D03*
D18*
X52705000Y-51500000D03*
D19*
X92500000Y-44000000D03*
D20*
X92500000Y-48000000D03*
D21*
X88250000Y-40450000D03*
X96750000Y-40450000D03*
G36*
G01*
X142660000Y-108931000D02*
X142660000Y-107731000D01*
G75*
G02*
X142910000Y-107481000I250000J0D01*
G01*
X144110000Y-107481000D01*
G75*
G02*
X144360000Y-107731000I0J-250000D01*
G01*
X144360000Y-108931000D01*
G75*
G02*
X144110000Y-109181000I-250000J0D01*
G01*
X142910000Y-109181000D01*
G75*
G02*
X142660000Y-108931000I0J250000D01*
G01*
G37*
D22*
X143510000Y-110871000D03*
X143510000Y-113411000D03*
X143510000Y-115951000D03*
X143510000Y-118491000D03*
X146050000Y-108331000D03*
X146050000Y-110871000D03*
X146050000Y-113411000D03*
X146050000Y-115951000D03*
X146050000Y-118491000D03*
D19*
X108000000Y-44000000D03*
D20*
X108000000Y-48000000D03*
D21*
X103750000Y-40450000D03*
X112250000Y-40450000D03*
X81250000Y-40450000D03*
X72750000Y-40450000D03*
D20*
X77000000Y-48000000D03*
D19*
X77000000Y-44000000D03*
D21*
X127750000Y-40450000D03*
X119250000Y-40450000D03*
D20*
X123500000Y-48000000D03*
D19*
X123500000Y-44000000D03*
X139000000Y-44000000D03*
D20*
X139000000Y-48000000D03*
D21*
X134750000Y-40450000D03*
X143250000Y-40450000D03*
D23*
X56800000Y-51000000D03*
X61500000Y-48000000D03*
X61500000Y-54000000D03*
D18*
X117560000Y-91440000D03*
D17*
X120100000Y-91440000D03*
D18*
X118367000Y-106103000D03*
D17*
X115827000Y-106103000D03*
X113287000Y-106103000D03*
D24*
X137240000Y-126010000D03*
D25*
X138500000Y-128500000D03*
X143000000Y-128500000D03*
D24*
X144250000Y-126010000D03*
D26*
X55197056Y-44802944D03*
X53500000Y-44100000D03*
X51802944Y-44802944D03*
X51100000Y-46500000D03*
X51802944Y-48197056D03*
X53500000Y-48900000D03*
X55197056Y-48197056D03*
X55900000Y-46500000D03*
D27*
X53500000Y-46500000D03*
D11*
X65250000Y-129200000D03*
X74750000Y-129200000D03*
D12*
X67500000Y-132500000D03*
X70000000Y-132500000D03*
X72500000Y-132500000D03*
X67500000Y-135000000D03*
X70000000Y-135000000D03*
X72500000Y-135000000D03*
D11*
X105250000Y-129200000D03*
X114750000Y-129200000D03*
D12*
X107500000Y-132500000D03*
X110000000Y-132500000D03*
X112500000Y-132500000D03*
X107500000Y-135000000D03*
X110000000Y-135000000D03*
X112500000Y-135000000D03*
D28*
X53000000Y-130500000D03*
D29*
X53000000Y-127960000D03*
X53000000Y-125420000D03*
X53000000Y-135580000D03*
X147000000Y-135580000D03*
X147000000Y-125420000D03*
X147000000Y-127960000D03*
D28*
X147000000Y-130500000D03*
G36*
G01*
X142660000Y-87087000D02*
X142660000Y-85887000D01*
G75*
G02*
X142910000Y-85637000I250000J0D01*
G01*
X144110000Y-85637000D01*
G75*
G02*
X144360000Y-85887000I0J-250000D01*
G01*
X144360000Y-87087000D01*
G75*
G02*
X144110000Y-87337000I-250000J0D01*
G01*
X142910000Y-87337000D01*
G75*
G02*
X142660000Y-87087000I0J250000D01*
G01*
G37*
D22*
X143510000Y-89027000D03*
X143510000Y-91567000D03*
X143510000Y-94107000D03*
X143510000Y-96647000D03*
X146050000Y-86487000D03*
X146050000Y-89027000D03*
X146050000Y-91567000D03*
X146050000Y-94107000D03*
X146050000Y-96647000D03*
D27*
X60000000Y-134000000D03*
X140000000Y-134000000D03*
X147000000Y-46500000D03*
D16*
X69850000Y-120904000D03*
D15*
X72350000Y-120904000D03*
D16*
X81000000Y-58000000D03*
D15*
X81000000Y-56000000D03*
D14*
X81000000Y-61000000D03*
X70000000Y-61000000D03*
D15*
X70000000Y-56000000D03*
D16*
X70000000Y-58000000D03*
G36*
G01*
X64870000Y-60654999D02*
X64870000Y-62345001D01*
G75*
G02*
X64620001Y-62595000I-249999J0D01*
G01*
X63379999Y-62595000D01*
G75*
G02*
X63130000Y-62345001I0J249999D01*
G01*
X63130000Y-60654999D01*
G75*
G02*
X63379999Y-60405000I249999J0D01*
G01*
X64620001Y-60405000D01*
G75*
G02*
X64870000Y-60654999I0J-249999D01*
G01*
G37*
D30*
X61460000Y-61500000D03*
D18*
X115500000Y-52500000D03*
D17*
X115500000Y-55040000D03*
X115500000Y-57580000D03*
D16*
X64068960Y-72689720D03*
D15*
X64068960Y-67689720D03*
D18*
X110000000Y-125000000D03*
D17*
X107460000Y-125000000D03*
X104920000Y-125000000D03*
X102380000Y-125000000D03*
X99840000Y-125000000D03*
X97300000Y-125000000D03*
X94760000Y-125000000D03*
M02*
